<?xml version="1.0" encoding="UTF-8" standalone="no"?>
<svg
   xmlns:svg="http://www.w3.org/2000/svg"
   xmlns="http://www.w3.org/2000/svg"
   width="420.0"
   height="340.0"

>
    <g transform="scale(16.948160244140595, -16.948160244140595)   translate(3.4580414527086325,-11.765958269967507)" stroke-width="0.55"  fill="none">
       <!-- hidden lines -->
       <g  stroke="rgb(160,160,160)" fill="none" stroke-dasharray="0.55,0.55" >

       </g>

       <!-- solid lines -->
       <g  stroke="rgb(139,148,158)" fill="none">
			<path d="M-1.9445436482630052,1.0017346066809427 L-2.0376155947261383,0.9513751860332756 L-2.1257787467475273,0.898723819231831 L-2.2088207115717737,0.8439073480309472 L-2.2865414338319994,0.7870578301111032 L-2.358753677500748,0.7283122209403978 L-2.4252834769579756,0.6678120438368306 L-2.4859705560894687,0.6057030490262337 L-2.540668714406038,0.5421348625172115 L-2.589246179253306,0.4772606256389796 L-2.6315859232635734,0.4112366261104898 L-2.667585946284995,0.34422192152962555 L-2.6971595211088832,0.2763779561895157 L-2.720235402403148,0.2078681721450955 L-2.7367579983485415,0.13885761546687742 L-2.7466875045642243,0.06951253863050898 L-2.75,1.292951087217686e-14 " />
			<path d="M2.75,-1.734916298792084e-16 L2.7481365576179613,0.05214356583359134 L2.742548755866398,0.10421646509952834 L2.7332441675064794,0.15614812699966762 L2.720235402403148,0.20786817214509562 L2.703540090435845,0.2593065079364493 L2.6831808576059535,0.3103934235555656 L2.6591852953733435,0.3610596844397289 L2.6315859232635748,0.41123662611048806 L2.600420144796434,0.4608562472298721 L2.5657301967955326,0.5098513017578993 L2.527563092147659,0.5581553900864847 L2.4859705560894696,0.6057030490262327 L2.441008956107849,0.652429840524173 L2.3927392255489566,0.698272438992194 L2.3412267810394796,0.7431687171278308 L2.286541433832,0.787057830111103 L2.2287572951946366,0.8298802980632879 L2.167952675973168,0.8715780866558875 L2.1042099804617624,0.9120946857605379 L2.0376155947261383,0.9513751860332759 L1.9682597695305024,0.9893663533293778 L1.8962364980269344,1.0260167008479115 L1.821643388372973,1.0612765589082338 L1.7445815314500264,1.0950981422638773 L1.6651553638618974,1.1274356148625844 L1.5834725263990763,1.1582451519647432 L1.4996437181606286,1.1874849995360206 L1.4137825465313598,1.215115530833719 L1.326005373217587,1.2410993001101598 L1.236431156550169,1.2654010933603135 L1.1451812902685046,1.2879879760449064 L1.0523794390039984,1.3088293377243227 L0.9581513706859458,1.3278969335428146 L0.8626247860969538,1.3451649225068019 L0.6681954947339787,1.374210942025604 L0.47014519409082967,1.3958099933843335 L0.2695471359062937,1.409845029452279 L0.06748837843801152,1.4162399931529563 L-0.13493610440039858,1.4149602296239945 L-0.3366293567978429,1.4060126740148395 L-0.5364983855443504,1.389445813904577 L-0.7334600830559701,1.3653494265435402 L-0.9264470968286039,1.3338540923426132 L-1.0211222833675506,1.3153836140037227 L-1.1144136135137204,1.2951304872466691 L-1.20619465598095,1.2731221597331017 L-1.2963410262714934,1.2493884578268366 L-1.3847305552457239,1.223961546172248 L-1.4712434546895166,1.1968758841037521 L-1.5557624796549343,1.1681681789454534 L-1.6381730873541904,1.1378773362642478 L-1.718363592391562,1.106044407143801 L-1.796225318122886,1.0727125325508533 L-1.8716527439374968,1.0379268848692513 L-1.944543648262988,1.0017346066809516 " />
			<path d="M-1.9445436482630052,-1.5695627794519575 L-2.0376155947261383,-1.6199222000996247 L-2.1257787467475273,-1.6725735669010693 L-2.2088207115717737,-1.727390038101953 L-2.2865414338319994,-1.784239556021797 L-2.358753677500748,-1.8429851651925024 L-2.4252834769579756,-1.9034853422960696 L-2.4859705560894687,-1.9655943371066664 L-2.540668714406038,-2.029162523615689 L-2.589246179253306,-2.0940367604939207 L-2.6315859232635734,-2.1600607600224104 L-2.667585946284995,-2.2270754646032747 L-2.6971595211088832,-2.2949194299433846 L-2.720235402403148,-2.363429213987805 L-2.7367579983485415,-2.432439770666023 L-2.7466875045642243,-2.501784847502391 L-2.75,-2.5712973861328874 " />
			<path d="M-2.75,-2.5712973861329003 L-2.7466875045642243,-2.6408099247634094 L-2.7367579983485415,-2.710155001599778 L-2.7202354024031474,-2.779165558277996 L-2.6971595211088837,-2.8476753423224155 L-2.667585946284996,-2.9155193076625245 L-2.6315859232635743,-2.9825340122433888 L-2.589246179253307,-3.048558011771879 L-2.5406687144060385,-3.113432248650111 L-2.485970556089469,-3.1770004351591337 L-2.425283476957976,-3.2391094299697305 L-2.358753677500748,-3.299609607073298 L-2.2865414338319994,-3.3583552162440036 L-2.2088207115717737,-3.4152047341638476 L-2.1257787467475264,-3.4700212053647315 L-2.0376155947261374,-3.5226725721661767 L-1.9445436482630054,-3.573031992813843 L-1.8467871258293005,-3.620978147052426 L-1.744581531450025,-3.666395528396778 L-1.6381730873541918,-3.7091747223971474 L-1.5278181408039062,-3.749212670228173 L-1.4137825465313596,-3.7864129169666194 L-1.296341026271494,-3.820685843959737 L-1.175776506933276,-3.851948884724445 L-1.052379439003997,-3.8801267238572237 L-0.9264470968286052,-3.9051514784755135 L-0.7982828624497714,-3.92696286175353 L-0.668195494733976,-3.9455083281585046 L-0.5364983855443529,-3.960743200037477 L-0.4035088047522448,-3.972630775249674 L-0.2695471359062921,-3.9811424155851793 L-0.13493610440039985,-3.9862576157568945 L-1.6838893488276108e-16,-3.9879640527995672 L0.13493610440039952,-3.9862576157568945 L0.26954713590629176,-3.98114241558518 L0.4035088047522445,-3.972630775249674 L0.5364983855443526,-3.960743200037477 L0.6681954947339757,-3.9455083281585046 L0.798282862449771,-3.92696286175353 L0.9264470968286048,-3.9051514784755135 L1.0523794390039967,-3.8801267238572237 L1.1757765069332762,-3.851948884724445 L1.2963410262714936,-3.820685843959737 L1.4137825465313596,-3.7864129169666194 L1.5278181408039053,-3.7492126702281734 L1.6381730873541904,-3.709174722397148 L1.7445815314500248,-3.666395528396778 L1.8467871258293007,-3.620978147052426 L1.9445436482630054,-3.573031992813843 L2.037615594726137,-3.5226725721661767 L2.125778746747527,-3.4700212053647315 L2.2088207115717737,-3.415204734163847 L2.286541433832,-3.3583552162440036 L2.358753677500748,-3.299609607073298 L2.425283476957976,-3.239109429969731 L2.4859705560894687,-3.1770004351591337 L2.5406687144060385,-3.113432248650111 L2.589246179253307,-3.0485580117718785 L2.6315859232635743,-2.9825340122433888 L2.667585946284996,-2.9155193076625245 L2.6971595211088837,-2.847675342322416 L2.7202354024031474,-2.779165558277997 L2.736757998348541,-2.710155001599778 L2.7466875045642243,-2.640809924763409 L2.75,-2.571297386132907 " />
			<path d="M2.75,-2.5712973861329003 L2.7481365576179613,-2.519153820299309 L2.742548755866398,-2.467080921033372 L2.7332441675064794,-2.4151492591332326 L2.720235402403148,-2.363429213987805 L2.703540090435845,-2.311990878196451 L2.6831808576059535,-2.2609039625773346 L2.6591852953733435,-2.2102377016931714 L2.6315859232635748,-2.160060760022412 L2.600420144796434,-2.110441138903028 L2.5657301967955326,-2.061446084375001 L2.527563092147659,-2.0131419960464156 L2.4859705560894696,-1.9655943371066675 L2.441008956107849,-1.9188675456087272 L2.3927392255489566,-1.8730249471407063 L2.3412267810394796,-1.8281286690050695 L2.286541433832,-1.7842395560217974 L2.2287572951946366,-1.7414170880696123 L2.167952675973168,-1.6997192994770127 L2.1042099804617624,-1.6592027003723624 L2.0376155947261383,-1.6199222000996243 L1.9682597695305024,-1.5819310328035225 L1.8962364980269344,-1.5452806852849887 L1.821643388372973,-1.5100208272246665 L1.7445815314500264,-1.476199243869023 L1.6651553638618974,-1.443861771270316 L1.5834725263990763,-1.413052234168157 L1.4996437181606286,-1.3838123865968797 L1.4137825465313598,-1.3561818552991813 L1.326005373217587,-1.3301980860227405 L1.236431156550169,-1.3058962927725868 L1.1451812902685046,-1.2833094100879938 L1.0523794390039984,-1.2624680484085775 L0.9581513706859458,-1.2434004525900857 L0.8626247860969538,-1.2261324636260984 L0.6681954947339787,-1.1970864441072964 L0.47014519409082967,-1.1754873927485667 L0.2695471359062937,-1.1614523566806212 L0.06748837843801152,-1.155057392979944 L-0.13493610440039858,-1.1563371565089058 L-0.3366293567978429,-1.1652847121180607 L-0.5364983855443504,-1.1818515722283232 L-0.7334600830559701,-1.20594795958936 L-0.9264470968286039,-1.237443293790287 L-1.0211222833675506,-1.2559137721291775 L-1.1144136135137204,-1.2761668988862311 L-1.20619465598095,-1.2981752263997985 L-1.2963410262714934,-1.3219089283060637 L-1.3847305552457239,-1.3473358399606523 L-1.4712434546895166,-1.3744215020291481 L-1.5557624796549343,-1.4031292071874468 L-1.6381730873541904,-1.4334200498686525 L-1.718363592391562,-1.4652529789890993 L-1.796225318122886,-1.498584853582047 L-1.8716527439374968,-1.533370501263649 L-1.944543648262988,-1.5695627794519487 " />
			<path d="M-1.0206207261596574,-2.045523072656713 L-1.394193839563013,-2.7637441415225075 " />
			<path d="M-1.394193839563013,-2.7637441415225075 L-0.37357311340335586,-3.289518454998695 " />
			<path d="M-0.3735731134033559,-3.289518454998695 L1.0206207261596574,-3.0970716996090877 " />
			<path d="M1.0206207261596576,-3.0970716996090877 L1.3941938395630133,-2.378850630743293 " />
			<path d="M1.3941938395630131,-2.378850630743293 L0.37357311340335664,-1.8530763172671056 " />
			<path d="M0.3735731134033567,-1.8530763172671059 L-1.0206207261596574,-2.0455230726567133 " />
			<path d="M-1.060660171779821,10.831590239084843 L-1.1114266880324393,10.804121464186116 L-1.1595156800441058,10.775402536839872 L-1.2048112972209677,10.745502643457572 L-1.2472044184538178,10.714493815501294 L-1.286592915000408,10.682450755953637 L-1.3228818965225322,10.64945065935169 L-1.3559839396851647,10.615573025818637 L-1.3858192987669298,10.58089946954099 L-1.4123160977745308,10.545513522152863 L-1.435410503598313,10.509500431500959 L-1.4550468797918157,10.472946956275033 L-1.4711779206048454,10.43594115699861 L-1.4837647649471715,10.398572183883472 L-1.4927770900082953,10.360930062058989 L-1.4981931843077585,10.323105474693698 L-1.5,10.285189544531608 " />
			<path d="M1.5,10.285189544531601 L1.4989835768825244,10.313631489531742 L1.4959356850180354,10.342034889131344 L1.4837647649471715,10.398572183883472 L1.463553195057793,10.454495048289182 L1.4354105035983133,10.509500431500959 L1.3994891982521085,10.563290254581364 L1.3559839396851652,10.615573025818637 L1.3051304866630673,10.666065420345525 L1.2472044184538182,10.714493815501294 L1.18251964143991,10.76059577361663 L1.111426688032439,10.804121464186116 L1.0343108171056006,10.84483501772137 L0.9515899262454689,10.88251580394826 L0.8637122871267688,10.91695962742146 L0.7711541162898327,10.947979834077266 L0.6744169944819104,10.975408322728136 L0.5740251485476355,10.999096456017595 L0.47052261059833844,11.018915865898947 L0.3644702698548975,11.03475914927284 L0.2564428331404525,11.046540450013964 L0.14702571049434202,11.054195924232845 L0.036811842784369914,11.057684086251395 L-0.0736015114911265,11.056986033417417 L-0.1836160127988234,11.052105548539695 L-0.2926354830241911,11.043069079388642 L-0.4000691362123473,11.029925595373532 L-0.5053347800883294,11.012746322173026 L-0.6078619710074837,10.991624355757057 L-0.7070951052389964,10.966674157891694 L-0.8024964298306454,10.93803093586092 L-0.8935489567386494,10.905849909766646 L-0.9797592644306652,10.87030547137752 L-1.0606601717798116,10.831590239084848 " />
			<path d="M-0.37357311340335586,-3.289518454998695 L-0.37357311340335586,-2.0038697619322443 " />
			<path d="M-0.4465409098690042,-1.9662802910256985 L-0.37357311340335575,-2.0038697619322448 " />
			<path d="M1.0206207261596572,-3.0970716996090877 L1.0206207261596572,-2.186403875353685 " />
			<path d="M-0.37357311340335586,-2.0038697619322448 L0.4465409098690055,-1.8906657881736522 " />
			<path d="M2.75,-2.5712973861329003 L2.75,0.0 " />
			<path d="M-2.75,-2.5712973861329003 L-2.75,0.0 " />
			<path d="M-1.5,10.285189544531601 L-1.5,1.1873655740452966 " />
			<path d="M1.5,10.285189544531601 L1.5,1.1873655740452966 " />

       </g>
    </g>
    
</svg>
