<?xml version="1.0" encoding="UTF-8" standalone="no"?>
<svg viewBox="190.0 10.0 320.0 125.0"
   xmlns:svg="http://www.w3.org/2000/svg"
   xmlns="http://www.w3.org/2000/svg"
   width="320"
   height="125"

>
    <g transform="scale(5.555555555555555, -5.555555555555555)   translate(63.0,-13.049999999999999)" stroke-width="0.25"  fill="none">
       <!-- hidden lines -->
       <g  stroke="rgb(160,160,160)" fill="none" stroke-dasharray="0.25,0.25" >
			<path d="M27,-9.45 L27,9.45 " />
			<path d="M27,-9.45 L-27,-9.45 " />
			<path d="M27,9.45 L-27,9.45 " />
			<path d="M-27,-9.45 L-27,9.45 " />
			<path d="M21.08,3.925 L20.231,3.925 " />
			<path d="M21.575,4.42 L21.535,4.454 L21.491,4.482 L21.443,4.503 L21.393,4.516 L21.341,4.522 L21.288,4.52 L21.237,4.511 L21.188,4.493 L21.141,4.469 L21.099,4.438 L21.062,4.401 L21.031,4.359 L21.007,4.312 L20.989,4.263 L20.98,4.212 L20.978,4.159 L20.984,4.107 L20.997,4.057 L21.018,4.009 L21.046,3.965 L21.08,3.925 " />
			<path d="M21.575,5.269 L21.575,4.42 " />
			<path d="M23.425,5.269 L23.298,5.316 L23.169,5.357 L23.038,5.39 L22.905,5.416 L22.77,5.435 L22.635,5.446 L22.5,5.45 L22.365,5.446 L22.23,5.435 L22.095,5.416 L21.962,5.39 L21.831,5.357 L21.702,5.316 L21.575,5.269 " />
			<path d="M23.425,4.42 L23.425,5.269 " />
			<path d="M23.92,3.925 L23.954,3.965 L23.982,4.009 L24.003,4.057 L24.016,4.107 L24.022,4.159 L24.02,4.212 L24.011,4.263 L23.993,4.312 L23.969,4.359 L23.938,4.401 L23.901,4.438 L23.859,4.469 L23.812,4.493 L23.763,4.511 L23.712,4.52 L23.659,4.522 L23.607,4.516 L23.557,4.503 L23.509,4.482 L23.465,4.454 L23.425,4.42 " />
			<path d="M24.769,3.925 L23.92,3.925 " />
			<path d="M24.769,2.075 L24.816,2.202 L24.857,2.331 L24.89,2.462 L24.916,2.595 L24.935,2.73 L24.946,2.865 L24.95,3 L24.946,3.135 L24.935,3.27 L24.916,3.405 L24.89,3.538 L24.857,3.669 L24.816,3.798 L24.769,3.925 " />
			<path d="M23.92,2.075 L24.769,2.075 " />
			<path d="M23.425,1.58 L23.465,1.546 L23.509,1.518 L23.557,1.497 L23.607,1.484 L23.659,1.478 L23.712,1.48 L23.763,1.489 L23.812,1.507 L23.859,1.531 L23.901,1.562 L23.938,1.599 L23.969,1.641 L23.993,1.688 L24.011,1.737 L24.02,1.788 L24.022,1.841 L24.016,1.893 L24.003,1.943 L23.982,1.991 L23.954,2.035 L23.92,2.075 " />
			<path d="M23.425,0.731 L23.425,1.58 " />
			<path d="M21.575,0.731 L21.702,0.684 L21.831,0.643 L21.962,0.61 L22.095,0.584 L22.23,0.565 L22.365,0.554 L22.5,0.55 L22.635,0.554 L22.77,0.565 L22.905,0.584 L23.038,0.61 L23.169,0.643 L23.298,0.684 L23.425,0.731 " />
			<path d="M21.575,1.58 L21.575,0.731 " />
			<path d="M21.08,2.075 L21.046,2.035 L21.018,1.991 L20.997,1.943 L20.984,1.893 L20.978,1.841 L20.98,1.788 L20.989,1.737 L21.007,1.688 L21.031,1.641 L21.062,1.599 L21.099,1.562 L21.141,1.531 L21.188,1.507 L21.237,1.489 L21.288,1.48 L21.341,1.478 L21.393,1.484 L21.443,1.497 L21.491,1.518 L21.535,1.546 L21.575,1.58 " />
			<path d="M20.231,2.075 L21.08,2.075 " />
			<path d="M20.231,3.925 L20.184,3.798 L20.143,3.669 L20.11,3.538 L20.084,3.405 L20.065,3.27 L20.054,3.135 L20.05,3 L20.054,2.865 L20.065,2.73 L20.084,2.595 L20.11,2.462 L20.143,2.331 L20.184,2.202 L20.231,2.075 " />
			<path d="M12.03,3.975 L11.252,3.975 " />
			<path d="M12.525,4.47 L12.485,4.504 L12.441,4.532 L12.393,4.553 L12.343,4.566 L12.291,4.572 L12.238,4.57 L12.187,4.561 L12.138,4.543 L12.091,4.519 L12.049,4.488 L12.012,4.451 L11.981,4.409 L11.957,4.362 L11.939,4.313 L11.93,4.262 L11.928,4.209 L11.934,4.157 L11.947,4.107 L11.968,4.059 L11.996,4.015 L12.03,3.975 " />
			<path d="M12.525,5.248 L12.525,4.47 " />
			<path d="M14.475,5.248 L14.351,5.297 L14.224,5.34 L14.096,5.376 L13.965,5.405 L13.833,5.427 L13.7,5.442 L13.567,5.449 L13.433,5.449 L13.3,5.442 L13.167,5.427 L13.035,5.405 L12.904,5.376 L12.776,5.34 L12.649,5.297 L12.525,5.248 " />
			<path d="M14.475,4.47 L14.475,5.248 " />
			<path d="M14.97,3.975 L15.004,4.015 L15.032,4.059 L15.053,4.107 L15.066,4.157 L15.072,4.209 L15.07,4.262 L15.061,4.313 L15.043,4.362 L15.019,4.409 L14.988,4.451 L14.951,4.488 L14.909,4.519 L14.862,4.543 L14.813,4.561 L14.762,4.57 L14.709,4.572 L14.657,4.566 L14.607,4.553 L14.559,4.532 L14.515,4.504 L14.475,4.47 " />
			<path d="M15.748,3.975 L14.97,3.975 " />
			<path d="M15.748,2.025 L15.797,2.149 L15.84,2.276 L15.876,2.404 L15.905,2.535 L15.927,2.667 L15.942,2.8 L15.949,2.933 L15.949,3.067 L15.942,3.2 L15.927,3.333 L15.905,3.465 L15.876,3.596 L15.84,3.724 L15.797,3.851 L15.748,3.975 " />
			<path d="M14.97,2.025 L15.748,2.025 " />
			<path d="M14.475,1.53 L14.515,1.496 L14.559,1.468 L14.607,1.447 L14.657,1.434 L14.709,1.428 L14.762,1.43 L14.813,1.439 L14.862,1.457 L14.909,1.481 L14.951,1.512 L14.988,1.549 L15.019,1.591 L15.043,1.638 L15.061,1.687 L15.07,1.738 L15.072,1.791 L15.066,1.843 L15.053,1.893 L15.032,1.941 L15.004,1.985 L14.97,2.025 " />
			<path d="M14.475,0.752 L14.475,1.53 " />
			<path d="M12.525,0.752 L12.649,0.703 L12.776,0.66 L12.904,0.624 L13.035,0.595 L13.167,0.573 L13.3,0.558 L13.433,0.551 L13.567,0.551 L13.7,0.558 L13.833,0.573 L13.965,0.595 L14.096,0.624 L14.224,0.66 L14.351,0.703 L14.475,0.752 " />
			<path d="M12.525,1.53 L12.525,0.752 " />
			<path d="M12.03,2.025 L11.996,1.985 L11.968,1.941 L11.947,1.893 L11.934,1.843 L11.928,1.791 L11.93,1.738 L11.939,1.687 L11.957,1.638 L11.981,1.591 L12.012,1.549 L12.049,1.512 L12.091,1.481 L12.138,1.457 L12.187,1.439 L12.238,1.43 L12.291,1.428 L12.343,1.434 L12.393,1.447 L12.441,1.468 L12.485,1.496 L12.525,1.53 " />
			<path d="M11.252,2.025 L12.03,2.025 " />
			<path d="M11.252,3.975 L11.203,3.851 L11.16,3.724 L11.124,3.596 L11.095,3.465 L11.073,3.333 L11.058,3.2 L11.051,3.067 L11.051,2.933 L11.058,2.8 L11.073,2.667 L11.095,2.535 L11.124,2.404 L11.16,2.276 L11.203,2.149 L11.252,2.025 " />
			<path d="M2.98,4.025 L2.275,4.025 " />
			<path d="M3.475,4.52 L3.435,4.554 L3.391,4.582 L3.343,4.603 L3.293,4.616 L3.241,4.622 L3.188,4.62 L3.137,4.611 L3.088,4.593 L3.041,4.569 L2.999,4.538 L2.962,4.501 L2.931,4.459 L2.907,4.412 L2.889,4.363 L2.88,4.312 L2.878,4.259 L2.884,4.207 L2.897,4.157 L2.918,4.109 L2.946,4.065 L2.98,4.025 " />
			<path d="M3.475,5.225 L3.475,4.52 " />
			<path d="M5.525,5.225 L5.403,5.277 L5.279,5.323 L5.153,5.361 L5.025,5.393 L4.895,5.418 L4.764,5.436 L4.632,5.446 L4.5,5.45 L4.368,5.446 L4.236,5.436 L4.105,5.418 L3.975,5.393 L3.847,5.361 L3.721,5.323 L3.597,5.277 L3.475,5.225 " />
			<path d="M5.525,4.52 L5.525,5.225 " />
			<path d="M6.02,4.025 L6.054,4.065 L6.082,4.109 L6.103,4.157 L6.116,4.207 L6.122,4.259 L6.12,4.312 L6.111,4.363 L6.093,4.412 L6.069,4.459 L6.038,4.501 L6.001,4.538 L5.959,4.569 L5.912,4.593 L5.863,4.611 L5.812,4.62 L5.759,4.622 L5.707,4.616 L5.657,4.603 L5.609,4.582 L5.565,4.554 L5.525,4.52 " />
			<path d="M6.725,4.025 L6.02,4.025 " />
			<path d="M6.725,1.975 L6.777,2.097 L6.823,2.221 L6.861,2.347 L6.893,2.475 L6.918,2.605 L6.936,2.736 L6.946,2.868 L6.95,3 L6.946,3.132 L6.936,3.264 L6.918,3.395 L6.893,3.525 L6.861,3.653 L6.823,3.779 L6.777,3.903 L6.725,4.025 " />
			<path d="M6.02,1.975 L6.725,1.975 " />
			<path d="M5.525,1.48 L5.565,1.446 L5.609,1.418 L5.657,1.397 L5.707,1.384 L5.759,1.378 L5.812,1.38 L5.863,1.389 L5.912,1.407 L5.959,1.431 L6.001,1.462 L6.038,1.499 L6.069,1.541 L6.093,1.588 L6.111,1.637 L6.12,1.688 L6.122,1.741 L6.116,1.793 L6.103,1.843 L6.082,1.891 L6.054,1.935 L6.02,1.975 " />
			<path d="M5.525,0.775 L5.525,1.48 " />
			<path d="M3.475,0.775 L3.597,0.723 L3.721,0.677 L3.847,0.639 L3.975,0.607 L4.105,0.582 L4.236,0.564 L4.368,0.554 L4.5,0.55 L4.632,0.554 L4.764,0.564 L4.895,0.582 L5.025,0.607 L5.153,0.639 L5.279,0.677 L5.403,0.723 L5.525,0.775 " />
			<path d="M3.475,1.48 L3.475,0.775 " />
			<path d="M2.98,1.975 L2.946,1.935 L2.918,1.891 L2.897,1.843 L2.884,1.793 L2.878,1.741 L2.88,1.688 L2.889,1.637 L2.907,1.588 L2.931,1.541 L2.962,1.499 L2.999,1.462 L3.041,1.431 L3.088,1.407 L3.137,1.389 L3.188,1.38 L3.241,1.378 L3.293,1.384 L3.343,1.397 L3.391,1.418 L3.435,1.446 L3.475,1.48 " />
			<path d="M2.275,1.975 L2.98,1.975 " />
			<path d="M2.275,4.025 L2.223,3.903 L2.177,3.779 L2.139,3.653 L2.107,3.525 L2.082,3.395 L2.064,3.264 L2.054,3.132 L2.05,3 L2.054,2.868 L2.064,2.736 L2.082,2.605 L2.107,2.475 L2.139,2.347 L2.177,2.221 L2.223,2.097 L2.275,1.975 " />
			<path d="M-6.07,4.075 L-6.702,4.075 " />
			<path d="M-5.575,4.57 L-5.615,4.604 L-5.659,4.632 L-5.707,4.653 L-5.757,4.666 L-5.809,4.672 L-5.862,4.67 L-5.913,4.661 L-5.962,4.643 L-6.009,4.619 L-6.051,4.588 L-6.088,4.551 L-6.119,4.509 L-6.143,4.462 L-6.161,4.413 L-6.17,4.362 L-6.172,4.309 L-6.166,4.257 L-6.153,4.207 L-6.132,4.159 L-6.104,4.115 L-6.07,4.075 " />
			<path d="M-5.575,5.202 L-5.575,4.57 " />
			<path d="M-3.425,5.202 L-3.552,5.259 L-3.681,5.309 L-3.814,5.352 L-3.948,5.387 L-4.085,5.415 L-4.222,5.434 L-4.361,5.446 L-4.5,5.45 L-4.639,5.446 L-4.778,5.434 L-4.915,5.415 L-5.052,5.387 L-5.186,5.352 L-5.319,5.309 L-5.448,5.259 L-5.575,5.202 " />
			<path d="M-3.425,4.57 L-3.425,5.202 " />
			<path d="M-2.93,4.075 L-2.896,4.115 L-2.868,4.159 L-2.847,4.207 L-2.834,4.257 L-2.828,4.309 L-2.83,4.362 L-2.839,4.413 L-2.857,4.462 L-2.881,4.509 L-2.912,4.551 L-2.949,4.588 L-2.991,4.619 L-3.038,4.643 L-3.087,4.661 L-3.138,4.67 L-3.191,4.672 L-3.243,4.666 L-3.293,4.653 L-3.341,4.632 L-3.385,4.604 L-3.425,4.57 " />
			<path d="M-2.298,4.075 L-2.93,4.075 " />
			<path d="M-2.298,1.925 L-2.241,2.052 L-2.191,2.181 L-2.148,2.314 L-2.113,2.448 L-2.085,2.585 L-2.066,2.722 L-2.054,2.861 L-2.05,3 L-2.054,3.139 L-2.066,3.278 L-2.085,3.415 L-2.113,3.552 L-2.148,3.686 L-2.191,3.819 L-2.241,3.948 L-2.298,4.075 " />
			<path d="M-2.93,1.925 L-2.298,1.925 " />
			<path d="M-3.425,1.43 L-3.385,1.396 L-3.341,1.368 L-3.293,1.347 L-3.243,1.334 L-3.191,1.328 L-3.138,1.33 L-3.087,1.339 L-3.038,1.357 L-2.991,1.381 L-2.949,1.412 L-2.912,1.449 L-2.881,1.491 L-2.857,1.538 L-2.839,1.587 L-2.83,1.638 L-2.828,1.691 L-2.834,1.743 L-2.847,1.793 L-2.868,1.841 L-2.896,1.885 L-2.93,1.925 " />
			<path d="M-3.425,0.798 L-3.425,1.43 " />
			<path d="M-5.575,0.798 L-5.448,0.741 L-5.319,0.691 L-5.186,0.648 L-5.052,0.613 L-4.915,0.585 L-4.778,0.566 L-4.639,0.554 L-4.5,0.55 L-4.361,0.554 L-4.222,0.566 L-4.085,0.585 L-3.948,0.613 L-3.814,0.648 L-3.681,0.691 L-3.552,0.741 L-3.425,0.798 " />
			<path d="M-5.575,1.43 L-5.575,0.798 " />
			<path d="M-6.07,1.925 L-6.104,1.885 L-6.132,1.841 L-6.153,1.793 L-6.166,1.743 L-6.172,1.691 L-6.17,1.638 L-6.161,1.587 L-6.143,1.538 L-6.119,1.491 L-6.088,1.449 L-6.051,1.412 L-6.009,1.381 L-5.962,1.357 L-5.913,1.339 L-5.862,1.33 L-5.809,1.328 L-5.757,1.334 L-5.707,1.347 L-5.659,1.368 L-5.615,1.396 L-5.575,1.43 " />
			<path d="M-6.702,1.925 L-6.07,1.925 " />
			<path d="M-6.702,4.075 L-6.759,3.948 L-6.809,3.819 L-6.852,3.686 L-6.887,3.552 L-6.915,3.415 L-6.934,3.278 L-6.946,3.139 L-6.95,3 L-6.946,2.861 L-6.934,2.722 L-6.915,2.585 L-6.887,2.448 L-6.852,2.314 L-6.809,2.181 L-6.759,2.052 L-6.702,1.925 " />
			<path d="M-15.12,4.125 L-15.676,4.125 " />
			<path d="M-14.625,4.62 L-14.665,4.654 L-14.709,4.682 L-14.757,4.703 L-14.807,4.716 L-14.859,4.722 L-14.912,4.72 L-14.963,4.711 L-15.012,4.693 L-15.059,4.669 L-15.101,4.638 L-15.138,4.601 L-15.169,4.559 L-15.193,4.512 L-15.211,4.463 L-15.22,4.412 L-15.222,4.359 L-15.216,4.307 L-15.203,4.257 L-15.182,4.209 L-15.154,4.165 L-15.12,4.125 " />
			<path d="M-14.625,5.176 L-14.625,4.62 " />
			<path d="M-12.375,5.176 L-12.499,5.236 L-12.626,5.289 L-12.756,5.334 L-12.888,5.372 L-13.022,5.403 L-13.157,5.426 L-13.294,5.441 L-13.431,5.449 L-13.569,5.449 L-13.706,5.441 L-13.843,5.426 L-13.978,5.403 L-14.112,5.372 L-14.244,5.334 L-14.374,5.289 L-14.501,5.236 L-14.625,5.176 " />
			<path d="M-12.375,4.62 L-12.375,5.176 " />
			<path d="M-11.88,4.125 L-11.846,4.165 L-11.818,4.209 L-11.797,4.257 L-11.784,4.307 L-11.778,4.359 L-11.78,4.412 L-11.789,4.463 L-11.807,4.512 L-11.831,4.559 L-11.862,4.601 L-11.899,4.638 L-11.941,4.669 L-11.988,4.693 L-12.037,4.711 L-12.088,4.72 L-12.141,4.722 L-12.193,4.716 L-12.243,4.703 L-12.291,4.682 L-12.335,4.654 L-12.375,4.62 " />
			<path d="M-11.324,4.125 L-11.88,4.125 " />
			<path d="M-11.324,1.875 L-11.264,1.999 L-11.211,2.126 L-11.166,2.256 L-11.128,2.388 L-11.097,2.522 L-11.074,2.657 L-11.059,2.794 L-11.051,2.931 L-11.051,3.069 L-11.059,3.206 L-11.074,3.343 L-11.097,3.478 L-11.128,3.612 L-11.166,3.744 L-11.211,3.874 L-11.264,4.001 L-11.324,4.125 " />
			<path d="M-11.88,1.875 L-11.324,1.875 " />
			<path d="M-12.375,1.38 L-12.335,1.346 L-12.291,1.318 L-12.243,1.297 L-12.193,1.284 L-12.141,1.278 L-12.088,1.28 L-12.037,1.289 L-11.988,1.307 L-11.941,1.331 L-11.899,1.362 L-11.862,1.399 L-11.831,1.441 L-11.807,1.488 L-11.789,1.537 L-11.78,1.588 L-11.778,1.641 L-11.784,1.693 L-11.797,1.743 L-11.818,1.791 L-11.846,1.835 L-11.88,1.875 " />
			<path d="M-12.375,0.824 L-12.375,1.38 " />
			<path d="M-14.625,0.824 L-14.501,0.764 L-14.374,0.711 L-14.244,0.666 L-14.112,0.628 L-13.978,0.597 L-13.843,0.574 L-13.706,0.559 L-13.569,0.551 L-13.431,0.551 L-13.294,0.559 L-13.157,0.574 L-13.022,0.597 L-12.888,0.628 L-12.756,0.666 L-12.626,0.711 L-12.499,0.764 L-12.375,0.824 " />
			<path d="M-14.625,1.38 L-14.625,0.824 " />
			<path d="M-15.12,1.875 L-15.154,1.835 L-15.182,1.791 L-15.203,1.743 L-15.216,1.693 L-15.222,1.641 L-15.22,1.588 L-15.211,1.537 L-15.193,1.488 L-15.169,1.441 L-15.138,1.399 L-15.101,1.362 L-15.059,1.331 L-15.012,1.307 L-14.963,1.289 L-14.912,1.28 L-14.859,1.278 L-14.807,1.284 L-14.757,1.297 L-14.709,1.318 L-14.665,1.346 L-14.625,1.38 " />
			<path d="M-15.676,1.875 L-15.12,1.875 " />
			<path d="M-15.676,4.125 L-15.736,4.001 L-15.789,3.874 L-15.834,3.744 L-15.872,3.612 L-15.903,3.478 L-15.926,3.343 L-15.941,3.206 L-15.949,3.069 L-15.949,2.931 L-15.941,2.794 L-15.926,2.657 L-15.903,2.522 L-15.872,2.388 L-15.834,2.256 L-15.789,2.126 L-15.736,1.999 L-15.676,1.875 " />
			<path d="M-24.17,4.175 L-24.65,4.175 " />
			<path d="M-23.675,4.67 L-23.715,4.704 L-23.759,4.732 L-23.807,4.753 L-23.857,4.766 L-23.909,4.772 L-23.962,4.77 L-24.013,4.761 L-24.062,4.743 L-24.109,4.719 L-24.151,4.688 L-24.188,4.651 L-24.219,4.609 L-24.243,4.562 L-24.261,4.513 L-24.27,4.462 L-24.272,4.409 L-24.266,4.357 L-24.253,4.307 L-24.232,4.259 L-24.204,4.215 L-24.17,4.175 " />
			<path d="M-23.675,5.15 L-23.675,4.67 " />
			<path d="M-21.325,5.15 L-21.446,5.212 L-21.571,5.267 L-21.698,5.315 L-21.828,5.356 L-21.96,5.39 L-22.093,5.416 L-22.228,5.435 L-22.364,5.446 L-22.5,5.45 L-22.636,5.446 L-22.772,5.435 L-22.907,5.416 L-23.04,5.39 L-23.172,5.356 L-23.302,5.315 L-23.429,5.267 L-23.554,5.212 L-23.675,5.15 " />
			<path d="M-21.325,4.67 L-21.325,5.15 " />
			<path d="M-20.83,4.175 L-20.796,4.215 L-20.768,4.259 L-20.747,4.307 L-20.734,4.357 L-20.728,4.409 L-20.73,4.462 L-20.739,4.513 L-20.757,4.562 L-20.781,4.609 L-20.812,4.651 L-20.849,4.688 L-20.891,4.719 L-20.938,4.743 L-20.987,4.761 L-21.038,4.77 L-21.091,4.772 L-21.143,4.766 L-21.193,4.753 L-21.241,4.732 L-21.285,4.704 L-21.325,4.67 " />
			<path d="M-20.35,4.175 L-20.83,4.175 " />
			<path d="M-20.35,1.825 L-20.288,1.946 L-20.233,2.071 L-20.185,2.198 L-20.144,2.328 L-20.11,2.46 L-20.084,2.593 L-20.065,2.728 L-20.054,2.864 L-20.05,3 L-20.054,3.136 L-20.065,3.272 L-20.084,3.407 L-20.11,3.54 L-20.144,3.672 L-20.185,3.802 L-20.233,3.929 L-20.288,4.054 L-20.35,4.175 " />
			<path d="M-20.83,1.825 L-20.35,1.825 " />
			<path d="M-21.325,1.33 L-21.285,1.296 L-21.241,1.268 L-21.193,1.247 L-21.143,1.234 L-21.091,1.228 L-21.038,1.23 L-20.987,1.239 L-20.938,1.257 L-20.891,1.281 L-20.849,1.312 L-20.812,1.349 L-20.781,1.391 L-20.757,1.438 L-20.739,1.487 L-20.73,1.538 L-20.728,1.591 L-20.734,1.643 L-20.747,1.693 L-20.768,1.741 L-20.796,1.785 L-20.83,1.825 " />
			<path d="M-21.325,0.85 L-21.325,1.33 " />
			<path d="M-23.675,0.85 L-23.554,0.788 L-23.429,0.733 L-23.302,0.685 L-23.172,0.644 L-23.04,0.61 L-22.907,0.584 L-22.772,0.565 L-22.636,0.554 L-22.5,0.55 L-22.364,0.554 L-22.228,0.565 L-22.093,0.584 L-21.96,0.61 L-21.828,0.644 L-21.698,0.685 L-21.571,0.733 L-21.446,0.788 L-21.325,0.85 " />
			<path d="M-23.675,1.33 L-23.675,0.85 " />
			<path d="M-24.17,1.825 L-24.204,1.785 L-24.232,1.741 L-24.253,1.693 L-24.266,1.643 L-24.272,1.591 L-24.27,1.538 L-24.261,1.487 L-24.243,1.438 L-24.219,1.391 L-24.188,1.349 L-24.151,1.312 L-24.109,1.281 L-24.062,1.257 L-24.013,1.239 L-23.962,1.23 L-23.909,1.228 L-23.857,1.234 L-23.807,1.247 L-23.759,1.268 L-23.715,1.296 L-23.675,1.33 " />
			<path d="M-24.65,1.825 L-24.17,1.825 " />
			<path d="M-24.65,4.175 L-24.712,4.054 L-24.767,3.929 L-24.815,3.802 L-24.856,3.672 L-24.89,3.54 L-24.916,3.407 L-24.935,3.272 L-24.946,3.136 L-24.95,3 L-24.946,2.864 L-24.935,2.728 L-24.916,2.593 L-24.89,2.46 L-24.856,2.328 L-24.815,2.198 L-24.767,2.071 L-24.712,1.946 L-24.65,1.825 " />

       </g>

       <!-- solid lines -->
       <g  stroke="rgb(0,0,0)" fill="none">
			<path d="M27,-9.45 L27,9.45 " />
			<path d="M27,-9.45 L-27,-9.45 " />
			<path d="M27,9.45 L-27,9.45 " />
			<path d="M-27,-9.45 L-27,9.45 " />
			<path d="M21.08,3.925 L20.231,3.925 " />
			<path d="M21.575,4.42 L21.535,4.454 L21.491,4.482 L21.443,4.503 L21.393,4.516 L21.341,4.522 L21.288,4.52 L21.237,4.511 L21.188,4.493 L21.141,4.469 L21.099,4.438 L21.062,4.401 L21.031,4.359 L21.007,4.312 L20.989,4.263 L20.98,4.212 L20.978,4.159 L20.984,4.107 L20.997,4.057 L21.018,4.009 L21.046,3.965 L21.08,3.925 " />
			<path d="M21.575,5.269 L21.575,4.42 " />
			<path d="M23.425,5.269 L23.298,5.316 L23.169,5.357 L23.038,5.39 L22.905,5.416 L22.77,5.435 L22.635,5.446 L22.5,5.45 L22.365,5.446 L22.23,5.435 L22.095,5.416 L21.962,5.39 L21.831,5.357 L21.702,5.316 L21.575,5.269 " />
			<path d="M23.425,4.42 L23.425,5.269 " />
			<path d="M23.92,3.925 L23.954,3.965 L23.982,4.009 L24.003,4.057 L24.016,4.107 L24.022,4.159 L24.02,4.212 L24.011,4.263 L23.993,4.312 L23.969,4.359 L23.938,4.401 L23.901,4.438 L23.859,4.469 L23.812,4.493 L23.763,4.511 L23.712,4.52 L23.659,4.522 L23.607,4.516 L23.557,4.503 L23.509,4.482 L23.465,4.454 L23.425,4.42 " />
			<path d="M24.769,3.925 L23.92,3.925 " />
			<path d="M24.769,2.075 L24.816,2.202 L24.857,2.331 L24.89,2.462 L24.916,2.595 L24.935,2.73 L24.946,2.865 L24.95,3 L24.946,3.135 L24.935,3.27 L24.916,3.405 L24.89,3.538 L24.857,3.669 L24.816,3.798 L24.769,3.925 " />
			<path d="M23.92,2.075 L24.769,2.075 " />
			<path d="M23.425,1.58 L23.465,1.546 L23.509,1.518 L23.557,1.497 L23.607,1.484 L23.659,1.478 L23.712,1.48 L23.763,1.489 L23.812,1.507 L23.859,1.531 L23.901,1.562 L23.938,1.599 L23.969,1.641 L23.993,1.688 L24.011,1.737 L24.02,1.788 L24.022,1.841 L24.016,1.893 L24.003,1.943 L23.982,1.991 L23.954,2.035 L23.92,2.075 " />
			<path d="M23.425,0.731 L23.425,1.58 " />
			<path d="M21.575,0.731 L21.702,0.684 L21.831,0.643 L21.962,0.61 L22.095,0.584 L22.23,0.565 L22.365,0.554 L22.5,0.55 L22.635,0.554 L22.77,0.565 L22.905,0.584 L23.038,0.61 L23.169,0.643 L23.298,0.684 L23.425,0.731 " />
			<path d="M21.575,1.58 L21.575,0.731 " />
			<path d="M21.08,2.075 L21.046,2.035 L21.018,1.991 L20.997,1.943 L20.984,1.893 L20.978,1.841 L20.98,1.788 L20.989,1.737 L21.007,1.688 L21.031,1.641 L21.062,1.599 L21.099,1.562 L21.141,1.531 L21.188,1.507 L21.237,1.489 L21.288,1.48 L21.341,1.478 L21.393,1.484 L21.443,1.497 L21.491,1.518 L21.535,1.546 L21.575,1.58 " />
			<path d="M20.231,2.075 L21.08,2.075 " />
			<path d="M20.231,3.925 L20.184,3.798 L20.143,3.669 L20.11,3.538 L20.084,3.405 L20.065,3.27 L20.054,3.135 L20.05,3 L20.054,2.865 L20.065,2.73 L20.084,2.595 L20.11,2.462 L20.143,2.331 L20.184,2.202 L20.231,2.075 " />
			<path d="M12.03,3.975 L11.252,3.975 " />
			<path d="M12.525,4.47 L12.485,4.504 L12.441,4.532 L12.393,4.553 L12.343,4.566 L12.291,4.572 L12.238,4.57 L12.187,4.561 L12.138,4.543 L12.091,4.519 L12.049,4.488 L12.012,4.451 L11.981,4.409 L11.957,4.362 L11.939,4.313 L11.93,4.262 L11.928,4.209 L11.934,4.157 L11.947,4.107 L11.968,4.059 L11.996,4.015 L12.03,3.975 " />
			<path d="M12.525,5.248 L12.525,4.47 " />
			<path d="M14.475,5.248 L14.351,5.297 L14.224,5.34 L14.096,5.376 L13.965,5.405 L13.833,5.427 L13.7,5.442 L13.567,5.449 L13.433,5.449 L13.3,5.442 L13.167,5.427 L13.035,5.405 L12.904,5.376 L12.776,5.34 L12.649,5.297 L12.525,5.248 " />
			<path d="M14.475,4.47 L14.475,5.248 " />
			<path d="M14.97,3.975 L15.004,4.015 L15.032,4.059 L15.053,4.107 L15.066,4.157 L15.072,4.209 L15.07,4.262 L15.061,4.313 L15.043,4.362 L15.019,4.409 L14.988,4.451 L14.951,4.488 L14.909,4.519 L14.862,4.543 L14.813,4.561 L14.762,4.57 L14.709,4.572 L14.657,4.566 L14.607,4.553 L14.559,4.532 L14.515,4.504 L14.475,4.47 " />
			<path d="M15.748,3.975 L14.97,3.975 " />
			<path d="M15.748,2.025 L15.797,2.149 L15.84,2.276 L15.876,2.404 L15.905,2.535 L15.927,2.667 L15.942,2.8 L15.949,2.933 L15.949,3.067 L15.942,3.2 L15.927,3.333 L15.905,3.465 L15.876,3.596 L15.84,3.724 L15.797,3.851 L15.748,3.975 " />
			<path d="M14.97,2.025 L15.748,2.025 " />
			<path d="M14.475,1.53 L14.515,1.496 L14.559,1.468 L14.607,1.447 L14.657,1.434 L14.709,1.428 L14.762,1.43 L14.813,1.439 L14.862,1.457 L14.909,1.481 L14.951,1.512 L14.988,1.549 L15.019,1.591 L15.043,1.638 L15.061,1.687 L15.07,1.738 L15.072,1.791 L15.066,1.843 L15.053,1.893 L15.032,1.941 L15.004,1.985 L14.97,2.025 " />
			<path d="M14.475,0.752 L14.475,1.53 " />
			<path d="M12.525,0.752 L12.649,0.703 L12.776,0.66 L12.904,0.624 L13.035,0.595 L13.167,0.573 L13.3,0.558 L13.433,0.551 L13.567,0.551 L13.7,0.558 L13.833,0.573 L13.965,0.595 L14.096,0.624 L14.224,0.66 L14.351,0.703 L14.475,0.752 " />
			<path d="M12.525,1.53 L12.525,0.752 " />
			<path d="M12.03,2.025 L11.996,1.985 L11.968,1.941 L11.947,1.893 L11.934,1.843 L11.928,1.791 L11.93,1.738 L11.939,1.687 L11.957,1.638 L11.981,1.591 L12.012,1.549 L12.049,1.512 L12.091,1.481 L12.138,1.457 L12.187,1.439 L12.238,1.43 L12.291,1.428 L12.343,1.434 L12.393,1.447 L12.441,1.468 L12.485,1.496 L12.525,1.53 " />
			<path d="M11.252,2.025 L12.03,2.025 " />
			<path d="M11.252,3.975 L11.203,3.851 L11.16,3.724 L11.124,3.596 L11.095,3.465 L11.073,3.333 L11.058,3.2 L11.051,3.067 L11.051,2.933 L11.058,2.8 L11.073,2.667 L11.095,2.535 L11.124,2.404 L11.16,2.276 L11.203,2.149 L11.252,2.025 " />
			<path d="M2.98,4.025 L2.275,4.025 " />
			<path d="M3.475,4.52 L3.435,4.554 L3.391,4.582 L3.343,4.603 L3.293,4.616 L3.241,4.622 L3.188,4.62 L3.137,4.611 L3.088,4.593 L3.041,4.569 L2.999,4.538 L2.962,4.501 L2.931,4.459 L2.907,4.412 L2.889,4.363 L2.88,4.312 L2.878,4.259 L2.884,4.207 L2.897,4.157 L2.918,4.109 L2.946,4.065 L2.98,4.025 " />
			<path d="M3.475,5.225 L3.475,4.52 " />
			<path d="M5.525,5.225 L5.403,5.277 L5.279,5.323 L5.153,5.361 L5.025,5.393 L4.895,5.418 L4.764,5.436 L4.632,5.446 L4.5,5.45 L4.368,5.446 L4.236,5.436 L4.105,5.418 L3.975,5.393 L3.847,5.361 L3.721,5.323 L3.597,5.277 L3.475,5.225 " />
			<path d="M5.525,4.52 L5.525,5.225 " />
			<path d="M6.02,4.025 L6.054,4.065 L6.082,4.109 L6.103,4.157 L6.116,4.207 L6.122,4.259 L6.12,4.312 L6.111,4.363 L6.093,4.412 L6.069,4.459 L6.038,4.501 L6.001,4.538 L5.959,4.569 L5.912,4.593 L5.863,4.611 L5.812,4.62 L5.759,4.622 L5.707,4.616 L5.657,4.603 L5.609,4.582 L5.565,4.554 L5.525,4.52 " />
			<path d="M6.725,4.025 L6.02,4.025 " />
			<path d="M6.725,1.975 L6.777,2.097 L6.823,2.221 L6.861,2.347 L6.893,2.475 L6.918,2.605 L6.936,2.736 L6.946,2.868 L6.95,3 L6.946,3.132 L6.936,3.264 L6.918,3.395 L6.893,3.525 L6.861,3.653 L6.823,3.779 L6.777,3.903 L6.725,4.025 " />
			<path d="M6.02,1.975 L6.725,1.975 " />
			<path d="M5.525,1.48 L5.565,1.446 L5.609,1.418 L5.657,1.397 L5.707,1.384 L5.759,1.378 L5.812,1.38 L5.863,1.389 L5.912,1.407 L5.959,1.431 L6.001,1.462 L6.038,1.499 L6.069,1.541 L6.093,1.588 L6.111,1.637 L6.12,1.688 L6.122,1.741 L6.116,1.793 L6.103,1.843 L6.082,1.891 L6.054,1.935 L6.02,1.975 " />
			<path d="M5.525,0.775 L5.525,1.48 " />
			<path d="M3.475,0.775 L3.597,0.723 L3.721,0.677 L3.847,0.639 L3.975,0.607 L4.105,0.582 L4.236,0.564 L4.368,0.554 L4.5,0.55 L4.632,0.554 L4.764,0.564 L4.895,0.582 L5.025,0.607 L5.153,0.639 L5.279,0.677 L5.403,0.723 L5.525,0.775 " />
			<path d="M3.475,1.48 L3.475,0.775 " />
			<path d="M2.98,1.975 L2.946,1.935 L2.918,1.891 L2.897,1.843 L2.884,1.793 L2.878,1.741 L2.88,1.688 L2.889,1.637 L2.907,1.588 L2.931,1.541 L2.962,1.499 L2.999,1.462 L3.041,1.431 L3.088,1.407 L3.137,1.389 L3.188,1.38 L3.241,1.378 L3.293,1.384 L3.343,1.397 L3.391,1.418 L3.435,1.446 L3.475,1.48 " />
			<path d="M2.275,1.975 L2.98,1.975 " />
			<path d="M2.275,4.025 L2.223,3.903 L2.177,3.779 L2.139,3.653 L2.107,3.525 L2.082,3.395 L2.064,3.264 L2.054,3.132 L2.05,3 L2.054,2.868 L2.064,2.736 L2.082,2.605 L2.107,2.475 L2.139,2.347 L2.177,2.221 L2.223,2.097 L2.275,1.975 " />
			<path d="M-6.07,4.075 L-6.702,4.075 " />
			<path d="M-5.575,4.57 L-5.615,4.604 L-5.659,4.632 L-5.707,4.653 L-5.757,4.666 L-5.809,4.672 L-5.862,4.67 L-5.913,4.661 L-5.962,4.643 L-6.009,4.619 L-6.051,4.588 L-6.088,4.551 L-6.119,4.509 L-6.143,4.462 L-6.161,4.413 L-6.17,4.362 L-6.172,4.309 L-6.166,4.257 L-6.153,4.207 L-6.132,4.159 L-6.104,4.115 L-6.07,4.075 " />
			<path d="M-5.575,5.202 L-5.575,4.57 " />
			<path d="M-3.425,5.202 L-3.552,5.259 L-3.681,5.309 L-3.814,5.352 L-3.948,5.387 L-4.085,5.415 L-4.222,5.434 L-4.361,5.446 L-4.5,5.45 L-4.639,5.446 L-4.778,5.434 L-4.915,5.415 L-5.052,5.387 L-5.186,5.352 L-5.319,5.309 L-5.448,5.259 L-5.575,5.202 " />
			<path d="M-3.425,4.57 L-3.425,5.202 " />
			<path d="M-2.93,4.075 L-2.896,4.115 L-2.868,4.159 L-2.847,4.207 L-2.834,4.257 L-2.828,4.309 L-2.83,4.362 L-2.839,4.413 L-2.857,4.462 L-2.881,4.509 L-2.912,4.551 L-2.949,4.588 L-2.991,4.619 L-3.038,4.643 L-3.087,4.661 L-3.138,4.67 L-3.191,4.672 L-3.243,4.666 L-3.293,4.653 L-3.341,4.632 L-3.385,4.604 L-3.425,4.57 " />
			<path d="M-2.298,4.075 L-2.93,4.075 " />
			<path d="M-2.298,1.925 L-2.241,2.052 L-2.191,2.181 L-2.148,2.314 L-2.113,2.448 L-2.085,2.585 L-2.066,2.722 L-2.054,2.861 L-2.05,3 L-2.054,3.139 L-2.066,3.278 L-2.085,3.415 L-2.113,3.552 L-2.148,3.686 L-2.191,3.819 L-2.241,3.948 L-2.298,4.075 " />
			<path d="M-2.93,1.925 L-2.298,1.925 " />
			<path d="M-3.425,1.43 L-3.385,1.396 L-3.341,1.368 L-3.293,1.347 L-3.243,1.334 L-3.191,1.328 L-3.138,1.33 L-3.087,1.339 L-3.038,1.357 L-2.991,1.381 L-2.949,1.412 L-2.912,1.449 L-2.881,1.491 L-2.857,1.538 L-2.839,1.587 L-2.83,1.638 L-2.828,1.691 L-2.834,1.743 L-2.847,1.793 L-2.868,1.841 L-2.896,1.885 L-2.93,1.925 " />
			<path d="M-3.425,0.798 L-3.425,1.43 " />
			<path d="M-5.575,0.798 L-5.448,0.741 L-5.319,0.691 L-5.186,0.648 L-5.052,0.613 L-4.915,0.585 L-4.778,0.566 L-4.639,0.554 L-4.5,0.55 L-4.361,0.554 L-4.222,0.566 L-4.085,0.585 L-3.948,0.613 L-3.814,0.648 L-3.681,0.691 L-3.552,0.741 L-3.425,0.798 " />
			<path d="M-5.575,1.43 L-5.575,0.798 " />
			<path d="M-6.07,1.925 L-6.104,1.885 L-6.132,1.841 L-6.153,1.793 L-6.166,1.743 L-6.172,1.691 L-6.17,1.638 L-6.161,1.587 L-6.143,1.538 L-6.119,1.491 L-6.088,1.449 L-6.051,1.412 L-6.009,1.381 L-5.962,1.357 L-5.913,1.339 L-5.862,1.33 L-5.809,1.328 L-5.757,1.334 L-5.707,1.347 L-5.659,1.368 L-5.615,1.396 L-5.575,1.43 " />
			<path d="M-6.702,1.925 L-6.07,1.925 " />
			<path d="M-6.702,4.075 L-6.759,3.948 L-6.809,3.819 L-6.852,3.686 L-6.887,3.552 L-6.915,3.415 L-6.934,3.278 L-6.946,3.139 L-6.95,3 L-6.946,2.861 L-6.934,2.722 L-6.915,2.585 L-6.887,2.448 L-6.852,2.314 L-6.809,2.181 L-6.759,2.052 L-6.702,1.925 " />
			<path d="M-15.12,4.125 L-15.676,4.125 " />
			<path d="M-14.625,4.62 L-14.665,4.654 L-14.709,4.682 L-14.757,4.703 L-14.807,4.716 L-14.859,4.722 L-14.912,4.72 L-14.963,4.711 L-15.012,4.693 L-15.059,4.669 L-15.101,4.638 L-15.138,4.601 L-15.169,4.559 L-15.193,4.512 L-15.211,4.463 L-15.22,4.412 L-15.222,4.359 L-15.216,4.307 L-15.203,4.257 L-15.182,4.209 L-15.154,4.165 L-15.12,4.125 " />
			<path d="M-14.625,5.176 L-14.625,4.62 " />
			<path d="M-12.375,5.176 L-12.499,5.236 L-12.626,5.289 L-12.756,5.334 L-12.888,5.372 L-13.022,5.403 L-13.157,5.426 L-13.294,5.441 L-13.431,5.449 L-13.569,5.449 L-13.706,5.441 L-13.843,5.426 L-13.978,5.403 L-14.112,5.372 L-14.244,5.334 L-14.374,5.289 L-14.501,5.236 L-14.625,5.176 " />
			<path d="M-12.375,4.62 L-12.375,5.176 " />
			<path d="M-11.88,4.125 L-11.846,4.165 L-11.818,4.209 L-11.797,4.257 L-11.784,4.307 L-11.778,4.359 L-11.78,4.412 L-11.789,4.463 L-11.807,4.512 L-11.831,4.559 L-11.862,4.601 L-11.899,4.638 L-11.941,4.669 L-11.988,4.693 L-12.037,4.711 L-12.088,4.72 L-12.141,4.722 L-12.193,4.716 L-12.243,4.703 L-12.291,4.682 L-12.335,4.654 L-12.375,4.62 " />
			<path d="M-11.324,4.125 L-11.88,4.125 " />
			<path d="M-11.324,1.875 L-11.264,1.999 L-11.211,2.126 L-11.166,2.256 L-11.128,2.388 L-11.097,2.522 L-11.074,2.657 L-11.059,2.794 L-11.051,2.931 L-11.051,3.069 L-11.059,3.206 L-11.074,3.343 L-11.097,3.478 L-11.128,3.612 L-11.166,3.744 L-11.211,3.874 L-11.264,4.001 L-11.324,4.125 " />
			<path d="M-11.88,1.875 L-11.324,1.875 " />
			<path d="M-12.375,1.38 L-12.335,1.346 L-12.291,1.318 L-12.243,1.297 L-12.193,1.284 L-12.141,1.278 L-12.088,1.28 L-12.037,1.289 L-11.988,1.307 L-11.941,1.331 L-11.899,1.362 L-11.862,1.399 L-11.831,1.441 L-11.807,1.488 L-11.789,1.537 L-11.78,1.588 L-11.778,1.641 L-11.784,1.693 L-11.797,1.743 L-11.818,1.791 L-11.846,1.835 L-11.88,1.875 " />
			<path d="M-12.375,0.824 L-12.375,1.38 " />
			<path d="M-14.625,0.824 L-14.501,0.764 L-14.374,0.711 L-14.244,0.666 L-14.112,0.628 L-13.978,0.597 L-13.843,0.574 L-13.706,0.559 L-13.569,0.551 L-13.431,0.551 L-13.294,0.559 L-13.157,0.574 L-13.022,0.597 L-12.888,0.628 L-12.756,0.666 L-12.626,0.711 L-12.499,0.764 L-12.375,0.824 " />
			<path d="M-14.625,1.38 L-14.625,0.824 " />
			<path d="M-15.12,1.875 L-15.154,1.835 L-15.182,1.791 L-15.203,1.743 L-15.216,1.693 L-15.222,1.641 L-15.22,1.588 L-15.211,1.537 L-15.193,1.488 L-15.169,1.441 L-15.138,1.399 L-15.101,1.362 L-15.059,1.331 L-15.012,1.307 L-14.963,1.289 L-14.912,1.28 L-14.859,1.278 L-14.807,1.284 L-14.757,1.297 L-14.709,1.318 L-14.665,1.346 L-14.625,1.38 " />
			<path d="M-15.676,1.875 L-15.12,1.875 " />
			<path d="M-15.676,4.125 L-15.736,4.001 L-15.789,3.874 L-15.834,3.744 L-15.872,3.612 L-15.903,3.478 L-15.926,3.343 L-15.941,3.206 L-15.949,3.069 L-15.949,2.931 L-15.941,2.794 L-15.926,2.657 L-15.903,2.522 L-15.872,2.388 L-15.834,2.256 L-15.789,2.126 L-15.736,1.999 L-15.676,1.875 " />
			<path d="M-24.17,4.175 L-24.65,4.175 " />
			<path d="M-23.675,4.67 L-23.715,4.704 L-23.759,4.732 L-23.807,4.753 L-23.857,4.766 L-23.909,4.772 L-23.962,4.77 L-24.013,4.761 L-24.062,4.743 L-24.109,4.719 L-24.151,4.688 L-24.188,4.651 L-24.219,4.609 L-24.243,4.562 L-24.261,4.513 L-24.27,4.462 L-24.272,4.409 L-24.266,4.357 L-24.253,4.307 L-24.232,4.259 L-24.204,4.215 L-24.17,4.175 " />
			<path d="M-23.675,5.15 L-23.675,4.67 " />
			<path d="M-21.325,5.15 L-21.446,5.212 L-21.571,5.267 L-21.698,5.315 L-21.828,5.356 L-21.96,5.39 L-22.093,5.416 L-22.228,5.435 L-22.364,5.446 L-22.5,5.45 L-22.636,5.446 L-22.772,5.435 L-22.907,5.416 L-23.04,5.39 L-23.172,5.356 L-23.302,5.315 L-23.429,5.267 L-23.554,5.212 L-23.675,5.15 " />
			<path d="M-21.325,4.67 L-21.325,5.15 " />
			<path d="M-20.83,4.175 L-20.796,4.215 L-20.768,4.259 L-20.747,4.307 L-20.734,4.357 L-20.728,4.409 L-20.73,4.462 L-20.739,4.513 L-20.757,4.562 L-20.781,4.609 L-20.812,4.651 L-20.849,4.688 L-20.891,4.719 L-20.938,4.743 L-20.987,4.761 L-21.038,4.77 L-21.091,4.772 L-21.143,4.766 L-21.193,4.753 L-21.241,4.732 L-21.285,4.704 L-21.325,4.67 " />
			<path d="M-20.35,4.175 L-20.83,4.175 " />
			<path d="M-20.35,1.825 L-20.288,1.946 L-20.233,2.071 L-20.185,2.198 L-20.144,2.328 L-20.11,2.46 L-20.084,2.593 L-20.065,2.728 L-20.054,2.864 L-20.05,3 L-20.054,3.136 L-20.065,3.272 L-20.084,3.407 L-20.11,3.54 L-20.144,3.672 L-20.185,3.802 L-20.233,3.929 L-20.288,4.054 L-20.35,4.175 " />
			<path d="M-20.83,1.825 L-20.35,1.825 " />
			<path d="M-21.325,1.33 L-21.285,1.296 L-21.241,1.268 L-21.193,1.247 L-21.143,1.234 L-21.091,1.228 L-21.038,1.23 L-20.987,1.239 L-20.938,1.257 L-20.891,1.281 L-20.849,1.312 L-20.812,1.349 L-20.781,1.391 L-20.757,1.438 L-20.739,1.487 L-20.73,1.538 L-20.728,1.591 L-20.734,1.643 L-20.747,1.693 L-20.768,1.741 L-20.796,1.785 L-20.83,1.825 " />
			<path d="M-21.325,0.85 L-21.325,1.33 " />
			<path d="M-23.675,0.85 L-23.554,0.788 L-23.429,0.733 L-23.302,0.685 L-23.172,0.644 L-23.04,0.61 L-22.907,0.584 L-22.772,0.565 L-22.636,0.554 L-22.5,0.55 L-22.364,0.554 L-22.228,0.565 L-22.093,0.584 L-21.96,0.61 L-21.828,0.644 L-21.698,0.685 L-21.571,0.733 L-21.446,0.788 L-21.325,0.85 " />
			<path d="M-23.675,1.33 L-23.675,0.85 " />
			<path d="M-24.17,1.825 L-24.204,1.785 L-24.232,1.741 L-24.253,1.693 L-24.266,1.643 L-24.272,1.591 L-24.27,1.538 L-24.261,1.487 L-24.243,1.438 L-24.219,1.391 L-24.188,1.349 L-24.151,1.312 L-24.109,1.281 L-24.062,1.257 L-24.013,1.239 L-23.962,1.23 L-23.909,1.228 L-23.857,1.234 L-23.807,1.247 L-23.759,1.268 L-23.715,1.296 L-23.675,1.33 " />
			<path d="M-24.65,1.825 L-24.17,1.825 " />
			<path d="M-24.65,4.175 L-24.712,4.054 L-24.767,3.929 L-24.815,3.802 L-24.856,3.672 L-24.89,3.54 L-24.916,3.407 L-24.935,3.272 L-24.946,3.136 L-24.95,3 L-24.946,2.864 L-24.935,2.728 L-24.916,2.593 L-24.89,2.46 L-24.856,2.328 L-24.815,2.198 L-24.767,2.071 L-24.712,1.946 L-24.65,1.825 " />

       </g>
    </g>
    
</svg>
