<?xml version="1.0" encoding="UTF-8" standalone="no"?>
<svg viewBox="190.0 10.0 320.0 228.1"
   xmlns:svg="http://www.w3.org/2000/svg"
   xmlns="http://www.w3.org/2000/svg"
   width="320"
   height="228"

>
    <g transform="scale(8.875817337069634, -8.875817337069634)   translate(56.33284023452829,-20.55127351891017)" stroke-width="0.25"  fill="none">
       <!-- hidden lines -->
       <g  stroke="rgb(160,160,160)" fill="none" stroke-dasharray="0.25,0.25" >
			<path d="M-5.233,3.021 L-5.233,2.776 " />
			<path d="M-5.233,2.776 L-5.23,2.65 L-5.222,2.522 L-5.209,2.391 L-5.19,2.258 L-5.167,2.123 L-5.138,1.987 L-5.104,1.849 L-5.066,1.711 L-5.022,1.572 L-4.974,1.433 L-4.921,1.295 L-4.863,1.157 L-4.801,1.019 L-4.735,0.883 L-4.665,0.748 L-4.591,0.616 L-4.513,0.485 L-4.431,0.357 L-4.346,0.231 L-4.258,0.109 L-4.167,-0.01 L-4.074,-0.125 L-3.978,-0.237 L-3.879,-0.344 L-3.779,-0.446 L-3.677,-0.544 L-3.573,-0.637 L-3.468,-0.725 L-3.362,-0.808 L-3.255,-0.884 L-3.148,-0.955 L-3.041,-1.021 " />
			<path d="M-3.041,-1.021 L-2.937,-1.078 " />
			<path d="M-5.23,2.894 L-5.233,2.776 " />
			<path d="M-8.273,1.592 L-31.042,14.738 " />
			<path d="M-8.273,1.592 L-8.172,1.531 L-8.07,1.466 L-7.969,1.397 L-7.869,1.324 L-7.768,1.247 L-7.669,1.166 L-7.57,1.081 L-7.473,0.993 L-7.376,0.901 L-7.281,0.806 L-7.187,0.707 L-7.094,0.606 L-7.003,0.501 L-6.914,0.394 L-6.826,0.284 L-6.741,0.171 L-6.658,0.056 L-6.577,-0.061 L-6.498,-0.181 L-6.421,-0.302 L-6.347,-0.425 L-6.276,-0.55 L-6.207,-0.676 L-6.141,-0.803 L-6.078,-0.931 L-6.018,-1.06 L-5.962,-1.19 L-5.908,-1.321 L-5.857,-1.452 L-5.81,-1.583 L-5.766,-1.714 L-5.725,-1.845 L-5.688,-1.975 L-5.655,-2.105 L-5.625,-2.234 L-5.598,-2.363 L-5.575,-2.49 L-5.556,-2.616 L-5.541,-2.741 L-5.529,-2.865 L-5.521,-2.986 L-5.516,-3.106 L-5.516,-3.223 L-5.519,-3.339 L-5.526,-3.452 L-5.536,-3.562 L-5.55,-3.67 L-5.568,-3.775 L-5.59,-3.877 L-5.615,-3.976 L-5.644,-4.072 L-5.677,-4.164 L-5.713,-4.253 L-5.752,-4.338 L-5.795,-4.42 L-5.841,-4.497 L-5.891,-4.571 L-5.943,-4.641 L-5.999,-4.707 L-6.058,-4.768 L-6.12,-4.825 L-6.185,-4.878 L-6.253,-4.926 L-6.323,-4.97 " />
			<path d="M-32.992,14.931 L-32.944,14.958 L-32.894,14.982 L-32.843,15.005 L-32.791,15.025 L-32.739,15.043 L-32.685,15.06 L-32.63,15.074 L-32.574,15.086 L-32.517,15.096 L-32.46,15.103 L-32.401,15.109 L-32.342,15.112 L-32.282,15.114 L-32.221,15.113 L-32.16,15.11 L-32.097,15.105 L-32.034,15.097 L-31.971,15.088 L-31.843,15.063 L-31.712,15.029 L-31.58,14.987 L-31.447,14.937 L-31.312,14.878 L-31.177,14.812 L-31.042,14.738 " />
			<path d="M-10.889,6.287 L-10.889,6.042 " />
			<path d="M-10.889,6.042 L-10.887,5.916 L-10.879,5.788 L-10.866,5.657 L-10.847,5.524 L-10.824,5.389 L-10.795,5.253 L-10.761,5.115 L-10.723,4.977 L-10.679,4.838 L-10.631,4.699 L-10.578,4.561 L-10.52,4.423 L-10.458,4.285 L-10.392,4.149 L-10.322,4.014 L-10.247,3.882 L-10.169,3.751 L-10.088,3.623 L-10.003,3.497 L-9.915,3.375 L-9.824,3.256 L-9.731,3.141 L-9.635,3.029 L-9.536,2.922 L-9.436,2.82 L-9.334,2.722 L-9.23,2.629 L-9.125,2.541 L-9.019,2.458 L-8.912,2.382 L-8.805,2.311 L-8.697,2.245 " />
			<path d="M-8.697,2.245 L-8.594,2.188 " />
			<path d="M-10.887,6.16 L-10.889,6.042 " />
			<path d="M-16.546,9.553 L-16.546,9.308 " />
			<path d="M-16.546,9.308 L-16.544,9.182 L-16.536,9.054 L-16.523,8.923 L-16.504,8.79 L-16.481,8.655 L-16.452,8.519 L-16.418,8.381 L-16.379,8.243 L-16.336,8.104 L-16.287,7.965 L-16.234,7.827 L-16.177,7.689 L-16.115,7.551 L-16.049,7.415 L-15.978,7.28 L-15.904,7.148 L-15.826,7.017 L-15.745,6.889 L-15.66,6.763 L-15.572,6.641 L-15.481,6.522 L-15.388,6.407 L-15.291,6.295 L-15.193,6.188 L-15.093,6.086 L-14.991,5.988 L-14.887,5.895 L-14.782,5.807 L-14.676,5.724 L-14.569,5.648 L-14.462,5.576 L-14.354,5.511 " />
			<path d="M-14.354,5.511 L-14.251,5.454 " />
			<path d="M-16.544,9.426 L-16.546,9.308 " />
			<path d="M-22.203,12.819 L-22.203,12.574 " />
			<path d="M-22.203,12.574 L-22.201,12.448 L-22.193,12.32 L-22.179,12.189 L-22.161,12.056 L-22.137,11.921 L-22.109,11.785 L-22.075,11.647 L-22.036,11.509 L-21.993,11.37 L-21.944,11.231 L-21.891,11.093 L-21.834,10.955 L-21.772,10.817 L-21.706,10.681 L-21.635,10.546 L-21.561,10.414 L-21.483,10.283 L-21.402,10.155 L-21.317,10.029 L-21.229,9.907 L-21.138,9.788 L-21.044,9.673 L-20.948,9.561 L-20.85,9.454 L-20.75,9.352 L-20.647,9.254 L-20.544,9.161 L-20.439,9.073 L-20.333,8.99 L-20.226,8.914 L-20.119,8.842 L-20.011,8.777 " />
			<path d="M-20.011,8.777 L-19.908,8.72 " />
			<path d="M-22.201,12.692 L-22.203,12.574 " />
			<path d="M-27.86,16.085 L-27.86,15.84 " />
			<path d="M-27.86,15.84 L-27.857,15.714 L-27.849,15.586 L-27.836,15.455 L-27.818,15.322 L-27.794,15.187 L-27.766,15.051 L-27.732,14.913 L-27.693,14.775 L-27.65,14.636 L-27.601,14.497 L-27.548,14.359 L-27.491,14.221 L-27.429,14.083 L-27.362,13.947 L-27.292,13.812 L-27.218,13.68 L-27.14,13.549 L-27.059,13.421 L-26.974,13.295 L-26.886,13.173 L-26.795,13.054 L-26.701,12.939 L-26.605,12.827 L-26.507,12.72 L-26.406,12.618 L-26.304,12.52 L-26.201,12.427 L-26.096,12.339 L-25.99,12.256 L-25.883,12.18 L-25.776,12.108 L-25.668,12.043 " />
			<path d="M-25.668,12.043 L-25.564,11.986 " />
			<path d="M-27.858,15.958 L-27.86,15.84 " />
			<path d="M-5.72,2.494 L-5.718,2.617 L-5.71,2.736 L-5.697,2.852 L-5.678,2.964 L-5.655,3.071 L-5.626,3.175 L-5.592,3.273 L-5.554,3.367 L-5.51,3.455 L-5.462,3.538 L-5.409,3.616 L-5.351,3.687 L-5.289,3.753 L-5.223,3.813 L-5.153,3.866 L-5.078,3.914 " />
			<path d="M-5.078,3.914 L-5.016,3.947 L-4.951,3.976 L-4.884,4 L-4.815,4.021 " />
			<path d="M-1.754,-1.282 L-1.806,-1.331 L-1.861,-1.377 L-1.918,-1.418 L-1.978,-1.456 " />
			<path d="M-1.978,-1.456 L-2.037,-1.487 L-2.097,-1.514 L-2.159,-1.538 L-2.223,-1.558 L-2.288,-1.574 L-2.356,-1.587 L-2.425,-1.595 L-2.495,-1.6 L-2.567,-1.601 L-2.64,-1.598 L-2.715,-1.591 L-2.79,-1.581 L-2.866,-1.566 L-2.944,-1.548 L-3.022,-1.526 L-3.101,-1.501 L-3.18,-1.471 L-3.26,-1.438 L-3.34,-1.402 L-3.421,-1.361 L-3.502,-1.318 L-3.582,-1.27 L-3.663,-1.22 L-3.743,-1.166 L-3.823,-1.109 L-3.903,-1.049 L-3.982,-0.985 L-4.061,-0.919 L-4.139,-0.85 L-4.216,-0.778 L-4.292,-0.703 L-4.367,-0.625 L-4.441,-0.545 L-4.514,-0.463 L-4.585,-0.378 L-4.655,-0.292 L-4.724,-0.203 L-4.791,-0.112 L-4.856,-0.019 L-4.919,0.075 L-4.98,0.171 L-5.04,0.268 L-5.097,0.367 L-5.153,0.467 L-5.206,0.568 L-5.257,0.669 L-5.305,0.772 L-5.351,0.875 L-5.395,0.978 L-5.436,1.082 L-5.474,1.187 L-5.51,1.291 L-5.543,1.395 L-5.574,1.499 L-5.601,1.602 L-5.626,1.705 L-5.648,1.808 L-5.667,1.909 L-5.683,2.01 L-5.697,2.109 L-5.707,2.208 L-5.715,2.305 L-5.719,2.4 L-5.72,2.494 " />
			<path d="M-10.748,-0.163 L-10.745,-0.301 L-10.736,-0.442 L-10.722,-0.586 L-10.702,-0.732 L-10.676,-0.879 L-10.645,-1.029 L-10.607,-1.18 L-10.565,-1.331 L-10.517,-1.483 L-10.464,-1.636 L-10.406,-1.788 L-10.343,-1.94 L-10.275,-2.09 L-10.202,-2.24 L-10.125,-2.387 L-10.044,-2.533 L-9.958,-2.676 L-9.869,-2.817 L-9.776,-2.954 L-9.68,-3.088 L-9.58,-3.219 L-9.477,-3.345 L-9.372,-3.467 L-9.264,-3.585 L-9.154,-3.698 L-9.042,-3.805 L-8.928,-3.907 L-8.813,-4.003 L-8.697,-4.094 L-8.58,-4.178 L-8.462,-4.256 L-8.344,-4.327 L-8.226,-4.392 L-8.108,-4.45 L-7.991,-4.501 L-7.875,-4.545 L-7.76,-4.582 L-7.646,-4.611 L-7.534,-4.633 L-7.424,-4.647 L-7.316,-4.654 L-7.211,-4.654 L-7.108,-4.646 L-7.008,-4.631 L-6.912,-4.608 L-6.865,-4.594 L-6.819,-4.578 L-6.774,-4.56 L-6.729,-4.54 L-6.686,-4.519 L-6.644,-4.496 L-6.603,-4.471 L-6.562,-4.444 L-6.523,-4.416 L-6.485,-4.385 L-6.449,-4.354 L-6.413,-4.32 L-6.345,-4.248 L-6.282,-4.169 L-6.224,-4.084 L-6.171,-3.993 L-6.123,-3.896 L-6.08,-3.793 L-6.043,-3.685 L-6.012,-3.572 L-5.986,-3.454 L-5.966,-3.332 L-5.951,-3.205 L-5.943,-3.074 L-5.94,-2.939 " />
			<path d="M-5.94,-2.939 L-5.943,-2.801 L-5.951,-2.661 L-5.966,-2.517 L-5.986,-2.371 L-6.012,-2.223 L-6.043,-2.074 L-6.08,-1.923 L-6.123,-1.771 L-6.171,-1.619 L-6.224,-1.467 L-6.282,-1.315 L-6.345,-1.163 L-6.413,-1.013 L-6.485,-0.863 L-6.562,-0.716 L-6.644,-0.57 L-6.729,-0.427 L-6.819,-0.286 L-6.912,-0.148 L-7.008,-0.014 L-7.108,0.116 L-7.211,0.243 L-7.316,0.365 L-7.424,0.482 L-7.534,0.595 L-7.646,0.702 L-7.76,0.804 L-7.875,0.901 L-7.991,0.991 L-8.108,1.075 L-8.226,1.153 L-8.344,1.225 " />
			<path d="M-8.344,1.225 L-8.462,1.29 L-8.58,1.347 L-8.697,1.398 L-8.813,1.442 L-8.928,1.479 L-9.042,1.508 L-9.154,1.53 L-9.264,1.545 L-9.372,1.552 L-9.477,1.551 L-9.58,1.543 L-9.68,1.528 L-9.776,1.505 L-9.823,1.491 L-9.869,1.475 L-9.914,1.457 L-9.958,1.438 L-10.002,1.416 L-10.044,1.393 L-10.085,1.368 L-10.125,1.341 L-10.164,1.313 L-10.202,1.283 L-10.239,1.251 L-10.275,1.217 L-10.343,1.145 L-10.406,1.066 L-10.464,0.981 L-10.517,0.89 L-10.565,0.793 L-10.607,0.691 L-10.645,0.583 L-10.676,0.47 L-10.702,0.352 L-10.722,0.229 L-10.736,0.102 L-10.745,-0.029 L-10.748,-0.163 " />
			<path d="M-16.405,3.103 L-16.402,2.965 L-16.393,2.824 L-16.379,2.68 L-16.359,2.534 L-16.333,2.387 L-16.301,2.237 L-16.264,2.086 L-16.222,1.935 L-16.174,1.782 L-16.121,1.63 L-16.063,1.478 L-16,1.326 L-15.932,1.176 L-15.859,1.026 L-15.782,0.879 L-15.701,0.733 L-15.615,0.59 L-15.526,0.449 L-15.433,0.312 L-15.336,0.178 L-15.237,0.047 L-15.134,-0.079 L-15.029,-0.201 L-14.921,-0.319 L-14.811,-0.432 L-14.699,-0.539 L-14.585,-0.641 L-14.47,-0.737 L-14.353,-0.828 L-14.236,-0.912 L-14.119,-0.99 L-14.001,-1.061 L-13.883,-1.126 L-13.765,-1.184 L-13.648,-1.235 L-13.532,-1.279 L-13.417,-1.316 L-13.303,-1.345 L-13.191,-1.367 L-13.081,-1.381 L-12.973,-1.388 L-12.867,-1.388 L-12.765,-1.38 L-12.665,-1.365 L-12.569,-1.342 L-12.522,-1.328 L-12.476,-1.312 L-12.43,-1.294 L-12.386,-1.274 L-12.343,-1.253 L-12.301,-1.23 L-12.26,-1.205 L-12.219,-1.178 L-12.18,-1.15 L-12.142,-1.119 L-12.105,-1.088 L-12.07,-1.054 L-12.002,-0.982 L-11.939,-0.903 L-11.88,-0.818 L-11.827,-0.727 L-11.78,-0.63 L-11.737,-0.527 L-11.7,-0.419 L-11.669,-0.306 L-11.643,-0.188 L-11.623,-0.066 L-11.608,0.061 L-11.599,0.192 L-11.597,0.327 " />
			<path d="M-11.597,0.327 L-11.599,0.464 L-11.608,0.605 L-11.623,0.749 L-11.643,0.895 L-11.669,1.043 L-11.7,1.192 L-11.737,1.343 L-11.78,1.495 L-11.827,1.647 L-11.88,1.799 L-11.939,1.951 L-12.002,2.103 L-12.07,2.253 L-12.142,2.403 L-12.219,2.55 L-12.301,2.696 L-12.386,2.839 L-12.476,2.98 L-12.569,3.118 L-12.665,3.252 L-12.765,3.382 L-12.867,3.509 L-12.973,3.631 L-13.081,3.748 L-13.191,3.861 L-13.303,3.968 L-13.417,4.07 L-13.532,4.167 L-13.648,4.257 L-13.765,4.341 L-13.883,4.419 L-14.001,4.491 " />
			<path d="M-14.001,4.491 L-14.119,4.555 L-14.236,4.613 L-14.353,4.664 L-14.47,4.708 L-14.585,4.745 L-14.699,4.774 L-14.811,4.796 L-14.921,4.811 L-15.029,4.818 L-15.134,4.817 L-15.237,4.809 L-15.336,4.794 L-15.433,4.771 L-15.48,4.757 L-15.526,4.741 L-15.571,4.723 L-15.615,4.704 L-15.658,4.682 L-15.701,4.659 L-15.742,4.634 L-15.782,4.607 L-15.821,4.579 L-15.859,4.549 L-15.896,4.517 L-15.932,4.483 L-16,4.411 L-16.063,4.332 L-16.121,4.247 L-16.174,4.156 L-16.222,4.059 L-16.264,3.957 L-16.301,3.849 L-16.333,3.736 L-16.359,3.618 L-16.379,3.495 L-16.393,3.368 L-16.402,3.237 L-16.405,3.103 " />
			<path d="M-22.062,6.369 L-22.059,6.231 L-22.05,6.09 L-22.036,5.946 L-22.016,5.8 L-21.99,5.653 L-21.958,5.503 L-21.921,5.352 L-21.879,5.201 L-21.831,5.048 L-21.778,4.896 L-21.72,4.744 L-21.657,4.592 L-21.589,4.442 L-21.516,4.292 L-21.439,4.145 L-21.358,3.999 L-21.272,3.856 L-21.183,3.715 L-21.09,3.578 L-20.993,3.444 L-20.894,3.313 L-20.791,3.187 L-20.685,3.065 L-20.578,2.947 L-20.468,2.834 L-20.355,2.727 L-20.242,2.625 L-20.127,2.529 L-20.01,2.438 L-19.893,2.354 L-19.776,2.276 L-19.658,2.205 L-19.54,2.14 L-19.422,2.082 L-19.305,2.031 L-19.189,1.987 L-19.073,1.95 L-18.96,1.921 L-18.848,1.899 L-18.738,1.885 L-18.63,1.878 L-18.524,1.878 L-18.422,1.886 L-18.322,1.901 L-18.225,1.924 L-18.178,1.938 L-18.132,1.954 L-18.087,1.972 L-18.043,1.992 L-18,2.013 L-17.958,2.036 L-17.916,2.061 L-17.876,2.088 L-17.837,2.116 L-17.799,2.147 L-17.762,2.178 L-17.727,2.212 L-17.659,2.284 L-17.595,2.363 L-17.537,2.448 L-17.484,2.539 L-17.436,2.636 L-17.394,2.738 L-17.357,2.846 L-17.325,2.96 L-17.3,3.078 L-17.279,3.2 L-17.265,3.327 L-17.256,3.458 L-17.253,3.593 " />
			<path d="M-17.253,3.593 L-17.256,3.73 L-17.265,3.871 L-17.279,4.015 L-17.3,4.161 L-17.325,4.309 L-17.357,4.458 L-17.394,4.609 L-17.436,4.761 L-17.484,4.913 L-17.537,5.065 L-17.595,5.217 L-17.659,5.369 L-17.727,5.519 L-17.799,5.669 L-17.876,5.816 L-17.958,5.962 L-18.043,6.105 L-18.132,6.246 L-18.225,6.384 L-18.322,6.518 L-18.422,6.648 L-18.524,6.775 L-18.63,6.897 L-18.738,7.014 L-18.848,7.127 L-18.96,7.234 L-19.073,7.336 L-19.189,7.433 L-19.305,7.523 L-19.422,7.607 L-19.54,7.685 L-19.658,7.757 " />
			<path d="M-19.658,7.757 L-19.776,7.821 L-19.893,7.879 L-20.01,7.93 L-20.127,7.974 L-20.242,8.011 L-20.355,8.04 L-20.468,8.062 L-20.578,8.077 L-20.685,8.084 L-20.791,8.083 L-20.894,8.075 L-20.993,8.06 L-21.09,8.037 L-21.137,8.023 L-21.183,8.007 L-21.228,7.989 L-21.272,7.97 L-21.315,7.948 L-21.358,7.925 L-21.399,7.9 L-21.439,7.873 L-21.478,7.845 L-21.516,7.815 L-21.553,7.783 L-21.589,7.749 L-21.657,7.677 L-21.72,7.598 L-21.778,7.513 L-21.831,7.422 L-21.879,7.325 L-21.921,7.223 L-21.958,7.115 L-21.99,7.002 L-22.016,6.884 L-22.036,6.761 L-22.05,6.634 L-22.059,6.503 L-22.062,6.369 " />
			<path d="M-27.719,9.635 L-27.716,9.497 L-27.707,9.356 L-27.693,9.212 L-27.672,9.066 L-27.647,8.919 L-27.615,8.769 L-27.578,8.618 L-27.536,8.467 L-27.488,8.314 L-27.435,8.162 L-27.377,8.01 L-27.313,7.858 L-27.245,7.708 L-27.173,7.558 L-27.096,7.411 L-27.014,7.265 L-26.929,7.122 L-26.84,6.981 L-26.747,6.844 L-26.65,6.71 L-26.55,6.579 L-26.448,6.453 L-26.342,6.331 L-26.234,6.213 L-26.124,6.1 L-26.012,5.993 L-25.899,5.891 L-25.783,5.795 L-25.667,5.704 L-25.55,5.62 L-25.432,5.542 L-25.314,5.471 L-25.196,5.406 L-25.079,5.348 L-24.962,5.297 L-24.845,5.253 L-24.73,5.216 L-24.617,5.187 L-24.504,5.165 L-24.394,5.151 L-24.287,5.144 L-24.181,5.144 L-24.078,5.152 L-23.979,5.167 L-23.882,5.19 L-23.835,5.204 L-23.789,5.22 L-23.744,5.238 L-23.7,5.258 L-23.657,5.279 L-23.614,5.302 L-23.573,5.327 L-23.533,5.354 L-23.494,5.382 L-23.456,5.413 L-23.419,5.444 L-23.383,5.478 L-23.315,5.55 L-23.252,5.629 L-23.194,5.714 L-23.141,5.805 L-23.093,5.902 L-23.051,6.004 L-23.014,6.112 L-22.982,6.226 L-22.956,6.344 L-22.936,6.466 L-22.922,6.593 L-22.913,6.724 L-22.91,6.859 " />
			<path d="M-22.91,6.859 L-22.913,6.996 L-22.922,7.137 L-22.936,7.281 L-22.956,7.427 L-22.982,7.575 L-23.014,7.724 L-23.051,7.875 L-23.093,8.027 L-23.141,8.179 L-23.194,8.331 L-23.252,8.483 L-23.315,8.635 L-23.383,8.785 L-23.456,8.935 L-23.533,9.082 L-23.614,9.228 L-23.7,9.371 L-23.789,9.512 L-23.882,9.65 L-23.979,9.784 L-24.078,9.914 L-24.181,10.041 L-24.287,10.163 L-24.394,10.28 L-24.504,10.393 L-24.617,10.5 L-24.73,10.602 L-24.845,10.699 L-24.962,10.789 L-25.079,10.873 L-25.196,10.951 L-25.314,11.023 " />
			<path d="M-25.314,11.023 L-25.432,11.087 L-25.55,11.145 L-25.667,11.196 L-25.783,11.24 L-25.899,11.277 L-26.012,11.306 L-26.124,11.328 L-26.234,11.343 L-26.342,11.35 L-26.448,11.349 L-26.55,11.341 L-26.65,11.326 L-26.747,11.303 L-26.794,11.289 L-26.84,11.273 L-26.885,11.255 L-26.929,11.236 L-26.972,11.214 L-27.014,11.191 L-27.056,11.166 L-27.096,11.139 L-27.135,11.111 L-27.173,11.081 L-27.21,11.049 L-27.245,11.015 L-27.313,10.943 L-27.377,10.864 L-27.435,10.779 L-27.488,10.688 L-27.536,10.591 L-27.578,10.489 L-27.615,10.381 L-27.647,10.268 L-27.672,10.15 L-27.693,10.027 L-27.707,9.9 L-27.716,9.769 L-27.719,9.635 " />
			<path d="M-33.375,12.901 L-33.373,12.763 L-33.364,12.622 L-33.349,12.478 L-33.329,12.332 L-33.303,12.185 L-33.272,12.035 L-33.235,11.884 L-33.192,11.733 L-33.145,11.58 L-33.092,11.428 L-33.033,11.276 L-32.97,11.124 L-32.902,10.974 L-32.83,10.824 L-32.753,10.677 L-32.671,10.531 L-32.586,10.388 L-32.496,10.247 L-32.403,10.11 L-32.307,9.976 L-32.207,9.845 L-32.105,9.719 L-31.999,9.597 L-31.891,9.479 L-31.781,9.366 L-31.669,9.259 L-31.555,9.157 L-31.44,9.061 L-31.324,8.97 L-31.207,8.886 L-31.089,8.808 L-30.971,8.737 L-30.853,8.672 L-30.736,8.614 L-30.619,8.563 L-30.502,8.519 L-30.387,8.482 L-30.273,8.453 L-30.161,8.431 L-30.051,8.417 L-29.943,8.41 L-29.838,8.41 L-29.735,8.418 L-29.636,8.433 L-29.539,8.456 L-29.492,8.47 L-29.446,8.486 L-29.401,8.504 L-29.357,8.524 L-29.314,8.545 L-29.271,8.568 L-29.23,8.593 L-29.19,8.62 L-29.151,8.648 L-29.113,8.678 L-29.076,8.71 L-29.04,8.744 L-28.972,8.816 L-28.909,8.895 L-28.851,8.98 L-28.798,9.071 L-28.75,9.168 L-28.708,9.27 L-28.671,9.378 L-28.639,9.492 L-28.613,9.61 L-28.593,9.732 L-28.579,9.859 L-28.57,9.99 L-28.567,10.125 " />
			<path d="M-28.567,10.125 L-28.57,10.262 L-28.579,10.403 L-28.593,10.547 L-28.613,10.693 L-28.639,10.841 L-28.671,10.99 L-28.708,11.141 L-28.75,11.293 L-28.798,11.445 L-28.851,11.597 L-28.909,11.749 L-28.972,11.901 L-29.04,12.051 L-29.113,12.201 L-29.19,12.348 L-29.271,12.494 L-29.357,12.637 L-29.446,12.778 L-29.539,12.916 L-29.636,13.05 L-29.735,13.18 L-29.838,13.307 L-29.943,13.429 L-30.051,13.546 L-30.161,13.659 L-30.273,13.766 L-30.387,13.868 L-30.502,13.965 L-30.619,14.055 L-30.736,14.139 L-30.853,14.217 L-30.971,14.289 " />
			<path d="M-30.971,14.289 L-31.089,14.353 L-31.207,14.411 L-31.324,14.462 L-31.44,14.506 L-31.555,14.543 L-31.669,14.572 L-31.781,14.594 L-31.891,14.609 L-31.999,14.616 L-32.105,14.615 L-32.207,14.607 L-32.307,14.592 L-32.403,14.569 L-32.45,14.555 L-32.496,14.539 L-32.542,14.521 L-32.586,14.502 L-32.629,14.48 L-32.671,14.457 L-32.712,14.432 L-32.753,14.405 L-32.792,14.377 L-32.83,14.347 L-32.867,14.315 L-32.902,14.281 L-32.97,14.209 L-33.033,14.13 L-33.092,14.045 L-33.145,13.954 L-33.192,13.857 L-33.235,13.755 L-33.272,13.647 L-33.303,13.534 L-33.329,13.416 L-33.349,13.293 L-33.364,13.166 L-33.373,13.035 L-33.375,12.901 " />
			<path d="M-11.377,5.76 L-11.375,5.883 L-11.367,6.002 L-11.354,6.118 L-11.335,6.23 L-11.312,6.337 L-11.283,6.441 L-11.249,6.539 L-11.21,6.633 L-11.167,6.721 L-11.119,6.804 L-11.065,6.882 L-11.008,6.953 L-10.946,7.019 L-10.88,7.079 L-10.81,7.132 L-10.735,7.179 " />
			<path d="M-10.735,7.179 L-10.673,7.213 L-10.608,7.242 L-10.541,7.266 L-10.472,7.287 " />
			<path d="M-7.411,1.984 L-7.463,1.935 L-7.518,1.889 L-7.575,1.848 L-7.635,1.81 " />
			<path d="M-7.635,1.81 L-7.693,1.779 L-7.754,1.752 L-7.816,1.728 L-7.88,1.708 L-7.945,1.692 L-8.013,1.679 L-8.082,1.671 L-8.152,1.666 L-8.224,1.665 L-8.297,1.668 L-8.371,1.675 L-8.447,1.685 L-8.523,1.7 L-8.601,1.718 L-8.679,1.74 L-8.758,1.765 L-8.837,1.795 L-8.917,1.828 L-8.997,1.864 L-9.078,1.905 L-9.158,1.948 L-9.239,1.995 L-9.32,2.046 L-9.4,2.1 L-9.48,2.157 L-9.56,2.217 L-9.639,2.281 L-9.718,2.347 L-9.796,2.416 L-9.873,2.488 L-9.949,2.563 L-10.024,2.641 L-10.098,2.721 L-10.171,2.803 L-10.242,2.888 L-10.312,2.974 L-10.381,3.063 L-10.448,3.154 L-10.513,3.247 L-10.576,3.341 L-10.637,3.437 L-10.697,3.534 L-10.754,3.633 L-10.81,3.733 L-10.863,3.834 L-10.913,3.935 L-10.962,4.038 L-11.008,4.141 L-11.052,4.244 L-11.093,4.348 L-11.131,4.452 L-11.167,4.557 L-11.2,4.661 L-11.23,4.765 L-11.258,4.868 L-11.283,4.971 L-11.305,5.073 L-11.324,5.175 L-11.34,5.276 L-11.354,5.375 L-11.364,5.474 L-11.371,5.571 L-11.376,5.666 L-11.377,5.76 " />
			<path d="M-17.034,9.026 L-17.032,9.149 L-17.024,9.268 L-17.01,9.384 L-16.992,9.496 L-16.969,9.603 L-16.94,9.707 L-16.906,9.805 L-16.867,9.899 L-16.824,9.987 L-16.775,10.07 L-16.722,10.148 L-16.665,10.219 L-16.603,10.285 L-16.537,10.345 L-16.466,10.398 L-16.392,10.445 " />
			<path d="M-16.392,10.445 L-16.33,10.479 L-16.265,10.508 L-16.198,10.532 L-16.129,10.553 " />
			<path d="M-13.068,5.25 L-13.12,5.201 L-13.175,5.155 L-13.232,5.114 L-13.292,5.076 " />
			<path d="M-13.292,5.076 L-13.35,5.045 L-13.41,5.018 L-13.472,4.994 L-13.536,4.974 L-13.602,4.958 L-13.669,4.945 L-13.738,4.937 L-13.809,4.932 L-13.881,4.931 L-13.954,4.934 L-14.028,4.941 L-14.104,4.951 L-14.18,4.966 L-14.258,4.984 L-14.336,5.006 L-14.415,5.031 L-14.494,5.061 L-14.574,5.094 L-14.654,5.13 L-14.735,5.171 L-14.815,5.214 L-14.896,5.261 L-14.977,5.312 L-15.057,5.366 L-15.137,5.423 L-15.217,5.483 L-15.296,5.547 L-15.375,5.613 L-15.453,5.682 L-15.53,5.754 L-15.606,5.829 L-15.681,5.907 L-15.755,5.987 L-15.828,6.069 L-15.899,6.154 L-15.969,6.24 L-16.038,6.329 L-16.104,6.42 L-16.169,6.513 L-16.233,6.607 L-16.294,6.703 L-16.354,6.8 L-16.411,6.899 L-16.466,6.999 L-16.519,7.1 L-16.57,7.201 L-16.619,7.304 L-16.665,7.407 L-16.708,7.51 L-16.749,7.614 L-16.788,7.718 L-16.824,7.823 L-16.857,7.927 L-16.887,8.031 L-16.915,8.134 L-16.94,8.237 L-16.962,8.339 L-16.981,8.441 L-16.997,8.542 L-17.01,8.641 L-17.021,8.74 L-17.028,8.837 L-17.033,8.932 L-17.034,9.026 " />
			<path d="M-22.691,12.292 L-22.688,12.415 L-22.681,12.534 L-22.667,12.65 L-22.649,12.762 L-22.625,12.869 L-22.597,12.973 L-22.563,13.071 L-22.524,13.165 L-22.481,13.253 L-22.432,13.336 L-22.379,13.414 L-22.322,13.485 L-22.26,13.551 L-22.193,13.611 L-22.123,13.664 L-22.049,13.711 " />
			<path d="M-22.049,13.711 L-21.987,13.745 L-21.922,13.774 L-21.855,13.798 L-21.786,13.819 " />
			<path d="M-18.724,8.516 L-18.777,8.467 L-18.832,8.421 L-18.889,8.38 L-18.949,8.342 " />
			<path d="M-18.949,8.342 L-19.007,8.311 L-19.067,8.284 L-19.129,8.26 L-19.193,8.24 L-19.259,8.224 L-19.326,8.211 L-19.395,8.203 L-19.466,8.198 L-19.538,8.197 L-19.611,8.2 L-19.685,8.207 L-19.761,8.217 L-19.837,8.232 L-19.914,8.25 L-19.993,8.272 L-20.071,8.297 L-20.151,8.327 L-20.231,8.36 L-20.311,8.396 L-20.391,8.437 L-20.472,8.48 L-20.553,8.527 L-20.633,8.578 L-20.714,8.632 L-20.794,8.689 L-20.874,8.749 L-20.953,8.813 L-21.032,8.879 L-21.11,8.948 L-21.187,9.02 L-21.263,9.095 L-21.338,9.173 L-21.412,9.253 L-21.485,9.335 L-21.556,9.42 L-21.626,9.506 L-21.694,9.595 L-21.761,9.686 L-21.826,9.779 L-21.89,9.873 L-21.951,9.969 L-22.011,10.066 L-22.068,10.165 L-22.123,10.265 L-22.176,10.366 L-22.227,10.467 L-22.276,10.57 L-22.322,10.673 L-22.365,10.776 L-22.406,10.88 L-22.445,10.984 L-22.481,11.089 L-22.514,11.193 L-22.544,11.297 L-22.572,11.4 L-22.597,11.503 L-22.619,11.605 L-22.638,11.707 L-22.654,11.808 L-22.667,11.907 L-22.678,12.006 L-22.685,12.103 L-22.69,12.198 L-22.691,12.292 " />
			<path d="M-28.348,15.558 L-28.345,15.681 L-28.337,15.8 L-28.324,15.916 L-28.306,16.028 L-28.282,16.135 L-28.254,16.239 L-28.22,16.337 L-28.181,16.431 L-28.137,16.519 L-28.089,16.602 L-28.036,16.68 L-27.978,16.751 L-27.917,16.817 L-27.85,16.877 L-27.78,16.93 L-27.706,16.977 " />
			<path d="M-27.706,16.977 L-27.643,17.011 L-27.579,17.04 L-27.512,17.064 L-27.443,17.085 " />
			<path d="M-24.381,11.782 L-24.433,11.733 L-24.488,11.687 L-24.546,11.646 L-24.606,11.608 " />
			<path d="M-24.606,11.608 L-24.664,11.577 L-24.724,11.55 L-24.786,11.526 L-24.85,11.506 L-24.916,11.49 L-24.983,11.477 L-25.052,11.469 L-25.123,11.464 L-25.194,11.463 L-25.268,11.466 L-25.342,11.473 L-25.417,11.483 L-25.494,11.498 L-25.571,11.516 L-25.649,11.538 L-25.728,11.563 L-25.808,11.593 L-25.888,11.626 L-25.968,11.662 L-26.048,11.703 L-26.129,11.746 L-26.21,11.793 L-26.29,11.844 L-26.371,11.898 L-26.451,11.955 L-26.531,12.015 L-26.61,12.079 L-26.688,12.145 L-26.766,12.214 L-26.843,12.286 L-26.92,12.361 L-26.995,12.439 L-27.069,12.519 L-27.141,12.601 L-27.213,12.686 L-27.283,12.772 L-27.351,12.861 L-27.418,12.952 L-27.483,13.045 L-27.546,13.139 L-27.608,13.235 L-27.667,13.332 L-27.725,13.431 L-27.78,13.531 L-27.833,13.632 L-27.884,13.733 L-27.932,13.836 L-27.978,13.939 L-28.022,14.042 L-28.063,14.146 L-28.102,14.25 L-28.137,14.355 L-28.171,14.459 L-28.201,14.563 L-28.229,14.666 L-28.254,14.769 L-28.276,14.871 L-28.295,14.973 L-28.311,15.074 L-28.324,15.173 L-28.335,15.272 L-28.342,15.369 L-28.346,15.464 L-28.348,15.558 " />
			<path d="M-5.303,2.254 L-5.3,2.132 L-5.291,2.008 L-5.276,1.881 L-5.255,1.752 L-5.228,1.621 L-5.196,1.488 L-5.157,1.355 L-5.113,1.221 L-5.064,1.088 L-5.01,0.955 L-4.95,0.822 L-4.886,0.692 L-4.817,0.563 L-4.743,0.436 L-4.666,0.312 L-4.584,0.191 L-4.499,0.074 L-4.411,-0.04 L-4.32,-0.149 L-4.226,-0.253 L-4.129,-0.353 L-4.031,-0.447 L-3.931,-0.535 L-3.829,-0.617 L-3.727,-0.693 L-3.623,-0.763 L-3.52,-0.826 L-3.416,-0.881 L-3.313,-0.93 L-3.211,-0.971 L-3.109,-1.005 L-3.01,-1.031 " />
			<path d="M-5.226,2.808 L-5.244,2.745 L-5.26,2.681 L-5.273,2.614 L-5.284,2.545 L-5.292,2.475 L-5.298,2.403 L-5.302,2.329 L-5.303,2.254 " />
			<path d="M-10.324,-0.163 L-10.322,-0.257 L-10.318,-0.353 L-10.31,-0.45 L-10.3,-0.548 L-10.287,-0.648 L-10.27,-0.749 L-10.251,-0.85 L-10.229,-0.953 L-10.205,-1.056 L-10.177,-1.159 L-10.146,-1.263 L-10.113,-1.367 L-10.077,-1.471 L-10.039,-1.575 L-9.998,-1.679 L-9.954,-1.783 L-9.908,-1.886 L-9.86,-1.988 L-9.809,-2.09 L-9.756,-2.191 L-9.701,-2.291 L-9.643,-2.389 L-9.584,-2.487 L-9.522,-2.583 L-9.459,-2.677 L-9.394,-2.77 L-9.327,-2.86 L-9.259,-2.949 L-9.189,-3.036 L-9.117,-3.121 L-9.045,-3.203 L-8.971,-3.283 L-8.895,-3.36 L-8.819,-3.435 L-8.742,-3.507 L-8.664,-3.577 L-8.586,-3.643 L-8.506,-3.706 L-8.427,-3.767 L-8.347,-3.824 L-8.266,-3.878 L-8.186,-3.928 L-8.105,-3.975 L-8.024,-4.019 L-7.944,-4.059 L-7.863,-4.096 L-7.784,-4.129 L-7.704,-4.158 L-7.625,-4.184 L-7.547,-4.206 L-7.47,-4.224 L-7.393,-4.238 L-7.318,-4.249 L-7.243,-4.256 L-7.17,-4.259 L-7.098,-4.258 L-7.028,-4.253 L-6.959,-4.244 L-6.892,-4.232 L-6.826,-4.216 L-6.762,-4.196 L-6.7,-4.172 L-6.64,-4.145 L-6.582,-4.114 " />
			<path d="M-6.582,-4.114 L-6.508,-4.066 L-6.437,-4.013 L-6.371,-3.953 L-6.309,-3.887 L-6.252,-3.816 L-6.199,-3.738 L-6.15,-3.655 L-6.107,-3.567 L-6.068,-3.473 L-6.034,-3.375 L-6.005,-3.272 L-5.982,-3.164 L-5.963,-3.052 L-5.95,-2.936 L-5.942,-2.817 L-5.94,-2.694 " />
			<path d="M-5.94,-2.694 L-5.942,-2.569 L-5.95,-2.44 L-5.963,-2.309 L-5.982,-2.176 L-6.005,-2.041 L-6.034,-1.905 L-6.068,-1.768 L-6.107,-1.629 L-6.15,-1.491 L-6.199,-1.352 L-6.252,-1.213 L-6.309,-1.075 L-6.371,-0.938 L-6.437,-0.801 L-6.508,-0.667 L-6.582,-0.534 L-6.66,-0.403 L-6.741,-0.275 L-6.826,-0.15 L-6.914,-0.027 L-7.005,0.092 L-7.098,0.207 L-7.195,0.318 L-7.293,0.425 L-7.393,0.528 L-7.495,0.626 L-7.599,0.719 L-7.704,0.807 L-7.81,0.889 L-7.917,0.966 L-8.024,1.037 L-8.132,1.102 " />
			<path d="M-8.132,1.102 L-8.239,1.161 L-8.347,1.214 L-8.453,1.261 L-8.559,1.301 L-8.664,1.334 L-8.768,1.361 L-8.87,1.381 L-8.971,1.394 L-9.069,1.4 L-9.165,1.4 L-9.259,1.393 L-9.35,1.379 L-9.438,1.358 L-9.522,1.331 L-9.604,1.296 L-9.682,1.256 " />
			<path d="M-9.682,1.256 L-9.756,1.209 L-9.826,1.155 L-9.892,1.095 L-9.954,1.03 L-10.012,0.958 L-10.065,0.88 L-10.113,0.797 L-10.157,0.709 L-10.196,0.615 L-10.229,0.517 L-10.258,0.414 L-10.282,0.306 L-10.3,0.194 L-10.313,0.079 L-10.321,-0.041 L-10.324,-0.163 " />
			<path d="M-15.981,3.103 L-15.979,3.009 L-15.975,2.913 L-15.967,2.816 L-15.957,2.718 L-15.944,2.618 L-15.927,2.517 L-15.908,2.416 L-15.886,2.313 L-15.861,2.21 L-15.834,2.107 L-15.803,2.003 L-15.77,1.899 L-15.734,1.795 L-15.696,1.691 L-15.655,1.587 L-15.611,1.483 L-15.565,1.38 L-15.517,1.278 L-15.466,1.176 L-15.413,1.075 L-15.357,0.975 L-15.3,0.877 L-15.241,0.779 L-15.179,0.683 L-15.116,0.589 L-15.051,0.496 L-14.984,0.406 L-14.916,0.317 L-14.846,0.23 L-14.774,0.145 L-14.701,0.063 L-14.627,-0.017 L-14.552,-0.094 L-14.476,-0.169 L-14.399,-0.241 L-14.321,-0.311 L-14.243,-0.377 L-14.163,-0.44 L-14.084,-0.501 L-14.003,-0.558 L-13.923,-0.612 L-13.842,-0.662 L-13.762,-0.709 L-13.681,-0.753 L-13.601,-0.793 L-13.52,-0.83 L-13.44,-0.863 L-13.361,-0.892 L-13.282,-0.918 L-13.204,-0.94 L-13.127,-0.958 L-13.05,-0.972 L-12.975,-0.983 L-12.9,-0.99 L-12.827,-0.993 L-12.755,-0.992 L-12.685,-0.987 L-12.616,-0.978 L-12.548,-0.966 L-12.483,-0.95 L-12.419,-0.93 L-12.357,-0.906 L-12.297,-0.879 L-12.239,-0.848 " />
			<path d="M-12.239,-0.848 L-12.164,-0.8 L-12.094,-0.747 L-12.028,-0.687 L-11.966,-0.621 L-11.908,-0.55 L-11.855,-0.472 L-11.807,-0.389 L-11.763,-0.301 L-11.725,-0.207 L-11.691,-0.109 L-11.662,-0.006 L-11.639,0.102 L-11.62,0.214 L-11.607,0.33 L-11.599,0.449 L-11.597,0.572 " />
			<path d="M-11.597,0.572 L-11.599,0.697 L-11.607,0.826 L-11.62,0.957 L-11.639,1.09 L-11.662,1.224 L-11.691,1.361 L-11.725,1.498 L-11.763,1.637 L-11.807,1.775 L-11.855,1.914 L-11.908,2.053 L-11.966,2.191 L-12.028,2.328 L-12.094,2.465 L-12.164,2.599 L-12.239,2.732 L-12.317,2.863 L-12.398,2.991 L-12.483,3.116 L-12.571,3.239 L-12.662,3.358 L-12.755,3.473 L-12.851,3.584 L-12.95,3.691 L-13.05,3.794 L-13.152,3.892 L-13.256,3.985 L-13.361,4.073 L-13.467,4.155 L-13.574,4.232 L-13.681,4.303 L-13.789,4.368 " />
			<path d="M-13.789,4.368 L-13.896,4.427 L-14.003,4.48 L-14.11,4.527 L-14.216,4.567 L-14.321,4.6 L-14.425,4.627 L-14.527,4.647 L-14.627,4.66 L-14.726,4.666 L-14.822,4.666 L-14.916,4.659 L-15.006,4.645 L-15.094,4.624 L-15.179,4.597 L-15.261,4.562 L-15.339,4.522 " />
			<path d="M-15.339,4.522 L-15.413,4.475 L-15.483,4.421 L-15.549,4.361 L-15.611,4.296 L-15.669,4.224 L-15.722,4.146 L-15.77,4.063 L-15.814,3.975 L-15.852,3.881 L-15.886,3.783 L-15.915,3.68 L-15.938,3.572 L-15.957,3.46 L-15.97,3.345 L-15.978,3.225 L-15.981,3.103 " />
			<path d="M-21.637,6.369 L-21.636,6.275 L-21.632,6.179 L-21.624,6.082 L-21.614,5.984 L-21.6,5.884 L-21.584,5.783 L-21.565,5.682 L-21.543,5.579 L-21.518,5.476 L-21.491,5.373 L-21.46,5.269 L-21.427,5.165 L-21.391,5.061 L-21.353,4.957 L-21.312,4.853 L-21.268,4.749 L-21.222,4.646 L-21.174,4.544 L-21.123,4.442 L-21.07,4.341 L-21.014,4.241 L-20.957,4.143 L-20.897,4.045 L-20.836,3.949 L-20.773,3.855 L-20.708,3.762 L-20.641,3.672 L-20.572,3.583 L-20.502,3.496 L-20.431,3.411 L-20.358,3.329 L-20.284,3.249 L-20.209,3.172 L-20.133,3.097 L-20.056,3.025 L-19.978,2.955 L-19.899,2.889 L-19.82,2.826 L-19.74,2.765 L-19.66,2.708 L-19.58,2.654 L-19.499,2.604 L-19.419,2.557 L-19.338,2.513 L-19.257,2.473 L-19.177,2.436 L-19.097,2.403 L-19.018,2.374 L-18.939,2.348 L-18.861,2.326 L-18.783,2.308 L-18.707,2.294 L-18.631,2.283 L-18.557,2.276 L-18.484,2.273 L-18.412,2.274 L-18.342,2.279 L-18.273,2.288 L-18.205,2.3 L-18.14,2.316 L-18.076,2.336 L-18.014,2.36 L-17.954,2.387 L-17.895,2.418 " />
			<path d="M-17.895,2.418 L-17.821,2.466 L-17.751,2.519 L-17.685,2.579 L-17.623,2.645 L-17.565,2.716 L-17.512,2.794 L-17.464,2.877 L-17.42,2.965 L-17.382,3.059 L-17.348,3.157 L-17.319,3.26 L-17.296,3.368 L-17.277,3.48 L-17.264,3.596 L-17.256,3.715 L-17.253,3.838 " />
			<path d="M-17.253,3.838 L-17.256,3.963 L-17.264,4.092 L-17.277,4.223 L-17.296,4.356 L-17.319,4.49 L-17.348,4.627 L-17.382,4.764 L-17.42,4.902 L-17.464,5.041 L-17.512,5.18 L-17.565,5.319 L-17.623,5.457 L-17.685,5.594 L-17.751,5.731 L-17.821,5.865 L-17.895,5.998 L-17.973,6.129 L-18.055,6.257 L-18.14,6.382 L-18.228,6.505 L-18.319,6.624 L-18.412,6.739 L-18.508,6.85 L-18.607,6.957 L-18.707,7.06 L-18.809,7.158 L-18.913,7.251 L-19.018,7.339 L-19.124,7.421 L-19.231,7.498 L-19.338,7.569 L-19.445,7.634 " />
			<path d="M-19.445,7.634 L-19.553,7.693 L-19.66,7.746 L-19.767,7.793 L-19.873,7.833 L-19.978,7.866 L-20.082,7.893 L-20.184,7.913 L-20.284,7.926 L-20.383,7.932 L-20.479,7.932 L-20.572,7.925 L-20.663,7.911 L-20.751,7.89 L-20.836,7.863 L-20.918,7.828 L-20.995,7.788 " />
			<path d="M-20.995,7.788 L-21.07,7.741 L-21.14,7.687 L-21.206,7.627 L-21.268,7.562 L-21.326,7.49 L-21.379,7.412 L-21.427,7.329 L-21.471,7.241 L-21.509,7.147 L-21.543,7.049 L-21.572,6.946 L-21.595,6.838 L-21.614,6.726 L-21.627,6.611 L-21.635,6.491 L-21.637,6.369 " />
			<path d="M-27.294,9.635 L-27.293,9.541 L-27.288,9.445 L-27.281,9.348 L-27.271,9.25 L-27.257,9.15 L-27.241,9.049 L-27.222,8.948 L-27.2,8.845 L-27.175,8.742 L-27.147,8.639 L-27.117,8.535 L-27.084,8.431 L-27.048,8.327 L-27.01,8.223 L-26.968,8.119 L-26.925,8.015 L-26.879,7.912 L-26.83,7.81 L-26.78,7.708 L-26.726,7.607 L-26.671,7.507 L-26.614,7.409 L-26.554,7.311 L-26.493,7.215 L-26.43,7.121 L-26.364,7.028 L-26.298,6.938 L-26.229,6.849 L-26.159,6.762 L-26.088,6.677 L-26.015,6.595 L-25.941,6.515 L-25.866,6.438 L-25.79,6.363 L-25.713,6.291 L-25.635,6.221 L-25.556,6.155 L-25.477,6.092 L-25.397,6.031 L-25.317,5.974 L-25.237,5.92 L-25.156,5.87 L-25.075,5.823 L-24.995,5.779 L-24.914,5.739 L-24.834,5.702 L-24.754,5.669 L-24.675,5.64 L-24.596,5.614 L-24.518,5.592 L-24.44,5.574 L-24.364,5.56 L-24.288,5.549 L-24.214,5.542 L-24.141,5.539 L-24.069,5.54 L-23.999,5.545 L-23.93,5.554 L-23.862,5.566 L-23.796,5.582 L-23.733,5.602 L-23.671,5.626 L-23.61,5.653 L-23.552,5.684 " />
			<path d="M-23.552,5.684 L-23.478,5.732 L-23.408,5.785 L-23.342,5.845 L-23.28,5.911 L-23.222,5.982 L-23.169,6.06 L-23.121,6.143 L-23.077,6.231 L-23.038,6.325 L-23.005,6.423 L-22.976,6.526 L-22.952,6.634 L-22.934,6.746 L-22.921,6.862 L-22.913,6.981 L-22.91,7.104 " />
			<path d="M-22.91,7.104 L-22.913,7.229 L-22.921,7.358 L-22.934,7.489 L-22.952,7.622 L-22.976,7.756 L-23.005,7.893 L-23.038,8.03 L-23.077,8.168 L-23.121,8.307 L-23.169,8.446 L-23.222,8.585 L-23.28,8.723 L-23.342,8.86 L-23.408,8.997 L-23.478,9.131 L-23.552,9.264 L-23.63,9.395 L-23.712,9.523 L-23.796,9.648 L-23.884,9.771 L-23.975,9.889 L-24.069,10.005 L-24.165,10.116 L-24.263,10.223 L-24.364,10.326 L-24.466,10.424 L-24.57,10.517 L-24.675,10.605 L-24.781,10.687 L-24.887,10.764 L-24.995,10.835 L-25.102,10.9 " />
			<path d="M-25.102,10.9 L-25.21,10.959 L-25.317,11.012 L-25.424,11.059 L-25.53,11.098 L-25.635,11.132 L-25.739,11.159 L-25.841,11.179 L-25.941,11.192 L-26.04,11.198 L-26.136,11.198 L-26.229,11.191 L-26.32,11.177 L-26.408,11.156 L-26.493,11.129 L-26.574,11.094 L-26.652,11.054 " />
			<path d="M-26.652,11.054 L-26.726,11.007 L-26.797,10.953 L-26.863,10.893 L-26.925,10.828 L-26.982,10.756 L-27.035,10.678 L-27.084,10.595 L-27.127,10.507 L-27.166,10.413 L-27.2,10.315 L-27.229,10.212 L-27.252,10.104 L-27.271,9.992 L-27.284,9.877 L-27.292,9.757 L-27.294,9.635 " />
			<path d="M-32.951,12.901 L-32.95,12.807 L-32.945,12.711 L-32.938,12.614 L-32.927,12.516 L-32.914,12.416 L-32.898,12.315 L-32.879,12.214 L-32.857,12.111 L-32.832,12.008 L-32.804,11.905 L-32.774,11.801 L-32.741,11.697 L-32.705,11.593 L-32.666,11.489 L-32.625,11.385 L-32.582,11.281 L-32.536,11.178 L-32.487,11.076 L-32.436,10.974 L-32.383,10.873 L-32.328,10.773 L-32.271,10.675 L-32.211,10.577 L-32.15,10.481 L-32.086,10.387 L-32.021,10.294 L-31.955,10.204 L-31.886,10.115 L-31.816,10.028 L-31.745,9.943 L-31.672,9.861 L-31.598,9.781 L-31.523,9.703 L-31.447,9.629 L-31.37,9.557 L-31.292,9.487 L-31.213,9.421 L-31.134,9.358 L-31.054,9.297 L-30.974,9.24 L-30.894,9.186 L-30.813,9.136 L-30.732,9.089 L-30.652,9.045 L-30.571,9.005 L-30.491,8.968 L-30.411,8.935 L-30.332,8.906 L-30.253,8.88 L-30.175,8.858 L-30.097,8.84 L-30.021,8.826 L-29.945,8.815 L-29.871,8.808 L-29.798,8.805 L-29.726,8.806 L-29.655,8.811 L-29.586,8.82 L-29.519,8.832 L-29.453,8.848 L-29.389,8.868 L-29.327,8.892 L-29.267,8.919 L-29.209,8.95 " />
			<path d="M-29.209,8.95 L-29.135,8.998 L-29.065,9.051 L-28.998,9.111 L-28.937,9.177 L-28.879,9.248 L-28.826,9.326 L-28.778,9.409 L-28.734,9.497 L-28.695,9.591 L-28.662,9.689 L-28.633,9.792 L-28.609,9.9 L-28.591,10.012 L-28.578,10.128 L-28.57,10.247 L-28.567,10.37 " />
			<path d="M-28.567,10.37 L-28.57,10.495 L-28.578,10.624 L-28.591,10.755 L-28.609,10.888 L-28.633,11.022 L-28.662,11.159 L-28.695,11.296 L-28.734,11.434 L-28.778,11.573 L-28.826,11.712 L-28.879,11.851 L-28.937,11.989 L-28.998,12.126 L-29.065,12.263 L-29.135,12.397 L-29.209,12.53 L-29.287,12.661 L-29.369,12.789 L-29.453,12.914 L-29.541,13.037 L-29.632,13.155 L-29.726,13.271 L-29.822,13.382 L-29.92,13.489 L-30.021,13.592 L-30.123,13.69 L-30.227,13.783 L-30.332,13.871 L-30.438,13.953 L-30.544,14.03 L-30.652,14.101 L-30.759,14.166 " />
			<path d="M-30.759,14.166 L-30.867,14.225 L-30.974,14.278 L-31.081,14.325 L-31.187,14.364 L-31.292,14.398 L-31.395,14.425 L-31.498,14.445 L-31.598,14.458 L-31.696,14.464 L-31.792,14.464 L-31.886,14.457 L-31.977,14.443 L-32.065,14.422 L-32.15,14.395 L-32.231,14.36 L-32.309,14.32 " />
			<path d="M-32.309,14.32 L-32.383,14.273 L-32.454,14.219 L-32.52,14.159 L-32.582,14.094 L-32.639,14.022 L-32.692,13.944 L-32.741,13.861 L-32.784,13.773 L-32.823,13.679 L-32.857,13.581 L-32.885,13.478 L-32.909,13.37 L-32.927,13.258 L-32.941,13.143 L-32.949,13.023 L-32.951,12.901 " />
			<path d="M-10.96,5.52 L-10.957,5.398 L-10.948,5.274 L-10.933,5.147 L-10.912,5.018 L-10.885,4.887 L-10.852,4.754 L-10.814,4.621 L-10.77,4.487 L-10.721,4.354 L-10.666,4.221 L-10.607,4.088 L-10.542,3.958 L-10.473,3.829 L-10.4,3.702 L-10.322,3.578 L-10.241,3.457 L-10.156,3.34 L-10.068,3.226 L-9.976,3.117 L-9.882,3.013 L-9.786,2.913 L-9.688,2.819 L-9.587,2.731 L-9.486,2.649 L-9.383,2.573 L-9.28,2.503 L-9.177,2.44 L-9.073,2.385 L-8.97,2.336 L-8.868,2.295 L-8.766,2.261 L-8.666,2.235 " />
			<path d="M-10.883,6.074 L-10.901,6.011 L-10.916,5.947 L-10.93,5.88 L-10.941,5.811 L-10.949,5.741 L-10.955,5.669 L-10.959,5.595 L-10.96,5.52 " />
			<path d="M-16.617,8.786 L-16.614,8.664 L-16.605,8.54 L-16.59,8.413 L-16.569,8.284 L-16.542,8.153 L-16.509,8.02 L-16.471,7.887 L-16.427,7.753 L-16.378,7.62 L-16.323,7.487 L-16.264,7.354 L-16.199,7.224 L-16.13,7.095 L-16.057,6.968 L-15.979,6.844 L-15.898,6.723 L-15.813,6.606 L-15.725,6.492 L-15.633,6.383 L-15.539,6.279 L-15.443,6.179 L-15.344,6.085 L-15.244,5.997 L-15.143,5.915 L-15.04,5.839 L-14.937,5.769 L-14.833,5.706 L-14.73,5.651 L-14.627,5.602 L-14.524,5.561 L-14.423,5.527 L-14.323,5.501 " />
			<path d="M-16.539,9.34 L-16.558,9.277 L-16.573,9.213 L-16.587,9.146 L-16.598,9.077 L-16.606,9.007 L-16.612,8.935 L-16.616,8.861 L-16.617,8.786 " />
			<path d="M-22.274,12.051 L-22.271,11.93 L-22.262,11.806 L-22.247,11.679 L-22.226,11.55 L-22.199,11.419 L-22.166,11.286 L-22.128,11.153 L-22.084,11.019 L-22.035,10.886 L-21.98,10.753 L-21.921,10.62 L-21.856,10.49 L-21.787,10.361 L-21.714,10.234 L-21.636,10.11 L-21.555,9.989 L-21.47,9.872 L-21.381,9.758 L-21.29,9.649 L-21.196,9.545 L-21.1,9.445 L-21.001,9.351 L-20.901,9.263 L-20.8,9.181 L-20.697,9.105 L-20.594,9.035 L-20.49,8.972 L-20.387,8.917 L-20.284,8.868 L-20.181,8.827 L-20.08,8.793 L-19.98,8.767 " />
			<path d="M-22.196,12.606 L-22.214,12.543 L-22.23,12.479 L-22.243,12.412 L-22.254,12.343 L-22.263,12.273 L-22.269,12.201 L-22.273,12.127 L-22.274,12.051 " />
			<path d="M-27.931,15.317 L-27.928,15.196 L-27.919,15.072 L-27.904,14.945 L-27.883,14.816 L-27.856,14.685 L-27.823,14.552 L-27.785,14.419 L-27.741,14.285 L-27.691,14.152 L-27.637,14.019 L-27.577,13.886 L-27.513,13.756 L-27.444,13.627 L-27.371,13.5 L-27.293,13.376 L-27.212,13.255 L-27.127,13.137 L-27.038,13.024 L-26.947,12.915 L-26.853,12.81 L-26.757,12.711 L-26.658,12.617 L-26.558,12.529 L-26.456,12.447 L-26.354,12.371 L-26.251,12.301 L-26.147,12.238 L-26.044,12.183 L-25.941,12.134 L-25.838,12.093 L-25.737,12.059 L-25.637,12.033 " />
			<path d="M-27.853,15.872 L-27.871,15.809 L-27.887,15.744 L-27.9,15.678 L-27.911,15.609 L-27.92,15.539 L-27.926,15.467 L-27.929,15.393 L-27.931,15.317 " />
			<path d="M-9.419,-0.122 L-9.417,-0.199 L-9.414,-0.276 L-9.408,-0.355 L-9.399,-0.434 L-9.389,-0.515 L-9.376,-0.596 L-9.36,-0.679 L-9.342,-0.762 L-9.322,-0.845 L-9.3,-0.929 L-9.275,-1.013 L-9.248,-1.097 L-9.219,-1.181 L-9.188,-1.266 L-9.155,-1.35 L-9.12,-1.434 L-9.043,-1.6 L-8.959,-1.764 L-8.868,-1.925 L-8.77,-2.081 L-8.666,-2.233 L-8.556,-2.378 L-8.5,-2.449 L-8.442,-2.517 L-8.383,-2.584 L-8.323,-2.648 L-8.262,-2.711 L-8.201,-2.772 L-8.138,-2.83 L-8.075,-2.886 L-8.011,-2.94 L-7.947,-2.991 L-7.883,-3.04 L-7.818,-3.086 L-7.753,-3.13 L-7.687,-3.171 L-7.622,-3.209 L-7.557,-3.244 L-7.492,-3.277 L-7.427,-3.307 L-7.362,-3.333 L-7.298,-3.357 L-7.234,-3.378 L-7.17,-3.396 L-7.108,-3.41 L-7.046,-3.422 L-6.985,-3.431 L-6.925,-3.436 L-6.865,-3.438 L-6.807,-3.438 L-6.75,-3.434 L-6.694,-3.427 L-6.64,-3.417 L-6.587,-3.404 L-6.535,-3.388 L-6.485,-3.368 L-6.436,-3.346 L-6.389,-3.321 " />
			<path d="M-6.389,-3.321 L-6.329,-3.283 L-6.272,-3.239 L-6.218,-3.191 L-6.168,-3.138 L-6.121,-3.08 L-6.079,-3.017 L-6.039,-2.95 L-6.004,-2.878 L-5.973,-2.802 L-5.945,-2.723 L-5.922,-2.639 L-5.903,-2.552 L-5.888,-2.462 L-5.878,-2.368 L-5.871,-2.271 L-5.869,-2.172 L-5.871,-2.07 L-5.878,-1.966 L-5.888,-1.86 L-5.903,-1.752 L-5.922,-1.643 L-5.945,-1.533 L-5.973,-1.422 L-6.004,-1.31 L-6.039,-1.197 L-6.079,-1.085 L-6.121,-0.972 L-6.168,-0.861 L-6.218,-0.749 L-6.272,-0.639 L-6.329,-0.53 L-6.389,-0.423 L-6.452,-0.317 L-6.518,-0.213 L-6.587,-0.111 L-6.658,-0.012 L-6.731,0.084 L-6.807,0.177 L-6.885,0.267 L-6.965,0.354 L-7.046,0.437 L-7.129,0.517 L-7.213,0.592 L-7.298,0.663 L-7.383,0.73 L-7.47,0.792 L-7.557,0.849 L-7.644,0.902 L-7.731,0.95 L-7.818,0.993 L-7.904,1.03 L-7.99,1.063 L-8.075,1.09 L-8.159,1.111 L-8.242,1.128 L-8.323,1.138 L-8.403,1.144 L-8.48,1.143 L-8.556,1.137 L-8.63,1.126 L-8.701,1.109 L-8.77,1.087 L-8.836,1.059 L-8.899,1.027 " />
			<path d="M-8.899,1.027 L-8.959,0.988 L-9.016,0.945 L-9.069,0.897 L-9.12,0.843 L-9.166,0.785 L-9.209,0.723 L-9.248,0.655 L-9.284,0.584 L-9.315,0.508 L-9.342,0.428 L-9.365,0.345 L-9.385,0.258 L-9.399,0.167 L-9.41,0.073 L-9.417,-0.023 L-9.419,-0.122 " />
			<path d="M-9.836,0.118 L-9.833,0.241 L-9.825,0.36 L-9.812,0.476 L-9.794,0.588 L-9.77,0.695 L-9.741,0.799 L-9.708,0.897 L-9.669,0.991 L-9.625,1.079 L-9.577,1.162 L-9.524,1.24 L-9.466,1.311 L-9.404,1.377 L-9.338,1.437 L-9.268,1.49 L-9.194,1.538 " />
			<path d="M-9.194,1.538 L-9.116,1.578 L-9.034,1.612 L-8.95,1.64 L-8.862,1.661 L-8.771,1.674 L-8.677,1.682 L-8.581,1.682 L-8.483,1.676 L-8.382,1.662 L-8.28,1.642 L-8.176,1.616 L-8.071,1.582 L-7.965,1.542 L-7.859,1.496 L-7.751,1.443 L-7.644,1.384 L-7.536,1.319 L-7.429,1.248 L-7.322,1.171 L-7.216,1.088 L-7.111,1.001 L-7.008,0.908 L-6.905,0.81 L-6.805,0.707 L-6.707,0.6 L-6.611,0.489 L-6.517,0.373 L-6.426,0.254 L-6.338,0.132 L-6.253,0.007 L-6.172,-0.122 L-6.094,-0.252 L-6.02,-0.385 L-5.949,-0.52 L-5.883,-0.656 L-5.821,-0.793 L-5.764,-0.931 L-5.711,-1.07 L-5.662,-1.209 L-5.619,-1.348 L-5.58,-1.486 L-5.546,-1.624 L-5.517,-1.76 L-5.494,-1.895 L-5.476,-2.028 L-5.462,-2.159 L-5.454,-2.287 L-5.452,-2.413 L-5.454,-2.535 L-5.462,-2.655 L-5.476,-2.77 L-5.494,-2.882 L-5.517,-2.99 L-5.546,-3.093 L-5.58,-3.191 L-5.619,-3.285 L-5.662,-3.373 L-5.711,-3.456 L-5.764,-3.534 L-5.821,-3.606 L-5.883,-3.671 L-5.949,-3.731 L-6.02,-3.785 L-6.094,-3.832 " />
			<path d="M-6.094,-3.832 L-6.152,-3.863 L-6.212,-3.89 L-6.274,-3.914 L-6.338,-3.934 L-6.404,-3.95 L-6.471,-3.963 L-6.54,-3.971 L-6.611,-3.976 L-6.682,-3.977 L-6.756,-3.974 L-6.83,-3.967 L-6.905,-3.957 L-6.982,-3.942 L-7.059,-3.924 L-7.137,-3.902 L-7.216,-3.877 L-7.296,-3.847 L-7.375,-3.814 L-7.456,-3.778 L-7.536,-3.737 L-7.617,-3.694 L-7.698,-3.646 L-7.778,-3.596 L-7.859,-3.542 L-7.939,-3.485 L-8.019,-3.425 L-8.098,-3.361 L-8.176,-3.295 L-8.254,-3.226 L-8.331,-3.154 L-8.408,-3.079 L-8.483,-3.001 L-8.557,-2.921 L-8.629,-2.839 L-8.701,-2.754 L-8.771,-2.668 L-8.839,-2.579 L-8.906,-2.488 L-8.971,-2.395 L-9.034,-2.301 L-9.096,-2.205 L-9.155,-2.108 L-9.213,-2.009 L-9.268,-1.909 L-9.321,-1.808 L-9.372,-1.707 L-9.42,-1.604 L-9.466,-1.501 L-9.51,-1.398 L-9.551,-1.294 L-9.59,-1.189 L-9.625,-1.085 L-9.659,-0.981 L-9.689,-0.877 L-9.717,-0.774 L-9.741,-0.671 L-9.763,-0.569 L-9.783,-0.467 L-9.799,-0.366 L-9.812,-0.267 L-9.822,-0.168 L-9.83,-0.071 L-9.834,0.024 L-9.836,0.118 " />
			<path d="M-15.493,3.384 L-15.49,3.507 L-15.482,3.626 L-15.469,3.742 L-15.451,3.854 L-15.427,3.961 L-15.398,4.065 L-15.365,4.163 L-15.326,4.257 L-15.282,4.345 L-15.234,4.428 L-15.181,4.506 L-15.123,4.577 L-15.061,4.643 L-14.995,4.703 L-14.925,4.756 L-14.851,4.803 " />
			<path d="M-14.851,4.803 L-14.773,4.844 L-14.691,4.878 L-14.606,4.906 L-14.519,4.926 L-14.428,4.94 L-14.334,4.948 L-14.238,4.948 L-14.14,4.942 L-14.039,4.928 L-13.937,4.908 L-13.833,4.882 L-13.728,4.848 L-13.622,4.808 L-13.516,4.762 L-13.408,4.709 L-13.301,4.65 L-13.193,4.585 L-13.086,4.514 L-12.979,4.437 L-12.873,4.354 L-12.768,4.267 L-12.664,4.174 L-12.562,4.076 L-12.462,3.973 L-12.363,3.866 L-12.267,3.754 L-12.174,3.639 L-12.083,3.52 L-11.995,3.398 L-11.91,3.273 L-11.829,3.144 L-11.751,3.014 L-11.676,2.881 L-11.606,2.746 L-11.54,2.61 L-11.478,2.473 L-11.421,2.335 L-11.367,2.196 L-11.319,2.057 L-11.276,1.918 L-11.237,1.78 L-11.203,1.642 L-11.174,1.506 L-11.151,1.371 L-11.132,1.238 L-11.119,1.107 L-11.111,0.979 L-11.109,0.853 L-11.111,0.731 L-11.119,0.611 L-11.132,0.496 L-11.151,0.384 L-11.174,0.276 L-11.203,0.173 L-11.237,0.075 L-11.276,-0.019 L-11.319,-0.107 L-11.367,-0.19 L-11.421,-0.268 L-11.478,-0.34 L-11.54,-0.406 L-11.606,-0.465 L-11.676,-0.519 L-11.751,-0.566 " />
			<path d="M-11.751,-0.566 L-11.809,-0.597 L-11.869,-0.624 L-11.931,-0.648 L-11.995,-0.668 L-12.061,-0.684 L-12.128,-0.697 L-12.197,-0.705 L-12.267,-0.71 L-12.339,-0.711 L-12.412,-0.708 L-12.487,-0.701 L-12.562,-0.691 L-12.639,-0.676 L-12.716,-0.658 L-12.794,-0.636 L-12.873,-0.611 L-12.952,-0.581 L-13.032,-0.548 L-13.113,-0.512 L-13.193,-0.471 L-13.274,-0.428 L-13.354,-0.381 L-13.435,-0.33 L-13.516,-0.276 L-13.596,-0.219 L-13.675,-0.159 L-13.755,-0.095 L-13.833,-0.029 L-13.911,0.04 L-13.988,0.112 L-14.064,0.187 L-14.14,0.265 L-14.214,0.345 L-14.286,0.427 L-14.358,0.512 L-14.428,0.598 L-14.496,0.687 L-14.563,0.778 L-14.628,0.871 L-14.691,0.965 L-14.753,1.061 L-14.812,1.158 L-14.87,1.257 L-14.925,1.357 L-14.978,1.458 L-15.029,1.559 L-15.077,1.662 L-15.123,1.765 L-15.167,1.868 L-15.208,1.972 L-15.246,2.076 L-15.282,2.181 L-15.315,2.285 L-15.346,2.389 L-15.373,2.492 L-15.398,2.595 L-15.42,2.697 L-15.439,2.799 L-15.456,2.9 L-15.469,2.999 L-15.479,3.098 L-15.487,3.195 L-15.491,3.29 L-15.493,3.384 " />
			<path d="M-21.15,6.65 L-21.147,6.773 L-21.139,6.892 L-21.126,7.008 L-21.107,7.12 L-21.084,7.227 L-21.055,7.331 L-21.021,7.429 L-20.983,7.523 L-20.939,7.611 L-20.891,7.694 L-20.838,7.772 L-20.78,7.843 L-20.718,7.909 L-20.652,7.969 L-20.582,8.022 L-20.508,8.069 " />
			<path d="M-20.508,8.069 L-20.43,8.11 L-20.348,8.144 L-20.263,8.172 L-20.175,8.192 L-20.084,8.206 L-19.991,8.214 L-19.895,8.214 L-19.796,8.208 L-19.696,8.194 L-19.594,8.174 L-19.49,8.148 L-19.385,8.114 L-19.279,8.074 L-19.172,8.028 L-19.065,7.975 L-18.958,7.916 L-18.85,7.851 L-18.743,7.78 L-18.636,7.703 L-18.53,7.62 L-18.425,7.533 L-18.321,7.44 L-18.219,7.342 L-18.119,7.239 L-18.02,7.132 L-17.924,7.02 L-17.831,6.905 L-17.74,6.786 L-17.652,6.664 L-17.567,6.539 L-17.485,6.41 L-17.408,6.28 L-17.333,6.147 L-17.263,6.012 L-17.197,5.876 L-17.135,5.739 L-17.077,5.601 L-17.024,5.462 L-16.976,5.323 L-16.932,5.184 L-16.894,5.046 L-16.86,4.908 L-16.831,4.772 L-16.808,4.637 L-16.789,4.504 L-16.776,4.373 L-16.768,4.245 L-16.766,4.119 L-16.768,3.997 L-16.776,3.877 L-16.789,3.762 L-16.808,3.65 L-16.831,3.542 L-16.86,3.439 L-16.894,3.34 L-16.932,3.247 L-16.976,3.159 L-17.024,3.075 L-17.077,2.998 L-17.135,2.926 L-17.197,2.86 L-17.263,2.801 L-17.333,2.747 L-17.408,2.7 " />
			<path d="M-17.408,2.7 L-17.466,2.669 L-17.526,2.642 L-17.588,2.618 L-17.652,2.598 L-17.717,2.582 L-17.785,2.569 L-17.854,2.561 L-17.924,2.556 L-17.996,2.555 L-18.069,2.558 L-18.144,2.565 L-18.219,2.575 L-18.296,2.59 L-18.373,2.608 L-18.451,2.63 L-18.53,2.655 L-18.609,2.685 L-18.689,2.718 L-18.769,2.754 L-18.85,2.795 L-18.931,2.838 L-19.011,2.885 L-19.092,2.936 L-19.172,2.99 L-19.253,3.047 L-19.332,3.107 L-19.412,3.171 L-19.49,3.237 L-19.568,3.306 L-19.645,3.378 L-19.721,3.453 L-19.796,3.531 L-19.87,3.611 L-19.943,3.693 L-20.014,3.778 L-20.084,3.864 L-20.153,3.953 L-20.22,4.044 L-20.285,4.137 L-20.348,4.231 L-20.41,4.327 L-20.469,4.424 L-20.526,4.523 L-20.582,4.623 L-20.635,4.724 L-20.686,4.825 L-20.734,4.928 L-20.78,5.031 L-20.824,5.134 L-20.865,5.238 L-20.903,5.342 L-20.939,5.447 L-20.972,5.551 L-21.003,5.655 L-21.03,5.758 L-21.055,5.861 L-21.077,5.963 L-21.096,6.065 L-21.113,6.166 L-21.126,6.265 L-21.136,6.364 L-21.144,6.461 L-21.148,6.556 L-21.15,6.65 " />
			<path d="M-26.806,9.916 L-26.804,10.039 L-26.796,10.158 L-26.783,10.274 L-26.764,10.386 L-26.741,10.493 L-26.712,10.597 L-26.678,10.695 L-26.64,10.789 L-26.596,10.877 L-26.548,10.96 L-26.495,11.038 L-26.437,11.109 L-26.375,11.175 L-26.309,11.235 L-26.239,11.288 L-26.164,11.335 " />
			<path d="M-26.164,11.335 L-26.086,11.376 L-26.005,11.41 L-25.92,11.438 L-25.832,11.458 L-25.741,11.472 L-25.648,11.48 L-25.552,11.48 L-25.453,11.474 L-25.353,11.46 L-25.251,11.44 L-25.147,11.414 L-25.042,11.38 L-24.936,11.34 L-24.829,11.294 L-24.722,11.241 L-24.614,11.182 L-24.507,11.117 L-24.4,11.046 L-24.293,10.969 L-24.187,10.886 L-24.082,10.799 L-23.978,10.706 L-23.876,10.608 L-23.776,10.505 L-23.677,10.398 L-23.581,10.286 L-23.487,10.171 L-23.397,10.052 L-23.309,9.93 L-23.224,9.805 L-23.142,9.676 L-23.064,9.546 L-22.99,9.413 L-22.92,9.278 L-22.854,9.142 L-22.792,9.005 L-22.734,8.867 L-22.681,8.728 L-22.633,8.589 L-22.589,8.45 L-22.55,8.312 L-22.517,8.174 L-22.488,8.038 L-22.464,7.903 L-22.446,7.77 L-22.433,7.639 L-22.425,7.511 L-22.422,7.385 L-22.425,7.263 L-22.433,7.143 L-22.446,7.028 L-22.464,6.916 L-22.488,6.808 L-22.517,6.705 L-22.55,6.606 L-22.589,6.513 L-22.633,6.425 L-22.681,6.341 L-22.734,6.264 L-22.792,6.192 L-22.854,6.126 L-22.92,6.067 L-22.99,6.013 L-23.064,5.966 " />
			<path d="M-23.064,5.966 L-23.122,5.935 L-23.183,5.908 L-23.245,5.884 L-23.309,5.864 L-23.374,5.848 L-23.442,5.835 L-23.511,5.827 L-23.581,5.822 L-23.653,5.821 L-23.726,5.824 L-23.8,5.831 L-23.876,5.841 L-23.952,5.856 L-24.03,5.874 L-24.108,5.896 L-24.187,5.921 L-24.266,5.951 L-24.346,5.984 L-24.426,6.02 L-24.507,6.061 L-24.587,6.104 L-24.668,6.151 L-24.749,6.202 L-24.829,6.256 L-24.909,6.313 L-24.989,6.373 L-25.068,6.437 L-25.147,6.503 L-25.225,6.572 L-25.302,6.644 L-25.378,6.719 L-25.453,6.797 L-25.527,6.877 L-25.6,6.959 L-25.671,7.044 L-25.741,7.13 L-25.81,7.219 L-25.877,7.31 L-25.942,7.403 L-26.005,7.497 L-26.066,7.593 L-26.126,7.69 L-26.183,7.789 L-26.239,7.889 L-26.292,7.99 L-26.342,8.091 L-26.391,8.194 L-26.437,8.297 L-26.481,8.4 L-26.522,8.504 L-26.56,8.608 L-26.596,8.713 L-26.629,8.817 L-26.66,8.921 L-26.687,9.024 L-26.712,9.127 L-26.734,9.229 L-26.753,9.331 L-26.769,9.432 L-26.783,9.531 L-26.793,9.63 L-26.8,9.727 L-26.805,9.822 L-26.806,9.916 " />
			<path d="M-32.463,13.182 L-32.461,13.305 L-32.453,13.424 L-32.44,13.54 L-32.421,13.652 L-32.398,13.759 L-32.369,13.863 L-32.335,13.961 L-32.296,14.055 L-32.253,14.143 L-32.204,14.226 L-32.151,14.304 L-32.094,14.375 L-32.032,14.441 L-31.966,14.501 L-31.895,14.554 L-31.821,14.601 " />
			<path d="M-31.821,14.601 L-31.743,14.642 L-31.662,14.676 L-31.577,14.704 L-31.489,14.724 L-31.398,14.738 L-31.305,14.746 L-31.208,14.746 L-31.11,14.74 L-31.01,14.726 L-30.908,14.706 L-30.804,14.68 L-30.699,14.646 L-30.593,14.606 L-30.486,14.56 L-30.379,14.507 L-30.271,14.448 L-30.164,14.383 L-30.056,14.312 L-29.95,14.235 L-29.844,14.152 L-29.739,14.065 L-29.635,13.972 L-29.533,13.874 L-29.432,13.771 L-29.334,13.664 L-29.238,13.552 L-29.144,13.437 L-29.053,13.318 L-28.965,13.196 L-28.881,13.07 L-28.799,12.942 L-28.721,12.812 L-28.647,12.679 L-28.577,12.544 L-28.511,12.408 L-28.449,12.271 L-28.391,12.133 L-28.338,11.994 L-28.29,11.855 L-28.246,11.716 L-28.207,11.578 L-28.174,11.44 L-28.145,11.304 L-28.121,11.169 L-28.103,11.036 L-28.09,10.905 L-28.082,10.777 L-28.079,10.651 L-28.082,10.529 L-28.09,10.409 L-28.103,10.294 L-28.121,10.182 L-28.145,10.074 L-28.174,9.971 L-28.207,9.872 L-28.246,9.779 L-28.29,9.691 L-28.338,9.607 L-28.391,9.53 L-28.449,9.458 L-28.511,9.392 L-28.577,9.333 L-28.647,9.279 L-28.721,9.232 " />
			<path d="M-28.721,9.232 L-28.779,9.201 L-28.839,9.174 L-28.902,9.15 L-28.965,9.13 L-29.031,9.114 L-29.099,9.101 L-29.167,9.093 L-29.238,9.088 L-29.31,9.087 L-29.383,9.09 L-29.457,9.097 L-29.533,9.107 L-29.609,9.122 L-29.687,9.14 L-29.765,9.162 L-29.844,9.187 L-29.923,9.217 L-30.003,9.25 L-30.083,9.286 L-30.164,9.327 L-30.244,9.37 L-30.325,9.417 L-30.406,9.468 L-30.486,9.522 L-30.566,9.579 L-30.646,9.639 L-30.725,9.703 L-30.804,9.769 L-30.882,9.838 L-30.959,9.91 L-31.035,9.985 L-31.11,10.063 L-31.184,10.143 L-31.257,10.225 L-31.328,10.31 L-31.398,10.396 L-31.467,10.485 L-31.533,10.576 L-31.599,10.669 L-31.662,10.763 L-31.723,10.859 L-31.783,10.956 L-31.84,11.055 L-31.895,11.155 L-31.949,11.256 L-31.999,11.357 L-32.048,11.46 L-32.094,11.563 L-32.137,11.666 L-32.178,11.77 L-32.217,11.874 L-32.253,11.979 L-32.286,12.083 L-32.316,12.187 L-32.344,12.29 L-32.369,12.393 L-32.391,12.495 L-32.41,12.597 L-32.426,12.698 L-32.44,12.797 L-32.45,12.896 L-32.457,12.993 L-32.462,13.088 L-32.463,13.182 " />
			<path d="M-15.076,3.144 L-15.074,3.067 L-15.071,2.99 L-15.065,2.911 L-15.056,2.832 L-15.046,2.751 L-15.032,2.67 L-15.017,2.587 L-14.999,2.504 L-14.979,2.421 L-14.957,2.337 L-14.932,2.253 L-14.905,2.169 L-14.876,2.085 L-14.845,2 L-14.812,1.916 L-14.776,1.832 L-14.7,1.666 L-14.616,1.502 L-14.525,1.341 L-14.427,1.185 L-14.323,1.033 L-14.213,0.888 L-14.156,0.817 L-14.099,0.749 L-14.04,0.682 L-13.98,0.618 L-13.919,0.555 L-13.857,0.494 L-13.795,0.436 L-13.732,0.38 L-13.668,0.326 L-13.604,0.275 L-13.54,0.226 L-13.475,0.18 L-13.41,0.136 L-13.344,0.095 L-13.279,0.057 L-13.214,0.022 L-13.148,-0.011 L-13.083,-0.041 L-13.019,-0.067 L-12.954,-0.091 L-12.891,-0.112 L-12.827,-0.13 L-12.765,-0.144 L-12.703,-0.156 L-12.642,-0.165 L-12.581,-0.17 L-12.522,-0.172 L-12.464,-0.172 L-12.407,-0.168 L-12.351,-0.161 L-12.297,-0.151 L-12.243,-0.138 L-12.192,-0.122 L-12.141,-0.102 L-12.093,-0.08 L-12.046,-0.055 " />
			<path d="M-12.046,-0.055 L-11.986,-0.017 L-11.929,0.027 L-11.875,0.075 L-11.825,0.128 L-11.778,0.186 L-11.735,0.249 L-11.696,0.316 L-11.661,0.388 L-11.63,0.464 L-11.602,0.543 L-11.579,0.627 L-11.56,0.714 L-11.545,0.804 L-11.534,0.898 L-11.528,0.995 L-11.526,1.094 L-11.528,1.196 L-11.534,1.3 L-11.545,1.406 L-11.56,1.514 L-11.579,1.623 L-11.602,1.733 L-11.63,1.844 L-11.661,1.956 L-11.696,2.069 L-11.735,2.181 L-11.778,2.293 L-11.825,2.405 L-11.875,2.517 L-11.929,2.627 L-11.986,2.736 L-12.046,2.843 L-12.109,2.949 L-12.175,3.053 L-12.243,3.154 L-12.315,3.254 L-12.388,3.35 L-12.464,3.443 L-12.542,3.533 L-12.621,3.62 L-12.703,3.703 L-12.785,3.783 L-12.869,3.858 L-12.954,3.929 L-13.04,3.996 L-13.127,4.058 L-13.214,4.115 L-13.301,4.168 L-13.388,4.216 L-13.475,4.259 L-13.561,4.296 L-13.647,4.329 L-13.732,4.356 L-13.816,4.377 L-13.899,4.394 L-13.98,4.404 L-14.06,4.41 L-14.137,4.409 L-14.213,4.403 L-14.287,4.392 L-14.358,4.375 L-14.427,4.353 L-14.493,4.325 L-14.556,4.293 " />
			<path d="M-14.556,4.293 L-14.616,4.254 L-14.673,4.211 L-14.726,4.163 L-14.776,4.109 L-14.823,4.051 L-14.866,3.989 L-14.905,3.921 L-14.94,3.85 L-14.972,3.774 L-14.999,3.694 L-15.022,3.611 L-15.041,3.524 L-15.056,3.433 L-15.067,3.339 L-15.073,3.243 L-15.076,3.144 " />
			<path d="M-20.732,6.409 L-20.731,6.333 L-20.728,6.256 L-20.722,6.177 L-20.713,6.098 L-20.702,6.017 L-20.689,5.936 L-20.674,5.853 L-20.656,5.77 L-20.636,5.687 L-20.613,5.603 L-20.589,5.519 L-20.562,5.435 L-20.533,5.351 L-20.502,5.266 L-20.469,5.182 L-20.433,5.098 L-20.357,4.932 L-20.273,4.768 L-20.181,4.607 L-20.083,4.451 L-19.979,4.299 L-19.87,4.154 L-19.813,4.083 L-19.756,4.015 L-19.697,3.948 L-19.637,3.884 L-19.576,3.821 L-19.514,3.76 L-19.452,3.702 L-19.389,3.646 L-19.325,3.592 L-19.261,3.541 L-19.196,3.492 L-19.131,3.446 L-19.066,3.402 L-19.001,3.361 L-18.936,3.323 L-18.87,3.288 L-18.805,3.255 L-18.74,3.225 L-18.676,3.199 L-18.611,3.175 L-18.547,3.154 L-18.484,3.136 L-18.422,3.122 L-18.36,3.11 L-18.299,3.101 L-18.238,3.096 L-18.179,3.094 L-18.121,3.094 L-18.064,3.098 L-18.008,3.105 L-17.953,3.115 L-17.9,3.128 L-17.849,3.144 L-17.798,3.164 L-17.75,3.186 L-17.703,3.211 " />
			<path d="M-17.703,3.211 L-17.642,3.249 L-17.586,3.293 L-17.532,3.341 L-17.482,3.394 L-17.435,3.452 L-17.392,3.515 L-17.353,3.582 L-17.318,3.654 L-17.286,3.73 L-17.259,3.809 L-17.236,3.893 L-17.217,3.98 L-17.202,4.07 L-17.191,4.164 L-17.185,4.261 L-17.183,4.36 L-17.185,4.462 L-17.191,4.566 L-17.202,4.672 L-17.217,4.78 L-17.236,4.889 L-17.259,4.999 L-17.286,5.11 L-17.318,5.222 L-17.353,5.335 L-17.392,5.447 L-17.435,5.559 L-17.482,5.671 L-17.532,5.783 L-17.586,5.893 L-17.642,6.002 L-17.703,6.109 L-17.766,6.215 L-17.832,6.319 L-17.9,6.42 L-17.971,6.52 L-18.045,6.616 L-18.121,6.709 L-18.199,6.799 L-18.278,6.886 L-18.36,6.969 L-18.442,7.048 L-18.526,7.124 L-18.611,7.195 L-18.697,7.262 L-18.784,7.324 L-18.87,7.381 L-18.958,7.434 L-19.045,7.482 L-19.131,7.525 L-19.218,7.562 L-19.304,7.595 L-19.389,7.622 L-19.473,7.643 L-19.555,7.66 L-19.637,7.67 L-19.716,7.676 L-19.794,7.675 L-19.87,7.669 L-19.944,7.658 L-20.015,7.641 L-20.083,7.619 L-20.149,7.591 L-20.213,7.559 " />
			<path d="M-20.213,7.559 L-20.273,7.52 L-20.33,7.477 L-20.383,7.429 L-20.433,7.375 L-20.48,7.317 L-20.523,7.255 L-20.562,7.187 L-20.597,7.116 L-20.629,7.04 L-20.656,6.96 L-20.679,6.877 L-20.698,6.79 L-20.713,6.699 L-20.724,6.605 L-20.73,6.509 L-20.732,6.409 " />
			<path d="M-26.389,9.675 L-26.388,9.599 L-26.384,9.522 L-26.378,9.443 L-26.37,9.364 L-26.359,9.283 L-26.346,9.202 L-26.331,9.119 L-26.313,9.036 L-26.293,8.953 L-26.27,8.869 L-26.246,8.785 L-26.219,8.701 L-26.19,8.617 L-26.159,8.532 L-26.125,8.448 L-26.09,8.364 L-26.014,8.198 L-25.929,8.034 L-25.838,7.873 L-25.74,7.717 L-25.636,7.565 L-25.527,7.42 L-25.47,7.349 L-25.412,7.281 L-25.353,7.214 L-25.294,7.15 L-25.233,7.087 L-25.171,7.026 L-25.109,6.968 L-25.046,6.912 L-24.982,6.858 L-24.918,6.807 L-24.853,6.758 L-24.788,6.712 L-24.723,6.668 L-24.658,6.627 L-24.593,6.589 L-24.527,6.554 L-24.462,6.521 L-24.397,6.491 L-24.332,6.465 L-24.268,6.441 L-24.204,6.42 L-24.141,6.402 L-24.078,6.388 L-24.016,6.376 L-23.955,6.367 L-23.895,6.362 L-23.836,6.36 L-23.778,6.36 L-23.721,6.364 L-23.665,6.371 L-23.61,6.381 L-23.557,6.394 L-23.505,6.41 L-23.455,6.43 L-23.406,6.452 L-23.359,6.477 " />
			<path d="M-23.359,6.477 L-23.299,6.515 L-23.242,6.559 L-23.189,6.607 L-23.139,6.66 L-23.092,6.718 L-23.049,6.781 L-23.01,6.848 L-22.975,6.92 L-22.943,6.996 L-22.916,7.075 L-22.893,7.159 L-22.874,7.246 L-22.859,7.336 L-22.848,7.43 L-22.842,7.527 L-22.84,7.626 L-22.842,7.728 L-22.848,7.832 L-22.859,7.938 L-22.874,8.046 L-22.893,8.155 L-22.916,8.265 L-22.943,8.376 L-22.975,8.488 L-23.01,8.601 L-23.049,8.713 L-23.092,8.825 L-23.139,8.937 L-23.189,9.049 L-23.242,9.159 L-23.299,9.268 L-23.359,9.375 L-23.422,9.481 L-23.488,9.585 L-23.557,9.686 L-23.628,9.786 L-23.702,9.882 L-23.778,9.975 L-23.856,10.065 L-23.935,10.152 L-24.016,10.235 L-24.099,10.314 L-24.183,10.39 L-24.268,10.461 L-24.354,10.528 L-24.44,10.59 L-24.527,10.647 L-24.614,10.7 L-24.701,10.748 L-24.788,10.791 L-24.875,10.828 L-24.961,10.861 L-25.046,10.888 L-25.13,10.909 L-25.212,10.926 L-25.294,10.936 L-25.373,10.942 L-25.451,10.941 L-25.527,10.935 L-25.6,10.924 L-25.672,10.907 L-25.74,10.885 L-25.806,10.857 L-25.869,10.825 " />
			<path d="M-25.869,10.825 L-25.929,10.786 L-25.986,10.743 L-26.04,10.695 L-26.09,10.641 L-26.137,10.583 L-26.18,10.521 L-26.219,10.453 L-26.254,10.382 L-26.285,10.306 L-26.313,10.226 L-26.336,10.143 L-26.355,10.056 L-26.37,9.965 L-26.381,9.871 L-26.387,9.775 L-26.389,9.675 " />
			<path d="M-32.046,12.941 L-32.045,12.865 L-32.041,12.788 L-32.035,12.709 L-32.027,12.63 L-32.016,12.549 L-32.003,12.468 L-31.987,12.385 L-31.97,12.302 L-31.95,12.219 L-31.927,12.135 L-31.903,12.051 L-31.876,11.967 L-31.847,11.883 L-31.816,11.798 L-31.782,11.714 L-31.747,11.63 L-31.67,11.464 L-31.586,11.3 L-31.495,11.139 L-31.397,10.983 L-31.293,10.831 L-31.184,10.686 L-31.127,10.615 L-31.069,10.547 L-31.01,10.48 L-30.95,10.415 L-30.89,10.353 L-30.828,10.292 L-30.766,10.234 L-30.702,10.178 L-30.639,10.124 L-30.575,10.073 L-30.51,10.024 L-30.445,9.978 L-30.38,9.934 L-30.315,9.893 L-30.249,9.855 L-30.184,9.82 L-30.119,9.787 L-30.054,9.757 L-29.989,9.731 L-29.925,9.707 L-29.861,9.686 L-29.798,9.668 L-29.735,9.654 L-29.673,9.642 L-29.612,9.633 L-29.552,9.628 L-29.493,9.626 L-29.435,9.626 L-29.378,9.63 L-29.322,9.637 L-29.267,9.647 L-29.214,9.66 L-29.162,9.676 L-29.112,9.696 L-29.063,9.718 L-29.016,9.743 " />
			<path d="M-29.016,9.743 L-28.956,9.781 L-28.899,9.825 L-28.846,9.873 L-28.796,9.926 L-28.749,9.984 L-28.706,10.047 L-28.667,10.114 L-28.632,10.186 L-28.6,10.262 L-28.573,10.341 L-28.55,10.425 L-28.531,10.512 L-28.516,10.602 L-28.505,10.696 L-28.499,10.793 L-28.496,10.892 L-28.499,10.994 L-28.505,11.098 L-28.516,11.204 L-28.531,11.312 L-28.55,11.421 L-28.573,11.531 L-28.6,11.642 L-28.632,11.754 L-28.667,11.867 L-28.706,11.979 L-28.749,12.091 L-28.796,12.203 L-28.846,12.315 L-28.899,12.425 L-28.956,12.534 L-29.016,12.641 L-29.079,12.747 L-29.145,12.851 L-29.214,12.952 L-29.285,13.051 L-29.359,13.148 L-29.435,13.241 L-29.512,13.331 L-29.592,13.418 L-29.673,13.501 L-29.756,13.58 L-29.84,13.656 L-29.925,13.727 L-30.011,13.794 L-30.097,13.856 L-30.184,13.913 L-30.271,13.966 L-30.358,14.014 L-30.445,14.057 L-30.532,14.094 L-30.617,14.127 L-30.702,14.154 L-30.786,14.175 L-30.869,14.192 L-30.95,14.202 L-31.03,14.208 L-31.108,14.207 L-31.184,14.201 L-31.257,14.19 L-31.329,14.173 L-31.397,14.151 L-31.463,14.123 L-31.526,14.09 " />
			<path d="M-31.526,14.09 L-31.586,14.052 L-31.643,14.009 L-31.697,13.961 L-31.747,13.907 L-31.794,13.849 L-31.837,13.787 L-31.876,13.719 L-31.911,13.648 L-31.942,13.572 L-31.97,13.492 L-31.993,13.409 L-32.012,13.322 L-32.027,13.231 L-32.038,13.137 L-32.044,13.041 L-32.046,12.941 " />
			<path d="M-3.041,-1.021 L-2.828,-1.143 " />
			<path d="M-8.697,2.245 L-8.485,2.123 " />
			<path d="M-14.354,5.511 L-14.142,5.389 " />
			<path d="M-20.011,8.777 L-19.799,8.655 " />
			<path d="M-25.668,12.043 L-25.456,11.921 " />
			<path d="M-1.978,-1.456 L-1.491,-1.174 " />
			<path d="M-5.078,3.914 L-4.591,4.195 " />
			<path d="M-7.635,1.81 L-7.147,2.092 " />
			<path d="M-10.735,7.179 L-10.247,7.461 " />
			<path d="M-13.292,5.076 L-12.804,5.358 " />
			<path d="M-16.392,10.445 L-15.904,10.727 " />
			<path d="M-18.949,8.342 L-18.461,8.624 " />
			<path d="M-22.049,13.711 L-21.561,13.993 " />
			<path d="M-24.606,11.608 L-24.118,11.89 " />
			<path d="M-27.706,16.977 L-27.218,17.259 " />
			<path d="M-5.94,-2.694 L-5.94,-2.939 " />
			<path d="M-8.132,1.102 L-8.344,1.225 " />
			<path d="M-11.597,0.572 L-11.597,0.327 " />
			<path d="M-13.789,4.368 L-14.001,4.491 " />
			<path d="M-17.253,3.838 L-17.253,3.593 " />
			<path d="M-19.445,7.634 L-19.658,7.757 " />
			<path d="M-22.91,7.104 L-22.91,6.859 " />
			<path d="M-25.102,10.9 L-25.314,11.023 " />
			<path d="M-28.567,10.37 L-28.567,10.125 " />
			<path d="M-30.759,14.166 L-30.971,14.289 " />
			<path d="M-6.389,-3.321 L-2.273,-0.945 " />
			<path d="M-8.899,1.027 L-4.783,3.403 " />
			<path d="M-6.582,-4.114 L-6.094,-3.832 " />
			<path d="M-9.682,1.256 L-9.194,1.538 " />
			<path d="M-12.239,-0.848 L-11.751,-0.566 " />
			<path d="M-15.339,4.522 L-14.851,4.803 " />
			<path d="M-17.895,2.418 L-17.408,2.7 " />
			<path d="M-20.995,7.788 L-20.508,8.069 " />
			<path d="M-23.552,5.684 L-23.064,5.966 " />
			<path d="M-26.652,11.054 L-26.164,11.335 " />
			<path d="M-29.209,8.95 L-28.721,9.232 " />
			<path d="M-32.309,14.32 L-31.821,14.601 " />
			<path d="M-12.046,-0.055 L-7.93,2.321 " />
			<path d="M-14.556,4.293 L-10.44,6.669 " />
			<path d="M-17.703,3.211 L-13.587,5.587 " />
			<path d="M-20.213,7.559 L-16.097,9.935 " />
			<path d="M-23.359,6.477 L-19.244,8.853 " />
			<path d="M-25.869,10.825 L-21.754,13.201 " />
			<path d="M-29.016,9.743 L-24.901,12.119 " />
			<path d="M-31.526,14.09 L-27.411,16.466 " />

       </g>

       <!-- solid lines -->
       <g  stroke="rgb(0,0,0)" fill="none">
			<path d="M-5.233,3.021 L-5.23,2.883 L-5.221,2.742 L-5.207,2.599 L-5.186,2.453 L-5.161,2.305 L-5.129,2.155 L-5.092,2.005 L-5.05,1.853 L-5.002,1.701 L-4.949,1.548 L-4.891,1.396 L-4.827,1.245 L-4.759,1.094 L-4.687,0.945 L-4.61,0.797 L-4.528,0.651 L-4.443,0.508 L-4.354,0.368 L-4.261,0.23 L-4.164,0.096 L-4.064,-0.035 L-3.962,-0.161 L-3.856,-0.283 L-3.748,-0.401 L-3.638,-0.513 L-3.526,-0.621 L-3.413,-0.723 L-3.297,-0.819 L-3.181,-0.909 L-3.064,-0.994 L-2.946,-1.072 L-2.828,-1.143 " />
			<path d="M-2.828,-1.143 L-2.74,-1.192 L-2.652,-1.238 L-2.563,-1.279 L-2.476,-1.317 L-2.388,-1.35 L-2.302,-1.38 L-2.216,-1.405 L-2.131,-1.426 L-2.046,-1.444 L-1.963,-1.457 L-1.881,-1.465 L-1.801,-1.47 L-1.721,-1.47 L-1.643,-1.467 L-1.567,-1.459 L-1.493,-1.446 L-1.42,-1.43 L-1.349,-1.409 L-1.281,-1.385 L-1.214,-1.356 L-1.149,-1.323 L-1.087,-1.287 L-1.027,-1.246 L-0.97,-1.201 L-0.915,-1.153 L-0.863,-1.1 L-0.813,-1.044 L-0.766,-0.985 L-0.722,-0.922 L-0.681,-0.855 L-0.643,-0.785 L-0.607,-0.712 L-0.575,-0.635 L-0.546,-0.556 L-0.519,-0.473 L-0.496,-0.388 L-0.476,-0.3 L-0.46,-0.209 L-0.446,-0.116 L-0.436,-0.02 L-0.429,0.077 L-0.425,0.177 L-0.424,0.279 L-0.427,0.383 L-0.433,0.488 L-0.442,0.595 L-0.455,0.704 L-0.47,0.813 L-0.489,0.924 L-0.511,1.036 L-0.537,1.148 L-0.565,1.261 L-0.596,1.375 L-0.631,1.489 L-0.668,1.603 L-0.708,1.717 L-0.751,1.832 L-0.797,1.945 L-0.846,2.059 L-0.897,2.172 L-0.951,2.284 L-1.008,2.395 L-1.067,2.505 L-1.128,2.614 L-1.192,2.722 L-1.258,2.828 L-1.326,2.933 L-1.396,3.036 L-1.468,3.137 L-1.542,3.236 L-1.618,3.333 L-1.695,3.427 L-1.774,3.519 L-1.854,3.608 L-1.936,3.695 L-2.018,3.779 L-2.102,3.86 L-2.187,3.938 L-2.273,4.013 L-2.359,4.085 L-2.447,4.153 L-2.534,4.218 L-2.622,4.28 L-2.71,4.338 L-2.799,4.392 L-2.887,4.442 L-2.976,4.489 L-3.064,4.532 L-3.152,4.571 L-3.239,4.606 L-3.326,4.636 L-3.413,4.663 L-3.498,4.686 L-3.583,4.704 L-3.666,4.719 L-3.748,4.729 L-3.83,4.735 L-3.909,4.737 L-3.988,4.734 L-4.064,4.728 L-4.139,4.717 L-4.213,4.702 L-4.284,4.683 L-4.354,4.66 L-4.421,4.632 L-4.486,4.601 L-4.549,4.565 L-4.61,4.526 L-4.668,4.482 L-4.724,4.435 L-4.777,4.384 L-4.827,4.329 L-4.875,4.271 L-4.92,4.209 L-4.962,4.144 L-5.002,4.075 L-5.038,4.003 L-5.071,3.927 L-5.102,3.849 L-5.129,3.767 L-5.153,3.683 L-5.174,3.596 L-5.192,3.506 L-5.207,3.413 L-5.218,3.319 L-5.226,3.221 L-5.231,3.122 L-5.233,3.021 " />
			<path d="M-2.758,4.777 L-25.527,17.922 " />
			<path d="M-2.758,4.777 L-2.656,4.716 L-2.555,4.651 L-2.454,4.582 L-2.353,4.508 L-2.253,4.431 L-2.153,4.35 L-2.055,4.266 L-1.957,4.177 L-1.861,4.085 L-1.765,3.99 L-1.671,3.892 L-1.579,3.79 L-1.488,3.685 L-1.398,3.578 L-1.311,3.468 L-1.226,3.355 L-1.142,3.24 L-1.061,3.123 L-0.982,3.004 L-0.906,2.882 L-0.832,2.759 L-0.76,2.635 L-0.692,2.509 L-0.626,2.382 L-0.563,2.253 L-0.503,2.124 L-0.446,1.994 L-0.392,1.864 L-0.342,1.733 L-0.294,1.602 L-0.25,1.471 L-0.21,1.34 L-0.173,1.209 L-0.139,1.079 L-0.109,0.95 L-0.083,0.821 L-0.06,0.694 L-0.041,0.568 L-0.025,0.443 L-0.013,0.32 L-0.005,0.198 L-0.001,0.079 L-0,-0.039 L-0.003,-0.154 L-0.01,-0.267 L-0.021,-0.378 L-0.035,-0.486 L-0.053,-0.591 L-0.075,-0.693 L-0.1,-0.792 L-0.129,-0.887 L-0.161,-0.98 L-0.197,-1.069 L-0.237,-1.154 L-0.279,-1.235 L-0.326,-1.313 L-0.375,-1.387 L-0.428,-1.457 L-0.484,-1.522 L-0.543,-1.584 L-0.605,-1.641 L-0.67,-1.693 L-0.737,-1.742 L-0.808,-1.785 " />
			<path d="M-0.808,-1.785 L-0.856,-1.812 L-0.906,-1.837 L-0.956,-1.859 L-1.008,-1.879 L-1.061,-1.898 L-1.115,-1.914 L-1.17,-1.928 L-1.226,-1.94 L-1.282,-1.95 L-1.34,-1.958 L-1.398,-1.963 L-1.458,-1.967 L-1.518,-1.968 L-1.579,-1.967 L-1.64,-1.964 L-1.702,-1.959 L-1.765,-1.952 L-1.829,-1.942 L-1.957,-1.917 L-2.088,-1.884 L-2.22,-1.842 L-2.353,-1.791 L-2.487,-1.733 L-2.622,-1.666 L-2.758,-1.592 " />
			<path d="M-25.527,11.553 L-25.628,11.614 L-25.729,11.679 L-25.831,11.748 L-25.931,11.822 L-26.031,11.899 L-26.131,11.98 L-26.229,12.064 L-26.327,12.153 L-26.424,12.245 L-26.519,12.34 L-26.613,12.438 L-26.706,12.54 L-26.797,12.644 L-26.886,12.752 L-26.973,12.862 L-27.059,12.975 L-27.142,13.09 L-27.223,13.207 L-27.302,13.326 L-27.379,13.448 L-27.452,13.571 L-27.524,13.695 L-27.592,13.821 L-27.658,13.948 L-27.721,14.077 L-27.781,14.206 L-27.838,14.336 L-27.892,14.466 L-27.943,14.597 L-27.99,14.728 L-28.034,14.859 L-28.074,14.99 L-28.111,15.121 L-28.145,15.251 L-28.175,15.38 L-28.202,15.508 L-28.224,15.636 L-28.244,15.762 L-28.259,15.887 L-28.271,16.01 L-28.279,16.132 L-28.283,16.251 L-28.284,16.369 L-28.281,16.484 L-28.274,16.597 L-28.264,16.708 L-28.249,16.816 L-28.231,16.921 L-28.21,17.023 L-28.184,17.122 L-28.156,17.217 L-28.123,17.31 L-28.087,17.399 L-28.048,17.484 L-28.005,17.565 L-27.959,17.643 L-27.909,17.717 L-27.856,17.787 L-27.801,17.852 L-27.742,17.914 L-27.68,17.971 L-27.615,18.023 L-27.547,18.072 L-27.477,18.115 " />
			<path d="M-27.477,18.115 L-27.428,18.142 L-27.379,18.166 L-27.328,18.189 L-27.276,18.209 L-27.223,18.228 L-27.169,18.244 L-27.114,18.258 L-27.059,18.27 L-27.002,18.28 L-26.944,18.288 L-26.886,18.293 L-26.827,18.297 L-26.766,18.298 L-26.706,18.297 L-26.644,18.294 L-26.582,18.289 L-26.519,18.282 L-26.456,18.272 L-26.327,18.247 L-26.197,18.214 L-26.065,18.172 L-25.931,18.121 L-25.797,18.063 L-25.662,17.996 L-25.527,17.922 " />
			<path d="M-2.758,-1.592 L-25.527,11.553 " />
			<path d="M-10.889,6.287 L-10.887,6.149 L-10.878,6.008 L-10.863,5.865 L-10.843,5.719 L-10.817,5.571 L-10.786,5.421 L-10.749,5.271 L-10.706,5.119 L-10.659,4.967 L-10.606,4.814 L-10.547,4.662 L-10.484,4.511 L-10.416,4.36 L-10.344,4.211 L-10.267,4.063 L-10.185,3.917 L-10.1,3.774 L-10.01,3.634 L-9.917,3.496 L-9.821,3.362 L-9.721,3.231 L-9.619,3.105 L-9.513,2.983 L-9.405,2.865 L-9.295,2.753 L-9.183,2.645 L-9.069,2.543 L-8.954,2.447 L-8.838,2.357 L-8.721,2.272 L-8.603,2.194 L-8.485,2.123 " />
			<path d="M-8.485,2.123 L-8.397,2.074 L-8.308,2.028 L-8.22,1.987 L-8.133,1.949 L-8.045,1.916 L-7.959,1.886 L-7.873,1.861 L-7.787,1.84 L-7.703,1.822 L-7.62,1.809 L-7.538,1.801 L-7.457,1.796 L-7.378,1.796 L-7.3,1.799 L-7.224,1.807 L-7.15,1.82 L-7.077,1.836 L-7.006,1.856 L-6.937,1.881 L-6.871,1.91 L-6.806,1.943 L-6.744,1.979 L-6.684,2.02 L-6.627,2.065 L-6.572,2.113 L-6.52,2.166 L-6.47,2.222 L-6.423,2.281 L-6.379,2.344 L-6.338,2.411 L-6.299,2.481 L-6.264,2.554 L-6.232,2.631 L-6.202,2.71 L-6.176,2.793 L-6.153,2.878 L-6.133,2.966 L-6.117,3.057 L-6.103,3.15 L-6.093,3.246 L-6.086,3.343 L-6.082,3.443 L-6.081,3.545 L-6.084,3.649 L-6.09,3.754 L-6.099,3.861 L-6.112,3.97 L-6.127,4.079 L-6.146,4.19 L-6.168,4.302 L-6.193,4.414 L-6.222,4.527 L-6.253,4.641 L-6.287,4.755 L-6.325,4.869 L-6.365,4.983 L-6.408,5.098 L-6.454,5.211 L-6.503,5.325 L-6.554,5.438 L-6.608,5.55 L-6.665,5.661 L-6.724,5.771 L-6.785,5.88 L-6.849,5.988 L-6.915,6.094 L-6.983,6.199 L-7.053,6.302 L-7.125,6.403 L-7.199,6.502 L-7.275,6.599 L-7.352,6.693 L-7.431,6.785 L-7.511,6.874 L-7.593,6.961 L-7.675,7.045 L-7.759,7.126 L-7.844,7.204 L-7.93,7.279 L-8.016,7.351 L-8.103,7.419 L-8.191,7.484 L-8.279,7.546 L-8.367,7.604 L-8.456,7.658 L-8.544,7.708 L-8.633,7.755 L-8.721,7.798 L-8.809,7.837 L-8.896,7.871 L-8.983,7.902 L-9.069,7.929 L-9.155,7.952 L-9.239,7.97 L-9.323,7.985 L-9.405,7.995 L-9.486,8.001 L-9.566,8.003 L-9.645,8 L-9.721,7.994 L-9.796,7.983 L-9.87,7.968 L-9.941,7.949 L-10.01,7.925 L-10.078,7.898 L-10.143,7.867 L-10.206,7.831 L-10.267,7.792 L-10.325,7.748 L-10.381,7.701 L-10.434,7.65 L-10.484,7.595 L-10.532,7.537 L-10.577,7.475 L-10.619,7.41 L-10.659,7.341 L-10.695,7.269 L-10.728,7.193 L-10.759,7.115 L-10.786,7.033 L-10.81,6.949 L-10.831,6.862 L-10.849,6.772 L-10.863,6.679 L-10.875,6.585 L-10.883,6.487 L-10.888,6.388 L-10.889,6.287 " />
			<path d="M-16.546,9.553 L-16.543,9.415 L-16.535,9.274 L-16.52,9.131 L-16.5,8.985 L-16.474,8.837 L-16.443,8.687 L-16.406,8.537 L-16.363,8.385 L-16.315,8.233 L-16.262,8.08 L-16.204,7.928 L-16.141,7.777 L-16.073,7.626 L-16.001,7.477 L-15.924,7.329 L-15.842,7.183 L-15.757,7.04 L-15.667,6.9 L-15.574,6.762 L-15.478,6.628 L-15.378,6.497 L-15.275,6.371 L-15.17,6.249 L-15.062,6.131 L-14.952,6.019 L-14.84,5.911 L-14.726,5.809 L-14.611,5.713 L-14.495,5.623 L-14.378,5.538 L-14.26,5.46 L-14.142,5.389 " />
			<path d="M-14.142,5.389 L-14.054,5.34 L-13.965,5.294 L-13.877,5.253 L-13.789,5.215 L-13.702,5.182 L-13.615,5.152 L-13.529,5.127 L-13.444,5.105 L-13.36,5.088 L-13.277,5.075 L-13.195,5.067 L-13.114,5.062 L-13.035,5.062 L-12.957,5.065 L-12.881,5.073 L-12.806,5.086 L-12.734,5.102 L-12.663,5.122 L-12.594,5.147 L-12.528,5.176 L-12.463,5.209 L-12.401,5.245 L-12.341,5.286 L-12.284,5.331 L-12.229,5.379 L-12.177,5.432 L-12.127,5.488 L-12.08,5.547 L-12.036,5.61 L-11.995,5.677 L-11.956,5.747 L-11.921,5.82 L-11.889,5.897 L-11.859,5.976 L-11.833,6.059 L-11.81,6.144 L-11.79,6.232 L-11.773,6.323 L-11.76,6.416 L-11.75,6.512 L-11.742,6.609 L-11.739,6.709 L-11.738,6.811 L-11.741,6.915 L-11.747,7.02 L-11.756,7.127 L-11.769,7.236 L-11.784,7.345 L-11.803,7.456 L-11.825,7.568 L-11.85,7.68 L-11.879,7.793 L-11.91,7.907 L-11.944,8.021 L-11.982,8.135 L-12.022,8.249 L-12.065,8.364 L-12.111,8.477 L-12.16,8.591 L-12.211,8.704 L-12.265,8.816 L-12.322,8.927 L-12.381,9.037 L-12.442,9.146 L-12.506,9.254 L-12.572,9.36 L-12.64,9.465 L-12.71,9.568 L-12.782,9.669 L-12.856,9.768 L-12.932,9.864 L-13.009,9.959 L-13.088,10.051 L-13.168,10.14 L-13.249,10.227 L-13.332,10.311 L-13.416,10.392 L-13.501,10.47 L-13.587,10.545 L-13.673,10.617 L-13.76,10.685 L-13.848,10.75 L-13.936,10.812 L-14.024,10.87 L-14.113,10.924 L-14.201,10.974 L-14.29,11.021 L-14.378,11.064 L-14.466,11.103 L-14.553,11.137 L-14.64,11.168 L-14.726,11.195 L-14.812,11.218 L-14.896,11.236 L-14.98,11.251 L-15.062,11.261 L-15.143,11.267 L-15.223,11.269 L-15.301,11.266 L-15.378,11.26 L-15.453,11.249 L-15.526,11.234 L-15.598,11.215 L-15.667,11.191 L-15.735,11.164 L-15.8,11.133 L-15.863,11.097 L-15.924,11.058 L-15.982,11.014 L-16.037,10.967 L-16.091,10.916 L-16.141,10.861 L-16.189,10.803 L-16.234,10.741 L-16.276,10.676 L-16.315,10.607 L-16.352,10.534 L-16.385,10.459 L-16.416,10.381 L-16.443,10.299 L-16.467,10.215 L-16.488,10.128 L-16.506,10.038 L-16.52,9.945 L-16.532,9.851 L-16.54,9.753 L-16.545,9.654 L-16.546,9.553 " />
			<path d="M-22.203,12.819 L-22.2,12.681 L-22.192,12.54 L-22.177,12.397 L-22.157,12.251 L-22.131,12.103 L-22.1,11.953 L-22.063,11.803 L-22.02,11.651 L-21.972,11.499 L-21.919,11.346 L-21.861,11.194 L-21.798,11.043 L-21.73,10.892 L-21.657,10.743 L-21.58,10.595 L-21.499,10.449 L-21.414,10.306 L-21.324,10.166 L-21.231,10.028 L-21.135,9.894 L-21.035,9.763 L-20.932,9.637 L-20.827,9.515 L-20.719,9.397 L-20.609,9.285 L-20.497,9.177 L-20.383,9.075 L-20.268,8.979 L-20.152,8.889 L-20.035,8.804 L-19.917,8.726 L-19.799,8.655 " />
			<path d="M-19.799,8.655 L-19.71,8.606 L-19.622,8.56 L-19.534,8.519 L-19.446,8.481 L-19.359,8.448 L-19.272,8.418 L-19.186,8.393 L-19.101,8.371 L-19.017,8.354 L-18.934,8.341 L-18.852,8.333 L-18.771,8.328 L-18.692,8.328 L-18.614,8.331 L-18.538,8.339 L-18.463,8.352 L-18.391,8.368 L-18.32,8.388 L-18.251,8.413 L-18.184,8.442 L-18.12,8.475 L-18.058,8.511 L-17.998,8.552 L-17.941,8.597 L-17.886,8.645 L-17.833,8.698 L-17.784,8.754 L-17.737,8.813 L-17.693,8.876 L-17.652,8.943 L-17.613,9.013 L-17.578,9.086 L-17.545,9.163 L-17.516,9.242 L-17.49,9.325 L-17.467,9.41 L-17.447,9.498 L-17.43,9.589 L-17.417,9.682 L-17.406,9.777 L-17.399,9.875 L-17.396,9.975 L-17.395,10.077 L-17.398,10.181 L-17.404,10.286 L-17.413,10.393 L-17.425,10.502 L-17.441,10.611 L-17.46,10.722 L-17.482,10.834 L-17.507,10.946 L-17.535,11.059 L-17.567,11.173 L-17.601,11.287 L-17.638,11.401 L-17.679,11.515 L-17.722,11.63 L-17.768,11.743 L-17.817,11.857 L-17.868,11.97 L-17.922,12.082 L-17.979,12.193 L-18.038,12.303 L-18.099,12.412 L-18.163,12.52 L-18.229,12.626 L-18.297,12.731 L-18.367,12.834 L-18.439,12.935 L-18.513,13.034 L-18.588,13.13 L-18.666,13.225 L-18.744,13.317 L-18.825,13.406 L-18.906,13.493 L-18.989,13.577 L-19.073,13.658 L-19.158,13.736 L-19.243,13.811 L-19.33,13.883 L-19.417,13.951 L-19.505,14.016 L-19.593,14.078 L-19.681,14.136 L-19.769,14.19 L-19.858,14.24 L-19.946,14.287 L-20.035,14.33 L-20.123,14.369 L-20.21,14.403 L-20.297,14.434 L-20.383,14.461 L-20.469,14.484 L-20.553,14.502 L-20.637,14.517 L-20.719,14.527 L-20.8,14.533 L-20.88,14.535 L-20.958,14.532 L-21.035,14.526 L-21.11,14.515 L-21.183,14.5 L-21.255,14.481 L-21.324,14.457 L-21.392,14.43 L-21.457,14.399 L-21.52,14.363 L-21.58,14.324 L-21.639,14.28 L-21.694,14.233 L-21.747,14.182 L-21.798,14.127 L-21.846,14.069 L-21.891,14.007 L-21.933,13.942 L-21.972,13.873 L-22.009,13.8 L-22.042,13.725 L-22.072,13.647 L-22.1,13.565 L-22.124,13.481 L-22.145,13.394 L-22.163,13.304 L-22.177,13.211 L-22.189,13.117 L-22.197,13.019 L-22.202,12.92 L-22.203,12.819 " />
			<path d="M-27.86,16.085 L-27.857,15.947 L-27.848,15.806 L-27.834,15.663 L-27.814,15.517 L-27.788,15.369 L-27.756,15.219 L-27.719,15.069 L-27.677,14.917 L-27.629,14.765 L-27.576,14.612 L-27.518,14.46 L-27.455,14.309 L-27.387,14.158 L-27.314,14.009 L-27.237,13.861 L-27.156,13.715 L-27.07,13.572 L-26.981,13.432 L-26.888,13.294 L-26.792,13.16 L-26.692,13.029 L-26.589,12.903 L-26.484,12.781 L-26.376,12.663 L-26.266,12.551 L-26.154,12.443 L-26.04,12.341 L-25.925,12.245 L-25.809,12.155 L-25.691,12.07 L-25.574,11.992 L-25.456,11.921 " />
			<path d="M-25.456,11.921 L-25.367,11.872 L-25.279,11.826 L-25.191,11.785 L-25.103,11.747 L-25.016,11.714 L-24.929,11.684 L-24.843,11.659 L-24.758,11.637 L-24.674,11.62 L-24.591,11.607 L-24.509,11.599 L-24.428,11.594 L-24.349,11.594 L-24.271,11.597 L-24.195,11.605 L-24.12,11.618 L-24.047,11.634 L-23.977,11.654 L-23.908,11.679 L-23.841,11.708 L-23.777,11.741 L-23.715,11.777 L-23.655,11.818 L-23.597,11.863 L-23.543,11.911 L-23.49,11.964 L-23.441,12.02 L-23.394,12.079 L-23.35,12.142 L-23.308,12.209 L-23.27,12.279 L-23.235,12.352 L-23.202,12.429 L-23.173,12.508 L-23.147,12.591 L-23.124,12.676 L-23.104,12.764 L-23.087,12.855 L-23.074,12.948 L-23.063,13.043 L-23.056,13.141 L-23.052,13.241 L-23.052,13.343 L-23.055,13.447 L-23.061,13.552 L-23.07,13.659 L-23.082,13.768 L-23.098,13.877 L-23.117,13.988 L-23.139,14.1 L-23.164,14.212 L-23.192,14.325 L-23.224,14.439 L-23.258,14.553 L-23.295,14.667 L-23.336,14.781 L-23.379,14.896 L-23.425,15.009 L-23.473,15.123 L-23.525,15.236 L-23.579,15.348 L-23.635,15.459 L-23.694,15.569 L-23.756,15.678 L-23.82,15.786 L-23.886,15.892 L-23.954,15.997 L-24.024,16.1 L-24.096,16.201 L-24.17,16.3 L-24.245,16.396 L-24.323,16.491 L-24.401,16.583 L-24.482,16.672 L-24.563,16.759 L-24.646,16.843 L-24.73,16.924 L-24.815,17.002 L-24.9,17.077 L-24.987,17.149 L-25.074,17.217 L-25.162,17.282 L-25.25,17.344 L-25.338,17.402 L-25.426,17.456 L-25.515,17.506 L-25.603,17.553 L-25.691,17.596 L-25.779,17.635 L-25.867,17.669 L-25.954,17.7 L-26.04,17.727 L-26.125,17.75 L-26.21,17.768 L-26.293,17.783 L-26.376,17.793 L-26.457,17.799 L-26.537,17.801 L-26.615,17.798 L-26.692,17.792 L-26.767,17.781 L-26.84,17.766 L-26.912,17.747 L-26.981,17.723 L-27.048,17.696 L-27.114,17.665 L-27.177,17.629 L-27.237,17.59 L-27.295,17.546 L-27.351,17.499 L-27.404,17.448 L-27.455,17.393 L-27.503,17.335 L-27.548,17.273 L-27.59,17.208 L-27.629,17.139 L-27.666,17.066 L-27.699,16.991 L-27.729,16.913 L-27.756,16.831 L-27.781,16.747 L-27.802,16.66 L-27.819,16.57 L-27.834,16.477 L-27.845,16.383 L-27.853,16.285 L-27.858,16.186 L-27.86,16.085 " />
			<path d="M-2.937,-1.078 L-2.836,-1.128 L-2.736,-1.172 L-2.636,-1.211 L-2.537,-1.244 L-2.439,-1.271 L-2.343,-1.292 L-2.247,-1.307 L-2.154,-1.316 L-2.063,-1.319 L-1.973,-1.317 L-1.886,-1.308 L-1.801,-1.293 L-1.719,-1.272 L-1.64,-1.245 L-1.564,-1.213 L-1.491,-1.174 " />
			<path d="M-1.491,-1.174 L-1.416,-1.127 L-1.346,-1.074 L-1.28,-1.014 L-1.218,-0.948 L-1.16,-0.876 L-1.107,-0.799 L-1.059,-0.716 L-1.015,-0.627 L-0.977,-0.534 L-0.943,-0.435 L-0.914,-0.332 L-0.891,-0.225 L-0.872,-0.113 L-0.859,0.003 L-0.851,0.122 L-0.849,0.245 L-0.851,0.371 L-0.859,0.499 L-0.872,0.63 L-0.891,0.763 L-0.914,0.898 L-0.943,1.034 L-0.977,1.172 L-1.015,1.31 L-1.059,1.449 L-1.107,1.588 L-1.16,1.726 L-1.218,1.864 L-1.28,2.002 L-1.346,2.138 L-1.416,2.273 L-1.491,2.405 L-1.568,2.536 L-1.65,2.664 L-1.735,2.79 L-1.823,2.912 L-1.914,3.031 L-2.007,3.146 L-2.103,3.258 L-2.202,3.365 L-2.302,3.467 L-2.404,3.565 L-2.508,3.658 L-2.613,3.746 L-2.719,3.829 L-2.826,3.905 L-2.933,3.977 L-3.041,4.042 L-3.148,4.101 L-3.255,4.154 L-3.362,4.2 L-3.468,4.24 L-3.573,4.273 L-3.677,4.3 L-3.779,4.32 L-3.879,4.333 L-3.978,4.34 L-4.074,4.339 L-4.167,4.332 L-4.258,4.318 L-4.346,4.297 L-4.431,4.27 L-4.513,4.236 L-4.591,4.195 " />
			<path d="M-4.591,4.195 L-4.66,4.151 L-4.727,4.101 L-4.79,4.046 L-4.849,3.985 L-4.904,3.92 L-4.955,3.848 L-5.002,3.772 L-5.045,3.692 L-5.084,3.606 L-5.118,3.516 L-5.148,3.422 L-5.174,3.324 L-5.195,3.222 L-5.211,3.116 L-5.223,3.007 L-5.23,2.894 " />
			<path d="M-6.323,-4.97 L-6.372,-4.996 L-6.421,-5.021 L-6.472,-5.043 L-6.524,-5.064 L-6.577,-5.082 L-6.63,-5.098 L-6.685,-5.112 L-6.741,-5.124 L-6.798,-5.134 L-6.855,-5.142 L-6.914,-5.148 L-6.973,-5.151 L-7.033,-5.152 L-7.094,-5.152 L-7.156,-5.149 L-7.218,-5.143 L-7.281,-5.136 L-7.344,-5.127 L-7.473,-5.102 L-7.603,-5.068 L-7.735,-5.026 L-7.869,-4.976 L-8.003,-4.917 L-8.138,-4.851 L-8.273,-4.777 " />
			<path d="M-31.042,8.369 L-31.143,8.43 L-31.245,8.495 L-31.346,8.564 L-31.447,8.637 L-31.547,8.714 L-31.646,8.795 L-31.745,8.88 L-31.843,8.968 L-31.939,9.06 L-32.034,9.155 L-32.129,9.254 L-32.221,9.356 L-32.312,9.46 L-32.401,9.568 L-32.489,9.678 L-32.574,9.79 L-32.657,9.905 L-32.739,10.023 L-32.817,10.142 L-32.894,10.263 L-32.968,10.386 L-33.039,10.511 L-33.108,10.637 L-33.174,10.764 L-33.237,10.892 L-33.297,11.022 L-33.354,11.152 L-33.407,11.282 L-33.458,11.413 L-33.505,11.544 L-33.549,11.675 L-33.59,11.806 L-33.627,11.936 L-33.661,12.066 L-33.691,12.196 L-33.717,12.324 L-33.74,12.452 L-33.759,12.578 L-33.775,12.703 L-33.786,12.826 L-33.795,12.947 L-33.799,13.067 L-33.799,13.185 L-33.796,13.3 L-33.79,13.413 L-33.779,13.523 L-33.765,13.631 L-33.747,13.736 L-33.725,13.838 L-33.7,13.937 L-33.671,14.033 L-33.638,14.125 L-33.603,14.214 L-33.563,14.299 L-33.52,14.381 L-33.474,14.459 L-33.425,14.532 L-33.372,14.602 L-33.316,14.668 L-33.257,14.729 L-33.195,14.786 L-33.13,14.839 L-33.062,14.887 L-32.992,14.931 " />
			<path d="M-8.273,-4.777 L-31.042,8.369 " />
			<path d="M-8.594,2.188 L-8.493,2.138 L-8.393,2.094 L-8.293,2.055 L-8.194,2.022 L-8.096,1.995 L-7.999,1.974 L-7.904,1.959 L-7.811,1.95 L-7.719,1.947 L-7.63,1.949 L-7.543,1.958 L-7.458,1.973 L-7.376,1.994 L-7.297,2.021 L-7.221,2.053 L-7.147,2.092 " />
			<path d="M-7.147,2.092 L-7.073,2.139 L-7.003,2.192 L-6.937,2.252 L-6.875,2.318 L-6.817,2.39 L-6.764,2.467 L-6.716,2.55 L-6.672,2.639 L-6.634,2.732 L-6.6,2.831 L-6.571,2.934 L-6.548,3.041 L-6.529,3.153 L-6.516,3.269 L-6.508,3.388 L-6.505,3.511 L-6.508,3.637 L-6.516,3.765 L-6.529,3.896 L-6.548,4.029 L-6.571,4.164 L-6.6,4.3 L-6.634,4.438 L-6.672,4.576 L-6.716,4.715 L-6.764,4.854 L-6.817,4.992 L-6.875,5.13 L-6.937,5.268 L-7.003,5.404 L-7.073,5.539 L-7.147,5.671 L-7.225,5.802 L-7.307,5.93 L-7.392,6.056 L-7.48,6.178 L-7.57,6.297 L-7.664,6.412 L-7.76,6.524 L-7.859,6.631 L-7.959,6.733 L-8.061,6.831 L-8.165,6.924 L-8.27,7.012 L-8.376,7.095 L-8.483,7.171 L-8.59,7.242 L-8.697,7.308 L-8.805,7.367 L-8.912,7.42 L-9.019,7.466 L-9.125,7.506 L-9.23,7.539 L-9.334,7.566 L-9.436,7.586 L-9.536,7.599 L-9.635,7.606 L-9.731,7.605 L-9.824,7.598 L-9.915,7.584 L-10.003,7.563 L-10.088,7.536 L-10.169,7.502 L-10.247,7.461 " />
			<path d="M-10.247,7.461 L-10.317,7.417 L-10.384,7.367 L-10.446,7.312 L-10.505,7.251 L-10.561,7.185 L-10.612,7.114 L-10.659,7.038 L-10.702,6.958 L-10.741,6.872 L-10.775,6.782 L-10.805,6.688 L-10.831,6.59 L-10.852,6.488 L-10.868,6.382 L-10.88,6.273 L-10.887,6.16 " />
			<path d="M-14.251,5.454 L-14.15,5.404 L-14.049,5.36 L-13.95,5.321 L-13.851,5.288 L-13.753,5.261 L-13.656,5.24 L-13.561,5.225 L-13.468,5.216 L-13.376,5.213 L-13.287,5.215 L-13.2,5.224 L-13.115,5.239 L-13.033,5.26 L-12.954,5.287 L-12.877,5.319 L-12.804,5.358 " />
			<path d="M-12.804,5.358 L-12.73,5.405 L-12.66,5.458 L-12.594,5.518 L-12.532,5.584 L-12.474,5.656 L-12.421,5.733 L-12.373,5.816 L-12.329,5.905 L-12.29,5.998 L-12.257,6.097 L-12.228,6.2 L-12.204,6.307 L-12.186,6.419 L-12.173,6.535 L-12.165,6.654 L-12.162,6.777 L-12.165,6.903 L-12.173,7.031 L-12.186,7.162 L-12.204,7.295 L-12.228,7.43 L-12.257,7.566 L-12.29,7.704 L-12.329,7.842 L-12.373,7.981 L-12.421,8.12 L-12.474,8.258 L-12.532,8.396 L-12.594,8.534 L-12.66,8.67 L-12.73,8.805 L-12.804,8.937 L-12.882,9.068 L-12.964,9.196 L-13.048,9.322 L-13.136,9.444 L-13.227,9.563 L-13.321,9.678 L-13.417,9.79 L-13.515,9.897 L-13.616,9.999 L-13.718,10.097 L-13.822,10.19 L-13.927,10.278 L-14.033,10.361 L-14.139,10.437 L-14.247,10.508 L-14.354,10.574 L-14.462,10.633 L-14.569,10.685 L-14.676,10.732 L-14.782,10.772 L-14.887,10.805 L-14.991,10.832 L-15.093,10.852 L-15.193,10.865 L-15.291,10.872 L-15.388,10.871 L-15.481,10.864 L-15.572,10.85 L-15.66,10.829 L-15.745,10.802 L-15.826,10.768 L-15.904,10.727 " />
			<path d="M-15.904,10.727 L-15.974,10.683 L-16.04,10.633 L-16.103,10.578 L-16.162,10.517 L-16.218,10.451 L-16.269,10.38 L-16.316,10.304 L-16.359,10.224 L-16.398,10.138 L-16.432,10.048 L-16.462,9.954 L-16.488,9.856 L-16.509,9.754 L-16.525,9.648 L-16.537,9.539 L-16.544,9.426 " />
			<path d="M-19.908,8.72 L-19.807,8.67 L-19.706,8.626 L-19.606,8.587 L-19.508,8.554 L-19.41,8.527 L-19.313,8.506 L-19.218,8.491 L-19.125,8.482 L-19.033,8.479 L-18.944,8.481 L-18.857,8.49 L-18.772,8.505 L-18.69,8.526 L-18.611,8.553 L-18.534,8.585 L-18.461,8.624 " />
			<path d="M-18.461,8.624 L-18.387,8.671 L-18.317,8.724 L-18.25,8.784 L-18.189,8.85 L-18.131,8.922 L-18.078,8.999 L-18.03,9.082 L-17.986,9.171 L-17.947,9.264 L-17.913,9.363 L-17.885,9.466 L-17.861,9.573 L-17.843,9.685 L-17.83,9.801 L-17.822,9.92 L-17.819,10.043 L-17.822,10.169 L-17.83,10.297 L-17.843,10.428 L-17.861,10.561 L-17.885,10.696 L-17.913,10.832 L-17.947,10.97 L-17.986,11.108 L-18.03,11.247 L-18.078,11.386 L-18.131,11.524 L-18.189,11.662 L-18.25,11.8 L-18.317,11.936 L-18.387,12.071 L-18.461,12.203 L-18.539,12.334 L-18.621,12.462 L-18.705,12.588 L-18.793,12.71 L-18.884,12.829 L-18.978,12.944 L-19.074,13.055 L-19.172,13.163 L-19.273,13.265 L-19.375,13.363 L-19.479,13.456 L-19.583,13.544 L-19.689,13.627 L-19.796,13.703 L-19.904,13.774 L-20.011,13.84 L-20.119,13.899 L-20.226,13.951 L-20.333,13.998 L-20.439,14.038 L-20.544,14.071 L-20.647,14.098 L-20.75,14.118 L-20.85,14.131 L-20.948,14.138 L-21.044,14.137 L-21.138,14.13 L-21.229,14.116 L-21.317,14.095 L-21.402,14.068 L-21.483,14.034 L-21.561,13.993 " />
			<path d="M-21.561,13.993 L-21.631,13.949 L-21.697,13.899 L-21.76,13.844 L-21.819,13.783 L-21.874,13.717 L-21.926,13.646 L-21.973,13.57 L-22.016,13.49 L-22.055,13.404 L-22.089,13.314 L-22.119,13.22 L-22.145,13.122 L-22.165,13.02 L-22.182,12.914 L-22.194,12.805 L-22.201,12.692 " />
			<path d="M-25.564,11.986 L-25.463,11.936 L-25.363,11.892 L-25.263,11.853 L-25.164,11.82 L-25.067,11.793 L-24.97,11.772 L-24.875,11.757 L-24.781,11.748 L-24.69,11.745 L-24.601,11.747 L-24.513,11.756 L-24.429,11.771 L-24.347,11.792 L-24.267,11.819 L-24.191,11.851 L-24.118,11.89 " />
			<path d="M-24.118,11.89 L-24.044,11.937 L-23.974,11.99 L-23.907,12.05 L-23.845,12.116 L-23.788,12.188 L-23.735,12.265 L-23.686,12.348 L-23.643,12.437 L-23.604,12.53 L-23.57,12.629 L-23.542,12.732 L-23.518,12.839 L-23.5,12.951 L-23.487,13.067 L-23.479,13.186 L-23.476,13.309 L-23.479,13.435 L-23.487,13.563 L-23.5,13.694 L-23.518,13.827 L-23.542,13.962 L-23.57,14.098 L-23.604,14.236 L-23.643,14.374 L-23.686,14.513 L-23.735,14.652 L-23.788,14.79 L-23.845,14.928 L-23.907,15.066 L-23.974,15.202 L-24.044,15.337 L-24.118,15.469 L-24.196,15.6 L-24.277,15.728 L-24.362,15.854 L-24.45,15.976 L-24.541,16.095 L-24.635,16.21 L-24.731,16.321 L-24.829,16.429 L-24.93,16.531 L-25.032,16.629 L-25.135,16.722 L-25.24,16.81 L-25.346,16.893 L-25.453,16.969 L-25.56,17.04 L-25.668,17.106 L-25.776,17.165 L-25.883,17.217 L-25.99,17.264 L-26.096,17.304 L-26.201,17.337 L-26.304,17.364 L-26.406,17.384 L-26.507,17.397 L-26.605,17.404 L-26.701,17.403 L-26.795,17.396 L-26.886,17.382 L-26.974,17.361 L-27.059,17.334 L-27.14,17.3 L-27.218,17.259 " />
			<path d="M-27.218,17.259 L-27.288,17.215 L-27.354,17.165 L-27.417,17.11 L-27.476,17.049 L-27.531,16.983 L-27.583,16.912 L-27.63,16.836 L-27.673,16.756 L-27.711,16.67 L-27.746,16.58 L-27.776,16.486 L-27.801,16.388 L-27.822,16.286 L-27.839,16.18 L-27.85,16.071 L-27.858,15.958 " />
			<path d="M-4.815,4.021 L-4.736,4.039 L-4.654,4.051 L-4.57,4.057 L-4.483,4.058 L-4.395,4.054 L-4.306,4.044 L-4.214,4.029 L-4.122,4.008 L-4.028,3.982 L-3.934,3.95 L-3.838,3.913 L-3.742,3.871 L-3.646,3.824 L-3.549,3.772 L-3.452,3.714 L-3.355,3.652 L-3.259,3.585 L-3.163,3.514 L-3.068,3.438 L-2.974,3.358 L-2.881,3.273 L-2.789,3.185 L-2.699,3.093 L-2.61,2.997 L-2.523,2.898 L-2.438,2.795 L-2.355,2.69 L-2.275,2.581 L-2.197,2.47 L-2.121,2.357 L-2.048,2.241 L-1.978,2.124 L-1.912,2.004 L-1.848,1.883 L-1.787,1.761 L-1.73,1.638 L-1.677,1.514 L-1.627,1.39 L-1.58,1.265 L-1.538,1.14 L-1.499,1.015 L-1.465,0.891 L-1.434,0.767 L-1.408,0.644 L-1.385,0.523 L-1.367,0.402 L-1.353,0.284 L-1.343,0.167 L-1.338,0.052 L-1.337,-0.06 L-1.34,-0.17 L-1.347,-0.277 L-1.358,-0.382 L-1.374,-0.483 L-1.394,-0.58 L-1.418,-0.675 L-1.447,-0.765 L-1.479,-0.852 L-1.515,-0.935 L-1.555,-1.013 L-1.599,-1.087 L-1.647,-1.157 L-1.699,-1.221 L-1.754,-1.282 " />
			<path d="M-10.472,7.287 L-10.392,7.305 L-10.311,7.317 L-10.226,7.323 L-10.14,7.324 L-10.052,7.32 L-9.963,7.31 L-9.871,7.295 L-9.779,7.274 L-9.685,7.248 L-9.59,7.216 L-9.495,7.179 L-9.399,7.137 L-9.302,7.09 L-9.206,7.038 L-9.109,6.98 L-9.012,6.918 L-8.916,6.851 L-8.82,6.78 L-8.725,6.704 L-8.631,6.624 L-8.538,6.539 L-8.446,6.451 L-8.356,6.359 L-8.267,6.263 L-8.18,6.164 L-8.095,6.061 L-8.012,5.956 L-7.932,5.847 L-7.854,5.736 L-7.778,5.623 L-7.705,5.507 L-7.635,5.39 L-7.568,5.27 L-7.505,5.149 L-7.444,5.027 L-7.387,4.904 L-7.334,4.78 L-7.284,4.656 L-7.237,4.531 L-7.195,4.406 L-7.156,4.281 L-7.122,4.157 L-7.091,4.033 L-7.065,3.91 L-7.042,3.789 L-7.024,3.668 L-7.01,3.55 L-7,3.433 L-6.995,3.318 L-6.993,3.206 L-6.996,3.096 L-7.004,2.989 L-7.015,2.884 L-7.031,2.783 L-7.051,2.685 L-7.075,2.591 L-7.103,2.501 L-7.136,2.414 L-7.172,2.331 L-7.212,2.253 L-7.256,2.179 L-7.304,2.109 L-7.356,2.045 L-7.411,1.984 " />
			<path d="M-16.129,10.553 L-16.049,10.57 L-15.967,10.583 L-15.883,10.589 L-15.797,10.59 L-15.709,10.586 L-15.619,10.576 L-15.528,10.561 L-15.436,10.54 L-15.342,10.514 L-15.247,10.482 L-15.152,10.445 L-15.056,10.403 L-14.959,10.356 L-14.863,10.304 L-14.766,10.246 L-14.669,10.184 L-14.573,10.117 L-14.477,10.046 L-14.382,9.97 L-14.288,9.89 L-14.195,9.805 L-14.103,9.717 L-14.013,9.625 L-13.924,9.529 L-13.837,9.43 L-13.752,9.327 L-13.669,9.222 L-13.589,9.113 L-13.51,9.002 L-13.435,8.889 L-13.362,8.773 L-13.292,8.656 L-13.225,8.536 L-13.162,8.415 L-13.101,8.293 L-13.044,8.17 L-12.99,8.046 L-12.94,7.922 L-12.894,7.797 L-12.852,7.672 L-12.813,7.547 L-12.779,7.423 L-12.748,7.299 L-12.721,7.176 L-12.699,7.055 L-12.681,6.934 L-12.667,6.816 L-12.657,6.699 L-12.651,6.584 L-12.65,6.472 L-12.653,6.362 L-12.661,6.255 L-12.672,6.15 L-12.688,6.049 L-12.708,5.951 L-12.732,5.857 L-12.76,5.767 L-12.793,5.68 L-12.829,5.597 L-12.869,5.519 L-12.913,5.445 L-12.961,5.375 L-13.012,5.311 L-13.068,5.25 " />
			<path d="M-21.786,13.819 L-21.706,13.836 L-21.624,13.849 L-21.54,13.855 L-21.454,13.856 L-21.366,13.852 L-21.276,13.842 L-21.185,13.827 L-21.093,13.806 L-20.999,13.78 L-20.904,13.748 L-20.809,13.711 L-20.713,13.669 L-20.616,13.622 L-20.519,13.57 L-20.423,13.512 L-20.326,13.45 L-20.23,13.383 L-20.134,13.312 L-20.039,13.236 L-19.945,13.156 L-19.852,13.071 L-19.76,12.983 L-19.67,12.891 L-19.581,12.795 L-19.494,12.696 L-19.409,12.593 L-19.326,12.488 L-19.245,12.379 L-19.167,12.268 L-19.092,12.155 L-19.019,12.039 L-18.949,11.922 L-18.882,11.802 L-18.818,11.681 L-18.758,11.559 L-18.701,11.436 L-18.647,11.312 L-18.597,11.188 L-18.551,11.063 L-18.509,10.938 L-18.47,10.813 L-18.435,10.689 L-18.405,10.565 L-18.378,10.442 L-18.356,10.321 L-18.338,10.2 L-18.324,10.082 L-18.314,9.965 L-18.308,9.85 L-18.307,9.738 L-18.31,9.628 L-18.317,9.521 L-18.329,9.416 L-18.345,9.315 L-18.365,9.217 L-18.389,9.123 L-18.417,9.033 L-18.449,8.946 L-18.486,8.863 L-18.526,8.785 L-18.57,8.711 L-18.618,8.641 L-18.669,8.577 L-18.724,8.516 " />
			<path d="M-27.443,17.085 L-27.363,17.102 L-27.281,17.115 L-27.197,17.121 L-27.111,17.122 L-27.023,17.118 L-26.933,17.108 L-26.842,17.093 L-26.749,17.072 L-26.656,17.046 L-26.561,17.014 L-26.465,16.977 L-26.369,16.935 L-26.273,16.888 L-26.176,16.836 L-26.079,16.778 L-25.983,16.716 L-25.887,16.649 L-25.791,16.578 L-25.696,16.502 L-25.602,16.422 L-25.509,16.337 L-25.417,16.249 L-25.326,16.157 L-25.238,16.061 L-25.151,15.962 L-25.066,15.859 L-24.983,15.754 L-24.902,15.645 L-24.824,15.534 L-24.749,15.421 L-24.676,15.305 L-24.606,15.188 L-24.539,15.068 L-24.475,14.947 L-24.415,14.825 L-24.358,14.702 L-24.304,14.578 L-24.254,14.454 L-24.208,14.329 L-24.165,14.204 L-24.127,14.079 L-24.092,13.955 L-24.062,13.831 L-24.035,13.708 L-24.013,13.587 L-23.994,13.466 L-23.98,13.348 L-23.971,13.231 L-23.965,13.116 L-23.964,13.004 L-23.967,12.894 L-23.974,12.787 L-23.986,12.682 L-24.002,12.581 L-24.022,12.483 L-24.046,12.389 L-24.074,12.299 L-24.106,12.212 L-24.143,12.129 L-24.183,12.051 L-24.227,11.977 L-24.275,11.907 L-24.326,11.842 L-24.381,11.782 " />
			<path d="M-3.01,-1.031 L-2.907,-1.05 L-2.856,-1.056 L-2.807,-1.06 L-2.757,-1.062 L-2.709,-1.062 L-2.661,-1.06 L-2.614,-1.056 L-2.568,-1.049 L-2.523,-1.041 L-2.479,-1.03 L-2.436,-1.017 L-2.394,-1.002 L-2.352,-0.985 L-2.312,-0.966 L-2.273,-0.945 " />
			<path d="M-2.273,-0.945 L-2.213,-0.907 L-2.156,-0.863 L-2.103,-0.815 L-2.053,-0.762 L-2.006,-0.704 L-1.963,-0.641 L-1.924,-0.574 L-1.889,-0.502 L-1.857,-0.426 L-1.83,-0.347 L-1.807,-0.263 L-1.788,-0.176 L-1.773,-0.085 L-1.762,0.008 L-1.756,0.105 L-1.754,0.204 L-1.756,0.306 L-1.762,0.41 L-1.773,0.516 L-1.788,0.624 L-1.807,0.733 L-1.83,0.843 L-1.857,0.954 L-1.889,1.066 L-1.924,1.179 L-1.963,1.291 L-2.006,1.404 L-2.053,1.515 L-2.103,1.627 L-2.156,1.737 L-2.213,1.846 L-2.273,1.953 L-2.337,2.059 L-2.403,2.163 L-2.471,2.265 L-2.542,2.364 L-2.616,2.46 L-2.692,2.553 L-2.77,2.643 L-2.849,2.73 L-2.931,2.813 L-3.013,2.893 L-3.097,2.968 L-3.182,3.039 L-3.268,3.106 L-3.354,3.168 L-3.441,3.225 L-3.528,3.278 L-3.616,3.326 L-3.702,3.369 L-3.789,3.406 L-3.875,3.439 L-3.96,3.466 L-4.044,3.487 L-4.126,3.504 L-4.208,3.514 L-4.287,3.52 L-4.365,3.519 L-4.441,3.513 L-4.515,3.502 L-4.586,3.485 L-4.654,3.463 L-4.72,3.435 L-4.783,3.403 " />
			<path d="M-4.783,3.403 L-4.821,3.379 L-4.858,3.354 L-4.893,3.327 L-4.927,3.298 L-4.96,3.267 L-4.991,3.234 L-5.021,3.199 L-5.05,3.163 L-5.077,3.124 L-5.103,3.084 L-5.127,3.042 L-5.15,2.998 L-5.171,2.953 L-5.191,2.906 L-5.226,2.808 " />
			<path d="M-8.666,2.235 L-8.564,2.216 L-8.513,2.21 L-8.463,2.206 L-8.414,2.204 L-8.366,2.204 L-8.318,2.206 L-8.271,2.21 L-8.225,2.217 L-8.18,2.225 L-8.136,2.236 L-8.093,2.249 L-8.05,2.264 L-8.009,2.281 L-7.969,2.3 L-7.93,2.321 " />
			<path d="M-7.93,2.321 L-7.87,2.359 L-7.813,2.403 L-7.76,2.451 L-7.71,2.504 L-7.663,2.562 L-7.62,2.625 L-7.581,2.692 L-7.546,2.764 L-7.514,2.84 L-7.487,2.919 L-7.464,3.003 L-7.445,3.09 L-7.43,3.18 L-7.419,3.274 L-7.413,3.371 L-7.41,3.47 L-7.413,3.572 L-7.419,3.676 L-7.43,3.782 L-7.445,3.89 L-7.464,3.999 L-7.487,4.109 L-7.514,4.22 L-7.546,4.332 L-7.581,4.445 L-7.62,4.557 L-7.663,4.67 L-7.71,4.781 L-7.76,4.893 L-7.813,5.003 L-7.87,5.112 L-7.93,5.219 L-7.993,5.325 L-8.059,5.429 L-8.128,5.53 L-8.199,5.63 L-8.273,5.726 L-8.349,5.819 L-8.426,5.909 L-8.506,5.996 L-8.587,6.079 L-8.67,6.159 L-8.754,6.234 L-8.839,6.305 L-8.925,6.372 L-9.011,6.434 L-9.098,6.491 L-9.185,6.544 L-9.272,6.592 L-9.359,6.635 L-9.446,6.672 L-9.532,6.705 L-9.617,6.732 L-9.701,6.753 L-9.783,6.77 L-9.865,6.78 L-9.944,6.786 L-10.022,6.785 L-10.098,6.779 L-10.171,6.768 L-10.243,6.751 L-10.311,6.729 L-10.377,6.701 L-10.44,6.669 " />
			<path d="M-10.44,6.669 L-10.478,6.645 L-10.515,6.62 L-10.55,6.593 L-10.584,6.564 L-10.617,6.533 L-10.648,6.5 L-10.678,6.465 L-10.707,6.429 L-10.734,6.39 L-10.76,6.35 L-10.784,6.308 L-10.807,6.264 L-10.828,6.219 L-10.848,6.172 L-10.883,6.074 " />
			<path d="M-14.323,5.501 L-14.221,5.482 L-14.17,5.476 L-14.12,5.472 L-14.071,5.47 L-14.023,5.47 L-13.975,5.472 L-13.928,5.476 L-13.882,5.483 L-13.837,5.491 L-13.793,5.502 L-13.749,5.515 L-13.707,5.53 L-13.666,5.547 L-13.626,5.566 L-13.587,5.587 " />
			<path d="M-13.587,5.587 L-13.527,5.625 L-13.47,5.669 L-13.417,5.717 L-13.366,5.77 L-13.32,5.828 L-13.277,5.891 L-13.238,5.958 L-13.202,6.03 L-13.171,6.106 L-13.144,6.185 L-13.121,6.269 L-13.101,6.356 L-13.087,6.446 L-13.076,6.54 L-13.069,6.637 L-13.067,6.736 L-13.069,6.838 L-13.076,6.942 L-13.087,7.048 L-13.101,7.156 L-13.121,7.265 L-13.144,7.375 L-13.171,7.486 L-13.202,7.598 L-13.238,7.711 L-13.277,7.823 L-13.32,7.935 L-13.366,8.047 L-13.417,8.159 L-13.47,8.269 L-13.527,8.378 L-13.587,8.485 L-13.65,8.591 L-13.716,8.695 L-13.785,8.796 L-13.856,8.896 L-13.93,8.992 L-14.006,9.085 L-14.083,9.175 L-14.163,9.262 L-14.244,9.345 L-14.327,9.425 L-14.411,9.5 L-14.496,9.571 L-14.582,9.638 L-14.668,9.7 L-14.755,9.757 L-14.842,9.81 L-14.929,9.858 L-15.016,9.901 L-15.103,9.938 L-15.188,9.971 L-15.273,9.998 L-15.357,10.019 L-15.44,10.036 L-15.521,10.046 L-15.601,10.052 L-15.679,10.051 L-15.755,10.045 L-15.828,10.034 L-15.899,10.017 L-15.968,9.995 L-16.034,9.967 L-16.097,9.935 " />
			<path d="M-16.097,9.935 L-16.135,9.911 L-16.171,9.886 L-16.207,9.859 L-16.241,9.83 L-16.273,9.799 L-16.305,9.766 L-16.335,9.731 L-16.364,9.695 L-16.391,9.656 L-16.416,9.616 L-16.441,9.574 L-16.464,9.53 L-16.485,9.485 L-16.505,9.438 L-16.539,9.34 " />
			<path d="M-19.98,8.767 L-19.877,8.748 L-19.827,8.742 L-19.777,8.738 L-19.728,8.736 L-19.68,8.736 L-19.632,8.738 L-19.585,8.742 L-19.539,8.749 L-19.494,8.757 L-19.45,8.768 L-19.406,8.781 L-19.364,8.796 L-19.323,8.813 L-19.283,8.832 L-19.244,8.853 " />
			<path d="M-19.244,8.853 L-19.184,8.891 L-19.127,8.935 L-19.073,8.983 L-19.023,9.036 L-18.977,9.094 L-18.934,9.157 L-18.895,9.224 L-18.859,9.296 L-18.828,9.372 L-18.801,9.451 L-18.777,9.535 L-18.758,9.622 L-18.743,9.712 L-18.733,9.806 L-18.726,9.903 L-18.724,10.002 L-18.726,10.104 L-18.733,10.208 L-18.743,10.314 L-18.758,10.422 L-18.777,10.531 L-18.801,10.641 L-18.828,10.752 L-18.859,10.864 L-18.895,10.977 L-18.934,11.089 L-18.977,11.201 L-19.023,11.313 L-19.073,11.425 L-19.127,11.535 L-19.184,11.644 L-19.244,11.751 L-19.307,11.857 L-19.373,11.961 L-19.442,12.062 L-19.513,12.162 L-19.587,12.258 L-19.662,12.351 L-19.74,12.441 L-19.82,12.528 L-19.901,12.611 L-19.984,12.69 L-20.068,12.766 L-20.153,12.837 L-20.239,12.904 L-20.325,12.966 L-20.412,13.023 L-20.499,13.076 L-20.586,13.124 L-20.673,13.167 L-20.759,13.204 L-20.845,13.237 L-20.93,13.264 L-21.014,13.285 L-21.097,13.302 L-21.178,13.312 L-21.258,13.318 L-21.336,13.317 L-21.411,13.311 L-21.485,13.3 L-21.556,13.283 L-21.625,13.261 L-21.691,13.233 L-21.754,13.201 " />
			<path d="M-21.754,13.201 L-21.792,13.177 L-21.828,13.152 L-21.864,13.125 L-21.898,13.096 L-21.93,13.065 L-21.962,13.032 L-21.992,12.997 L-22.02,12.961 L-22.048,12.922 L-22.073,12.882 L-22.098,12.84 L-22.12,12.796 L-22.142,12.751 L-22.161,12.704 L-22.196,12.606 " />
			<path d="M-25.637,12.033 L-25.534,12.014 L-25.484,12.008 L-25.434,12.004 L-25.385,12.002 L-25.336,12.002 L-25.289,12.004 L-25.242,12.008 L-25.196,12.015 L-25.151,12.023 L-25.106,12.034 L-25.063,12.047 L-25.021,12.062 L-24.98,12.079 L-24.94,12.098 L-24.901,12.119 " />
			<path d="M-24.901,12.119 L-24.841,12.157 L-24.784,12.201 L-24.73,12.249 L-24.68,12.302 L-24.634,12.36 L-24.591,12.423 L-24.551,12.49 L-24.516,12.562 L-24.485,12.638 L-24.457,12.717 L-24.434,12.801 L-24.415,12.888 L-24.4,12.978 L-24.39,13.072 L-24.383,13.169 L-24.381,13.268 L-24.383,13.37 L-24.39,13.474 L-24.4,13.58 L-24.415,13.688 L-24.434,13.797 L-24.457,13.907 L-24.485,14.018 L-24.516,14.13 L-24.551,14.243 L-24.591,14.355 L-24.634,14.467 L-24.68,14.579 L-24.73,14.691 L-24.784,14.801 L-24.841,14.91 L-24.901,15.017 L-24.964,15.123 L-25.03,15.227 L-25.099,15.328 L-25.17,15.427 L-25.243,15.524 L-25.319,15.617 L-25.397,15.707 L-25.477,15.794 L-25.558,15.877 L-25.641,15.956 L-25.725,16.032 L-25.81,16.103 L-25.895,16.17 L-25.982,16.232 L-26.069,16.289 L-26.156,16.342 L-26.243,16.39 L-26.33,16.433 L-26.416,16.47 L-26.502,16.503 L-26.587,16.53 L-26.671,16.551 L-26.754,16.568 L-26.835,16.578 L-26.915,16.584 L-26.993,16.583 L-27.068,16.577 L-27.142,16.566 L-27.213,16.549 L-27.282,16.527 L-27.348,16.499 L-27.411,16.466 " />
			<path d="M-27.411,16.466 L-27.449,16.443 L-27.485,16.418 L-27.52,16.391 L-27.554,16.362 L-27.587,16.331 L-27.619,16.298 L-27.649,16.263 L-27.677,16.227 L-27.704,16.188 L-27.73,16.148 L-27.754,16.106 L-27.777,16.062 L-27.799,16.017 L-27.818,15.97 L-27.853,15.872 " />
			<path d="M-2.758,-1.592 L-8.273,-4.777 " />
			<path d="M-25.527,11.553 L-31.042,8.369 " />
			<path d="M-6.323,-4.97 L-0.808,-1.785 " />
			<path d="M-32.992,14.931 L-27.477,18.115 " />

       </g>
    </g>
    
</svg>
