<?xml version="1.0" encoding="UTF-8" standalone="no"?>
<svg viewBox="74.3 10.0 435.7 285.3"
   xmlns:svg="http://www.w3.org/2000/svg"
   xmlns="http://www.w3.org/2000/svg"
   width="436"
   height="285"

>
    <g transform="scale(15.656018345530073, -15.656018345530073)   translate(21.385930201924474,-9.87049304975985)" stroke-width="0.25"  fill="none">
       <!-- hidden lines -->
       <g  stroke="rgb(160,160,160)" fill="none" stroke-dasharray="0.25,0.25" >
			<path d="M-8.611,0.835 L-8.611,0.317 " />
			<path d="M-8.611,0.317 L-6.61,3.164 " />
			<path d="M-6.61,3.164 L-6.515,3.816 " />
			<path d="M-6.515,3.816 L-5.985,3.864 " />
			<path d="M-2.449,5.905 L-5.985,3.864 " />
			<path d="M-8.611,0.317 L-8.611,-0.171 " />
			<path d="M-6.364,-1.225 L-6.361,-1.106 L-6.354,-0.991 L-6.341,-0.879 L-6.323,-0.77 L-6.3,-0.666 L-6.273,-0.566 L-6.24,-0.471 L-6.202,-0.381 L-6.16,-0.295 L-6.113,-0.215 L-6.062,-0.14 L-6.006,-0.07 L-5.947,-0.007 L-5.882,0.051 L-5.814,0.103 L-5.743,0.149 L-5.667,0.188 L-5.588,0.221 L-5.506,0.248 L-5.421,0.268 L-5.333,0.281 L-5.243,0.288 L-5.15,0.288 L-5.054,0.282 L-4.957,0.269 L-4.858,0.25 L-4.758,0.224 L-4.656,0.192 L-4.554,0.153 L-4.451,0.108 L-4.347,0.057 L-4.243,1.11e-14 " />
			<path d="M-4.243,-4.441e-16 L-4.139,-0.063 L-4.035,-0.132 L-3.931,-0.206 L-3.829,-0.286 L-3.727,-0.371 L-3.627,-0.461 L-3.528,-0.556 L-3.431,-0.655 L-3.336,-0.759 L-3.243,-0.867 L-3.152,-0.978 L-3.064,-1.093 L-2.979,-1.212 L-2.897,-1.333 L-2.818,-1.457 L-2.743,-1.583 L-2.671,-1.712 L-2.603,-1.842 L-2.539,-1.974 L-2.479,-2.107 L-2.423,-2.241 L-2.372,-2.375 L-2.325,-2.509 L-2.283,-2.644 L-2.245,-2.777 L-2.213,-2.91 L-2.185,-3.042 L-2.162,-3.173 L-2.144,-3.302 L-2.132,-3.428 L-2.124,-3.553 L-2.121,-3.674 " />
			<path d="M-2.121,-3.674 L-2.124,-3.793 L-2.132,-3.908 L-2.144,-4.02 L-2.162,-4.129 L-2.185,-4.233 L-2.213,-4.333 L-2.245,-4.428 L-2.283,-4.518 L-2.325,-4.604 L-2.372,-4.684 L-2.423,-4.759 L-2.479,-4.829 L-2.539,-4.892 L-2.603,-4.95 L-2.671,-5.002 L-2.743,-5.048 L-2.818,-5.087 L-2.897,-5.12 L-2.979,-5.147 L-3.064,-5.167 L-3.152,-5.18 L-3.243,-5.187 L-3.336,-5.187 L-3.431,-5.181 L-3.528,-5.168 L-3.627,-5.149 L-3.727,-5.123 L-3.829,-5.091 L-3.931,-5.052 L-4.035,-5.007 L-4.139,-4.956 L-4.243,-4.899 L-4.347,-4.836 L-4.451,-4.767 L-4.554,-4.693 L-4.656,-4.613 L-4.758,-4.528 L-4.858,-4.438 L-4.957,-4.343 L-5.054,-4.244 L-5.15,-4.14 L-5.243,-4.032 L-5.333,-3.921 L-5.421,-3.806 L-5.506,-3.687 L-5.588,-3.566 L-5.667,-3.442 L-5.743,-3.316 L-5.814,-3.187 L-5.882,-3.057 L-5.947,-2.925 L-6.006,-2.792 L-6.062,-2.658 L-6.113,-2.524 L-6.16,-2.39 L-6.202,-2.255 L-6.24,-2.122 L-6.273,-1.989 L-6.3,-1.857 L-6.323,-1.726 L-6.341,-1.597 L-6.354,-1.471 L-6.361,-1.346 L-6.364,-1.225 " />
			<path d="M-6.61,3.164 L-6.244,3.197 " />
			<path d="M-6.244,3.197 L-2.241,0.886 " />
			<path d="M-2.241,-8.096 L-6.244,-5.785 " />
			<path d="M-2.241,0.886 L-1.875,0.43 " />
			<path d="M-2.241,-8.096 L-1.875,-8.063 " />
			<path d="M-1.875,0.43 L0.126,-4.728 " />
			<path d="M0.126,-5.216 L-1.875,-8.063 " />
			<path d="M0.126,-4.728 L0.126,-5.216 " />
			<path d="M-6.244,3.197 L-5.985,3.864 " />
			<path d="M-1.497,5.355 L2.001,3.335 " />
			<path d="M2.001,3.335 L2.367,2.88 " />
			<path d="M2.367,2.88 L4.369,-2.278 " />
			<path d="M4.369,-2.278 L4.369,-2.766 " />
			<path d="M4.369,-2.766 L3.496,-4.008 " />
			<path d="M2.475,-4.287 L2.535,-4.25 L2.593,-4.212 L2.65,-4.17 L2.706,-4.126 L2.759,-4.08 L2.811,-4.031 L2.862,-3.979 L2.91,-3.926 L2.957,-3.87 L3.002,-3.811 L3.045,-3.75 L3.087,-3.687 L3.126,-3.622 L3.164,-3.555 L3.2,-3.485 L3.234,-3.414 L3.266,-3.34 L3.296,-3.264 L3.324,-3.187 L3.349,-3.107 L3.373,-3.026 L3.395,-2.942 L3.415,-2.857 L3.433,-2.77 L3.449,-2.682 L3.462,-2.592 L3.474,-2.5 L3.483,-2.407 L3.491,-2.313 L3.496,-2.217 L3.499,-2.119 L3.5,-2.021 L3.499,-1.921 L3.496,-1.82 L3.491,-1.718 L3.483,-1.615 L3.462,-1.406 L3.433,-1.194 L3.395,-0.978 L3.349,-0.761 L3.296,-0.541 L3.234,-0.32 L3.164,-0.099 L3.087,0.123 L3.002,0.345 L2.91,0.565 L2.811,0.784 L2.706,1.002 L2.593,1.217 L2.475,1.429 L2.351,1.638 L2.22,1.842 L2.085,2.042 L1.945,2.238 L1.799,2.428 L1.65,2.612 L1.497,2.79 L1.339,2.961 L1.179,3.125 L1.016,3.281 L0.85,3.43 L0.683,3.57 L0.514,3.701 L0.343,3.824 L0.257,3.882 L0.172,3.938 L0.086,3.991 L6.661e-16,4.042 L-0.086,4.09 L-0.172,4.136 L-0.257,4.179 L-0.343,4.22 L-0.428,4.259 L-0.514,4.294 L-0.598,4.328 L-0.683,4.358 L-0.767,4.386 L-0.85,4.412 L-0.934,4.434 L-1.016,4.454 L-1.098,4.472 L-1.179,4.486 L-1.26,4.498 L-1.339,4.507 L-1.418,4.514 L-1.497,4.518 L-1.574,4.519 L-1.65,4.517 L-1.725,4.513 L-1.799,4.506 L-1.873,4.496 L-1.945,4.483 L-2.015,4.468 L-2.085,4.45 L-2.153,4.43 L-2.22,4.406 L-2.286,4.38 L-2.351,4.352 L-2.414,4.321 L-2.475,4.287 " />
			<path d="M-5.985,3.864 L-1.793,1.444 " />
			<path d="M-2.449,5.905 L1.742,3.485 " />
			<path d="M1.742,3.485 L-1.793,1.444 " />
			<path d="M-5.657,-1.225 L-5.655,-1.126 L-5.648,-1.03 L-5.638,-0.936 L-5.623,-0.846 L-5.604,-0.759 L-5.581,-0.676 L-5.554,-0.597 L-5.522,-0.521 L-5.487,-0.45 L-5.448,-0.383 L-5.405,-0.321 L-5.359,-0.263 L-5.309,-0.21 L-5.256,-0.161 L-5.199,-0.118 L-5.139,-0.08 " />
			<path d="M-5.139,-0.08 L-5.076,-0.047 L-5.011,-0.02 L-4.942,0.002 L-4.871,0.019 L-4.798,0.03 L-4.722,0.036 L-4.645,0.036 L-4.566,0.031 L-4.485,0.02 L-4.402,0.004 L-4.319,-0.017 L-4.234,-0.044 L-4.148,-0.076 L-4.062,-0.114 L-3.976,-0.157 L-3.889,-0.204 " />
			<path d="M-3.889,-0.204 L-3.802,-0.257 L-3.716,-0.314 L-3.63,-0.376 L-3.544,-0.442 L-3.46,-0.513 L-3.376,-0.588 L-3.294,-0.667 L-3.213,-0.75 L-3.133,-0.836 L-3.056,-0.926 L-2.98,-1.019 L-2.907,-1.115 L-2.836,-1.214 L-2.768,-1.315 L-2.702,-1.418 L-2.639,-1.524 L-2.579,-1.631 L-2.523,-1.739 L-2.469,-1.849 L-2.419,-1.96 L-2.373,-2.071 L-2.33,-2.183 L-2.291,-2.295 L-2.256,-2.407 L-2.225,-2.519 L-2.197,-2.629 L-2.174,-2.739 L-2.155,-2.848 L-2.14,-2.955 L-2.13,-3.061 L-2.123,-3.165 L-2.121,-3.266 " />
			<path d="M-2.121,-3.266 L-2.123,-3.365 L-2.13,-3.461 L-2.14,-3.554 L-2.155,-3.645 L-2.174,-3.731 L-2.197,-3.815 L-2.225,-3.894 L-2.256,-3.969 L-2.291,-4.041 L-2.33,-4.108 L-2.373,-4.17 L-2.419,-4.228 L-2.469,-4.281 L-2.523,-4.329 L-2.579,-4.372 L-2.639,-4.41 " />
			<path d="M-2.639,-4.41 L-2.686,-4.436 L-2.734,-4.458 L-2.784,-4.477 L-2.836,-4.493 L-2.889,-4.506 L-2.943,-4.516 L-2.999,-4.523 L-3.056,-4.527 L-3.114,-4.527 L-3.173,-4.525 L-3.233,-4.52 L-3.294,-4.511 L-3.355,-4.5 L-3.418,-4.485 L-3.481,-4.467 L-3.544,-4.446 L-3.608,-4.423 L-3.673,-4.396 L-3.737,-4.367 L-3.802,-4.334 L-3.867,-4.299 L-3.932,-4.261 L-3.997,-4.22 L-4.062,-4.177 L-4.127,-4.131 L-4.191,-4.082 L-4.255,-4.031 L-4.319,-3.977 L-4.381,-3.922 L-4.444,-3.863 L-4.505,-3.803 L-4.566,-3.741 L-4.625,-3.676 L-4.684,-3.61 L-4.741,-3.542 L-4.798,-3.471 L-4.907,-3.327 L-5.011,-3.176 L-5.108,-3.02 L-5.199,-2.86 L-5.283,-2.697 L-5.359,-2.531 L-5.427,-2.363 L-5.458,-2.279 L-5.487,-2.195 L-5.514,-2.112 L-5.538,-2.028 L-5.561,-1.944 L-5.581,-1.861 L-5.598,-1.779 L-5.614,-1.697 L-5.627,-1.616 L-5.638,-1.535 L-5.646,-1.456 L-5.652,-1.378 L-5.656,-1.301 L-5.657,-1.225 " />
			<path d="M-2.241,0.886 L-1.793,1.444 " />
			<path d="M-2.241,-8.096 L-1.793,-8.354 " />
			<path d="M-1.793,1.444 L-1.263,0.784 " />
			<path d="M-1.875,0.43 L-1.263,0.784 " />
			<path d="M-1.875,-8.063 L-1.263,-8.307 " />
			<path d="M-1.263,0.784 L0.833,-4.618 " />
			<path d="M0.126,-4.728 L0.833,-4.618 " />
			<path d="M0.126,-5.216 L0.833,-5.325 " />
			<path d="M0.833,-5.325 L-1.263,-8.307 " />
			<path d="M0.833,-4.618 L0.833,-5.325 " />
			<path d="M2.001,3.335 L1.742,3.485 " />
			<path d="M1.742,3.485 L2.273,2.825 " />
			<path d="M2.367,2.88 L2.273,2.825 " />
			<path d="M2.273,2.825 L4.369,-2.577 " />
			<path d="M4.369,-2.278 L4.369,-2.577 " />
			<path d="M4.369,-2.577 L4.369,-3.284 " />
			<path d="M4.369,-2.766 L4.369,-3.284 " />
			<path d="M4.369,-3.284 L3.883,-3.975 " />
			<path d="M5.254,-1.008 L5.251,-0.858 L5.244,-0.706 L5.232,-0.551 L5.216,-0.393 L5.195,-0.234 L5.169,-0.074 L5.138,0.088 L5.103,0.252 L5.063,0.416 L5.019,0.582 L4.971,0.747 L4.918,0.914 L4.861,1.08 L4.799,1.246 L4.734,1.412 L4.664,1.578 L4.59,1.742 L4.513,1.906 L4.432,2.068 L4.347,2.229 L4.259,2.389 L4.167,2.546 L4.072,2.702 L3.974,2.855 L3.873,3.005 L3.769,3.153 L3.662,3.298 L3.553,3.44 L3.441,3.579 L3.327,3.714 L3.211,3.845 L3.093,3.973 L2.973,4.097 L2.852,4.216 L2.728,4.331 L2.604,4.442 L2.479,4.548 L2.352,4.649 L2.225,4.745 L2.097,4.837 L1.968,4.923 L1.84,5.003 L1.711,5.079 L1.582,5.148 L1.453,5.213 L1.325,5.271 L1.198,5.324 L1.071,5.371 L0.945,5.412 L0.82,5.447 L0.697,5.476 L0.574,5.499 L0.454,5.516 L0.335,5.526 L0.218,5.531 L0.104,5.529 L-0.009,5.522 L-0.119,5.508 L-0.227,5.488 L-0.331,5.463 L-0.433,5.431 L-0.533,5.393 L-0.629,5.349 L-0.721,5.299 " />
			<path d="M-0.721,5.299 L-0.781,5.263 L-0.84,5.224 L-0.897,5.183 L-0.952,5.139 L-1.006,5.092 L-1.058,5.043 L-1.108,4.992 L-1.157,4.938 L-1.204,4.882 L-1.249,4.824 L-1.292,4.763 L-1.333,4.7 L-1.373,4.635 L-1.41,4.567 L-1.446,4.498 L-1.48,4.426 L-1.512,4.352 L-1.542,4.277 L-1.57,4.199 L-1.596,4.119 L-1.62,4.038 L-1.642,3.955 L-1.662,3.87 L-1.679,3.783 L-1.695,3.695 L-1.709,3.604 L-1.72,3.513 L-1.73,3.42 L-1.737,3.325 L-1.742,3.229 L-1.745,3.132 L-1.747,3.033 " />
			<path d="M-1.747,3.033 L-1.744,2.883 L-1.737,2.73 L-1.725,2.575 L-1.709,2.418 L-1.687,2.259 L-1.662,2.099 L-1.631,1.936 L-1.596,1.773 L-1.556,1.609 L-1.512,1.443 L-1.463,1.277 L-1.41,1.111 L-1.353,0.945 L-1.292,0.779 L-1.226,0.613 L-1.157,0.447 L-1.083,0.283 L-1.006,0.119 L-0.925,-0.043 L-0.84,-0.204 L-0.752,-0.364 L-0.66,-0.521 L-0.565,-0.677 L-0.467,-0.83 L-0.366,-0.98 L-0.262,-1.128 L-0.155,-1.273 L-0.046,-1.415 L0.066,-1.554 L0.18,-1.689 L0.296,-1.821 L0.414,-1.948 L0.534,-2.072 L0.656,-2.191 L0.779,-2.306 L0.903,-2.417 L1.029,-2.523 L1.155,-2.624 L1.283,-2.72 L1.411,-2.812 L1.539,-2.898 L1.668,-2.978 L1.797,-3.054 L1.925,-3.123 L2.054,-3.188 L2.182,-3.246 L2.31,-3.299 L2.436,-3.346 L2.562,-3.387 L2.687,-3.422 L2.811,-3.451 L2.933,-3.474 L3.053,-3.491 L3.172,-3.501 L3.289,-3.506 L3.404,-3.505 L3.516,-3.497 L3.626,-3.483 L3.734,-3.463 L3.839,-3.438 L3.941,-3.406 L4.04,-3.368 L4.136,-3.324 L4.229,-3.274 " />
			<path d="M4.229,-3.274 L4.289,-3.238 L4.347,-3.199 L4.404,-3.158 L4.459,-3.114 L4.513,-3.067 L4.565,-3.018 L4.615,-2.967 L4.664,-2.913 L4.711,-2.857 L4.756,-2.799 L4.799,-2.738 L4.841,-2.675 L4.88,-2.61 L4.918,-2.542 L4.954,-2.473 L4.987,-2.401 L5.019,-2.328 L5.049,-2.252 L5.077,-2.174 L5.103,-2.095 L5.127,-2.013 L5.149,-1.93 L5.169,-1.845 L5.187,-1.758 L5.202,-1.67 L5.216,-1.58 L5.227,-1.488 L5.237,-1.395 L5.244,-1.3 L5.25,-1.204 L5.253,-1.107 L5.254,-1.008 " />
			<path d="M2.273,2.825 L-1.263,0.784 " />
			<path d="M-2.475,0.612 L-2.473,0.711 L-2.466,0.808 L-2.456,0.901 L-2.441,0.991 L-2.422,1.078 L-2.399,1.161 L-2.372,1.24 L-2.34,1.316 L-2.305,1.387 L-2.266,1.454 L-2.223,1.517 L-2.177,1.574 L-2.127,1.627 L-2.074,1.676 L-2.017,1.719 L-1.957,1.757 " />
			<path d="M-1.957,1.757 L-1.894,1.79 L-1.829,1.817 L-1.76,1.839 L-1.689,1.856 L-1.616,1.867 L-1.54,1.873 L-1.463,1.873 L-1.384,1.868 L-1.303,1.858 L-1.22,1.841 L-1.137,1.82 L-1.052,1.793 L-0.966,1.761 L-0.88,1.723 L-0.794,1.681 L-0.707,1.633 L-0.62,1.58 L-0.534,1.523 L-0.448,1.461 L-0.362,1.395 L-0.278,1.324 L-0.194,1.249 L-0.112,1.17 L-0.031,1.087 L0.049,1.001 L0.126,0.911 L0.202,0.818 L0.275,0.722 L0.346,0.623 L0.414,0.522 L0.48,0.419 L0.543,0.313 L0.603,0.206 L0.659,0.098 L0.713,-0.012 L0.763,-0.123 L0.809,-0.234 L0.852,-0.346 L0.891,-0.458 L0.926,-0.57 L0.957,-0.682 L0.985,-0.792 L1.008,-0.902 L1.027,-1.011 L1.042,-1.118 L1.052,-1.224 L1.059,-1.327 L1.061,-1.429 L1.059,-1.528 L1.052,-1.624 L1.042,-1.717 L1.027,-1.807 L1.008,-1.894 L0.985,-1.977 L0.957,-2.057 L0.926,-2.132 L0.891,-2.204 L0.852,-2.271 L0.809,-2.333 L0.763,-2.391 L0.713,-2.444 L0.659,-2.492 L0.603,-2.535 L0.543,-2.573 " />
			<path d="M0.543,-2.573 L0.496,-2.598 L0.448,-2.621 L0.397,-2.64 L0.346,-2.656 L0.293,-2.669 L0.239,-2.679 L0.183,-2.686 L0.126,-2.69 L0.068,-2.69 L0.009,-2.688 L-0.051,-2.683 L-0.112,-2.674 L-0.173,-2.662 L-0.236,-2.648 L-0.299,-2.63 L-0.362,-2.609 L-0.426,-2.586 L-0.491,-2.559 L-0.555,-2.53 L-0.62,-2.497 L-0.685,-2.462 L-0.75,-2.424 L-0.816,-2.383 L-0.88,-2.34 L-0.945,-2.294 L-1.009,-2.245 L-1.073,-2.194 L-1.137,-2.14 L-1.199,-2.084 L-1.262,-2.026 L-1.323,-1.966 L-1.384,-1.904 L-1.443,-1.839 L-1.502,-1.773 L-1.559,-1.704 L-1.616,-1.634 L-1.725,-1.489 L-1.829,-1.339 L-1.926,-1.183 L-2.017,-1.023 L-2.101,-0.859 L-2.177,-0.694 L-2.245,-0.526 L-2.276,-0.442 L-2.305,-0.358 L-2.332,-0.274 L-2.356,-0.191 L-2.379,-0.107 L-2.399,-0.024 L-2.416,0.058 L-2.432,0.14 L-2.445,0.222 L-2.456,0.302 L-2.464,0.381 L-2.47,0.459 L-2.474,0.537 L-2.475,0.612 " />
			<path d="M4.369,-2.577 L0.833,-4.618 " />
			<path d="M4.369,-3.284 L0.833,-5.325 " />
			<path d="M-1.918,3.132 L-1.747,3.033 " />
			<path d="M5.643,-1.233 L5.254,-1.008 " />
			<path d="M-0.996,5.776 L-0.893,5.831 L-0.787,5.879 L-0.677,5.922 L-0.563,5.957 L-0.447,5.986 L-0.327,6.008 L-0.205,6.023 L-0.08,6.031 L0.048,6.033 L0.178,6.028 L0.31,6.016 L0.443,5.997 L0.579,5.972 L0.716,5.939 L0.855,5.9 L0.995,5.855 L1.136,5.803 L1.278,5.744 L1.42,5.679 L1.563,5.608 L1.706,5.53 L1.849,5.447 L1.992,5.357 L2.135,5.261 L2.277,5.16 L2.419,5.053 L2.559,4.941 L2.699,4.823 L2.837,4.7 L2.974,4.572 L3.109,4.439 L3.242,4.302 L3.373,4.16 L3.502,4.014 L3.629,3.864 L3.753,3.71 L3.874,3.552 L3.993,3.391 L4.109,3.227 L4.221,3.059 L4.33,2.889 L4.435,2.717 L4.537,2.542 L4.635,2.365 L4.729,2.186 L4.82,2.005 L4.906,1.823 L4.987,1.64 L5.065,1.457 L5.137,1.272 L5.206,1.088 L5.269,0.903 L5.328,0.718 L5.382,0.534 L5.431,0.35 L5.475,0.167 L5.514,-0.014 L5.548,-0.194 L5.577,-0.373 L5.601,-0.55 L5.619,-0.724 L5.632,-0.896 L5.64,-1.066 L5.643,-1.233 " />
			<path d="M5.643,-1.233 L5.642,-1.342 L5.638,-1.451 L5.632,-1.557 L5.624,-1.662 L5.613,-1.766 L5.601,-1.868 L5.585,-1.968 L5.568,-2.066 L5.548,-2.162 L5.526,-2.257 L5.502,-2.349 L5.475,-2.44 L5.446,-2.528 L5.415,-2.615 L5.382,-2.699 L5.347,-2.781 L5.309,-2.86 L5.269,-2.937 L5.227,-3.012 L5.183,-3.085 L5.137,-3.155 L5.089,-3.222 L5.039,-3.287 L4.987,-3.349 L4.933,-3.409 L4.877,-3.466 L4.82,-3.521 L4.76,-3.572 L4.698,-3.621 L4.635,-3.667 L4.57,-3.71 L4.504,-3.751 " />
			<path d="M1.184,6.4 L1.291,6.379 L1.399,6.354 L1.508,6.325 L1.617,6.292 L1.727,6.254 L1.838,6.213 L1.949,6.168 L2.061,6.119 L2.173,6.065 L2.285,6.008 L2.397,5.947 L2.51,5.883 L2.622,5.814 L2.734,5.742 L2.847,5.667 L2.958,5.587 L3.07,5.505 L3.18,5.418 L3.291,5.329 L3.4,5.236 L3.509,5.14 L3.617,5.041 L3.723,4.939 L3.829,4.834 L3.934,4.726 L4.037,4.616 L4.14,4.502 L4.24,4.386 L4.34,4.268 L4.437,4.147 L4.533,4.024 L4.627,3.899 L4.72,3.772 L4.811,3.642 L4.899,3.511 L4.986,3.378 L5.07,3.244 L5.152,3.108 L5.232,2.971 L5.31,2.832 L5.386,2.692 L5.458,2.551 L5.529,2.409 L5.597,2.266 L5.662,2.123 L5.724,1.979 L5.784,1.834 L5.841,1.69 L5.895,1.544 L5.947,1.399 L5.995,1.254 L6.04,1.109 L6.083,0.964 L6.122,0.82 L6.159,0.676 L6.192,0.533 L6.222,0.39 L6.249,0.249 L6.273,0.108 L6.294,-0.031 L6.311,-0.17 L6.325,-0.307 L6.336,-0.442 L6.344,-0.576 " />
			<path d="M5.849,-0.862 L6.344,-0.576 " />
			<path d="M5.849,-0.862 L5.809,-0.89 L5.77,-0.927 L5.735,-0.97 L5.703,-1.019 L5.678,-1.073 L5.659,-1.127 L5.647,-1.182 L5.643,-1.233 " />
			<path d="M5.643,-1.233 L5.644,-1.257 L5.647,-1.279 L5.652,-1.299 L5.658,-1.317 L5.667,-1.334 L5.677,-1.348 L5.689,-1.359 L5.702,-1.369 " />
			<path d="M5.702,-1.369 L5.717,-1.376 L5.733,-1.38 L5.751,-1.382 L5.769,-1.381 L5.788,-1.377 L5.808,-1.371 L5.829,-1.363 L5.849,-1.352 " />
			<path d="M5.849,-1.352 L6.344,-1.066 " />
			<path d="M6.344,-1.066 L6.334,-1.217 L6.32,-1.365 L6.3,-1.509 L6.277,-1.65 L6.248,-1.787 L6.215,-1.92 L6.177,-2.049 L6.134,-2.174 " />
			<path d="M0.104,1.965 L0.083,1.954 L0.062,1.946 L0.042,1.941 L0.021,1.938 L0.002,1.938 L-0.017,1.94 L-0.035,1.946 L-0.052,1.954 " />
			<path d="M-0.052,1.954 L-0.074,1.97 L-0.092,1.992 L-0.106,2.018 L-0.116,2.049 L-0.12,2.083 L-0.119,2.121 L-0.113,2.16 L-0.101,2.199 L-0.086,2.239 L-0.066,2.278 L-0.042,2.315 L-0.016,2.35 L0.013,2.382 L0.043,2.41 L0.073,2.435 L0.104,2.455 " />
			<path d="M0.104,1.965 L-1.918,3.132 " />
			<path d="M0.104,2.455 L-1.493,3.377 " />
			<path d="M0.104,2.455 L4.771,5.149 " />
			<path d="M5.954,-0.351 L5.945,-0.201 L5.93,-0.049 L5.911,0.105 L5.888,0.261 L5.861,0.418 L5.829,0.577 L5.792,0.737 L5.752,0.897 L5.707,1.059 L5.658,1.22 L5.605,1.382 L5.547,1.545 L5.486,1.706 L5.421,1.868 L5.352,2.029 L5.28,2.189 L5.203,2.348 L5.124,2.506 L5.04,2.663 L4.954,2.818 L4.864,2.971 L4.771,3.122 L4.676,3.271 L4.577,3.418 L4.476,3.562 L4.372,3.703 L4.265,3.842 L4.157,3.977 L4.046,4.109 L3.933,4.237 L3.818,4.362 L3.702,4.484 L3.583,4.601 L3.464,4.714 L3.343,4.823 L3.221,4.927 L3.098,5.027 L2.974,5.122 L2.85,5.213 L2.725,5.299 L2.599,5.379 L2.474,5.455 L2.348,5.525 L2.223,5.59 L2.098,5.65 L1.973,5.704 L1.849,5.753 L1.726,5.797 L1.604,5.834 L1.483,5.866 L1.363,5.892 L1.244,5.913 L1.127,5.927 L1.012,5.936 L0.899,5.939 L0.787,5.937 L0.678,5.928 L0.571,5.914 L0.467,5.894 L0.365,5.868 L0.266,5.836 L0.169,5.799 L0.076,5.756 L-0.014,5.708 " />
			<path d="M5.954,-0.351 L6.344,-0.576 " />
			<path d="M3.828,0.305 L6.845,2.047 " />
			<path d="M5.849,-0.862 L3.828,0.305 " />
			<path d="M5.954,-0.351 L10.126,2.057 " />
			<path d="M3.828,0.305 L3.797,0.285 L3.768,0.259 L3.74,0.229 L3.715,0.196 L3.692,0.159 L3.672,0.119 L3.655,0.078 L3.642,0.037 L3.633,-0.004 L3.628,-0.044 L3.628,-0.081 L3.631,-0.115 L3.639,-0.144 L3.65,-0.169 L3.665,-0.189 L3.684,-0.203 " />
			<path d="M3.684,-0.203 L3.698,-0.21 L3.714,-0.214 L3.731,-0.215 L3.749,-0.214 L3.767,-0.21 L3.787,-0.204 L3.828,-0.185 " />
			<path d="M5.849,-1.352 L3.828,-0.185 " />
			<path d="M3.828,-0.185 L8.307,2.401 " />
			<path d="M5.954,-0.841 L6.344,-1.066 " />
			<path d="M5.954,-0.841 L10.551,1.812 " />
			<path d="M4.936,-2.866 L4.991,-2.833 L5.045,-2.797 L5.098,-2.759 L5.149,-2.719 L5.2,-2.677 L5.248,-2.633 L5.295,-2.587 L5.341,-2.538 L5.386,-2.488 L5.428,-2.436 L5.47,-2.381 L5.509,-2.325 L5.547,-2.267 L5.584,-2.207 L5.619,-2.145 L5.652,-2.081 L5.684,-2.016 L5.714,-1.948 L5.743,-1.879 L5.769,-1.808 L5.794,-1.736 L5.818,-1.662 L5.839,-1.586 L5.859,-1.509 L5.877,-1.431 L5.894,-1.35 L5.921,-1.186 L5.941,-1.016 L5.954,-0.841 " />
			<path d="M0.104,1.965 L5.195,4.904 " />
			<path d="M-1.683,1.923 L5.374,5.997 " />
			<path d="M-1.683,1.923 L-1.727,1.836 L-1.766,1.744 L-1.799,1.646 L-1.826,1.542 L-1.847,1.434 L-1.862,1.321 L-1.871,1.203 L-1.874,1.082 L-1.871,0.957 L-1.862,0.829 L-1.847,0.699 L-1.826,0.566 L-1.799,0.431 L-1.766,0.295 L-1.727,0.158 L-1.683,0.02 " />
			<path d="M-1.683,0.02 L5.374,4.095 " />
			<path d="M5.289,6.196 L5.242,6.17 L5.191,6.147 L5.137,6.127 L5.08,6.109 L5.02,6.094 L4.958,6.082 L4.894,6.072 L4.828,6.066 L4.76,6.063 L4.69,6.063 L4.619,6.066 L4.547,6.072 L4.475,6.081 L4.402,6.092 L4.33,6.107 L4.258,6.125 L4.187,6.145 L4.117,6.169 L4.049,6.195 L3.983,6.223 L3.92,6.254 L3.861,6.287 L3.807,6.322 L3.758,6.357 L3.716,6.393 L3.68,6.429 L3.65,6.465 L3.625,6.502 L3.606,6.538 L3.593,6.574 L3.585,6.61 L3.582,6.646 " />
			<path d="M3.582,6.646 L3.583,6.67 L3.587,6.694 L3.593,6.717 L3.601,6.741 L3.611,6.764 L3.623,6.787 L3.654,6.831 L3.692,6.875 L3.737,6.917 L3.789,6.957 L3.846,6.995 L3.909,7.031 L3.978,7.065 L4.052,7.098 L4.132,7.127 L4.216,7.154 L4.304,7.178 L4.396,7.198 L4.491,7.213 L4.588,7.224 L4.687,7.228 L4.785,7.228 L4.883,7.22 L4.98,7.206 L5.028,7.196 L5.075,7.184 L5.12,7.17 L5.165,7.154 L5.209,7.136 L5.251,7.116 L5.292,7.094 L5.33,7.07 L5.366,7.045 L5.398,7.018 L5.428,6.991 L5.456,6.962 L5.48,6.932 L5.502,6.902 L5.521,6.871 L5.537,6.84 L5.551,6.808 L5.562,6.775 L5.571,6.743 L5.577,6.71 L5.581,6.678 L5.582,6.646 " />
			<path d="M5.582,6.646 L5.581,6.612 L5.577,6.578 L5.57,6.545 L5.561,6.512 L5.55,6.48 L5.536,6.449 L5.52,6.419 L5.502,6.389 L5.482,6.361 L5.46,6.334 L5.436,6.308 L5.41,6.283 L5.382,6.259 L5.352,6.236 L5.289,6.196 " />
			<path d="M1.683,-0.02 L6.233,2.607 " />
			<path d="M1.683,-1.923 L8.74,2.151 " />
			<path d="M1.683,-1.923 L1.727,-1.836 L1.766,-1.744 L1.799,-1.646 L1.826,-1.542 L1.847,-1.434 L1.862,-1.321 L1.871,-1.203 L1.874,-1.082 L1.871,-0.957 L1.862,-0.829 L1.847,-0.699 L1.826,-0.566 L1.799,-0.431 L1.766,-0.295 L1.727,-0.158 L1.683,-0.02 " />
			<path d="M-1.036,1.549 L-1.683,1.923 " />
			<path d="M-1.683,0.02 L-1.036,-0.353 " />
			<path d="M-1.036,-0.353 L-0.995,-0.382 L-0.955,-0.419 L-0.918,-0.462 L-0.886,-0.511 L-0.86,-0.564 L-0.84,-0.617 L-0.828,-0.67 L-0.824,-0.721 " />
			<path d="M-0.824,-0.721 L-0.824,-1.468 " />
			<path d="M-0.824,-1.468 L-0.727,-1.575 L-0.627,-1.677 L-0.526,-1.773 L-0.423,-1.864 L-0.318,-1.949 L-0.213,-2.027 L-0.107,-2.099 L-2.331e-15,-2.164 L0.107,-2.222 L0.213,-2.273 L0.318,-2.316 L0.423,-2.352 L0.526,-2.38 L0.627,-2.401 L0.727,-2.414 L0.824,-2.419 " />
			<path d="M0.824,-2.419 L0.824,-1.672 " />
			<path d="M1.036,-1.549 L1.015,-1.538 L0.995,-1.53 L0.974,-1.524 L0.955,-1.521 L0.936,-1.52 L0.918,-1.523 L0.901,-1.527 L0.886,-1.534 " />
			<path d="M0.886,-1.534 L0.872,-1.544 L0.86,-1.556 L0.849,-1.571 L0.84,-1.587 L0.833,-1.606 L0.828,-1.626 L0.825,-1.648 L0.824,-1.672 " />
			<path d="M1.036,-1.549 L1.683,-1.923 " />
			<path d="M1.683,-0.02 L1.036,0.353 " />
			<path d="M1.036,0.353 L0.995,0.382 L0.955,0.419 L0.918,0.462 L0.886,0.511 L0.86,0.564 L0.84,0.617 L0.828,0.67 L0.824,0.721 " />
			<path d="M0.824,0.721 L0.824,1.468 " />
			<path d="M0.824,1.468 L0.727,1.575 L0.627,1.677 L0.526,1.773 L0.423,1.864 L0.318,1.949 L0.213,2.027 L0.107,2.099 L-5.551e-16,2.164 L-0.107,2.222 L-0.213,2.273 L-0.318,2.316 L-0.423,2.352 L-0.526,2.38 L-0.627,2.401 L-0.727,2.414 L-0.824,2.419 " />
			<path d="M-0.824,2.419 L-0.824,1.672 " />
			<path d="M-1.036,1.549 L-1.015,1.538 L-0.995,1.53 L-0.974,1.524 L-0.955,1.521 L-0.936,1.52 L-0.918,1.523 L-0.901,1.527 L-0.886,1.534 " />
			<path d="M-0.886,1.534 L-0.872,1.544 L-0.86,1.556 L-0.849,1.571 L-0.84,1.587 L-0.833,1.606 L-0.828,1.626 L-0.825,1.648 L-0.824,1.672 " />
			<path d="M-0.824,2.419 L6.233,6.493 " />
			<path d="M0.824,1.468 L5.374,4.095 " />
			<path d="M5.289,5.871 L5.235,5.842 L5.178,5.815 L5.117,5.791 L5.053,5.77 L4.987,5.751 L4.919,5.735 L4.849,5.722 L4.777,5.713 L4.704,5.706 L4.631,5.702 L4.558,5.702 L4.484,5.704 L4.411,5.71 L4.339,5.719 L4.268,5.731 L4.199,5.745 L4.132,5.763 L4.068,5.784 L4.006,5.807 L3.948,5.833 L3.893,5.861 L3.841,5.891 L3.794,5.924 L3.751,5.958 L3.712,5.994 L3.678,6.032 L3.649,6.071 L3.625,6.111 L3.606,6.152 L3.593,6.194 L3.585,6.236 L3.582,6.279 " />
			<path d="M3.582,6.279 L3.583,6.307 L3.587,6.335 L3.593,6.364 L3.601,6.391 L3.612,6.419 L3.625,6.446 L3.641,6.473 L3.658,6.5 L3.678,6.526 L3.7,6.551 L3.751,6.6 L3.809,6.645 L3.875,6.687 L3.948,6.725 L4.026,6.759 L4.111,6.788 L4.199,6.812 L4.292,6.831 L4.387,6.845 L4.484,6.853 L4.582,6.856 L4.68,6.853 L4.777,6.845 L4.872,6.831 L4.965,6.812 L5.053,6.788 L5.138,6.759 L5.216,6.725 L5.289,6.687 L5.355,6.645 L5.414,6.6 L5.464,6.551 L5.486,6.526 L5.506,6.5 L5.524,6.473 L5.539,6.446 L5.552,6.419 L5.563,6.391 L5.571,6.364 L5.577,6.335 L5.581,6.307 L5.582,6.279 " />
			<path d="M5.582,6.279 L5.581,6.251 L5.577,6.222 L5.571,6.194 L5.563,6.166 L5.552,6.139 L5.539,6.111 L5.524,6.084 L5.506,6.058 L5.486,6.032 L5.464,6.007 L5.414,5.958 L5.355,5.913 L5.289,5.871 " />
			<path d="M0.824,-2.419 L7.881,1.655 " />
			<path d="M-0.824,-1.468 L6.233,2.607 " />
			<path d="M3.875,-0.58 L3.809,-0.622 L3.751,-0.667 L3.7,-0.716 L3.678,-0.741 L3.658,-0.767 L3.641,-0.793 L3.625,-0.82 L3.612,-0.848 L3.601,-0.875 L3.593,-0.903 L3.587,-0.931 L3.583,-0.96 L3.582,-0.988 " />
			<path d="M3.582,-0.988 L3.585,-1.031 L3.593,-1.075 L3.608,-1.117 L3.627,-1.16 " />
			<path d="M5.522,-1.185 L5.548,-1.137 L5.567,-1.088 L5.578,-1.038 L5.582,-0.988 " />
			<path d="M5.582,-0.988 L5.579,-0.945 L5.571,-0.903 L5.558,-0.861 L5.539,-0.82 L5.515,-0.78 L5.486,-0.741 L5.452,-0.703 L5.414,-0.667 L5.37,-0.633 L5.323,-0.6 L5.272,-0.57 L5.216,-0.542 L5.158,-0.516 L5.096,-0.493 L5.032,-0.472 L4.965,-0.455 L4.896,-0.44 L4.825,-0.428 L4.753,-0.419 L4.68,-0.413 L4.607,-0.411 L4.533,-0.411 L4.46,-0.415 L4.387,-0.422 L4.315,-0.432 L4.245,-0.444 L4.177,-0.46 L4.111,-0.479 L4.047,-0.5 L3.986,-0.524 L3.929,-0.551 L3.875,-0.58 " />
			<path d="M-3.889,-0.204 L-4.243,-1.11e-16 " />
			<path d="M-2.121,-3.266 L-2.121,-3.674 " />
			<path d="M3.03,-3.966 L4.229,-3.274 " />
			<path d="M-1.92,4.607 L-0.721,5.299 " />
			<path d="M-2.639,-4.41 L0.543,-2.573 " />
			<path d="M-5.139,-0.08 L-1.957,1.757 " />
			<path d="M-2.07,3.119 L-0.052,1.954 " />
			<path d="M5.702,-1.369 L3.684,-0.203 " />
			<path d="M-0.886,1.534 L5.073,4.975 " />
			<path d="M3.582,6.646 L3.582,6.279 " />
			<path d="M5.582,6.646 L5.582,6.279 " />
			<path d="M0.886,-1.534 L6.958,1.971 " />
			<path d="M5.582,-1.355 L5.582,-0.988 " />
			<path d="M3.582,-1.355 L3.582,-0.988 " />

       </g>

       <!-- solid lines -->
       <g  stroke="rgb(0,0,0)" fill="none">
			<path d="M-5.076,2.876 L-8.611,0.835 " />
			<path d="M-8.611,0.835 L-6.515,3.816 " />
			<path d="M-5.076,2.876 L-2.98,5.858 " />
			<path d="M-2.98,5.858 L-6.515,3.816 " />
			<path d="M-8.611,0.835 L-8.611,0.127 " />
			<path d="M-5.076,2.876 L-5.076,2.169 " />
			<path d="M-5.076,2.169 L-8.611,0.127 " />
			<path d="M-5.076,2.876 L-4.369,2.766 " />
			<path d="M-4.369,2.766 L-2.367,5.613 " />
			<path d="M-2.98,5.858 L-2.367,5.613 " />
			<path d="M-2.98,5.858 L-2.449,5.905 " />
			<path d="M-8.611,0.127 L-8.611,-0.171 " />
			<path d="M-4.369,2.766 L-4.369,2.278 " />
			<path d="M-4.369,2.278 L-5.076,2.169 " />
			<path d="M-2.98,-3.233 L-6.515,-5.275 " />
			<path d="M-6.515,-5.275 L-8.611,0.127 " />
			<path d="M-2.98,-3.233 L-5.076,2.169 " />
			<path d="M-6.61,-5.329 L-8.611,-0.171 " />
			<path d="M-6.61,-5.329 L-6.244,-5.785 " />
			<path d="M-2.367,5.613 L-2.001,5.646 " />
			<path d="M-2.367,-2.88 L-4.369,2.278 " />
			<path d="M-2.001,5.646 L-1.497,5.355 " />
			<path d="M-2.367,-2.88 L-2.001,-3.335 " />
			<path d="M2.001,-5.646 L-2.001,-3.335 " />
			<path d="M2.001,-5.646 L2.367,-5.613 " />
			<path d="M3.496,-4.008 L2.367,-5.613 " />
			<path d="M-3.5,2.021 L-3.498,1.871 L-3.491,1.718 L-3.479,1.563 L-3.462,1.406 L-3.441,1.247 L-3.415,1.086 L-3.385,0.924 L-3.349,0.761 L-3.31,0.596 L-3.266,0.431 L-3.217,0.265 L-3.164,0.099 L-3.107,-0.068 L-3.045,-0.234 L-2.98,-0.4 L-2.91,-0.565 L-2.837,-0.73 L-2.759,-0.893 L-2.678,-1.056 L-2.593,-1.217 L-2.505,-1.376 L-2.414,-1.534 L-2.319,-1.689 L-2.22,-1.842 L-2.119,-1.993 L-2.015,-2.141 L-1.909,-2.286 L-1.799,-2.428 L-1.688,-2.566 L-1.574,-2.702 L-1.458,-2.833 L-1.339,-2.961 L-1.22,-3.084 L-1.098,-3.204 L-0.975,-3.319 L-0.85,-3.43 L-0.725,-3.535 L-0.598,-3.637 L-0.471,-3.733 L-0.343,-3.824 L-0.215,-3.91 L-0.086,-3.991 L0.043,-4.066 L0.172,-4.136 L0.3,-4.2 L0.428,-4.259 L0.556,-4.311 L0.683,-4.358 L0.809,-4.399 L0.934,-4.434 L1.057,-4.463 L1.179,-4.486 L1.3,-4.503 L1.418,-4.514 L1.535,-4.519 L1.65,-4.517 L1.762,-4.509 L1.873,-4.496 L1.98,-4.476 L2.085,-4.45 L2.187,-4.418 L2.286,-4.38 L2.382,-4.337 L2.475,-4.287 " />
			<path d="M-2.475,4.287 L-2.535,4.25 L-2.593,4.212 L-2.65,4.17 L-2.706,4.126 L-2.759,4.08 L-2.811,4.031 L-2.862,3.979 L-2.91,3.926 L-2.957,3.87 L-3.002,3.811 L-3.045,3.75 L-3.087,3.687 L-3.126,3.622 L-3.164,3.555 L-3.2,3.485 L-3.234,3.414 L-3.266,3.34 L-3.296,3.264 L-3.324,3.187 L-3.349,3.107 L-3.373,3.026 L-3.395,2.942 L-3.415,2.857 L-3.433,2.77 L-3.449,2.682 L-3.462,2.592 L-3.474,2.5 L-3.483,2.407 L-3.491,2.313 L-3.496,2.217 L-3.499,2.119 L-3.5,2.021 " />
			<path d="M-2.001,5.646 L-2.449,5.905 " />
			<path d="M-6.61,-5.329 L-6.515,-5.275 " />
			<path d="M-2.367,-2.88 L-2.98,-3.233 " />
			<path d="M-6.515,-5.275 L-5.985,-5.934 " />
			<path d="M-2.98,-3.233 L-2.449,-3.893 " />
			<path d="M-2.449,-3.893 L-5.985,-5.934 " />
			<path d="M-6.244,-5.785 L-5.985,-5.934 " />
			<path d="M-1.793,-8.354 L-5.985,-5.934 " />
			<path d="M-1.793,-8.354 L-1.263,-8.307 " />
			<path d="M-2.001,-3.335 L-2.449,-3.893 " />
			<path d="M2.001,-5.646 L1.742,-6.313 " />
			<path d="M1.742,-6.313 L-2.449,-3.893 " />
			<path d="M1.742,-6.313 L2.273,-6.266 " />
			<path d="M2.367,-5.613 L2.273,-6.266 " />
			<path d="M3.883,-3.975 L2.273,-6.266 " />
			<path d="M1.742,-6.313 L-1.793,-8.354 " />
			<path d="M2.273,-6.266 L-1.263,-8.307 " />
			<path d="M-2.135,3.258 L-1.918,3.132 " />
			<path d="M-2.135,3.258 L-2.134,3.367 L-2.131,3.475 L-2.125,3.582 L-2.117,3.687 L-2.106,3.791 L-2.093,3.892 L-2.078,3.993 L-2.061,4.091 L-2.041,4.187 L-2.019,4.282 L-1.995,4.374 L-1.968,4.465 L-1.939,4.553 L-1.908,4.639 L-1.875,4.724 L-1.839,4.805 L-1.802,4.885 L-1.762,4.962 L-1.72,5.037 L-1.676,5.11 L-1.63,5.18 L-1.582,5.247 L-1.532,5.312 L-1.48,5.374 L-1.426,5.434 L-1.37,5.491 L-1.312,5.545 L-1.253,5.597 L-1.191,5.646 L-1.128,5.692 L-1.063,5.735 L-0.996,5.776 " />
			<path d="M4.504,-3.751 L4.401,-3.806 L4.294,-3.855 L4.184,-3.897 L4.07,-3.932 L3.954,-3.961 L3.834,-3.983 L3.712,-3.998 L3.587,-4.006 L3.459,-4.008 L3.33,-4.003 L3.198,-3.991 L3.064,-3.972 L2.928,-3.947 L2.791,-3.914 L2.652,-3.876 L2.512,-3.83 L2.371,-3.778 L2.23,-3.719 L2.087,-3.654 L1.944,-3.583 L1.801,-3.505 L1.658,-3.422 L1.515,-3.332 L1.372,-3.237 L1.23,-3.135 L1.089,-3.028 L0.948,-2.916 L0.809,-2.798 L0.67,-2.675 L0.534,-2.547 L0.399,-2.415 L0.265,-2.277 L0.134,-2.135 L0.005,-1.989 L-0.122,-1.839 L-0.246,-1.685 L-0.367,-1.527 L-0.486,-1.366 L-0.601,-1.202 L-0.714,-1.034 L-0.823,-0.864 L-0.928,-0.692 L-1.03,-0.517 L-1.128,-0.34 L-1.222,-0.161 L-1.312,0.02 L-1.398,0.202 L-1.48,0.384 L-1.557,0.568 L-1.63,0.753 L-1.698,0.937 L-1.762,1.122 L-1.821,1.307 L-1.875,1.491 L-1.924,1.675 L-1.968,1.858 L-2.007,2.039 L-2.041,2.219 L-2.07,2.398 L-2.093,2.575 L-2.112,2.749 L-2.125,2.921 L-2.133,3.091 L-2.135,3.258 " />
			<path d="M-1.918,3.622 L-1.958,3.594 L-1.998,3.558 L-2.036,3.516 L-2.069,3.468 L-2.097,3.416 L-2.118,3.362 L-2.131,3.309 L-2.134,3.283 L-2.135,3.258 " />
			<path d="M-1.918,3.622 L-1.423,3.908 " />
			<path d="M-1.423,3.908 L-1.417,4.007 L-1.409,4.104 L-1.399,4.2 L-1.387,4.295 L-1.373,4.388 L-1.357,4.48 L-1.339,4.57 L-1.319,4.659 L-1.298,4.746 L-1.274,4.831 L-1.248,4.914 L-1.22,4.995 L-1.191,5.075 L-1.159,5.153 L-1.126,5.228 L-1.09,5.302 L-1.053,5.374 L-1.014,5.443 L-0.973,5.511 L-0.931,5.576 L-0.887,5.64 L-0.84,5.701 L-0.793,5.76 L-0.743,5.816 L-0.692,5.87 L-0.639,5.922 L-0.585,5.972 L-0.529,6.019 L-0.471,6.064 L-0.412,6.106 L-0.351,6.146 L-0.289,6.184 " />
			<path d="M-0.289,6.184 L-0.211,6.227 L-0.13,6.266 L-0.047,6.301 L0.038,6.332 L0.124,6.36 L0.213,6.383 L0.303,6.403 L0.395,6.418 L0.489,6.43 L0.584,6.438 L0.681,6.441 L0.779,6.441 L0.879,6.436 L0.979,6.428 L1.081,6.416 L1.184,6.4 " />
			<path d="M6.134,-2.174 L6.097,-2.271 L6.057,-2.366 L6.013,-2.457 L5.967,-2.546 L5.919,-2.631 L5.867,-2.713 L5.813,-2.791 L5.756,-2.867 L5.696,-2.939 L5.634,-3.007 L5.57,-3.072 L5.503,-3.134 L5.433,-3.191 L5.361,-3.245 L5.287,-3.296 L5.211,-3.342 " />
			<path d="M5.211,-3.342 L5.11,-3.396 L5.006,-3.444 L4.899,-3.486 L4.788,-3.521 L4.675,-3.55 L4.558,-3.572 L4.439,-3.588 L4.317,-3.597 L4.193,-3.6 L4.067,-3.596 L3.939,-3.586 L3.808,-3.57 L3.676,-3.547 L3.543,-3.517 L3.408,-3.482 L3.271,-3.439 L3.134,-3.391 L2.996,-3.336 L2.857,-3.276 L2.718,-3.209 L2.578,-3.136 L2.438,-3.057 L2.298,-2.972 L2.159,-2.882 L2.02,-2.786 L1.881,-2.685 L1.743,-2.579 L1.606,-2.467 L1.47,-2.35 L1.336,-2.228 L1.203,-2.102 L1.071,-1.971 L0.941,-1.836 L0.814,-1.696 L0.688,-1.553 L0.565,-1.405 L0.444,-1.254 L0.326,-1.1 L0.21,-0.942 L0.097,-0.781 L-0.012,-0.618 L-0.118,-0.451 L-0.221,-0.283 L-0.321,-0.112 L-0.417,0.061 L-0.509,0.236 L-0.597,0.412 L-0.682,0.589 L-0.762,0.768 L-0.838,0.947 L-0.91,1.127 L-0.978,1.308 L-1.041,1.488 L-1.099,1.669 L-1.153,1.849 L-1.203,2.029 L-1.247,2.207 L-1.287,2.385 L-1.322,2.562 L-1.352,2.737 L-1.377,2.91 L-1.397,3.082 L-1.412,3.251 L-1.423,3.418 " />
			<path d="M-1.918,3.132 L-1.423,3.418 " />
			<path d="M-2.135,3.258 L-2.134,3.234 L-2.131,3.212 L-2.126,3.191 L-2.118,3.172 L-2.109,3.156 L-2.098,3.141 L-2.085,3.129 L-2.07,3.119 " />
			<path d="M-2.07,3.119 L-2.054,3.111 L-2.037,3.106 L-2.018,3.104 L-1.999,3.104 L-1.979,3.107 L-1.959,3.113 L-1.938,3.121 L-1.918,3.132 " />
			<path d="M-1.493,3.377 L-1.918,3.622 " />
			<path d="M5.195,5.394 L3.563,6.336 " />
			<path d="M-1.033,3.683 L3.563,6.336 " />
			<path d="M-1.423,3.908 L-1.033,3.683 " />
			<path d="M4.771,5.149 L5.195,5.394 " />
			<path d="M-0.014,5.708 L-0.07,5.674 L-0.124,5.638 L-0.177,5.601 L-0.228,5.561 L-0.278,5.519 L-0.327,5.474 L-0.374,5.428 L-0.42,5.38 L-0.464,5.33 L-0.507,5.277 L-0.548,5.223 L-0.588,5.167 L-0.626,5.108 L-0.663,5.048 L-0.698,4.986 L-0.731,4.923 L-0.763,4.857 L-0.793,4.79 L-0.821,4.721 L-0.848,4.65 L-0.873,4.577 L-0.896,4.503 L-0.918,4.428 L-0.938,4.351 L-0.956,4.272 L-0.972,4.192 L-0.999,4.027 L-1.02,3.858 L-1.033,3.683 " />
			<path d="M10.551,2.302 L8.919,3.244 " />
			<path d="M6.845,2.047 L8.919,3.244 " />
			<path d="M10.126,2.057 L10.551,2.302 " />
			<path d="M10.551,1.812 L8.919,2.754 " />
			<path d="M8.307,2.401 L8.919,2.754 " />
			<path d="M-1.033,3.193 L-1.023,3.043 L-1.009,2.89 L-0.99,2.736 L-0.967,2.58 L-0.939,2.423 L-0.907,2.264 L-0.871,2.105 L-0.83,1.944 L-0.785,1.783 L-0.736,1.621 L-0.683,1.459 L-0.626,1.297 L-0.565,1.135 L-0.5,0.973 L-0.431,0.812 L-0.358,0.652 L-0.282,0.493 L-0.202,0.335 L-0.119,0.179 L-0.033,0.024 L0.057,-0.13 L0.15,-0.281 L0.246,-0.43 L0.344,-0.577 L0.446,-0.721 L0.55,-0.862 L0.656,-1 L0.765,-1.136 L0.876,-1.268 L0.989,-1.396 L1.103,-1.521 L1.22,-1.642 L1.338,-1.759 L1.458,-1.872 L1.579,-1.981 L1.701,-2.086 L1.824,-2.186 L1.947,-2.281 L2.072,-2.371 L2.197,-2.457 L2.322,-2.538 L2.448,-2.613 L2.573,-2.684 L2.699,-2.749 L2.824,-2.809 L2.948,-2.863 L3.072,-2.912 L3.196,-2.955 L3.318,-2.993 L3.439,-3.025 L3.559,-3.051 L3.677,-3.071 L3.794,-3.086 L3.909,-3.095 L4.023,-3.098 L4.134,-3.095 L4.243,-3.087 L4.35,-3.072 L4.455,-3.052 L4.556,-3.026 L4.656,-2.995 L4.752,-2.958 L4.845,-2.915 L4.936,-2.866 " />
			<path d="M-1.423,3.418 L-1.033,3.193 " />
			<path d="M5.195,4.904 L3.563,5.846 " />
			<path d="M-1.033,3.193 L3.563,5.846 " />
			<path d="M5.374,4.095 L5.34,4.198 L5.31,4.301 L5.282,4.404 L5.258,4.506 L5.238,4.607 L5.22,4.707 L5.206,4.806 L5.195,4.904 " />
			<path d="M5.195,5.394 L5.206,5.48 L5.22,5.562 L5.238,5.642 L5.258,5.72 L5.282,5.794 L5.31,5.865 L5.34,5.933 L5.374,5.997 " />
			<path d="M5.374,5.997 L6.021,5.624 " />
			<path d="M6.021,5.624 L6.042,5.613 L6.062,5.604 L6.083,5.599 L6.102,5.595 L6.121,5.595 L6.139,5.597 L6.156,5.602 L6.171,5.609 " />
			<path d="M6.171,5.609 L6.185,5.619 L6.197,5.631 L6.208,5.645 L6.217,5.662 L6.224,5.68 L6.229,5.701 L6.232,5.723 L6.233,5.746 " />
			<path d="M6.233,5.746 L6.233,6.493 " />
			<path d="M7.881,5.542 L7.784,5.649 L7.684,5.751 L7.583,5.847 L7.48,5.938 L7.375,6.023 L7.27,6.101 L7.163,6.173 L7.057,6.238 L6.95,6.296 L6.844,6.347 L6.739,6.39 L6.634,6.426 L6.531,6.455 L6.43,6.475 L6.33,6.488 L6.233,6.493 " />
			<path d="M7.881,5.542 L7.881,4.795 " />
			<path d="M8.093,4.427 L8.051,4.456 L8.012,4.493 L7.975,4.537 L7.943,4.586 L7.916,4.638 L7.897,4.692 L7.885,4.745 L7.881,4.795 " />
			<path d="M8.093,4.427 L8.74,4.054 " />
			<path d="M8.919,3.244 L8.908,3.342 L8.894,3.441 L8.876,3.542 L8.856,3.643 L8.831,3.745 L8.804,3.847 L8.774,3.951 L8.74,4.054 " />
			<path d="M3.563,6.336 L3.576,6.511 L3.597,6.681 L3.624,6.845 L3.64,6.926 L3.659,7.004 L3.678,7.081 L3.7,7.157 L3.723,7.231 L3.748,7.303 L3.775,7.374 L3.803,7.443 L3.834,7.511 L3.865,7.576 L3.899,7.64 L3.934,7.702 L3.97,7.762 L4.008,7.82 L4.048,7.876 L4.089,7.931 L4.132,7.983 L4.176,8.033 L4.222,8.082 L4.269,8.128 L4.318,8.172 L4.368,8.214 L4.42,8.254 L4.472,8.292 L4.527,8.328 L4.582,8.361 " />
			<path d="M4.582,8.361 L4.672,8.41 L4.766,8.453 L4.862,8.49 L4.961,8.521 L5.063,8.547 L5.168,8.567 L5.274,8.582 L5.384,8.59 L5.495,8.593 L5.608,8.59 L5.723,8.581 L5.84,8.566 L5.959,8.546 L6.079,8.52 L6.2,8.488 L6.322,8.45 L6.445,8.407 L6.569,8.358 L6.694,8.304 L6.819,8.244 L6.944,8.179 L7.07,8.108 L7.195,8.033 L7.321,7.952 L7.446,7.867 L7.57,7.776 L7.694,7.681 L7.817,7.581 L7.939,7.476 L8.06,7.367 L8.18,7.254 L8.298,7.137 L8.414,7.016 L8.529,6.891 L8.642,6.763 L8.753,6.631 L8.862,6.495 L8.968,6.357 L9.072,6.216 L9.173,6.072 L9.272,5.925 L9.368,5.776 L9.46,5.625 L9.55,5.472 L9.637,5.317 L9.72,5.16 L9.8,5.002 L9.876,4.843 L9.948,4.683 L10.017,4.522 L10.082,4.36 L10.144,4.198 L10.201,4.036 L10.254,3.874 L10.303,3.712 L10.348,3.551 L10.388,3.39 L10.425,3.231 L10.457,3.072 L10.484,2.915 L10.508,2.759 L10.526,2.605 L10.541,2.452 L10.551,2.302 " />
			<path d="M6.233,2.607 L8.74,4.054 " />
			<path d="M8.74,2.151 L8.774,2.216 L8.804,2.284 L8.831,2.355 L8.856,2.429 L8.876,2.506 L8.894,2.586 L8.908,2.669 L8.919,2.754 " />
			<path d="M10.551,1.812 L10.537,1.637 L10.517,1.468 L10.49,1.303 L10.473,1.223 L10.455,1.144 L10.435,1.067 L10.414,0.992 L10.391,0.918 L10.365,0.845 L10.339,0.774 L10.31,0.705 L10.28,0.638 L10.249,0.572 L10.215,0.509 L10.18,0.447 L10.144,0.387 L10.105,0.328 L10.066,0.272 L10.024,0.218 L9.982,0.166 L9.937,0.115 L9.892,0.067 L9.844,0.021 L9.796,-0.024 L9.746,-0.066 L9.694,-0.106 L9.641,-0.143 L9.587,-0.179 L9.532,-0.213 " />
			<path d="M9.532,-0.213 L9.442,-0.261 L9.348,-0.304 L9.252,-0.341 L9.153,-0.373 L9.051,-0.399 L8.946,-0.419 L8.839,-0.433 L8.73,-0.442 L8.619,-0.444 L8.506,-0.441 L8.39,-0.432 L8.273,-0.418 L8.155,-0.397 L8.035,-0.371 L7.914,-0.339 L7.792,-0.302 L7.669,-0.258 L7.545,-0.209 L7.42,-0.155 L7.295,-0.095 L7.17,-0.03 L7.044,0.04 L6.918,0.116 L6.793,0.196 L6.668,0.282 L6.544,0.373 L6.42,0.468 L6.297,0.568 L6.175,0.672 L6.054,0.781 L5.934,0.894 L5.816,1.012 L5.7,1.133 L5.585,1.258 L5.472,1.386 L5.361,1.518 L5.252,1.653 L5.146,1.792 L5.042,1.933 L4.941,2.077 L4.842,2.224 L4.746,2.373 L4.653,2.524 L4.564,2.677 L4.477,2.832 L4.394,2.989 L4.314,3.147 L4.238,3.306 L4.165,3.466 L4.097,3.627 L4.032,3.789 L3.97,3.95 L3.913,4.113 L3.86,4.275 L3.811,4.436 L3.766,4.598 L3.725,4.758 L3.689,4.918 L3.657,5.077 L3.629,5.234 L3.606,5.39 L3.587,5.544 L3.573,5.696 L3.563,5.846 " />
			<path d="M8.74,2.151 L8.093,2.525 " />
			<path d="M7.881,2.403 L7.882,2.426 L7.885,2.448 L7.89,2.468 L7.897,2.487 L7.906,2.504 L7.916,2.518 L7.929,2.53 L7.943,2.54 " />
			<path d="M7.943,2.54 L7.958,2.547 L7.975,2.552 L7.993,2.554 L8.012,2.553 L8.031,2.55 L8.051,2.544 L8.072,2.536 L8.093,2.525 " />
			<path d="M7.881,2.403 L7.881,1.655 " />
			<path d="M6.233,2.607 L6.33,2.5 L6.43,2.398 L6.531,2.301 L6.634,2.21 L6.739,2.126 L6.844,2.047 L6.95,1.976 L7.057,1.911 L7.163,1.853 L7.27,1.802 L7.375,1.758 L7.48,1.722 L7.583,1.694 L7.684,1.673 L7.784,1.66 L7.881,1.655 " />
			<path d="M6.233,2.607 L6.233,3.354 " />
			<path d="M6.021,3.721 L6.062,3.693 L6.102,3.656 L6.139,3.612 L6.171,3.563 L6.197,3.51 L6.217,3.457 L6.229,3.404 L6.233,3.354 " />
			<path d="M6.021,3.721 L5.374,4.095 " />
			<path d="M3.875,-0.905 L3.812,-0.945 L3.782,-0.968 L3.755,-0.992 L3.729,-1.017 L3.704,-1.043 L3.682,-1.07 L3.662,-1.099 L3.644,-1.128 L3.628,-1.158 L3.614,-1.189 L3.603,-1.221 L3.594,-1.254 L3.587,-1.287 L3.583,-1.321 L3.582,-1.355 " />
			<path d="M3.582,-1.355 L3.583,-1.387 L3.587,-1.42 L3.593,-1.453 L3.602,-1.485 L3.613,-1.518 L3.627,-1.55 L3.644,-1.581 L3.663,-1.613 L3.685,-1.643 L3.71,-1.673 L3.738,-1.701 L3.768,-1.729 L3.801,-1.756 L3.837,-1.781 L3.876,-1.805 L3.917,-1.827 L3.959,-1.847 L4.003,-1.865 L4.049,-1.881 L4.095,-1.894 L4.142,-1.906 L4.19,-1.916 L4.287,-1.93 L4.386,-1.937 L4.485,-1.937 L4.584,-1.932 L4.682,-1.921 L4.777,-1.905 L4.869,-1.885 L4.957,-1.861 L5.042,-1.833 L5.121,-1.803 L5.195,-1.77 L5.264,-1.735 L5.326,-1.699 L5.382,-1.661 L5.433,-1.621 L5.476,-1.58 L5.513,-1.537 L5.543,-1.493 L5.564,-1.448 L5.572,-1.425 L5.577,-1.402 L5.581,-1.378 L5.582,-1.355 " />
			<path d="M5.582,-1.355 L5.579,-1.319 L5.572,-1.283 L5.558,-1.247 L5.539,-1.21 L5.513,-1.173 L5.482,-1.136 L5.445,-1.099 L5.402,-1.063 L5.354,-1.028 L5.3,-0.994 L5.242,-0.962 L5.18,-0.932 L5.113,-0.903 L5.045,-0.877 L4.974,-0.854 L4.902,-0.833 L4.83,-0.815 L4.757,-0.801 L4.685,-0.789 L4.613,-0.78 L4.541,-0.774 L4.471,-0.772 L4.402,-0.772 L4.334,-0.775 L4.269,-0.782 L4.205,-0.791 L4.143,-0.803 L4.084,-0.818 L4.028,-0.836 L3.974,-0.856 L3.923,-0.879 L3.875,-0.905 " />
			<path d="M5.374,4.095 L7.881,5.542 " />
			<path d="M3.627,-1.16 L3.653,-1.202 L3.685,-1.243 L3.722,-1.282 L3.764,-1.32 L3.812,-1.356 L3.863,-1.389 L3.92,-1.421 L3.98,-1.449 L4.044,-1.475 L4.111,-1.497 L4.181,-1.517 L4.254,-1.533 L4.328,-1.546 L4.404,-1.556 L4.481,-1.562 L4.559,-1.565 L4.637,-1.564 L4.714,-1.56 L4.791,-1.553 L4.867,-1.541 L4.94,-1.527 L5.012,-1.509 L5.081,-1.488 L5.147,-1.464 L5.209,-1.438 L5.268,-1.408 L5.322,-1.376 L5.373,-1.342 L5.418,-1.305 L5.458,-1.266 L5.493,-1.226 L5.522,-1.185 " />
			<path d="M4.985,5.026 L6.021,5.624 " />
			<path d="M7.881,4.795 L6.021,3.721 " />
			<path d="M8.093,4.427 L6.233,3.354 " />
			<path d="M7.043,1.919 L7.881,2.403 " />
			<path d="M2.475,-4.287 L3.03,-3.966 " />
			<path d="M-2.475,4.287 L-1.92,4.607 " />
			<path d="M-0.996,5.776 L-0.289,6.184 " />
			<path d="M4.504,-3.751 L5.211,-3.342 " />
			<path d="M-0.014,5.708 L4.582,8.361 " />
			<path d="M4.936,-2.866 L9.532,-0.213 " />
			<path d="M5.073,4.975 L6.171,5.609 " />
			<path d="M6.958,1.971 L7.943,2.54 " />

       </g>
    </g>
    
</svg>
