<?xml version="1.0" encoding="UTF-8" standalone="no"?>
<svg viewBox="190.0 10.0 320.0 298.6"
   xmlns:svg="http://www.w3.org/2000/svg"
   xmlns="http://www.w3.org/2000/svg"
   width="320"
   height="299"

>
    <g transform="scale(6.239177481057772, -6.239177481057772)   translate(58.92556509887896,-23.90262174237698)" stroke-width="0.25"  fill="none">
       <!-- hidden lines -->
       <g  stroke="rgb(160,160,160)" fill="none" stroke-dasharray="0.25,0.25" >
			<path d="M15.556,-23.963 L15.556,-7.064 " />
			<path d="M21.213,-3.798 L15.556,-7.064 " />
			<path d="M15.556,-7.064 L-26.87,17.431 " />
			<path d="M13.103,-9.484 L10.939,-8.234 " />
			<path d="M14.185,-12.272 L13.103,-9.484 " />
			<path d="M13.103,-13.811 L14.185,-12.272 " />
			<path d="M10.939,-12.562 L13.103,-13.811 " />
			<path d="M9.857,-9.773 L10.939,-12.562 " />
			<path d="M10.939,-8.234 L9.857,-9.773 " />
			<path d="M6.052,-5.372 L3.847,-4.099 " />
			<path d="M7.154,-8.213 L6.052,-5.372 " />
			<path d="M6.052,-9.781 L7.154,-8.213 " />
			<path d="M3.847,-8.508 L6.052,-9.781 " />
			<path d="M2.745,-5.667 L3.847,-8.508 " />
			<path d="M3.847,-4.099 L2.745,-5.667 " />
			<path d="M-0.999,-1.261 L-3.244,0.036 " />
			<path d="M0.124,-4.154 L-0.999,-1.261 " />
			<path d="M-0.999,-5.751 L0.124,-4.154 " />
			<path d="M-3.244,-4.455 L-0.999,-5.751 " />
			<path d="M-4.367,-1.561 L-3.244,-4.455 " />
			<path d="M-3.244,0.036 L-4.367,-1.561 " />
			<path d="M-8.049,2.851 L-10.335,4.171 " />
			<path d="M-6.906,-0.095 L-8.049,2.851 " />
			<path d="M-8.049,-1.721 L-6.906,-0.095 " />
			<path d="M-10.335,-0.401 L-8.049,-1.721 " />
			<path d="M-11.479,2.545 L-10.335,-0.401 " />
			<path d="M-10.335,4.171 L-11.479,2.545 " />
			<path d="M-15.1,6.962 L-17.427,8.306 " />
			<path d="M-13.936,3.964 L-15.1,6.962 " />
			<path d="M-15.1,2.308 L-13.936,3.964 " />
			<path d="M-17.427,3.652 L-15.1,2.308 " />
			<path d="M-18.59,6.651 L-17.427,3.652 " />
			<path d="M-17.427,8.306 L-18.59,6.651 " />
			<path d="M-22.151,11.074 L-24.518,12.441 " />
			<path d="M-20.967,8.023 L-22.151,11.074 " />
			<path d="M-22.151,6.338 L-20.967,8.023 " />
			<path d="M-24.518,7.705 L-22.151,6.338 " />
			<path d="M-25.702,10.757 L-24.518,7.705 " />
			<path d="M-24.518,12.441 L-25.702,10.757 " />
			<path d="M16.016,-7.802 L13.103,-9.484 " />
			<path d="M16.596,-4.968 L10.939,-8.234 " />
			<path d="M17.968,-10.088 L14.185,-12.272 " />
			<path d="M18.76,-10.545 L13.103,-13.811 " />
			<path d="M16.596,-9.296 L10.939,-12.562 " />
			<path d="M15.514,-6.507 L9.857,-9.773 " />
			<path d="M8.914,-3.72 L6.052,-5.372 " />
			<path d="M9.504,-0.833 L3.847,-4.099 " />
			<path d="M10.902,-6.049 L7.154,-8.213 " />
			<path d="M11.709,-6.515 L6.052,-9.781 " />
			<path d="M9.504,-5.242 L3.847,-8.508 " />
			<path d="M8.402,-2.401 L2.745,-5.667 " />
			<path d="M1.811,0.362 L-0.999,-1.261 " />
			<path d="M2.413,3.302 L-3.244,0.036 " />
			<path d="M3.836,-2.011 L0.124,-4.154 " />
			<path d="M4.658,-2.485 L-0.999,-5.751 " />
			<path d="M2.413,-1.189 L-3.244,-4.455 " />
			<path d="M1.29,1.705 L-4.367,-1.561 " />
			<path d="M-5.291,4.443 L-8.049,2.851 " />
			<path d="M-4.679,7.437 L-10.335,4.171 " />
			<path d="M-3.229,2.028 L-6.906,-0.095 " />
			<path d="M-2.392,1.545 L-8.049,-1.721 " />
			<path d="M-4.679,2.865 L-10.335,-0.401 " />
			<path d="M-5.822,5.811 L-11.479,2.545 " />
			<path d="M-12.394,8.525 L-15.1,6.962 " />
			<path d="M-11.77,11.572 L-17.427,8.306 " />
			<path d="M-10.295,6.066 L-13.936,3.964 " />
			<path d="M-9.443,5.574 L-15.1,2.308 " />
			<path d="M-11.77,6.918 L-17.427,3.652 " />
			<path d="M-12.934,9.917 L-18.59,6.651 " />
			<path d="M-19.496,12.607 L-22.151,11.074 " />
			<path d="M-18.862,15.707 L-24.518,12.441 " />
			<path d="M-17.36,10.105 L-20.967,8.023 " />
			<path d="M-16.494,9.604 L-22.151,6.338 " />
			<path d="M-18.862,10.971 L-24.518,7.705 " />
			<path d="M-20.046,14.023 L-25.702,10.757 " />

       </g>

       <!-- solid lines -->
       <g  stroke="rgb(0,0,0)" fill="none">
			<path d="M21.213,-20.697 L15.556,-23.963 " />
			<path d="M21.213,-20.697 L21.213,-3.798 " />
			<path d="M21.213,-20.697 L-21.213,3.798 " />
			<path d="M-21.213,3.798 L-26.87,0.532 " />
			<path d="M15.556,-23.963 L-26.87,0.532 " />
			<path d="M-26.87,0.532 L-26.87,17.431 " />
			<path d="M21.213,-3.798 L-21.213,20.697 " />
			<path d="M-21.213,20.697 L-26.87,17.431 " />
			<path d="M-21.213,3.798 L-21.213,20.697 " />
			<path d="M18.76,-6.218 L16.596,-4.968 " />
			<path d="M19.841,-9.006 L18.76,-6.218 " />
			<path d="M18.76,-10.545 L19.841,-9.006 " />
			<path d="M16.596,-9.296 L18.76,-10.545 " />
			<path d="M15.514,-6.507 L16.596,-9.296 " />
			<path d="M16.596,-4.968 L15.514,-6.507 " />
			<path d="M11.709,-2.106 L9.504,-0.833 " />
			<path d="M12.811,-4.947 L11.709,-2.106 " />
			<path d="M11.709,-6.515 L12.811,-4.947 " />
			<path d="M9.504,-5.242 L11.709,-6.515 " />
			<path d="M8.402,-2.401 L9.504,-5.242 " />
			<path d="M9.504,-0.833 L8.402,-2.401 " />
			<path d="M4.658,2.005 L2.413,3.302 " />
			<path d="M5.781,-0.888 L4.658,2.005 " />
			<path d="M4.658,-2.485 L5.781,-0.888 " />
			<path d="M2.413,-1.189 L4.658,-2.485 " />
			<path d="M1.29,1.705 L2.413,-1.189 " />
			<path d="M2.413,3.302 L1.29,1.705 " />
			<path d="M-2.392,6.117 L-4.679,7.437 " />
			<path d="M-1.249,3.171 L-2.392,6.117 " />
			<path d="M-2.392,1.545 L-1.249,3.171 " />
			<path d="M-4.679,2.865 L-2.392,1.545 " />
			<path d="M-5.822,5.811 L-4.679,2.865 " />
			<path d="M-4.679,7.437 L-5.822,5.811 " />
			<path d="M-9.443,10.228 L-11.77,11.572 " />
			<path d="M-8.28,7.23 L-9.443,10.228 " />
			<path d="M-9.443,5.574 L-8.28,7.23 " />
			<path d="M-11.77,6.918 L-9.443,5.574 " />
			<path d="M-12.934,9.917 L-11.77,6.918 " />
			<path d="M-11.77,11.572 L-12.934,9.917 " />
			<path d="M-16.494,14.34 L-18.862,15.707 " />
			<path d="M-15.31,11.289 L-16.494,14.34 " />
			<path d="M-16.494,9.604 L-15.31,11.289 " />
			<path d="M-18.862,10.971 L-16.494,9.604 " />
			<path d="M-20.046,14.023 L-18.862,10.971 " />
			<path d="M-18.862,15.707 L-20.046,14.023 " />
			<path d="M18.76,-6.218 L16.016,-7.802 " />
			<path d="M19.841,-9.006 L17.968,-10.088 " />
			<path d="M11.709,-2.106 L8.914,-3.72 " />
			<path d="M12.811,-4.947 L10.902,-6.049 " />
			<path d="M4.658,2.005 L1.811,0.362 " />
			<path d="M5.781,-0.888 L3.836,-2.011 " />
			<path d="M-2.392,6.117 L-5.291,4.443 " />
			<path d="M-1.249,3.171 L-3.229,2.028 " />
			<path d="M-9.443,10.228 L-12.394,8.525 " />
			<path d="M-8.28,7.23 L-10.295,6.066 " />
			<path d="M-16.494,14.34 L-19.496,12.607 " />
			<path d="M-15.31,11.289 L-17.36,10.105 " />

       </g>
    </g>
    
</svg>
