<?xml version="1.0" encoding="UTF-8" standalone="no"?>
<svg viewBox="190.0 10.0 320.0 228.1"
   xmlns:svg="http://www.w3.org/2000/svg"
   xmlns="http://www.w3.org/2000/svg"
   width="320"
   height="228"

>
    <g transform="scale(8.875817337069634, -8.875817337069634)   translate(56.33284023452829,-20.55127351891017)" stroke-width="0.25"  fill="none">
       <!-- hidden lines -->
       <g  stroke="rgb(160,160,160)" fill="none" stroke-dasharray="0.25,0.25" >
			<path d="M-30.687,14.942 L-30.618,14.901 " />
			<path d="M-30.618,14.901 L-30.497,14.835 L-30.37,14.772 L-30.239,14.712 L-30.102,14.657 L-29.962,14.605 L-29.816,14.558 L-29.667,14.515 L-29.515,14.476 L-29.359,14.441 L-29.201,14.411 L-29.04,14.385 L-28.877,14.364 L-28.712,14.347 L-28.547,14.336 L-28.38,14.328 L-28.214,14.326 L-28.047,14.328 L-27.88,14.336 L-27.715,14.347 L-27.55,14.364 L-27.387,14.385 L-27.227,14.411 L-27.068,14.441 L-26.912,14.476 L-26.76,14.515 L-26.611,14.558 L-26.466,14.605 L-26.325,14.657 L-26.188,14.712 L-26.057,14.772 L-25.93,14.835 L-25.809,14.901 " />
			<path d="M-25.809,14.901 L-25.692,14.972 L-25.581,15.047 L-25.477,15.124 L-25.38,15.205 L-25.289,15.288 L-25.206,15.373 L-25.131,15.461 L-25.063,15.551 L-25.003,15.643 L-24.951,15.737 L-24.907,15.831 L-24.888,15.879 L-24.872,15.927 L-24.857,15.976 L-24.845,16.024 L-24.834,16.073 L-24.826,16.122 L-24.82,16.171 L-24.816,16.22 L-24.814,16.269 L-24.814,16.318 L-24.816,16.367 L-24.821,16.416 L-24.827,16.465 L-24.836,16.514 L-24.847,16.562 L-24.86,16.611 L-24.875,16.659 L-24.892,16.707 L-24.911,16.755 L-24.932,16.803 L-24.981,16.897 L-25.037,16.989 L-25.102,17.08 L-25.174,17.169 L-25.254,17.256 L-25.342,17.34 L-25.436,17.421 L-25.538,17.5 L-25.646,17.576 L-25.76,17.648 L-25.881,17.717 " />
			<path d="M-8.273,1.592 L-31.042,14.738 " />
			<path d="M-3.112,4.572 L-3.231,4.641 L-3.355,4.706 L-3.485,4.768 L-3.62,4.827 L-3.76,4.881 L-3.904,4.931 L-4.052,4.977 L-4.205,5.019 L-4.36,5.056 L-4.519,5.089 L-4.68,5.117 L-4.843,5.141 L-5.009,5.16 L-5.175,5.174 L-5.343,5.183 L-5.511,5.188 L-5.68,5.187 L-5.848,5.182 L-6.015,5.172 L-6.182,5.158 L-6.347,5.138 L-6.51,5.114 L-6.671,5.086 L-6.829,5.052 L-6.985,5.014 L-7.136,4.972 L-7.284,4.926 L-7.428,4.875 L-7.567,4.82 L-7.702,4.762 L-7.831,4.699 L-7.955,4.633 L-8.073,4.564 L-8.184,4.491 L-8.29,4.415 L-8.389,4.337 L-8.481,4.255 L-8.565,4.171 L-8.643,4.085 L-8.713,3.996 L-8.775,3.906 L-8.83,3.814 L-8.876,3.72 L-8.915,3.626 L-8.931,3.578 L-8.945,3.53 L-8.957,3.482 L-8.967,3.434 L-8.975,3.385 L-8.981,3.337 L-8.984,3.288 L-8.986,3.24 L-8.986,3.191 L-8.983,3.142 L-8.979,3.094 L-8.972,3.045 L-8.963,2.997 L-8.952,2.949 L-8.939,2.901 L-8.924,2.853 L-8.888,2.758 L-8.844,2.664 L-8.792,2.572 L-8.732,2.481 L-8.664,2.392 L-8.589,2.305 L-8.506,2.22 L-8.417,2.138 L-8.32,2.058 L-8.216,1.981 L-8.106,1.908 L-7.99,1.837 " />
			<path d="M-7.99,1.837 L-7.919,1.797 " />
			<path d="M-19.304,11.145 L-19.419,11.075 L-19.528,11.002 L-19.631,10.926 L-19.727,10.848 L-19.816,10.766 L-19.898,10.682 L-19.973,10.596 L-20.041,10.508 L-20.101,10.418 L-20.153,10.327 L-20.198,10.234 L-20.235,10.14 L-20.263,10.045 L-20.274,9.997 L-20.283,9.95 L-20.291,9.902 L-20.296,9.853 L-20.299,9.805 L-20.3,9.757 L-20.299,9.709 L-20.296,9.661 L-20.291,9.613 L-20.283,9.565 L-20.274,9.517 L-20.263,9.469 L-20.235,9.374 L-20.198,9.28 L-20.153,9.187 L-20.101,9.096 L-20.041,9.006 L-19.973,8.918 L-19.898,8.832 L-19.816,8.748 L-19.727,8.667 L-19.631,8.588 L-19.528,8.512 L-19.419,8.439 L-19.304,8.369 " />
			<path d="M-19.304,8.369 L-19.183,8.303 L-19.057,8.24 L-18.925,8.18 L-18.789,8.125 L-18.648,8.073 L-18.503,8.026 L-18.354,7.983 L-18.201,7.944 L-18.045,7.909 L-17.887,7.879 L-17.726,7.853 L-17.563,7.832 L-17.399,7.815 L-17.233,7.804 L-17.067,7.797 L-16.9,7.794 L-16.733,7.797 L-16.567,7.804 L-16.401,7.815 L-16.237,7.832 L-16.074,7.853 L-15.913,7.879 L-15.754,7.909 L-15.599,7.944 L-15.446,7.983 L-15.297,8.026 L-15.152,8.073 L-15.011,8.125 L-14.874,8.18 L-14.743,8.24 L-14.617,8.303 L-14.496,8.369 " />
			<path d="M-14.496,8.369 L-14.381,8.439 L-14.272,8.512 L-14.169,8.588 L-14.073,8.667 L-13.984,8.748 L-13.901,8.832 L-13.826,8.918 L-13.759,9.006 L-13.699,9.096 L-13.646,9.187 L-13.602,9.28 L-13.565,9.374 L-13.537,9.469 L-13.525,9.517 L-13.516,9.565 L-13.509,9.613 L-13.504,9.661 L-13.501,9.709 L-13.5,9.757 L-13.501,9.805 L-13.504,9.853 L-13.509,9.902 L-13.516,9.95 L-13.525,9.997 L-13.537,10.045 L-13.565,10.14 L-13.602,10.234 L-13.646,10.327 L-13.699,10.418 L-13.759,10.508 L-13.826,10.596 L-13.901,10.682 L-13.984,10.766 L-14.073,10.848 L-14.169,10.926 L-14.272,11.002 L-14.381,11.075 L-14.496,11.145 L-14.617,11.212 L-14.743,11.275 L-14.874,11.334 L-15.011,11.389 L-15.152,11.441 L-15.297,11.488 L-15.446,11.532 L-15.599,11.571 L-15.754,11.605 L-15.913,11.636 L-16.074,11.661 L-16.237,11.682 L-16.401,11.699 L-16.567,11.711 L-16.733,11.718 L-16.9,11.72 L-17.067,11.718 L-17.233,11.711 L-17.399,11.699 L-17.563,11.682 L-17.726,11.661 L-17.887,11.636 L-18.045,11.605 L-18.201,11.571 L-18.354,11.532 L-18.503,11.488 L-18.648,11.441 L-18.789,11.389 L-18.925,11.334 L-19.057,11.275 L-19.183,11.212 L-19.304,11.145 " />
			<path d="M-25.881,17.717 L-25.967,17.761 L-26.055,17.8 L-26.144,17.834 L-26.235,17.864 L-26.328,17.889 L-26.421,17.909 L-26.515,17.925 L-26.61,17.936 L-26.705,17.944 L-26.799,17.948 L-26.894,17.948 L-26.987,17.944 L-27.08,17.937 L-27.173,17.927 L-27.265,17.914 L-27.356,17.899 L-27.446,17.881 L-27.536,17.861 L-27.624,17.838 L-27.712,17.813 L-27.886,17.758 L-28.056,17.697 L-28.223,17.629 L-28.387,17.556 L-28.549,17.479 L-28.708,17.397 " />
			<path d="M-29.039,17.206 L-28.708,17.397 " />
			<path d="M-31.202,15.957 L-29.039,17.206 " />
			<path d="M-31.202,15.957 L-31.533,15.766 " />
			<path d="M-31.533,15.766 L-31.559,15.74 L-31.578,15.714 L-31.584,15.7 L-31.588,15.686 L-31.59,15.672 L-31.589,15.657 L-31.587,15.641 L-31.581,15.625 L-31.564,15.59 L-31.536,15.551 L-31.497,15.508 L-31.446,15.46 L-31.382,15.407 L-31.304,15.347 L-31.211,15.28 L-31.102,15.206 L-30.979,15.125 L-30.687,14.942 " />
			<path d="M-32.992,14.931 L-32.944,14.958 L-32.894,14.982 L-32.843,15.005 L-32.791,15.025 L-32.739,15.043 L-32.685,15.06 L-32.63,15.074 L-32.574,15.086 L-32.517,15.096 L-32.46,15.103 L-32.401,15.109 L-32.342,15.112 L-32.282,15.114 L-32.221,15.113 L-32.16,15.11 L-32.097,15.105 L-32.034,15.097 L-31.971,15.088 L-31.843,15.063 L-31.712,15.029 L-31.58,14.987 L-31.447,14.937 L-31.312,14.878 L-31.177,14.812 L-31.042,14.738 " />
			<path d="M-30.469,14.816 L-30.406,14.779 " />
			<path d="M-30.406,14.779 L-30.295,14.718 L-30.18,14.661 L-30.06,14.607 L-29.936,14.556 L-29.807,14.509 L-29.675,14.466 L-29.539,14.426 L-29.4,14.391 L-29.258,14.359 L-29.113,14.331 L-28.967,14.308 L-28.818,14.289 L-28.668,14.274 L-28.517,14.263 L-28.366,14.257 L-28.214,14.254 L-28.061,14.257 L-27.91,14.263 L-27.759,14.274 L-27.609,14.289 L-27.46,14.308 L-27.314,14.331 L-27.169,14.359 L-27.027,14.391 L-26.888,14.426 L-26.752,14.466 L-26.62,14.509 L-26.491,14.556 L-26.367,14.607 L-26.247,14.661 L-26.132,14.718 L-26.022,14.779 " />
			<path d="M-26.022,14.779 L-25.917,14.842 L-25.817,14.909 L-25.724,14.978 L-25.636,15.05 L-25.555,15.124 L-25.48,15.2 L-25.411,15.279 L-25.35,15.359 L-25.295,15.441 L-25.247,15.525 L-25.206,15.609 L-25.173,15.695 L-25.147,15.782 L-25.128,15.869 L-25.117,15.956 L-25.114,16.044 " />
			<path d="M-25.114,16.044 L-25.115,16.09 L-25.118,16.135 L-25.13,16.226 L-25.15,16.317 L-25.178,16.406 L-25.214,16.495 L-25.257,16.583 L-25.308,16.669 L-25.367,16.753 L-25.434,16.836 L-25.507,16.917 L-25.587,16.995 L-25.675,17.071 L-25.768,17.144 L-25.869,17.215 L-25.975,17.282 L-26.087,17.346 " />
			<path d="M-2.267,2.132 L-2.253,2.21 L-2.24,2.29 L-2.23,2.369 L-2.222,2.45 L-2.216,2.53 L-2.212,2.612 L-2.21,2.693 L-2.21,2.775 L-2.213,2.857 L-2.218,2.939 L-2.226,3.022 L-2.236,3.104 L-2.248,3.187 L-2.263,3.27 L-2.282,3.352 L-2.302,3.434 L-2.326,3.516 L-2.354,3.598 L-2.384,3.679 L-2.418,3.759 L-2.455,3.838 L-2.496,3.916 L-2.54,3.993 L-2.589,4.068 L-2.641,4.141 L-2.697,4.212 L-2.757,4.28 L-2.821,4.345 L-2.888,4.407 L-2.96,4.466 L-3.034,4.521 L-3.112,4.572 " />
			<path d="M-2.598,1.94 L-2.267,2.132 " />
			<path d="M-4.761,0.692 L-2.598,1.94 " />
			<path d="M-4.761,0.692 L-5.092,0.5 " />
			<path d="M-8.273,1.592 L-8.172,1.531 L-8.07,1.466 L-7.969,1.397 L-7.869,1.324 L-7.768,1.247 L-7.669,1.166 L-7.57,1.081 L-7.473,0.993 L-7.376,0.901 L-7.281,0.806 L-7.187,0.707 L-7.094,0.606 L-7.003,0.501 L-6.914,0.394 L-6.826,0.284 L-6.741,0.171 L-6.658,0.056 L-6.577,-0.061 L-6.498,-0.181 L-6.421,-0.302 L-6.347,-0.425 L-6.276,-0.55 L-6.207,-0.676 L-6.141,-0.803 L-6.078,-0.931 L-6.018,-1.06 L-5.962,-1.19 L-5.908,-1.321 L-5.857,-1.452 L-5.81,-1.583 L-5.766,-1.714 L-5.725,-1.845 L-5.688,-1.975 L-5.655,-2.105 L-5.625,-2.234 L-5.598,-2.363 L-5.575,-2.49 L-5.556,-2.616 L-5.541,-2.741 L-5.529,-2.865 L-5.521,-2.986 L-5.516,-3.106 L-5.516,-3.223 L-5.519,-3.339 L-5.526,-3.452 L-5.536,-3.562 L-5.55,-3.67 L-5.568,-3.775 L-5.59,-3.877 L-5.615,-3.976 L-5.644,-4.072 L-5.677,-4.164 L-5.713,-4.253 L-5.752,-4.338 L-5.795,-4.42 L-5.841,-4.497 L-5.891,-4.571 L-5.943,-4.641 L-5.999,-4.707 L-6.058,-4.768 L-6.12,-4.825 L-6.185,-4.878 L-6.253,-4.926 L-6.323,-4.97 " />
			<path d="M-7.919,1.797 L-7.6,1.626 L-7.263,1.449 L-6.921,1.275 L-6.585,1.11 L-6.258,0.957 L-6.098,0.885 L-5.941,0.817 L-5.787,0.752 L-5.635,0.692 L-5.486,0.634 L-5.339,0.581 " />
			<path d="M-5.339,0.581 L-5.215,0.539 L-5.092,0.5 " />
			<path d="M-16.405,3.103 L-16.402,2.965 L-16.393,2.824 L-16.379,2.68 L-16.359,2.534 L-16.333,2.387 L-16.301,2.237 L-16.264,2.086 L-16.222,1.935 L-16.174,1.782 L-16.121,1.63 L-16.063,1.478 L-16,1.326 L-15.932,1.176 L-15.859,1.026 L-15.782,0.879 L-15.701,0.733 L-15.615,0.59 L-15.526,0.449 L-15.433,0.312 L-15.336,0.178 L-15.237,0.047 L-15.134,-0.079 L-15.029,-0.201 L-14.921,-0.319 L-14.811,-0.432 L-14.699,-0.539 L-14.585,-0.641 L-14.47,-0.737 L-14.353,-0.828 L-14.236,-0.912 L-14.119,-0.99 L-14.001,-1.061 L-13.883,-1.126 L-13.765,-1.184 L-13.648,-1.235 L-13.532,-1.279 L-13.417,-1.316 L-13.303,-1.345 L-13.191,-1.367 L-13.081,-1.381 L-12.973,-1.388 L-12.867,-1.388 L-12.765,-1.38 L-12.665,-1.365 L-12.569,-1.342 L-12.522,-1.328 L-12.476,-1.312 L-12.43,-1.294 L-12.386,-1.274 L-12.343,-1.253 L-12.301,-1.23 L-12.26,-1.205 L-12.219,-1.178 L-12.18,-1.15 L-12.142,-1.119 L-12.105,-1.088 L-12.07,-1.054 L-12.002,-0.982 L-11.939,-0.903 L-11.88,-0.818 L-11.827,-0.727 L-11.78,-0.63 L-11.737,-0.527 L-11.7,-0.419 L-11.669,-0.306 L-11.643,-0.188 L-11.623,-0.066 L-11.608,0.061 L-11.599,0.192 L-11.597,0.327 " />
			<path d="M-11.597,0.327 L-11.599,0.464 L-11.608,0.605 L-11.623,0.749 L-11.643,0.895 L-11.669,1.043 L-11.7,1.192 L-11.737,1.343 L-11.78,1.495 L-11.827,1.647 L-11.88,1.799 L-11.939,1.951 L-12.002,2.103 L-12.07,2.253 L-12.142,2.403 L-12.219,2.55 L-12.301,2.696 L-12.386,2.839 L-12.476,2.98 L-12.569,3.118 L-12.665,3.252 L-12.765,3.382 L-12.867,3.509 L-12.973,3.631 L-13.081,3.748 L-13.191,3.861 L-13.303,3.968 L-13.417,4.07 L-13.532,4.167 L-13.648,4.257 L-13.765,4.341 L-13.883,4.419 L-14.001,4.491 " />
			<path d="M-14.001,4.491 L-14.119,4.555 L-14.236,4.613 L-14.353,4.664 L-14.47,4.708 L-14.585,4.745 L-14.699,4.774 L-14.811,4.796 L-14.921,4.811 L-15.029,4.818 L-15.134,4.817 L-15.237,4.809 L-15.336,4.794 L-15.433,4.771 L-15.48,4.757 L-15.526,4.741 L-15.571,4.723 L-15.615,4.704 L-15.658,4.682 L-15.701,4.659 L-15.742,4.634 L-15.782,4.607 L-15.821,4.579 L-15.859,4.549 L-15.896,4.517 L-15.932,4.483 L-16,4.411 L-16.063,4.332 L-16.121,4.247 L-16.174,4.156 L-16.222,4.059 L-16.264,3.957 L-16.301,3.849 L-16.333,3.736 L-16.359,3.618 L-16.379,3.495 L-16.393,3.368 L-16.402,3.237 L-16.405,3.103 " />
			<path d="M-27.719,9.635 L-27.716,9.497 L-27.707,9.356 L-27.693,9.212 L-27.672,9.066 L-27.647,8.919 L-27.615,8.769 L-27.578,8.618 L-27.536,8.467 L-27.488,8.314 L-27.435,8.162 L-27.377,8.01 L-27.313,7.858 L-27.245,7.708 L-27.173,7.558 L-27.096,7.411 L-27.014,7.265 L-26.929,7.122 L-26.84,6.981 L-26.747,6.844 L-26.65,6.71 L-26.55,6.579 L-26.448,6.453 L-26.342,6.331 L-26.234,6.213 L-26.124,6.1 L-26.012,5.993 L-25.899,5.891 L-25.783,5.795 L-25.667,5.704 L-25.55,5.62 L-25.432,5.542 L-25.314,5.471 L-25.196,5.406 L-25.079,5.348 L-24.962,5.297 L-24.845,5.253 L-24.73,5.216 L-24.617,5.187 L-24.504,5.165 L-24.394,5.151 L-24.287,5.144 L-24.181,5.144 L-24.078,5.152 L-23.979,5.167 L-23.882,5.19 L-23.835,5.204 L-23.789,5.22 L-23.744,5.238 L-23.7,5.258 L-23.657,5.279 L-23.614,5.302 L-23.573,5.327 L-23.533,5.354 L-23.494,5.382 L-23.456,5.413 L-23.419,5.444 L-23.383,5.478 L-23.315,5.55 L-23.252,5.629 L-23.194,5.714 L-23.141,5.805 L-23.093,5.902 L-23.051,6.004 L-23.014,6.112 L-22.982,6.226 L-22.956,6.344 L-22.936,6.466 L-22.922,6.593 L-22.913,6.724 L-22.91,6.859 " />
			<path d="M-22.91,6.859 L-22.913,6.996 L-22.922,7.137 L-22.936,7.281 L-22.956,7.427 L-22.982,7.575 L-23.014,7.724 L-23.051,7.875 L-23.093,8.027 L-23.141,8.179 L-23.194,8.331 L-23.252,8.483 L-23.315,8.635 L-23.383,8.785 L-23.456,8.935 L-23.533,9.082 L-23.614,9.228 L-23.7,9.371 L-23.789,9.512 L-23.882,9.65 L-23.979,9.784 L-24.078,9.914 L-24.181,10.041 L-24.287,10.163 L-24.394,10.28 L-24.504,10.393 L-24.617,10.5 L-24.73,10.602 L-24.845,10.699 L-24.962,10.789 L-25.079,10.873 L-25.196,10.951 L-25.314,11.023 " />
			<path d="M-25.314,11.023 L-25.432,11.087 L-25.55,11.145 L-25.667,11.196 L-25.783,11.24 L-25.899,11.277 L-26.012,11.306 L-26.124,11.328 L-26.234,11.343 L-26.342,11.35 L-26.448,11.349 L-26.55,11.341 L-26.65,11.326 L-26.747,11.303 L-26.794,11.289 L-26.84,11.273 L-26.885,11.255 L-26.929,11.236 L-26.972,11.214 L-27.014,11.191 L-27.056,11.166 L-27.096,11.139 L-27.135,11.111 L-27.173,11.081 L-27.21,11.049 L-27.245,11.015 L-27.313,10.943 L-27.377,10.864 L-27.435,10.779 L-27.488,10.688 L-27.536,10.591 L-27.578,10.489 L-27.615,10.381 L-27.647,10.268 L-27.672,10.15 L-27.693,10.027 L-27.707,9.9 L-27.716,9.769 L-27.719,9.635 " />
			<path d="M-3.331,4.208 L-3.411,4.256 L-3.495,4.302 L-3.582,4.346 L-3.672,4.388 L-3.764,4.428 L-3.858,4.466 L-3.956,4.502 L-4.055,4.536 L-4.156,4.568 L-4.26,4.598 L-4.365,4.625 L-4.472,4.65 L-4.581,4.673 L-4.691,4.694 L-4.802,4.712 L-4.914,4.727 L-5.028,4.741 L-5.142,4.752 L-5.256,4.76 L-5.371,4.766 L-5.487,4.769 L-5.602,4.77 L-5.718,4.768 L-5.833,4.764 L-5.948,4.758 L-6.063,4.749 L-6.177,4.737 L-6.29,4.723 L-6.402,4.707 L-6.512,4.688 L-6.622,4.667 L-6.73,4.644 L-6.837,4.618 L-6.942,4.59 L-7.045,4.56 L-7.146,4.527 L-7.244,4.492 L-7.341,4.456 L-7.435,4.417 L-7.526,4.376 L-7.615,4.333 L-7.701,4.289 L-7.784,4.242 L-7.864,4.194 L-7.941,4.144 L-8.014,4.093 L-8.084,4.04 L-8.151,3.985 L-8.214,3.93 L-8.274,3.872 L-8.329,3.814 L-8.381,3.754 L-8.429,3.694 L-8.473,3.632 L-8.513,3.569 L-8.549,3.506 L-8.581,3.442 L-8.609,3.377 L-8.632,3.312 L-8.652,3.246 L-8.667,3.18 L-8.678,3.114 L-8.684,3.047 L-8.686,2.98 " />
			<path d="M-8.686,2.98 L-8.682,2.892 L-8.671,2.805 L-8.653,2.718 L-8.627,2.631 L-8.593,2.545 L-8.553,2.461 L-8.505,2.377 L-8.45,2.295 L-8.389,2.215 L-8.32,2.137 L-8.245,2.06 L-8.164,1.986 L-8.076,1.914 L-7.982,1.845 L-7.883,1.778 L-7.778,1.715 " />
			<path d="M-7.778,1.715 L-7.713,1.678 " />
			<path d="M-19.092,10.778 L-19.197,10.714 L-19.296,10.648 L-19.39,10.578 L-19.477,10.507 L-19.559,10.432 L-19.634,10.356 L-19.702,10.277 L-19.764,10.197 L-19.819,10.115 L-19.866,10.032 L-19.907,9.947 L-19.94,9.861 L-19.966,9.775 L-19.985,9.688 L-19.996,9.6 L-20,9.512 " />
			<path d="M-20,9.512 L-19.996,9.424 L-19.985,9.337 L-19.966,9.25 L-19.94,9.163 L-19.907,9.077 L-19.866,8.993 L-19.819,8.909 L-19.764,8.827 L-19.702,8.747 L-19.634,8.668 L-19.559,8.592 L-19.477,8.518 L-19.39,8.446 L-19.296,8.377 L-19.197,8.31 L-19.092,8.247 " />
			<path d="M-19.092,8.247 L-18.982,8.186 L-18.866,8.129 L-18.747,8.075 L-18.622,8.024 L-18.494,7.977 L-18.361,7.934 L-18.225,7.894 L-18.086,7.859 L-17.944,7.827 L-17.8,7.799 L-17.653,7.776 L-17.505,7.757 L-17.355,7.742 L-17.204,7.731 L-17.052,7.725 L-16.9,7.722 L-16.748,7.725 L-16.596,7.731 L-16.445,7.742 L-16.295,7.757 L-16.147,7.776 L-16,7.799 L-15.855,7.827 L-15.714,7.859 L-15.574,7.894 L-15.439,7.934 L-15.306,7.977 L-15.178,8.024 L-15.053,8.075 L-14.933,8.129 L-14.818,8.186 L-14.708,8.247 " />
			<path d="M-14.708,8.247 L-14.603,8.31 L-14.504,8.377 L-14.41,8.446 L-14.322,8.518 L-14.241,8.592 L-14.166,8.668 L-14.097,8.747 L-14.036,8.827 L-13.981,8.909 L-13.933,8.993 L-13.893,9.077 L-13.859,9.163 L-13.833,9.25 L-13.815,9.337 L-13.804,9.424 L-13.8,9.512 " />
			<path d="M-13.8,9.512 L-13.802,9.578 L-13.808,9.644 L-13.819,9.709 L-13.833,9.775 L-13.852,9.84 L-13.875,9.904 L-13.902,9.968 L-13.933,10.032 L-13.968,10.094 L-14.008,10.156 L-14.051,10.217 L-14.097,10.277 L-14.148,10.336 L-14.203,10.394 L-14.261,10.451 L-14.322,10.507 L-14.387,10.561 L-14.456,10.613 L-14.528,10.665 L-14.603,10.714 L-14.681,10.762 L-14.762,10.808 L-14.846,10.853 L-14.933,10.896 L-15.023,10.937 L-15.115,10.975 L-15.209,11.012 L-15.306,11.047 L-15.405,11.08 L-15.506,11.111 L-15.609,11.139 L-15.714,11.166 L-15.82,11.19 L-15.927,11.212 L-16.036,11.231 L-16.147,11.248 L-16.258,11.263 L-16.37,11.276 L-16.483,11.286 L-16.596,11.293 L-16.71,11.299 L-16.824,11.301 L-16.938,11.302 L-17.052,11.3 L-17.166,11.295 L-17.279,11.289 L-17.392,11.279 L-17.505,11.268 L-17.616,11.254 L-17.727,11.237 L-17.836,11.218 L-17.944,11.197 L-18.051,11.174 L-18.156,11.148 L-18.26,11.121 L-18.361,11.091 L-18.461,11.059 L-18.558,11.024 L-18.654,10.988 L-18.747,10.95 L-18.837,10.91 L-18.925,10.867 L-19.01,10.823 L-19.092,10.778 " />
			<path d="M-26.087,17.346 L-26.151,17.38 L-26.216,17.41 L-26.283,17.437 L-26.35,17.462 L-26.419,17.484 L-26.488,17.503 L-26.558,17.519 L-26.629,17.532 L-26.7,17.543 L-26.772,17.552 L-26.844,17.558 L-26.916,17.561 L-26.988,17.563 L-27.06,17.562 L-27.204,17.554 L-27.347,17.539 L-27.49,17.517 L-27.632,17.488 L-27.773,17.454 L-27.913,17.414 L-28.052,17.37 L-28.19,17.322 L-28.327,17.269 " />
			<path d="M-28.708,17.397 L-28.524,17.337 L-28.327,17.269 " />
			<path d="M-28.327,17.269 L-28.171,17.27 L-28.016,17.267 L-27.861,17.259 L-27.706,17.246 L-27.553,17.23 L-27.402,17.208 L-27.253,17.182 L-27.106,17.152 L-26.962,17.118 L-26.821,17.08 L-26.684,17.038 L-26.551,16.991 L-26.421,16.941 L-26.297,16.887 L-26.177,16.83 L-26.062,16.769 L-25.953,16.705 L-25.849,16.638 L-25.751,16.568 L-25.66,16.495 L-25.575,16.42 L-25.496,16.342 L-25.425,16.263 L-25.361,16.181 L-25.303,16.097 L-25.253,16.012 L-25.211,15.926 L-25.176,15.838 L-25.149,15.749 L-25.129,15.66 L-25.117,15.571 L-25.114,15.481 " />
			<path d="M-25.114,15.481 L-25.117,15.393 L-25.128,15.305 L-25.147,15.218 L-25.173,15.132 L-25.206,15.046 L-25.247,14.961 L-25.295,14.878 L-25.35,14.796 L-25.411,14.716 L-25.48,14.637 L-25.555,14.561 L-25.636,14.486 L-25.724,14.415 L-25.817,14.345 L-25.917,14.279 L-26.022,14.215 L-26.132,14.155 L-26.247,14.097 L-26.367,14.043 L-26.491,13.993 L-26.62,13.946 L-26.752,13.902 L-26.888,13.863 L-27.027,13.827 L-27.169,13.796 L-27.314,13.768 L-27.46,13.745 L-27.609,13.725 L-27.759,13.71 L-27.91,13.7 L-28.061,13.693 L-28.214,13.691 L-28.366,13.693 L-28.517,13.7 L-28.668,13.71 L-28.818,13.725 L-28.967,13.745 L-29.113,13.768 L-29.258,13.796 L-29.4,13.827 L-29.539,13.863 L-29.675,13.902 L-29.807,13.946 L-29.936,13.993 L-30.06,14.043 L-30.18,14.097 L-30.295,14.155 L-30.406,14.215 L-30.511,14.279 L-30.61,14.345 L-30.704,14.415 L-30.791,14.486 L-30.873,14.561 L-30.948,14.637 L-31.016,14.716 L-31.078,14.796 L-31.132,14.878 L-31.18,14.961 L-31.221,15.046 L-31.254,15.132 L-31.28,15.218 L-31.299,15.305 L-31.31,15.393 L-31.314,15.481 " />
			<path d="M-31.314,15.481 L-31.311,15.546 " />
			<path d="M-31.533,15.766 L-31.429,15.66 L-31.311,15.546 " />
			<path d="M-29.946,16.481 L-30.029,16.431 L-30.107,16.378 L-30.181,16.323 L-30.251,16.267 L-30.315,16.208 L-30.374,16.148 L-30.428,16.086 L-30.477,16.022 L-30.52,15.957 L-30.558,15.891 L-30.59,15.824 L-30.616,15.757 L-30.637,15.688 L-30.652,15.619 L-30.661,15.55 L-30.664,15.481 " />
			<path d="M-30.664,15.481 L-30.661,15.411 L-30.652,15.342 L-30.637,15.273 L-30.616,15.205 L-30.59,15.137 L-30.558,15.07 L-30.52,15.004 L-30.477,14.939 L-30.428,14.876 L-30.374,14.814 L-30.315,14.754 L-30.251,14.695 L-30.181,14.638 L-30.107,14.583 L-30.029,14.531 L-29.946,14.481 L-29.859,14.433 L-29.768,14.387 L-29.673,14.345 L-29.575,14.305 L-29.473,14.268 L-29.368,14.233 L-29.261,14.202 L-29.151,14.174 L-29.039,14.149 L-28.925,14.127 L-28.809,14.109 L-28.692,14.093 L-28.573,14.082 L-28.454,14.073 L-28.334,14.068 L-28.214,14.066 L-28.093,14.068 L-27.973,14.073 L-27.854,14.082 L-27.736,14.093 L-27.618,14.109 L-27.502,14.127 L-27.388,14.149 L-27.276,14.174 L-27.166,14.202 L-27.059,14.233 L-26.954,14.268 L-26.852,14.305 L-26.754,14.345 L-26.659,14.387 L-26.568,14.433 L-26.481,14.481 L-26.398,14.531 L-26.32,14.583 L-26.246,14.638 L-26.176,14.695 L-26.112,14.754 L-26.053,14.814 L-25.999,14.876 L-25.95,14.939 L-25.907,15.004 L-25.869,15.07 L-25.837,15.137 L-25.811,15.205 L-25.79,15.273 L-25.775,15.342 L-25.767,15.411 L-25.764,15.481 " />
			<path d="M-25.764,15.481 L-25.765,15.533 L-25.77,15.585 L-25.778,15.637 L-25.79,15.688 L-25.805,15.74 L-25.823,15.791 L-25.844,15.841 L-25.869,15.891 L-25.897,15.941 L-25.928,15.99 L-25.962,16.038 L-25.999,16.086 L-26.039,16.132 L-26.082,16.178 L-26.128,16.223 L-26.176,16.267 L-26.228,16.309 L-26.282,16.351 L-26.339,16.391 L-26.398,16.431 L-26.46,16.469 L-26.524,16.505 L-26.591,16.54 L-26.659,16.574 L-26.73,16.606 L-26.803,16.637 L-26.878,16.666 L-26.954,16.694 L-27.032,16.72 L-27.112,16.744 L-27.193,16.767 L-27.276,16.788 L-27.445,16.824 L-27.618,16.853 L-27.795,16.874 L-27.973,16.888 L-28.153,16.895 L-28.334,16.894 L-28.513,16.885 L-28.692,16.868 L-28.867,16.844 L-29.039,16.813 L-29.123,16.794 L-29.206,16.774 L-29.288,16.752 L-29.368,16.728 L-29.447,16.703 L-29.524,16.676 L-29.6,16.647 L-29.673,16.617 L-29.744,16.585 L-29.814,16.552 L-29.881,16.517 L-29.946,16.481 " />
			<path d="M-26.087,11.468 L-26.35,11.608 L-26.629,11.754 L-26.916,11.899 L-27.204,12.04 L-27.49,12.174 L-27.773,12.299 L-27.913,12.358 L-28.052,12.414 L-28.19,12.467 L-28.327,12.517 " />
			<path d="M-28.424,12.551 L-28.376,12.534 " />
			<path d="M-28.376,12.534 L-28.327,12.517 " />
			<path d="M-28.327,12.517 L-28.171,12.518 L-28.016,12.515 L-27.861,12.507 L-27.706,12.494 L-27.553,12.478 L-27.402,12.456 L-27.253,12.43 L-27.106,12.4 L-26.962,12.366 L-26.821,12.328 L-26.684,12.286 L-26.551,12.239 L-26.421,12.189 L-26.297,12.135 L-26.177,12.078 L-26.062,12.017 L-25.953,11.953 L-25.849,11.886 L-25.751,11.816 L-25.66,11.743 L-25.575,11.668 L-25.496,11.59 L-25.425,11.511 L-25.361,11.429 L-25.303,11.345 L-25.253,11.26 L-25.211,11.174 L-25.176,11.086 L-25.149,10.997 L-25.129,10.908 L-25.117,10.819 L-25.114,10.729 " />
			<path d="M-25.114,10.729 L-25.116,10.658 L-25.123,10.587 L-25.135,10.517 L-25.152,10.447 " />
			<path d="M-31.313,10.713 L-31.314,10.729 " />
			<path d="M-31.314,10.729 L-31.311,10.794 " />
			<path d="M-26.156,11.497 L-26.203,11.537 L-26.252,11.576 L-26.303,11.614 L-26.356,11.651 L-26.412,11.687 L-26.469,11.722 L-26.591,11.788 L-26.72,11.85 L-26.856,11.906 L-26.998,11.957 L-27.146,12.002 " />
			<path d="M-31.311,15.546 L-31.314,15.523 " />
			<path d="M-31.314,15.523 L-31.311,15.496 L-31.302,15.468 L-31.288,15.438 L-31.268,15.407 L-31.242,15.374 L-31.209,15.339 L-31.17,15.301 L-31.123,15.261 L-31.069,15.218 L-31.008,15.171 L-30.86,15.067 L-30.68,14.949 L-30.469,14.816 " />
			<path d="M-10.889,6.287 L-10.889,6.042 " />
			<path d="M-10.889,6.042 L-10.887,5.916 L-10.879,5.788 L-10.866,5.657 L-10.847,5.524 L-10.824,5.389 L-10.795,5.253 L-10.761,5.115 L-10.723,4.977 L-10.679,4.838 L-10.631,4.699 L-10.578,4.561 L-10.52,4.423 L-10.458,4.285 L-10.392,4.149 L-10.322,4.014 L-10.247,3.882 L-10.169,3.751 L-10.088,3.623 L-10.003,3.497 L-9.915,3.375 L-9.824,3.256 L-9.731,3.141 L-9.635,3.029 L-9.536,2.922 L-9.436,2.82 L-9.334,2.722 L-9.23,2.629 L-9.125,2.541 L-9.019,2.458 L-8.912,2.382 L-8.805,2.311 L-8.697,2.245 " />
			<path d="M-8.697,2.245 L-8.594,2.188 " />
			<path d="M-10.887,6.16 L-10.889,6.042 " />
			<path d="M-22.203,12.819 L-22.203,12.574 " />
			<path d="M-22.203,12.574 L-22.201,12.448 L-22.193,12.32 L-22.179,12.189 L-22.161,12.056 L-22.137,11.921 L-22.109,11.785 L-22.075,11.647 L-22.036,11.509 L-21.993,11.37 L-21.944,11.231 L-21.891,11.093 L-21.834,10.955 L-21.772,10.817 L-21.706,10.681 L-21.635,10.546 L-21.561,10.414 L-21.483,10.283 L-21.402,10.155 L-21.317,10.029 L-21.229,9.907 L-21.138,9.788 L-21.044,9.673 L-20.948,9.561 L-20.85,9.454 L-20.75,9.352 L-20.647,9.254 L-20.544,9.161 L-20.439,9.073 L-20.333,8.99 L-20.226,8.914 L-20.119,8.842 L-20.011,8.777 " />
			<path d="M-20.011,8.777 L-19.908,8.72 " />
			<path d="M-22.201,12.692 L-22.203,12.574 " />
			<path d="M-3.331,-1.671 L-3.29,-1.696 " />
			<path d="M-8.648,-2.617 L-8.664,-2.547 L-8.676,-2.476 L-8.684,-2.406 L-8.686,-2.335 " />
			<path d="M-8.686,-2.335 L-8.682,-2.247 L-8.671,-2.16 L-8.653,-2.073 L-8.627,-1.986 L-8.593,-1.9 L-8.553,-1.816 L-8.505,-1.732 L-8.45,-1.65 L-8.389,-1.57 L-8.32,-1.491 L-8.245,-1.415 L-8.164,-1.341 L-8.076,-1.269 L-7.982,-1.2 L-7.883,-1.133 L-7.778,-1.07 L-7.668,-1.009 L-7.553,-0.952 L-7.433,-0.898 L-7.308,-0.847 L-7.18,-0.8 L-7.047,-0.757 L-6.912,-0.717 L-6.772,-0.682 L-6.631,-0.65 L-6.486,-0.622 L-6.339,-0.599 L-6.191,-0.58 L-6.041,-0.565 L-5.89,-0.554 L-5.738,-0.548 L-5.586,-0.545 L-5.434,-0.548 L-5.282,-0.554 L-5.131,-0.565 L-4.981,-0.58 L-4.833,-0.599 L-4.686,-0.622 L-4.542,-0.65 L-4.4,-0.682 L-4.261,-0.717 L-4.125,-0.757 L-3.992,-0.8 L-3.864,-0.847 L-3.739,-0.898 L-3.62,-0.952 L-3.504,-1.009 L-3.394,-1.07 L-3.289,-1.133 L-3.19,-1.2 L-3.096,-1.269 L-3.009,-1.341 L-2.927,-1.415 L-2.852,-1.491 L-2.784,-1.57 L-2.722,-1.65 L-2.667,-1.732 L-2.62,-1.816 L-2.579,-1.9 L-2.546,-1.986 L-2.52,-2.073 L-2.501,-2.16 L-2.49,-2.247 L-2.486,-2.335 " />
			<path d="M-2.486,-2.335 L-2.487,-2.366 " />
			<path d="M-7.319,-1.335 L-7.417,-1.395 L-7.509,-1.458 L-7.594,-1.524 L-7.672,-1.593 " />
			<path d="M-3.5,-1.593 L-3.576,-1.527 L-3.658,-1.463 L-3.746,-1.401 L-3.84,-1.343 L-3.94,-1.288 L-4.045,-1.236 L-4.154,-1.187 L-4.269,-1.143 L-4.387,-1.102 L-4.509,-1.065 L-4.635,-1.032 L-4.764,-1.003 L-4.895,-0.978 L-5.029,-0.958 L-5.164,-0.942 L-5.301,-0.93 L-5.438,-0.923 L-5.576,-0.921 L-5.715,-0.923 L-5.852,-0.929 L-5.989,-0.94 L-6.125,-0.955 L-6.258,-0.975 L-6.39,-0.999 L-6.519,-1.027 L-6.645,-1.06 L-6.768,-1.096 L-6.887,-1.137 L-7.002,-1.181 L-7.113,-1.229 L-7.218,-1.28 L-7.319,-1.335 " />
			<path d="M-2.267,2.132 L-2.371,2.238 L-2.488,2.351 " />
			<path d="M-2.488,2.351 L-2.486,2.459 " />
			<path d="M-2.486,2.459 L-2.489,2.583 L-2.497,2.707 L-2.511,2.83 L-2.531,2.953 L-2.558,3.075 L-2.59,3.196 L-2.63,3.315 L-2.676,3.432 L-2.702,3.489 L-2.73,3.546 L-2.76,3.602 L-2.792,3.657 L-2.826,3.712 L-2.862,3.765 L-2.9,3.817 L-2.94,3.867 L-2.982,3.916 L-3.026,3.963 L-3.071,4.009 L-3.119,4.053 L-3.169,4.095 L-3.221,4.134 L-3.275,4.172 L-3.331,4.208 " />
			<path d="M-2.488,2.351 L-2.486,2.417 " />
			<path d="M-2.486,2.417 L-2.49,2.505 L-2.501,2.592 L-2.52,2.679 L-2.546,2.766 L-2.579,2.852 L-2.62,2.936 L-2.667,3.02 L-2.722,3.102 L-2.784,3.182 L-2.852,3.261 L-2.927,3.337 L-3.009,3.411 L-3.096,3.483 L-3.19,3.552 L-3.289,3.619 L-3.394,3.682 L-3.504,3.743 L-3.62,3.8 L-3.739,3.854 L-3.864,3.905 L-3.992,3.952 L-4.125,3.995 L-4.261,4.035 L-4.4,4.07 L-4.542,4.102 L-4.686,4.13 L-4.833,4.153 L-4.981,4.172 L-5.131,4.187 L-5.282,4.198 L-5.434,4.204 L-5.586,4.207 L-5.738,4.204 L-5.89,4.198 L-6.041,4.187 L-6.191,4.172 L-6.339,4.153 L-6.486,4.13 L-6.631,4.102 L-6.772,4.07 L-6.912,4.035 L-7.047,3.995 L-7.18,3.952 L-7.308,3.905 L-7.433,3.854 L-7.553,3.8 L-7.668,3.743 L-7.778,3.682 L-7.883,3.619 L-7.982,3.552 L-8.076,3.483 L-8.164,3.411 L-8.245,3.337 L-8.32,3.261 L-8.389,3.182 L-8.45,3.102 L-8.505,3.02 L-8.553,2.936 L-8.593,2.852 L-8.627,2.766 L-8.653,2.679 L-8.671,2.592 L-8.682,2.505 L-8.686,2.417 " />
			<path d="M-8.686,2.417 L-8.682,2.327 L-8.671,2.237 L-8.651,2.148 L-8.624,2.06 L-8.589,1.972 L-8.546,1.886 L-8.496,1.8 L-8.439,1.717 L-8.375,1.635 L-8.303,1.555 L-8.225,1.477 L-8.14,1.402 L-8.048,1.329 L-7.951,1.259 L-7.847,1.192 L-7.738,1.128 L-7.623,1.068 L-7.503,1.01 L-7.378,0.956 L-7.249,0.906 L-7.116,0.86 L-6.978,0.818 L-6.837,0.779 L-6.693,0.745 L-6.547,0.715 L-6.397,0.689 L-6.246,0.668 L-6.093,0.651 L-5.939,0.639 L-5.784,0.631 L-5.628,0.627 L-5.473,0.628 " />
			<path d="M-5.092,0.5 L-5.253,0.553 L-5.424,0.611 " />
			<path d="M-5.424,0.611 L-5.473,0.628 " />
			<path d="M-7.319,3.417 L-7.401,3.367 L-7.48,3.314 L-7.554,3.259 L-7.623,3.203 L-7.688,3.144 L-7.747,3.084 L-7.801,3.022 L-7.85,2.958 L-7.893,2.893 L-7.931,2.827 L-7.963,2.761 L-7.989,2.693 L-8.01,2.624 L-8.024,2.555 L-8.033,2.486 L-8.036,2.417 " />
			<path d="M-8.036,2.417 L-8.033,2.347 L-8.024,2.278 L-8.01,2.209 L-7.989,2.141 L-7.963,2.073 L-7.931,2.006 L-7.893,1.94 L-7.85,1.876 L-7.801,1.812 L-7.747,1.75 L-7.688,1.69 L-7.623,1.631 L-7.554,1.574 L-7.48,1.519 L-7.401,1.467 L-7.319,1.417 L-7.231,1.369 L-7.14,1.323 L-7.046,1.281 L-6.947,1.241 L-6.846,1.204 L-6.741,1.169 L-6.634,1.138 L-6.524,1.11 L-6.412,1.085 L-6.297,1.063 L-6.181,1.045 L-6.064,1.03 L-5.946,1.018 L-5.826,1.009 L-5.706,1.004 L-5.586,1.002 L-5.466,1.004 L-5.346,1.009 L-5.227,1.018 L-5.108,1.03 L-4.991,1.045 L-4.875,1.063 L-4.761,1.085 L-4.649,1.11 L-4.539,1.138 L-4.431,1.169 L-4.327,1.204 L-4.225,1.241 L-4.127,1.281 L-4.032,1.323 L-3.941,1.369 L-3.854,1.417 L-3.771,1.467 L-3.692,1.519 L-3.618,1.574 L-3.549,1.631 L-3.485,1.69 L-3.425,1.75 L-3.371,1.812 L-3.323,1.876 L-3.279,1.94 L-3.242,2.006 L-3.21,2.073 L-3.183,2.141 L-3.163,2.209 L-3.148,2.278 L-3.139,2.347 L-3.136,2.417 " />
			<path d="M-3.136,2.417 L-3.138,2.469 L-3.143,2.521 L-3.151,2.573 L-3.163,2.624 L-3.178,2.676 L-3.196,2.727 L-3.217,2.777 L-3.242,2.827 L-3.269,2.877 L-3.3,2.926 L-3.334,2.974 L-3.371,3.022 L-3.411,3.068 L-3.454,3.114 L-3.5,3.159 L-3.549,3.203 L-3.601,3.245 L-3.655,3.287 L-3.711,3.328 L-3.771,3.367 L-3.833,3.405 L-3.897,3.441 L-3.963,3.476 L-4.032,3.51 L-4.103,3.543 L-4.175,3.573 L-4.25,3.603 L-4.327,3.63 L-4.405,3.656 L-4.485,3.68 L-4.566,3.703 L-4.649,3.724 L-4.818,3.76 L-4.991,3.789 L-5.167,3.811 L-5.346,3.825 L-5.526,3.831 L-5.706,3.83 L-5.886,3.821 L-6.064,3.804 L-6.24,3.78 L-6.412,3.749 L-6.496,3.73 L-6.579,3.71 L-6.661,3.688 L-6.741,3.664 L-6.82,3.639 L-6.897,3.612 L-6.972,3.583 L-7.046,3.553 L-7.117,3.521 L-7.186,3.488 L-7.254,3.453 L-7.319,3.417 " />
			<path d="M-7.713,1.678 L-7.45,1.537 L-7.171,1.392 L-6.884,1.247 L-6.596,1.106 L-6.31,0.972 L-6.027,0.847 L-5.887,0.788 L-5.748,0.732 L-5.61,0.678 L-5.473,0.628 " />
			<path d="M-15.981,3.103 L-15.979,3.009 L-15.975,2.913 L-15.967,2.816 L-15.957,2.718 L-15.944,2.618 L-15.927,2.517 L-15.908,2.416 L-15.886,2.313 L-15.861,2.21 L-15.834,2.107 L-15.803,2.003 L-15.77,1.899 L-15.734,1.795 L-15.696,1.691 L-15.655,1.587 L-15.611,1.483 L-15.565,1.38 L-15.517,1.278 L-15.466,1.176 L-15.413,1.075 L-15.357,0.975 L-15.3,0.877 L-15.241,0.779 L-15.179,0.683 L-15.116,0.589 L-15.051,0.496 L-14.984,0.406 L-14.916,0.317 L-14.846,0.23 L-14.774,0.145 L-14.701,0.063 L-14.627,-0.017 L-14.552,-0.094 L-14.476,-0.169 L-14.399,-0.241 L-14.321,-0.311 L-14.243,-0.377 L-14.163,-0.44 L-14.084,-0.501 L-14.003,-0.558 L-13.923,-0.612 L-13.842,-0.662 L-13.762,-0.709 L-13.681,-0.753 L-13.601,-0.793 L-13.52,-0.83 L-13.44,-0.863 L-13.361,-0.892 L-13.282,-0.918 L-13.204,-0.94 L-13.127,-0.958 L-13.05,-0.972 L-12.975,-0.983 L-12.9,-0.99 L-12.827,-0.993 L-12.755,-0.992 L-12.685,-0.987 L-12.616,-0.978 L-12.548,-0.966 L-12.483,-0.95 L-12.419,-0.93 L-12.357,-0.906 L-12.297,-0.879 L-12.239,-0.848 " />
			<path d="M-12.239,-0.848 L-12.164,-0.8 L-12.094,-0.747 L-12.028,-0.687 L-11.966,-0.621 L-11.908,-0.55 L-11.855,-0.472 L-11.807,-0.389 L-11.763,-0.301 L-11.725,-0.207 L-11.691,-0.109 L-11.662,-0.006 L-11.639,0.102 L-11.62,0.214 L-11.607,0.33 L-11.599,0.449 L-11.597,0.572 " />
			<path d="M-11.597,0.572 L-11.599,0.697 L-11.607,0.826 L-11.62,0.957 L-11.639,1.09 L-11.662,1.224 L-11.691,1.361 L-11.725,1.498 L-11.763,1.637 L-11.807,1.775 L-11.855,1.914 L-11.908,2.053 L-11.966,2.191 L-12.028,2.328 L-12.094,2.465 L-12.164,2.599 L-12.239,2.732 L-12.317,2.863 L-12.398,2.991 L-12.483,3.116 L-12.571,3.239 L-12.662,3.358 L-12.755,3.473 L-12.851,3.584 L-12.95,3.691 L-13.05,3.794 L-13.152,3.892 L-13.256,3.985 L-13.361,4.073 L-13.467,4.155 L-13.574,4.232 L-13.681,4.303 L-13.789,4.368 " />
			<path d="M-13.789,4.368 L-13.896,4.427 L-14.003,4.48 L-14.11,4.527 L-14.216,4.567 L-14.321,4.6 L-14.425,4.627 L-14.527,4.647 L-14.627,4.66 L-14.726,4.666 L-14.822,4.666 L-14.916,4.659 L-15.006,4.645 L-15.094,4.624 L-15.179,4.597 L-15.261,4.562 L-15.339,4.522 " />
			<path d="M-15.339,4.522 L-15.413,4.475 L-15.483,4.421 L-15.549,4.361 L-15.611,4.296 L-15.669,4.224 L-15.722,4.146 L-15.77,4.063 L-15.814,3.975 L-15.852,3.881 L-15.886,3.783 L-15.915,3.68 L-15.938,3.572 L-15.957,3.46 L-15.97,3.345 L-15.978,3.225 L-15.981,3.103 " />
			<path d="M-27.294,9.635 L-27.293,9.541 L-27.288,9.445 L-27.281,9.348 L-27.271,9.25 L-27.257,9.15 L-27.241,9.049 L-27.222,8.948 L-27.2,8.845 L-27.175,8.742 L-27.147,8.639 L-27.117,8.535 L-27.084,8.431 L-27.048,8.327 L-27.01,8.223 L-26.968,8.119 L-26.925,8.015 L-26.879,7.912 L-26.83,7.81 L-26.78,7.708 L-26.726,7.607 L-26.671,7.507 L-26.614,7.409 L-26.554,7.311 L-26.493,7.215 L-26.43,7.121 L-26.364,7.028 L-26.298,6.938 L-26.229,6.849 L-26.159,6.762 L-26.088,6.677 L-26.015,6.595 L-25.941,6.515 L-25.866,6.438 L-25.79,6.363 L-25.713,6.291 L-25.635,6.221 L-25.556,6.155 L-25.477,6.092 L-25.397,6.031 L-25.317,5.974 L-25.237,5.92 L-25.156,5.87 L-25.075,5.823 L-24.995,5.779 L-24.914,5.739 L-24.834,5.702 L-24.754,5.669 L-24.675,5.64 L-24.596,5.614 L-24.518,5.592 L-24.44,5.574 L-24.364,5.56 L-24.288,5.549 L-24.214,5.542 L-24.141,5.539 L-24.069,5.54 L-23.999,5.545 L-23.93,5.554 L-23.862,5.566 L-23.796,5.582 L-23.733,5.602 L-23.671,5.626 L-23.61,5.653 L-23.552,5.684 " />
			<path d="M-23.552,5.684 L-23.478,5.732 L-23.408,5.785 L-23.342,5.845 L-23.28,5.911 L-23.222,5.982 L-23.169,6.06 L-23.121,6.143 L-23.077,6.231 L-23.038,6.325 L-23.005,6.423 L-22.976,6.526 L-22.952,6.634 L-22.934,6.746 L-22.921,6.862 L-22.913,6.981 L-22.91,7.104 " />
			<path d="M-22.91,7.104 L-22.913,7.229 L-22.921,7.358 L-22.934,7.489 L-22.952,7.622 L-22.976,7.756 L-23.005,7.893 L-23.038,8.03 L-23.077,8.168 L-23.121,8.307 L-23.169,8.446 L-23.222,8.585 L-23.28,8.723 L-23.342,8.86 L-23.408,8.997 L-23.478,9.131 L-23.552,9.264 L-23.63,9.395 L-23.712,9.523 L-23.796,9.648 L-23.884,9.771 L-23.975,9.889 L-24.069,10.005 L-24.165,10.116 L-24.263,10.223 L-24.364,10.326 L-24.466,10.424 L-24.57,10.517 L-24.675,10.605 L-24.781,10.687 L-24.887,10.764 L-24.995,10.835 L-25.102,10.9 " />
			<path d="M-25.102,10.9 L-25.21,10.959 L-25.317,11.012 L-25.424,11.059 L-25.53,11.098 L-25.635,11.132 L-25.739,11.159 L-25.841,11.179 L-25.941,11.192 L-26.04,11.198 L-26.136,11.198 L-26.229,11.191 L-26.32,11.177 L-26.408,11.156 L-26.493,11.129 L-26.574,11.094 L-26.652,11.054 " />
			<path d="M-26.652,11.054 L-26.726,11.007 L-26.797,10.953 L-26.863,10.893 L-26.925,10.828 L-26.982,10.756 L-27.035,10.678 L-27.084,10.595 L-27.127,10.507 L-27.166,10.413 L-27.2,10.315 L-27.229,10.212 L-27.252,10.104 L-27.271,9.992 L-27.284,9.877 L-27.292,9.757 L-27.294,9.635 " />
			<path d="M-19.092,10.214 L-19.01,10.26 L-18.925,10.304 L-18.837,10.346 L-18.747,10.386 L-18.654,10.425 L-18.558,10.461 L-18.461,10.495 L-18.361,10.527 L-18.26,10.557 L-18.156,10.585 L-18.051,10.611 L-17.944,10.634 L-17.836,10.655 L-17.727,10.674 L-17.616,10.69 L-17.505,10.704 L-17.392,10.716 L-17.279,10.725 L-17.166,10.732 L-17.052,10.736 L-16.938,10.738 L-16.824,10.738 L-16.71,10.735 L-16.596,10.73 L-16.483,10.722 L-16.37,10.712 L-16.258,10.7 L-16.147,10.685 L-16.036,10.668 L-15.927,10.648 L-15.82,10.626 L-15.714,10.602 L-15.609,10.576 L-15.506,10.547 L-15.405,10.517 L-15.306,10.484 L-15.209,10.449 L-15.115,10.412 L-15.023,10.373 L-14.933,10.332 L-14.846,10.29 L-14.762,10.245 L-14.681,10.199 L-14.603,10.151 L-14.528,10.101 L-14.456,10.05 L-14.387,9.997 L-14.322,9.943 L-14.261,9.888 L-14.203,9.831 L-14.148,9.773 L-14.097,9.714 L-14.051,9.654 L-14.008,9.593 L-13.968,9.531 L-13.933,9.468 L-13.902,9.405 L-13.875,9.341 L-13.852,9.276 L-13.833,9.211 L-13.819,9.146 L-13.808,9.08 L-13.802,9.015 L-13.8,8.949 " />
			<path d="M-13.8,8.949 L-13.804,8.861 L-13.815,8.773 L-13.833,8.686 L-13.859,8.6 L-13.893,8.514 L-13.933,8.429 L-13.981,8.346 L-14.036,8.264 L-14.097,8.184 L-14.166,8.105 L-14.241,8.029 L-14.322,7.954 L-14.41,7.883 L-14.504,7.813 L-14.603,7.747 L-14.708,7.683 L-14.818,7.623 L-14.933,7.565 L-15.053,7.511 L-15.178,7.461 L-15.306,7.414 L-15.439,7.37 L-15.574,7.331 L-15.714,7.295 L-15.855,7.264 L-16,7.236 L-16.147,7.213 L-16.295,7.193 L-16.445,7.178 L-16.596,7.168 L-16.748,7.161 L-16.9,7.159 L-17.052,7.161 L-17.204,7.168 L-17.355,7.178 L-17.505,7.193 L-17.653,7.213 L-17.8,7.236 L-17.944,7.264 L-18.086,7.295 L-18.225,7.331 L-18.361,7.37 L-18.494,7.414 L-18.622,7.461 L-18.747,7.511 L-18.866,7.565 L-18.982,7.623 L-19.092,7.683 L-19.197,7.747 L-19.296,7.813 L-19.39,7.883 L-19.477,7.954 L-19.559,8.029 L-19.634,8.105 L-19.702,8.184 L-19.764,8.264 L-19.819,8.346 L-19.866,8.429 L-19.907,8.514 L-19.94,8.6 L-19.966,8.686 L-19.985,8.773 L-19.996,8.861 L-20,8.949 " />
			<path d="M-20,8.949 L-19.996,9.037 L-19.985,9.124 L-19.966,9.211 L-19.94,9.298 L-19.907,9.384 L-19.866,9.468 L-19.819,9.552 L-19.764,9.634 L-19.702,9.714 L-19.634,9.793 L-19.559,9.869 L-19.477,9.943 L-19.39,10.015 L-19.296,10.084 L-19.197,10.151 L-19.092,10.214 " />
			<path d="M-25.924,11.372 L-26.022,11.431 " />
			<path d="M-26.022,11.431 L-26.087,11.468 " />
			<path d="M-7.879,-1.694 L-7.778,-1.633 " />
			<path d="M-7.778,-1.633 L-7.668,-1.572 L-7.553,-1.515 L-7.433,-1.461 L-7.308,-1.41 L-7.18,-1.363 L-7.047,-1.32 L-6.912,-1.281 L-6.772,-1.245 L-6.631,-1.213 L-6.486,-1.186 L-6.339,-1.162 L-6.191,-1.143 L-6.041,-1.128 L-5.89,-1.117 L-5.738,-1.111 L-5.586,-1.109 L-5.434,-1.111 L-5.282,-1.117 L-5.131,-1.128 L-4.981,-1.143 L-4.833,-1.162 L-4.686,-1.186 L-4.542,-1.213 L-4.4,-1.245 L-4.261,-1.281 L-4.125,-1.32 L-3.992,-1.363 L-3.864,-1.41 L-3.739,-1.461 L-3.62,-1.515 L-3.504,-1.572 L-3.394,-1.633 " />
			<path d="M-3.394,-1.633 L-3.331,-1.671 " />
			<path d="M-19.304,4.777 L-19.092,4.899 " />
			<path d="M-19.092,4.899 L-19.193,4.838 " />
			<path d="M-14.607,4.838 L-14.708,4.899 " />
			<path d="M-14.708,4.899 L-14.818,4.96 L-14.933,5.017 L-15.053,5.071 L-15.178,5.122 L-15.306,5.169 L-15.439,5.212 L-15.574,5.251 L-15.714,5.287 L-15.855,5.319 L-16,5.346 L-16.147,5.37 L-16.295,5.389 L-16.445,5.404 L-16.596,5.415 L-16.748,5.421 L-16.9,5.423 L-17.052,5.421 L-17.204,5.415 L-17.355,5.404 L-17.505,5.389 L-17.653,5.37 L-17.8,5.346 L-17.944,5.319 L-18.086,5.287 L-18.225,5.251 L-18.361,5.212 L-18.494,5.169 L-18.622,5.122 L-18.747,5.071 L-18.866,5.017 L-18.982,4.96 L-19.092,4.899 " />
			<path d="M-11.377,5.76 L-11.375,5.883 L-11.367,6.002 L-11.354,6.118 L-11.335,6.23 L-11.312,6.337 L-11.283,6.441 L-11.249,6.539 L-11.21,6.633 L-11.167,6.721 L-11.119,6.804 L-11.065,6.882 L-11.008,6.953 L-10.946,7.019 L-10.88,7.079 L-10.81,7.132 L-10.735,7.179 " />
			<path d="M-10.735,7.179 L-10.673,7.213 L-10.608,7.242 L-10.541,7.266 L-10.472,7.287 " />
			<path d="M-7.411,1.984 L-7.463,1.935 L-7.518,1.889 L-7.575,1.848 L-7.635,1.81 " />
			<path d="M-7.635,1.81 L-7.693,1.779 L-7.754,1.752 L-7.816,1.728 L-7.88,1.708 L-7.945,1.692 L-8.013,1.679 L-8.082,1.671 L-8.152,1.666 L-8.224,1.665 L-8.297,1.668 L-8.371,1.675 L-8.447,1.685 L-8.523,1.7 L-8.601,1.718 L-8.679,1.74 L-8.758,1.765 L-8.837,1.795 L-8.917,1.828 L-8.997,1.864 L-9.078,1.905 L-9.158,1.948 L-9.239,1.995 L-9.32,2.046 L-9.4,2.1 L-9.48,2.157 L-9.56,2.217 L-9.639,2.281 L-9.718,2.347 L-9.796,2.416 L-9.873,2.488 L-9.949,2.563 L-10.024,2.641 L-10.098,2.721 L-10.171,2.803 L-10.242,2.888 L-10.312,2.974 L-10.381,3.063 L-10.448,3.154 L-10.513,3.247 L-10.576,3.341 L-10.637,3.437 L-10.697,3.534 L-10.754,3.633 L-10.81,3.733 L-10.863,3.834 L-10.913,3.935 L-10.962,4.038 L-11.008,4.141 L-11.052,4.244 L-11.093,4.348 L-11.131,4.452 L-11.167,4.557 L-11.2,4.661 L-11.23,4.765 L-11.258,4.868 L-11.283,4.971 L-11.305,5.073 L-11.324,5.175 L-11.34,5.276 L-11.354,5.375 L-11.364,5.474 L-11.371,5.571 L-11.376,5.666 L-11.377,5.76 " />
			<path d="M-22.691,12.292 L-22.688,12.415 L-22.681,12.534 L-22.667,12.65 L-22.649,12.762 L-22.625,12.869 L-22.597,12.973 L-22.563,13.071 L-22.524,13.165 L-22.481,13.253 L-22.432,13.336 L-22.379,13.414 L-22.322,13.485 L-22.26,13.551 L-22.193,13.611 L-22.123,13.664 L-22.049,13.711 " />
			<path d="M-22.049,13.711 L-21.987,13.745 L-21.922,13.774 L-21.855,13.798 L-21.786,13.819 " />
			<path d="M-18.724,8.516 L-18.777,8.467 L-18.832,8.421 L-18.889,8.38 L-18.949,8.342 " />
			<path d="M-18.949,8.342 L-19.007,8.311 L-19.067,8.284 L-19.129,8.26 L-19.193,8.24 L-19.259,8.224 L-19.326,8.211 L-19.395,8.203 L-19.466,8.198 L-19.538,8.197 L-19.611,8.2 L-19.685,8.207 L-19.761,8.217 L-19.837,8.232 L-19.914,8.25 L-19.993,8.272 L-20.071,8.297 L-20.151,8.327 L-20.231,8.36 L-20.311,8.396 L-20.391,8.437 L-20.472,8.48 L-20.553,8.527 L-20.633,8.578 L-20.714,8.632 L-20.794,8.689 L-20.874,8.749 L-20.953,8.813 L-21.032,8.879 L-21.11,8.948 L-21.187,9.02 L-21.263,9.095 L-21.338,9.173 L-21.412,9.253 L-21.485,9.335 L-21.556,9.42 L-21.626,9.506 L-21.694,9.595 L-21.761,9.686 L-21.826,9.779 L-21.89,9.873 L-21.951,9.969 L-22.011,10.066 L-22.068,10.165 L-22.123,10.265 L-22.176,10.366 L-22.227,10.467 L-22.276,10.57 L-22.322,10.673 L-22.365,10.776 L-22.406,10.88 L-22.445,10.984 L-22.481,11.089 L-22.514,11.193 L-22.544,11.297 L-22.572,11.4 L-22.597,11.503 L-22.619,11.605 L-22.638,11.707 L-22.654,11.808 L-22.667,11.907 L-22.678,12.006 L-22.685,12.103 L-22.69,12.198 L-22.691,12.292 " />
			<path d="M-15.493,3.384 L-15.49,3.507 L-15.482,3.626 L-15.469,3.742 L-15.451,3.854 L-15.427,3.961 L-15.398,4.065 L-15.365,4.163 L-15.326,4.257 L-15.282,4.345 L-15.234,4.428 L-15.181,4.506 L-15.123,4.577 L-15.061,4.643 L-14.995,4.703 L-14.925,4.756 L-14.851,4.803 " />
			<path d="M-14.851,4.803 L-14.773,4.844 L-14.691,4.878 L-14.606,4.906 L-14.519,4.926 L-14.428,4.94 L-14.334,4.948 L-14.238,4.948 L-14.14,4.942 L-14.039,4.928 L-13.937,4.908 L-13.833,4.882 L-13.728,4.848 L-13.622,4.808 L-13.516,4.762 L-13.408,4.709 L-13.301,4.65 L-13.193,4.585 L-13.086,4.514 L-12.979,4.437 L-12.873,4.354 L-12.768,4.267 L-12.664,4.174 L-12.562,4.076 L-12.462,3.973 L-12.363,3.866 L-12.267,3.754 L-12.174,3.639 L-12.083,3.52 L-11.995,3.398 L-11.91,3.273 L-11.829,3.144 L-11.751,3.014 L-11.676,2.881 L-11.606,2.746 L-11.54,2.61 L-11.478,2.473 L-11.421,2.335 L-11.367,2.196 L-11.319,2.057 L-11.276,1.918 L-11.237,1.78 L-11.203,1.642 L-11.174,1.506 L-11.151,1.371 L-11.132,1.238 L-11.119,1.107 L-11.111,0.979 L-11.109,0.853 L-11.111,0.731 L-11.119,0.611 L-11.132,0.496 L-11.151,0.384 L-11.174,0.276 L-11.203,0.173 L-11.237,0.075 L-11.276,-0.019 L-11.319,-0.107 L-11.367,-0.19 L-11.421,-0.268 L-11.478,-0.34 L-11.54,-0.406 L-11.606,-0.465 L-11.676,-0.519 L-11.751,-0.566 " />
			<path d="M-11.751,-0.566 L-11.809,-0.597 L-11.869,-0.624 L-11.931,-0.648 L-11.995,-0.668 L-12.061,-0.684 L-12.128,-0.697 L-12.197,-0.705 L-12.267,-0.71 L-12.339,-0.711 L-12.412,-0.708 L-12.487,-0.701 L-12.562,-0.691 L-12.639,-0.676 L-12.716,-0.658 L-12.794,-0.636 L-12.873,-0.611 L-12.952,-0.581 L-13.032,-0.548 L-13.113,-0.512 L-13.193,-0.471 L-13.274,-0.428 L-13.354,-0.381 L-13.435,-0.33 L-13.516,-0.276 L-13.596,-0.219 L-13.675,-0.159 L-13.755,-0.095 L-13.833,-0.029 L-13.911,0.04 L-13.988,0.112 L-14.064,0.187 L-14.14,0.265 L-14.214,0.345 L-14.286,0.427 L-14.358,0.512 L-14.428,0.598 L-14.496,0.687 L-14.563,0.778 L-14.628,0.871 L-14.691,0.965 L-14.753,1.061 L-14.812,1.158 L-14.87,1.257 L-14.925,1.357 L-14.978,1.458 L-15.029,1.559 L-15.077,1.662 L-15.123,1.765 L-15.167,1.868 L-15.208,1.972 L-15.246,2.076 L-15.282,2.181 L-15.315,2.285 L-15.346,2.389 L-15.373,2.492 L-15.398,2.595 L-15.42,2.697 L-15.439,2.799 L-15.456,2.9 L-15.469,2.999 L-15.479,3.098 L-15.487,3.195 L-15.491,3.29 L-15.493,3.384 " />
			<path d="M-26.806,9.916 L-26.804,10.039 L-26.796,10.158 L-26.783,10.274 L-26.764,10.386 L-26.741,10.493 L-26.712,10.597 L-26.678,10.695 L-26.64,10.789 L-26.596,10.877 L-26.548,10.96 L-26.495,11.038 L-26.437,11.109 L-26.375,11.175 L-26.309,11.235 L-26.239,11.288 L-26.164,11.335 " />
			<path d="M-26.164,11.335 L-26.086,11.376 L-26.005,11.41 L-25.92,11.438 L-25.832,11.458 L-25.741,11.472 L-25.648,11.48 L-25.552,11.48 L-25.453,11.474 L-25.353,11.46 L-25.251,11.44 L-25.147,11.414 L-25.042,11.38 L-24.936,11.34 L-24.829,11.294 L-24.722,11.241 L-24.614,11.182 L-24.507,11.117 L-24.4,11.046 L-24.293,10.969 L-24.187,10.886 L-24.082,10.799 L-23.978,10.706 L-23.876,10.608 L-23.776,10.505 L-23.677,10.398 L-23.581,10.286 L-23.487,10.171 L-23.397,10.052 L-23.309,9.93 L-23.224,9.805 L-23.142,9.676 L-23.064,9.546 L-22.99,9.413 L-22.92,9.278 L-22.854,9.142 L-22.792,9.005 L-22.734,8.867 L-22.681,8.728 L-22.633,8.589 L-22.589,8.45 L-22.55,8.312 L-22.517,8.174 L-22.488,8.038 L-22.464,7.903 L-22.446,7.77 L-22.433,7.639 L-22.425,7.511 L-22.422,7.385 L-22.425,7.263 L-22.433,7.143 L-22.446,7.028 L-22.464,6.916 L-22.488,6.808 L-22.517,6.705 L-22.55,6.606 L-22.589,6.513 L-22.633,6.425 L-22.681,6.341 L-22.734,6.264 L-22.792,6.192 L-22.854,6.126 L-22.92,6.067 L-22.99,6.013 L-23.064,5.966 " />
			<path d="M-23.064,5.966 L-23.122,5.935 L-23.183,5.908 L-23.245,5.884 L-23.309,5.864 L-23.374,5.848 L-23.442,5.835 L-23.511,5.827 L-23.581,5.822 L-23.653,5.821 L-23.726,5.824 L-23.8,5.831 L-23.876,5.841 L-23.952,5.856 L-24.03,5.874 L-24.108,5.896 L-24.187,5.921 L-24.266,5.951 L-24.346,5.984 L-24.426,6.02 L-24.507,6.061 L-24.587,6.104 L-24.668,6.151 L-24.749,6.202 L-24.829,6.256 L-24.909,6.313 L-24.989,6.373 L-25.068,6.437 L-25.147,6.503 L-25.225,6.572 L-25.302,6.644 L-25.378,6.719 L-25.453,6.797 L-25.527,6.877 L-25.6,6.959 L-25.671,7.044 L-25.741,7.13 L-25.81,7.219 L-25.877,7.31 L-25.942,7.403 L-26.005,7.497 L-26.066,7.593 L-26.126,7.69 L-26.183,7.789 L-26.239,7.889 L-26.292,7.99 L-26.342,8.091 L-26.391,8.194 L-26.437,8.297 L-26.481,8.4 L-26.522,8.504 L-26.56,8.608 L-26.596,8.713 L-26.629,8.817 L-26.66,8.921 L-26.687,9.024 L-26.712,9.127 L-26.734,9.229 L-26.753,9.331 L-26.769,9.432 L-26.783,9.531 L-26.793,9.63 L-26.8,9.727 L-26.805,9.822 L-26.806,9.916 " />
			<path d="M-18.632,9.949 L-18.715,9.899 L-18.794,9.846 L-18.868,9.791 L-18.937,9.735 L-19.001,9.676 L-19.061,9.616 L-19.115,9.554 L-19.163,9.49 L-19.207,9.425 L-19.244,9.359 L-19.276,9.292 L-19.303,9.225 L-19.323,9.156 L-19.338,9.087 L-19.347,9.018 L-19.35,8.949 " />
			<path d="M-19.35,8.949 L-19.347,8.879 L-19.338,8.81 L-19.323,8.741 L-19.303,8.673 L-19.276,8.605 L-19.244,8.538 L-19.207,8.472 L-19.163,8.407 L-19.115,8.344 L-19.061,8.282 L-19.001,8.222 L-18.937,8.163 L-18.868,8.106 L-18.794,8.051 L-18.715,7.999 L-18.632,7.949 L-18.545,7.901 L-18.454,7.855 L-18.359,7.813 L-18.261,7.773 L-18.159,7.736 L-18.055,7.701 L-17.947,7.67 L-17.837,7.642 L-17.725,7.617 L-17.611,7.595 L-17.495,7.577 L-17.378,7.561 L-17.259,7.55 L-17.14,7.541 L-17.02,7.536 L-16.9,7.534 L-16.78,7.536 L-16.66,7.541 L-16.54,7.55 L-16.422,7.561 L-16.305,7.577 L-16.189,7.595 L-16.074,7.617 L-15.962,7.642 L-15.852,7.67 L-15.745,7.701 L-15.64,7.736 L-15.539,7.773 L-15.44,7.813 L-15.346,7.855 L-15.255,7.901 L-15.167,7.949 L-15.085,7.999 L-15.006,8.051 L-14.932,8.106 L-14.863,8.163 L-14.798,8.222 L-14.739,8.282 L-14.685,8.344 L-14.636,8.407 L-14.593,8.472 L-14.555,8.538 L-14.523,8.605 L-14.497,8.673 L-14.476,8.741 L-14.462,8.81 L-14.453,8.879 L-14.45,8.949 " />
			<path d="M-14.45,8.949 L-14.452,9.001 L-14.456,9.053 L-14.465,9.105 L-14.476,9.156 L-14.491,9.208 L-14.509,9.259 L-14.531,9.309 L-14.555,9.359 L-14.583,9.409 L-14.614,9.458 L-14.648,9.506 L-14.685,9.554 L-14.725,9.6 L-14.768,9.646 L-14.814,9.691 L-14.863,9.735 L-14.914,9.777 L-14.968,9.819 L-15.025,9.86 L-15.085,9.899 L-15.146,9.937 L-15.21,9.973 L-15.277,10.008 L-15.346,10.042 L-15.416,10.075 L-15.489,10.105 L-15.564,10.134 L-15.64,10.162 L-15.719,10.188 L-15.798,10.212 L-15.88,10.235 L-15.962,10.256 L-16.131,10.292 L-16.305,10.321 L-16.481,10.342 L-16.66,10.356 L-16.84,10.363 L-17.02,10.362 L-17.2,10.353 L-17.378,10.336 L-17.553,10.312 L-17.725,10.281 L-17.81,10.262 L-17.893,10.242 L-17.974,10.22 L-18.055,10.196 L-18.134,10.171 L-18.211,10.144 L-18.286,10.115 L-18.359,10.085 L-18.431,10.053 L-18.5,10.02 L-18.567,9.985 L-18.632,9.949 " />
			<path d="M-19.092,5.462 L-19.01,5.508 L-18.925,5.552 L-18.837,5.594 L-18.747,5.634 L-18.654,5.673 L-18.558,5.709 L-18.461,5.743 L-18.361,5.775 L-18.26,5.805 L-18.156,5.833 L-18.051,5.859 L-17.944,5.882 L-17.836,5.903 L-17.727,5.922 L-17.616,5.938 L-17.505,5.952 L-17.392,5.964 L-17.279,5.973 L-17.166,5.98 L-17.052,5.984 L-16.938,5.986 L-16.824,5.986 L-16.71,5.983 L-16.596,5.978 L-16.483,5.97 L-16.37,5.96 L-16.258,5.948 L-16.147,5.933 L-16.036,5.916 L-15.927,5.896 L-15.82,5.874 L-15.714,5.85 L-15.609,5.824 L-15.506,5.795 L-15.405,5.765 L-15.306,5.732 L-15.209,5.697 L-15.115,5.66 L-15.023,5.621 L-14.933,5.58 L-14.846,5.538 L-14.762,5.493 L-14.681,5.447 L-14.603,5.399 L-14.528,5.349 L-14.456,5.298 L-14.387,5.245 L-14.322,5.191 L-14.261,5.136 L-14.203,5.079 L-14.148,5.021 L-14.097,4.962 L-14.051,4.902 L-14.008,4.841 L-13.968,4.779 L-13.933,4.716 L-13.902,4.653 L-13.875,4.589 L-13.852,4.524 L-13.833,4.459 L-13.819,4.394 L-13.808,4.328 L-13.802,4.263 L-13.8,4.197 " />
			<path d="M-13.8,4.197 L-13.802,4.126 L-13.81,4.056 L-13.822,3.985 L-13.838,3.915 " />
			<path d="M-19.961,3.915 L-19.978,3.985 L-19.99,4.056 L-19.997,4.126 L-20,4.197 " />
			<path d="M-20,4.197 L-19.996,4.285 L-19.985,4.372 L-19.966,4.459 L-19.94,4.546 L-19.907,4.632 L-19.866,4.716 L-19.819,4.8 L-19.764,4.882 L-19.702,4.962 L-19.634,5.04 L-19.559,5.117 L-19.477,5.191 L-19.39,5.263 L-19.296,5.332 L-19.197,5.399 L-19.092,5.462 " />
			<path d="M-10.918,5.495 L-10.915,5.381 L-10.907,5.264 L-10.893,5.144 L-10.874,5.022 L-10.849,4.899 L-10.82,4.774 L-10.785,4.649 L-10.744,4.523 L-10.699,4.397 L-10.65,4.271 L-10.595,4.146 L-10.536,4.022 L-10.473,3.9 L-10.405,3.779 L-10.334,3.661 L-10.259,3.545 L-10.181,3.433 L-10.1,3.323 L-10.015,3.218 L-9.928,3.117 L-9.839,3.019 L-9.747,2.927 L-9.654,2.84 L-9.559,2.758 L-9.463,2.681 L-9.367,2.61 L-9.269,2.545 L-9.172,2.487 L-9.074,2.434 L-8.977,2.389 L-8.88,2.35 L-8.785,2.317 " />
			<path d="M-10.871,5.931 L-10.891,5.828 L-10.906,5.721 L-10.915,5.61 L-10.918,5.495 " />
			<path d="M-22.231,12.027 L-22.229,11.913 L-22.22,11.796 L-22.207,11.676 L-22.188,11.554 L-22.163,11.431 L-22.133,11.306 L-22.098,11.181 L-22.058,11.055 L-22.013,10.929 L-21.963,10.803 L-21.909,10.678 L-21.85,10.554 L-21.787,10.432 L-21.719,10.311 L-21.648,10.193 L-21.573,10.077 L-21.495,9.965 L-21.413,9.855 L-21.329,9.75 L-21.242,9.648 L-21.152,9.551 L-21.061,9.459 L-20.968,9.372 L-20.873,9.29 L-20.777,9.213 L-20.68,9.142 L-20.583,9.077 L-20.485,9.019 L-20.388,8.966 L-20.29,8.921 L-20.194,8.881 L-20.098,8.849 " />
			<path d="M-22.184,12.463 L-22.205,12.36 L-22.22,12.253 L-22.228,12.142 L-22.231,12.027 " />
			<path d="M-15.033,3.119 L-15.032,3.045 L-15.028,2.969 L-15.023,2.892 L-15.014,2.815 L-15.004,2.736 L-14.991,2.656 L-14.976,2.576 L-14.958,2.495 L-14.939,2.414 L-14.917,2.332 L-14.893,2.25 L-14.867,2.168 L-14.808,2.003 L-14.741,1.839 L-14.666,1.677 L-14.584,1.517 L-14.495,1.36 L-14.4,1.207 L-14.298,1.059 L-14.191,0.917 L-14.08,0.782 L-13.964,0.653 L-13.904,0.592 L-13.844,0.533 L-13.783,0.476 L-13.722,0.421 L-13.659,0.369 L-13.597,0.319 L-13.534,0.271 L-13.47,0.226 L-13.407,0.183 L-13.343,0.144 L-13.279,0.106 L-13.216,0.072 L-13.152,0.04 L-13.089,0.011 L-13.025,-0.015 L-12.963,-0.038 L-12.9,-0.059 L-12.839,-0.076 L-12.777,-0.09 L-12.717,-0.102 L-12.657,-0.11 L-12.599,-0.115 L-12.541,-0.118 L-12.484,-0.117 L-12.428,-0.113 L-12.374,-0.106 L-12.321,-0.097 L-12.269,-0.084 L-12.218,-0.068 L-12.169,-0.049 L-12.122,-0.028 L-12.076,-0.003 " />
			<path d="M-12.076,-0.003 L-12.017,0.034 L-11.962,0.077 L-11.909,0.124 L-11.86,0.176 L-11.815,0.232 L-11.773,0.294 L-11.735,0.359 L-11.7,0.429 L-11.67,0.503 L-11.643,0.581 L-11.62,0.663 L-11.602,0.748 L-11.587,0.836 L-11.577,0.927 L-11.57,1.022 L-11.568,1.119 L-11.57,1.218 L-11.577,1.319 L-11.587,1.423 L-11.602,1.528 L-11.62,1.635 L-11.643,1.742 L-11.67,1.851 L-11.7,1.96 L-11.735,2.07 L-11.773,2.18 L-11.815,2.289 L-11.86,2.399 L-11.909,2.507 L-11.962,2.615 L-12.017,2.721 L-12.076,2.826 L-12.137,2.929 L-12.202,3.031 L-12.269,3.13 L-12.338,3.226 L-12.41,3.32 L-12.484,3.412 L-12.56,3.5 L-12.638,3.584 L-12.717,3.665 L-12.798,3.743 L-12.88,3.816 L-12.963,3.886 L-13.046,3.951 L-13.131,4.012 L-13.216,4.068 L-13.301,4.119 L-13.386,4.166 L-13.47,4.208 L-13.555,4.244 L-13.639,4.276 L-13.722,4.302 L-13.804,4.323 L-13.884,4.339 L-13.964,4.35 L-14.041,4.355 L-14.117,4.355 L-14.191,4.349 L-14.263,4.338 L-14.333,4.321 L-14.4,4.3 L-14.464,4.273 L-14.526,4.241 " />
			<path d="M-14.526,4.241 L-14.584,4.203 L-14.64,4.161 L-14.692,4.114 L-14.741,4.062 L-14.787,4.005 L-14.829,3.944 L-14.867,3.878 L-14.901,3.808 L-14.932,3.734 L-14.958,3.657 L-14.981,3.575 L-15,3.49 L-15.014,3.402 L-15.025,3.31 L-15.031,3.216 L-15.033,3.119 " />
			<path d="M-26.347,9.651 L-26.346,9.577 L-26.342,9.501 L-26.336,9.424 L-26.328,9.347 L-26.318,9.268 L-26.305,9.188 L-26.29,9.108 L-26.272,9.027 L-26.253,8.946 L-26.231,8.864 L-26.207,8.782 L-26.18,8.7 L-26.122,8.535 L-26.055,8.371 L-25.98,8.209 L-25.898,8.048 L-25.809,7.892 L-25.713,7.739 L-25.612,7.591 L-25.505,7.449 L-25.393,7.314 L-25.277,7.185 L-25.218,7.124 L-25.158,7.065 L-25.097,7.008 L-25.035,6.953 L-24.973,6.901 L-24.911,6.851 L-24.848,6.803 L-24.784,6.758 L-24.721,6.715 L-24.657,6.676 L-24.593,6.638 L-24.529,6.604 L-24.466,6.572 L-24.402,6.543 L-24.339,6.517 L-24.276,6.494 L-24.214,6.473 L-24.152,6.456 L-24.091,6.442 L-24.031,6.43 L-23.971,6.422 L-23.912,6.417 L-23.855,6.414 L-23.798,6.415 L-23.742,6.419 L-23.688,6.426 L-23.634,6.435 L-23.582,6.448 L-23.532,6.464 L-23.483,6.483 L-23.435,6.504 L-23.389,6.529 " />
			<path d="M-23.389,6.529 L-23.331,6.566 L-23.275,6.609 L-23.223,6.656 L-23.174,6.708 L-23.128,6.764 L-23.087,6.826 L-23.048,6.891 L-23.014,6.961 L-22.983,7.035 L-22.957,7.113 L-22.934,7.194 L-22.915,7.28 L-22.901,7.368 L-22.89,7.459 L-22.884,7.554 L-22.882,7.651 L-22.884,7.75 L-22.89,7.851 L-22.901,7.955 L-22.915,8.06 L-22.934,8.167 L-22.957,8.274 L-22.983,8.383 L-23.014,8.492 L-23.048,8.602 L-23.087,8.712 L-23.128,8.821 L-23.174,8.931 L-23.223,9.039 L-23.275,9.147 L-23.331,9.253 L-23.389,9.358 L-23.451,9.461 L-23.515,9.563 L-23.582,9.662 L-23.652,9.758 L-23.724,9.852 L-23.798,9.943 L-23.874,10.031 L-23.951,10.116 L-24.031,10.197 L-24.111,10.275 L-24.193,10.348 L-24.276,10.418 L-24.36,10.483 L-24.445,10.544 L-24.529,10.6 L-24.614,10.651 L-24.699,10.698 L-24.784,10.74 L-24.869,10.776 L-24.952,10.808 L-25.035,10.834 L-25.117,10.855 L-25.198,10.871 L-25.277,10.882 L-25.355,10.887 L-25.431,10.886 L-25.505,10.881 L-25.577,10.87 L-25.646,10.853 L-25.713,10.832 L-25.778,10.805 L-25.839,10.773 " />
			<path d="M-25.839,10.773 L-25.898,10.735 L-25.954,10.693 L-26.006,10.646 L-26.055,10.594 L-26.1,10.537 L-26.142,10.476 L-26.18,10.41 L-26.215,10.34 L-26.246,10.266 L-26.272,10.189 L-26.295,10.107 L-26.314,10.022 L-26.328,9.934 L-26.338,9.842 L-26.345,9.748 L-26.347,9.651 " />
			<path d="M-18.632,5.197 L-18.73,5.137 L-18.822,5.074 L-18.908,5.007 L-18.986,4.939 " />
			<path d="M-14.814,4.939 L-14.889,5.005 L-14.971,5.069 L-15.06,5.131 L-15.154,5.189 L-15.253,5.244 L-15.358,5.296 L-15.468,5.345 L-15.582,5.389 L-15.701,5.43 L-15.823,5.467 L-15.949,5.5 L-16.078,5.529 L-16.209,5.554 L-16.343,5.574 L-16.478,5.59 L-16.615,5.602 L-16.752,5.609 L-16.89,5.611 L-17.028,5.609 L-17.166,5.603 L-17.303,5.592 L-17.438,5.577 L-17.572,5.557 L-17.704,5.533 L-17.833,5.505 L-17.959,5.472 L-18.082,5.436 L-18.201,5.395 L-18.316,5.351 L-18.426,5.303 L-18.532,5.252 L-18.632,5.197 " />
			<path d="M-30.406,14.779 L-30.618,14.901 " />
			<path d="M-26.022,14.779 L-25.809,14.901 " />
			<path d="M-7.778,1.715 L-7.99,1.837 " />
			<path d="M-19.092,8.247 L-19.304,8.369 " />
			<path d="M-14.708,8.247 L-14.496,8.369 " />
			<path d="M-28.461,12.564 L-28.376,12.534 " />
			<path d="M-31.314,15.523 L-31.314,15.481 " />
			<path d="M-25.114,16.044 L-25.114,15.481 " />
			<path d="M-8.697,2.245 L-8.485,2.123 " />
			<path d="M-20.011,8.777 L-19.799,8.655 " />
			<path d="M-5.339,0.581 L-5.424,0.611 " />
			<path d="M-11.597,0.572 L-11.597,0.327 " />
			<path d="M-13.789,4.368 L-14.001,4.491 " />
			<path d="M-22.91,7.104 L-22.91,6.859 " />
			<path d="M-25.102,10.9 L-25.314,11.023 " />
			<path d="M-8.686,2.98 L-8.686,2.417 " />
			<path d="M-2.486,2.459 L-2.486,2.417 " />
			<path d="M-20,9.512 L-20,8.949 " />
			<path d="M-13.8,9.512 L-13.8,8.949 " />
			<path d="M-30.664,15.481 L-30.664,10.729 " />
			<path d="M-25.764,15.481 L-25.764,10.729 " />
			<path d="M-26.022,11.431 L-25.809,11.308 " />
			<path d="M-3.394,-1.633 L-3.182,-1.755 " />
			<path d="M-7.778,-1.633 L-7.99,-1.755 " />
			<path d="M-14.708,4.899 L-14.496,4.777 " />
			<path d="M-31.314,10.729 L-31.314,10.686 " />
			<path d="M-25.114,10.729 L-25.114,10.165 " />
			<path d="M-7.635,1.81 L-7.147,2.092 " />
			<path d="M-10.735,7.179 L-10.247,7.461 " />
			<path d="M-18.949,8.342 L-18.461,8.624 " />
			<path d="M-22.049,13.711 L-21.561,13.993 " />
			<path d="M-8.686,-2.335 L-8.686,-2.899 " />
			<path d="M-2.486,-2.335 L-2.486,-2.378 " />
			<path d="M-8.036,2.417 L-8.036,-2.335 " />
			<path d="M-3.136,2.417 L-3.136,-2.335 " />
			<path d="M-12.239,-0.848 L-11.751,-0.566 " />
			<path d="M-15.339,4.522 L-14.851,4.803 " />
			<path d="M-23.552,5.684 L-23.064,5.966 " />
			<path d="M-26.652,11.054 L-26.164,11.335 " />
			<path d="M-20,4.197 L-20,3.633 " />
			<path d="M-13.8,4.197 L-13.8,3.633 " />
			<path d="M-19.35,8.949 L-19.35,4.197 " />
			<path d="M-14.45,8.949 L-14.45,4.197 " />
			<path d="M-12.076,-0.003 L-7.96,2.373 " />
			<path d="M-14.526,4.241 L-10.41,6.617 " />
			<path d="M-23.389,6.529 L-19.274,8.905 " />
			<path d="M-25.839,10.773 L-21.724,13.149 " />

       </g>

       <!-- solid lines -->
       <g  stroke="rgb(0,0,0)" fill="none">
			<path d="M-2.758,4.777 L-25.527,17.922 " />
			<path d="M-25.527,11.553 L-25.628,11.614 L-25.729,11.679 L-25.831,11.748 L-25.931,11.822 L-26.031,11.899 L-26.131,11.98 L-26.229,12.064 L-26.327,12.153 L-26.424,12.245 L-26.519,12.34 L-26.613,12.438 L-26.706,12.54 L-26.797,12.644 L-26.886,12.752 L-26.973,12.862 L-27.059,12.975 L-27.142,13.09 L-27.223,13.207 L-27.302,13.326 L-27.379,13.448 L-27.452,13.571 L-27.524,13.695 L-27.592,13.821 L-27.658,13.948 L-27.721,14.077 L-27.781,14.206 L-27.838,14.336 L-27.892,14.466 L-27.943,14.597 L-27.99,14.728 L-28.034,14.859 L-28.074,14.99 L-28.111,15.121 L-28.145,15.251 L-28.175,15.38 L-28.202,15.508 L-28.224,15.636 L-28.244,15.762 L-28.259,15.887 L-28.271,16.01 L-28.279,16.132 L-28.283,16.251 L-28.284,16.369 L-28.281,16.484 L-28.274,16.597 L-28.264,16.708 L-28.249,16.816 L-28.231,16.921 L-28.21,17.023 L-28.184,17.122 L-28.156,17.217 L-28.123,17.31 L-28.087,17.399 L-28.048,17.484 L-28.005,17.565 L-27.959,17.643 L-27.909,17.717 L-27.856,17.787 L-27.801,17.852 L-27.742,17.914 L-27.68,17.971 L-27.615,18.023 L-27.547,18.072 L-27.477,18.115 " />
			<path d="M-27.477,18.115 L-27.428,18.142 L-27.379,18.166 L-27.328,18.189 L-27.276,18.209 L-27.223,18.228 L-27.169,18.244 L-27.114,18.258 L-27.059,18.27 L-27.002,18.28 L-26.944,18.288 L-26.886,18.293 L-26.827,18.297 L-26.766,18.298 L-26.706,18.297 L-26.644,18.294 L-26.582,18.289 L-26.519,18.282 L-26.456,18.272 L-26.327,18.247 L-26.197,18.214 L-26.065,18.172 L-25.931,18.121 L-25.797,18.063 L-25.662,17.996 L-25.527,17.922 " />
			<path d="M-25.881,11.349 L-26.2,11.52 L-26.537,11.696 L-26.879,11.87 L-27.215,12.035 L-27.542,12.188 L-27.701,12.26 L-27.858,12.328 L-28.013,12.393 L-28.164,12.454 L-28.314,12.511 L-28.461,12.564 " />
			<path d="M-28.461,12.564 L-28.585,12.606 L-28.708,12.645 " />
			<path d="M-29.039,12.454 L-28.708,12.645 " />
			<path d="M-31.202,11.205 L-29.039,12.454 " />
			<path d="M-31.202,11.205 L-31.533,11.014 " />
			<path d="M-31.042,8.369 L-31.143,8.43 L-31.245,8.495 L-31.346,8.564 L-31.447,8.637 L-31.547,8.714 L-31.646,8.795 L-31.745,8.88 L-31.843,8.968 L-31.939,9.06 L-32.034,9.155 L-32.129,9.254 L-32.221,9.356 L-32.312,9.46 L-32.401,9.568 L-32.489,9.678 L-32.574,9.79 L-32.657,9.905 L-32.739,10.023 L-32.817,10.142 L-32.894,10.263 L-32.968,10.386 L-33.039,10.511 L-33.108,10.637 L-33.174,10.764 L-33.237,10.892 L-33.297,11.022 L-33.354,11.152 L-33.407,11.282 L-33.458,11.413 L-33.505,11.544 L-33.549,11.675 L-33.59,11.806 L-33.627,11.936 L-33.661,12.066 L-33.691,12.196 L-33.717,12.324 L-33.74,12.452 L-33.759,12.578 L-33.775,12.703 L-33.786,12.826 L-33.795,12.947 L-33.799,13.067 L-33.799,13.185 L-33.796,13.3 L-33.79,13.413 L-33.779,13.523 L-33.765,13.631 L-33.747,13.736 L-33.725,13.838 L-33.7,13.937 L-33.671,14.033 L-33.638,14.125 L-33.603,14.214 L-33.563,14.299 L-33.52,14.381 L-33.474,14.459 L-33.425,14.532 L-33.372,14.602 L-33.316,14.668 L-33.257,14.729 L-33.195,14.786 L-33.13,14.839 L-33.062,14.887 L-32.992,14.931 " />
			<path d="M-31.533,11.014 L-31.547,10.935 L-31.559,10.856 L-31.57,10.776 L-31.578,10.696 L-31.584,10.615 L-31.588,10.534 L-31.59,10.453 L-31.589,10.371 L-31.587,10.289 L-31.581,10.206 L-31.574,10.124 L-31.564,10.041 L-31.551,9.959 L-31.536,9.876 L-31.518,9.793 L-31.497,9.711 L-31.473,9.629 L-31.446,9.548 L-31.416,9.467 L-31.382,9.387 L-31.345,9.308 L-31.304,9.23 L-31.259,9.153 L-31.211,9.078 L-31.159,9.004 L-31.102,8.934 L-31.042,8.865 L-30.979,8.8 L-30.911,8.738 L-30.84,8.68 L-30.766,8.625 L-30.687,8.574 " />
			<path d="M-10.889,6.287 L-10.887,6.149 L-10.878,6.008 L-10.863,5.865 L-10.843,5.719 L-10.817,5.571 L-10.786,5.421 L-10.749,5.271 L-10.706,5.119 L-10.659,4.967 L-10.606,4.814 L-10.547,4.662 L-10.484,4.511 L-10.416,4.36 L-10.344,4.211 L-10.267,4.063 L-10.185,3.917 L-10.1,3.774 L-10.01,3.634 L-9.917,3.496 L-9.821,3.362 L-9.721,3.231 L-9.619,3.105 L-9.513,2.983 L-9.405,2.865 L-9.295,2.753 L-9.183,2.645 L-9.069,2.543 L-8.954,2.447 L-8.838,2.357 L-8.721,2.272 L-8.603,2.194 L-8.485,2.123 " />
			<path d="M-8.485,2.123 L-8.397,2.074 L-8.308,2.028 L-8.22,1.987 L-8.133,1.949 L-8.045,1.916 L-7.959,1.886 L-7.873,1.861 L-7.787,1.84 L-7.703,1.822 L-7.62,1.809 L-7.538,1.801 L-7.457,1.796 L-7.378,1.796 L-7.3,1.799 L-7.224,1.807 L-7.15,1.82 L-7.077,1.836 L-7.006,1.856 L-6.937,1.881 L-6.871,1.91 L-6.806,1.943 L-6.744,1.979 L-6.684,2.02 L-6.627,2.065 L-6.572,2.113 L-6.52,2.166 L-6.47,2.222 L-6.423,2.281 L-6.379,2.344 L-6.338,2.411 L-6.299,2.481 L-6.264,2.554 L-6.232,2.631 L-6.202,2.71 L-6.176,2.793 L-6.153,2.878 L-6.133,2.966 L-6.117,3.057 L-6.103,3.15 L-6.093,3.246 L-6.086,3.343 L-6.082,3.443 L-6.081,3.545 L-6.084,3.649 L-6.09,3.754 L-6.099,3.861 L-6.112,3.97 L-6.127,4.079 L-6.146,4.19 L-6.168,4.302 L-6.193,4.414 L-6.222,4.527 L-6.253,4.641 L-6.287,4.755 L-6.325,4.869 L-6.365,4.983 L-6.408,5.098 L-6.454,5.211 L-6.503,5.325 L-6.554,5.438 L-6.608,5.55 L-6.665,5.661 L-6.724,5.771 L-6.785,5.88 L-6.849,5.988 L-6.915,6.094 L-6.983,6.199 L-7.053,6.302 L-7.125,6.403 L-7.199,6.502 L-7.275,6.599 L-7.352,6.693 L-7.431,6.785 L-7.511,6.874 L-7.593,6.961 L-7.675,7.045 L-7.759,7.126 L-7.844,7.204 L-7.93,7.279 L-8.016,7.351 L-8.103,7.419 L-8.191,7.484 L-8.279,7.546 L-8.367,7.604 L-8.456,7.658 L-8.544,7.708 L-8.633,7.755 L-8.721,7.798 L-8.809,7.837 L-8.896,7.871 L-8.983,7.902 L-9.069,7.929 L-9.155,7.952 L-9.239,7.97 L-9.323,7.985 L-9.405,7.995 L-9.486,8.001 L-9.566,8.003 L-9.645,8 L-9.721,7.994 L-9.796,7.983 L-9.87,7.968 L-9.941,7.949 L-10.01,7.925 L-10.078,7.898 L-10.143,7.867 L-10.206,7.831 L-10.267,7.792 L-10.325,7.748 L-10.381,7.701 L-10.434,7.65 L-10.484,7.595 L-10.532,7.537 L-10.577,7.475 L-10.619,7.41 L-10.659,7.341 L-10.695,7.269 L-10.728,7.193 L-10.759,7.115 L-10.786,7.033 L-10.81,6.949 L-10.831,6.862 L-10.849,6.772 L-10.863,6.679 L-10.875,6.585 L-10.883,6.487 L-10.888,6.388 L-10.889,6.287 " />
			<path d="M-2.758,4.777 L-2.656,4.716 L-2.555,4.651 L-2.454,4.582 L-2.353,4.508 L-2.253,4.431 L-2.153,4.35 L-2.055,4.266 L-1.957,4.177 L-1.861,4.085 L-1.765,3.99 L-1.671,3.892 L-1.579,3.79 L-1.488,3.685 L-1.398,3.578 L-1.311,3.468 L-1.226,3.355 L-1.142,3.24 L-1.061,3.123 L-0.982,3.004 L-0.906,2.882 L-0.832,2.759 L-0.76,2.635 L-0.692,2.509 L-0.626,2.382 L-0.563,2.253 L-0.503,2.124 L-0.446,1.994 L-0.392,1.864 L-0.342,1.733 L-0.294,1.602 L-0.25,1.471 L-0.21,1.34 L-0.173,1.209 L-0.139,1.079 L-0.109,0.95 L-0.083,0.821 L-0.06,0.694 L-0.041,0.568 L-0.025,0.443 L-0.013,0.32 L-0.005,0.198 L-0.001,0.079 L-0,-0.039 L-0.003,-0.154 L-0.01,-0.267 L-0.021,-0.378 L-0.035,-0.486 L-0.053,-0.591 L-0.075,-0.693 L-0.1,-0.792 L-0.129,-0.887 L-0.161,-0.98 L-0.197,-1.069 L-0.237,-1.154 L-0.279,-1.235 L-0.326,-1.313 L-0.375,-1.387 L-0.428,-1.457 L-0.484,-1.522 L-0.543,-1.584 L-0.605,-1.641 L-0.67,-1.693 L-0.737,-1.742 L-0.808,-1.785 " />
			<path d="M-0.808,-1.785 L-0.856,-1.812 L-0.906,-1.837 L-0.956,-1.859 L-1.008,-1.879 L-1.061,-1.898 L-1.115,-1.914 L-1.17,-1.928 L-1.226,-1.94 L-1.282,-1.95 L-1.34,-1.958 L-1.398,-1.963 L-1.458,-1.967 L-1.518,-1.968 L-1.579,-1.967 L-1.64,-1.964 L-1.702,-1.959 L-1.765,-1.952 L-1.829,-1.942 L-1.957,-1.917 L-2.088,-1.884 L-2.22,-1.842 L-2.353,-1.791 L-2.487,-1.733 L-2.622,-1.666 L-2.758,-1.592 " />
			<path d="M-2.758,-1.592 L-25.527,11.553 " />
			<path d="M-22.203,12.819 L-22.2,12.681 L-22.192,12.54 L-22.177,12.397 L-22.157,12.251 L-22.131,12.103 L-22.1,11.953 L-22.063,11.803 L-22.02,11.651 L-21.972,11.499 L-21.919,11.346 L-21.861,11.194 L-21.798,11.043 L-21.73,10.892 L-21.657,10.743 L-21.58,10.595 L-21.499,10.449 L-21.414,10.306 L-21.324,10.166 L-21.231,10.028 L-21.135,9.894 L-21.035,9.763 L-20.932,9.637 L-20.827,9.515 L-20.719,9.397 L-20.609,9.285 L-20.497,9.177 L-20.383,9.075 L-20.268,8.979 L-20.152,8.889 L-20.035,8.804 L-19.917,8.726 L-19.799,8.655 " />
			<path d="M-19.799,8.655 L-19.71,8.606 L-19.622,8.56 L-19.534,8.519 L-19.446,8.481 L-19.359,8.448 L-19.272,8.418 L-19.186,8.393 L-19.101,8.371 L-19.017,8.354 L-18.934,8.341 L-18.852,8.333 L-18.771,8.328 L-18.692,8.328 L-18.614,8.331 L-18.538,8.339 L-18.463,8.352 L-18.391,8.368 L-18.32,8.388 L-18.251,8.413 L-18.184,8.442 L-18.12,8.475 L-18.058,8.511 L-17.998,8.552 L-17.941,8.597 L-17.886,8.645 L-17.833,8.698 L-17.784,8.754 L-17.737,8.813 L-17.693,8.876 L-17.652,8.943 L-17.613,9.013 L-17.578,9.086 L-17.545,9.163 L-17.516,9.242 L-17.49,9.325 L-17.467,9.41 L-17.447,9.498 L-17.43,9.589 L-17.417,9.682 L-17.406,9.777 L-17.399,9.875 L-17.396,9.975 L-17.395,10.077 L-17.398,10.181 L-17.404,10.286 L-17.413,10.393 L-17.425,10.502 L-17.441,10.611 L-17.46,10.722 L-17.482,10.834 L-17.507,10.946 L-17.535,11.059 L-17.567,11.173 L-17.601,11.287 L-17.638,11.401 L-17.679,11.515 L-17.722,11.63 L-17.768,11.743 L-17.817,11.857 L-17.868,11.97 L-17.922,12.082 L-17.979,12.193 L-18.038,12.303 L-18.099,12.412 L-18.163,12.52 L-18.229,12.626 L-18.297,12.731 L-18.367,12.834 L-18.439,12.935 L-18.513,13.034 L-18.588,13.13 L-18.666,13.225 L-18.744,13.317 L-18.825,13.406 L-18.906,13.493 L-18.989,13.577 L-19.073,13.658 L-19.158,13.736 L-19.243,13.811 L-19.33,13.883 L-19.417,13.951 L-19.505,14.016 L-19.593,14.078 L-19.681,14.136 L-19.769,14.19 L-19.858,14.24 L-19.946,14.287 L-20.035,14.33 L-20.123,14.369 L-20.21,14.403 L-20.297,14.434 L-20.383,14.461 L-20.469,14.484 L-20.553,14.502 L-20.637,14.517 L-20.719,14.527 L-20.8,14.533 L-20.88,14.535 L-20.958,14.532 L-21.035,14.526 L-21.11,14.515 L-21.183,14.5 L-21.255,14.481 L-21.324,14.457 L-21.392,14.43 L-21.457,14.399 L-21.52,14.363 L-21.58,14.324 L-21.639,14.28 L-21.694,14.233 L-21.747,14.182 L-21.798,14.127 L-21.846,14.069 L-21.891,14.007 L-21.933,13.942 L-21.972,13.873 L-22.009,13.8 L-22.042,13.725 L-22.072,13.647 L-22.1,13.565 L-22.124,13.481 L-22.145,13.394 L-22.163,13.304 L-22.177,13.211 L-22.189,13.117 L-22.197,13.019 L-22.202,12.92 L-22.203,12.819 " />
			<path d="M-3.112,-1.797 L-2.821,-1.979 L-2.697,-2.061 L-2.589,-2.134 L-2.496,-2.201 L-2.418,-2.261 L-2.354,-2.314 L-2.303,-2.362 L-2.264,-2.405 L-2.236,-2.444 L-2.218,-2.479 L-2.213,-2.495 L-2.21,-2.511 L-2.21,-2.526 L-2.212,-2.541 L-2.216,-2.555 L-2.222,-2.568 L-2.24,-2.595 L-2.267,-2.62 " />
			<path d="M-2.598,-2.812 L-2.267,-2.62 " />
			<path d="M-4.761,-4.06 L-2.598,-2.812 " />
			<path d="M-4.761,-4.06 L-5.092,-4.252 " />
			<path d="M-5.092,-4.252 L-5.251,-4.333 L-5.413,-4.41 L-5.577,-4.483 L-5.744,-4.551 L-5.914,-4.613 L-6.087,-4.668 L-6.175,-4.692 L-6.264,-4.715 L-6.354,-4.735 L-6.444,-4.753 L-6.535,-4.769 L-6.627,-4.782 L-6.719,-4.792 L-6.812,-4.798 L-6.906,-4.802 L-7.001,-4.802 L-7.095,-4.798 L-7.19,-4.791 L-7.285,-4.779 L-7.379,-4.763 L-7.472,-4.743 L-7.564,-4.718 L-7.655,-4.689 L-7.745,-4.654 L-7.833,-4.615 L-7.919,-4.572 " />
			<path d="M-6.323,-4.97 L-6.372,-4.996 L-6.421,-5.021 L-6.472,-5.043 L-6.524,-5.064 L-6.577,-5.082 L-6.63,-5.098 L-6.685,-5.112 L-6.741,-5.124 L-6.798,-5.134 L-6.855,-5.142 L-6.914,-5.148 L-6.973,-5.151 L-7.033,-5.152 L-7.094,-5.152 L-7.156,-5.149 L-7.218,-5.143 L-7.281,-5.136 L-7.344,-5.127 L-7.473,-5.102 L-7.603,-5.068 L-7.735,-5.026 L-7.869,-4.976 L-8.003,-4.917 L-8.138,-4.851 L-8.273,-4.777 " />
			<path d="M-8.273,-4.777 L-31.042,8.369 " />
			<path d="M-30.687,8.574 L-30.569,8.505 L-30.445,8.439 L-30.315,8.377 L-30.18,8.319 L-30.04,8.265 L-29.896,8.215 L-29.747,8.169 L-29.595,8.127 L-29.44,8.089 L-29.281,8.057 L-29.12,8.028 L-28.956,8.005 L-28.791,7.986 L-28.624,7.972 L-28.457,7.962 L-28.289,7.958 L-28.12,7.958 L-27.952,7.963 L-27.784,7.973 L-27.618,7.988 L-27.453,8.007 L-27.29,8.031 L-27.129,8.06 L-26.97,8.093 L-26.815,8.131 L-26.663,8.173 L-26.515,8.22 L-26.372,8.27 L-26.232,8.325 L-26.098,8.384 L-25.969,8.446 L-25.845,8.512 L-25.727,8.582 L-25.615,8.654 L-25.51,8.73 L-25.411,8.809 L-25.319,8.89 L-25.234,8.974 L-25.157,9.061 L-25.087,9.149 L-25.025,9.24 L-24.97,9.332 L-24.924,9.425 L-24.885,9.52 L-24.869,9.568 L-24.855,9.615 L-24.843,9.664 L-24.833,9.712 L-24.825,9.76 L-24.819,9.809 L-24.815,9.857 L-24.814,9.906 L-24.814,9.955 L-24.817,10.003 L-24.821,10.052 L-24.828,10.1 L-24.837,10.149 L-24.847,10.197 L-24.86,10.245 L-24.875,10.293 L-24.911,10.388 L-24.955,10.482 L-25.008,10.574 L-25.068,10.665 L-25.135,10.754 L-25.211,10.841 L-25.293,10.926 L-25.383,11.008 L-25.48,11.088 L-25.583,11.164 L-25.693,11.238 L-25.809,11.308 " />
			<path d="M-25.809,11.308 L-25.881,11.349 " />
			<path d="M-7.919,-4.572 L-8.039,-4.503 L-8.154,-4.43 L-8.262,-4.354 L-8.364,-4.276 L-8.458,-4.194 L-8.546,-4.11 L-8.625,-4.023 L-8.698,-3.935 L-8.762,-3.844 L-8.819,-3.751 L-8.868,-3.657 L-8.889,-3.61 L-8.908,-3.562 L-8.925,-3.514 L-8.94,-3.465 L-8.953,-3.417 L-8.964,-3.368 L-8.972,-3.319 L-8.979,-3.27 L-8.983,-3.221 L-8.986,-3.172 L-8.986,-3.123 L-8.984,-3.074 L-8.98,-3.025 L-8.974,-2.976 L-8.965,-2.927 L-8.955,-2.879 L-8.943,-2.83 L-8.928,-2.782 L-8.911,-2.734 L-8.892,-2.686 L-8.849,-2.591 L-8.797,-2.498 L-8.737,-2.406 L-8.669,-2.316 L-8.593,-2.228 L-8.51,-2.142 L-8.42,-2.059 L-8.323,-1.979 L-8.218,-1.901 L-8.107,-1.827 L-7.99,-1.755 " />
			<path d="M-7.99,-1.755 L-7.869,-1.689 L-7.743,-1.626 L-7.612,-1.567 L-7.475,-1.511 L-7.334,-1.46 L-7.189,-1.412 L-7.04,-1.369 L-6.887,-1.33 L-6.732,-1.295 L-6.573,-1.265 L-6.412,-1.239 L-6.249,-1.218 L-6.085,-1.202 L-5.919,-1.19 L-5.753,-1.183 L-5.586,-1.181 L-5.419,-1.183 L-5.253,-1.19 L-5.087,-1.202 L-4.923,-1.218 L-4.76,-1.239 L-4.599,-1.265 L-4.441,-1.295 L-4.285,-1.33 L-4.132,-1.369 L-3.983,-1.412 L-3.838,-1.46 L-3.697,-1.511 L-3.561,-1.567 L-3.429,-1.626 L-3.303,-1.689 L-3.182,-1.755 " />
			<path d="M-3.182,-1.755 L-3.112,-1.797 " />
			<path d="M-19.304,4.777 L-19.391,4.724 L-19.474,4.671 L-19.554,4.615 L-19.631,4.558 L-19.703,4.499 L-19.772,4.439 L-19.837,4.377 L-19.898,4.314 L-19.955,4.249 L-20.008,4.184 L-20.057,4.117 L-20.101,4.05 L-20.141,3.981 L-20.177,3.912 L-20.208,3.842 L-20.235,3.771 L-20.257,3.7 L-20.274,3.629 L-20.287,3.557 L-20.296,3.485 L-20.3,3.413 L-20.299,3.34 L-20.293,3.268 L-20.283,3.196 L-20.269,3.124 L-20.25,3.053 L-20.226,2.982 L-20.198,2.911 L-20.165,2.842 L-20.128,2.773 L-20.087,2.705 L-20.041,2.637 L-19.991,2.571 L-19.937,2.506 L-19.878,2.442 L-19.816,2.379 L-19.75,2.318 L-19.68,2.258 L-19.606,2.2 L-19.528,2.143 L-19.447,2.088 L-19.362,2.035 L-19.274,1.983 L-19.183,1.934 L-19.089,1.886 L-18.992,1.841 L-18.892,1.798 L-18.789,1.756 L-18.683,1.717 L-18.576,1.68 L-18.466,1.646 L-18.354,1.614 L-18.239,1.584 L-18.123,1.557 L-18.006,1.532 L-17.887,1.51 L-17.766,1.49 L-17.645,1.473 L-17.522,1.459 L-17.399,1.447 L-17.275,1.437 L-17.15,1.431 L-17.025,1.427 L-16.9,1.425 L-16.775,1.427 L-16.65,1.431 L-16.525,1.437 L-16.401,1.447 L-16.278,1.459 L-16.155,1.473 L-16.033,1.49 L-15.913,1.51 L-15.794,1.532 L-15.676,1.557 L-15.56,1.584 L-15.446,1.614 L-15.334,1.646 L-15.224,1.68 L-15.116,1.717 L-15.011,1.756 L-14.908,1.798 L-14.808,1.841 L-14.711,1.886 L-14.617,1.934 L-14.525,1.983 L-14.437,2.035 L-14.353,2.088 L-14.272,2.143 L-14.194,2.2 L-14.12,2.258 L-14.05,2.318 L-13.984,2.379 L-13.921,2.442 L-13.863,2.506 L-13.809,2.571 L-13.759,2.637 L-13.713,2.705 L-13.671,2.773 L-13.634,2.842 L-13.602,2.911 L-13.574,2.982 L-13.55,3.053 L-13.531,3.124 L-13.516,3.196 L-13.506,3.268 L-13.501,3.34 L-13.5,3.413 L-13.504,3.485 L-13.512,3.557 L-13.525,3.629 L-13.543,3.7 L-13.565,3.771 L-13.592,3.842 L-13.623,3.912 L-13.659,3.981 L-13.699,4.05 L-13.743,4.117 L-13.792,4.184 L-13.844,4.249 L-13.901,4.314 L-13.962,4.377 L-14.027,4.439 L-14.096,4.499 L-14.169,4.558 L-14.245,4.615 L-14.325,4.671 L-14.409,4.724 L-14.496,4.777 " />
			<path d="M-14.496,4.777 L-14.617,4.843 L-14.743,4.906 L-14.874,4.965 L-15.011,5.021 L-15.152,5.072 L-15.297,5.12 L-15.446,5.163 L-15.599,5.202 L-15.754,5.237 L-15.913,5.267 L-16.074,5.293 L-16.237,5.314 L-16.401,5.33 L-16.567,5.342 L-16.733,5.349 L-16.9,5.351 L-17.067,5.349 L-17.233,5.342 L-17.399,5.33 L-17.563,5.314 L-17.726,5.293 L-17.887,5.267 L-18.045,5.237 L-18.201,5.202 L-18.354,5.163 L-18.503,5.12 L-18.648,5.072 L-18.789,5.021 L-18.925,4.965 L-19.057,4.906 L-19.183,4.843 L-19.304,4.777 " />
			<path d="M-28.708,12.645 L-28.424,12.551 " />
			<path d="M-25.152,10.447 L-25.178,10.365 L-25.211,10.284 L-25.25,10.204 L-25.295,10.125 L-25.347,10.048 L-25.405,9.971 L-25.469,9.897 L-25.539,9.824 L-25.614,9.753 L-25.696,9.685 L-25.782,9.618 L-25.874,9.554 L-25.971,9.493 L-26.073,9.434 L-26.18,9.378 L-26.291,9.325 L-26.406,9.275 L-26.525,9.228 L-26.647,9.184 L-26.773,9.144 L-26.902,9.107 L-27.034,9.074 L-27.169,9.044 L-27.305,9.017 L-27.444,8.995 L-27.585,8.976 L-27.726,8.961 L-27.869,8.95 L-28.012,8.943 L-28.156,8.939 L-28.301,8.94 L-28.444,8.944 L-28.588,8.952 L-28.73,8.964 L-28.872,8.98 L-29.012,8.999 L-29.15,9.023 L-29.286,9.05 L-29.42,9.08 L-29.552,9.114 L-29.68,9.152 L-29.806,9.193 L-29.927,9.237 L-30.046,9.285 L-30.16,9.336 L-30.27,9.389 L-30.375,9.446 L-30.476,9.505 L-30.572,9.567 L-30.663,9.632 L-30.749,9.699 L-30.829,9.768 L-30.903,9.839 L-30.972,9.912 L-31.035,9.987 L-31.091,10.064 L-31.142,10.141 L-31.186,10.221 L-31.224,10.301 L-31.255,10.382 L-31.279,10.464 L-31.297,10.547 L-31.309,10.63 L-31.313,10.713 " />
			<path d="M-31.533,11.014 L-31.429,10.908 L-31.311,10.794 " />
			<path d="M-29.946,11.729 L-30.029,11.679 L-30.107,11.626 L-30.181,11.571 L-30.251,11.515 L-30.315,11.456 L-30.374,11.396 L-30.428,11.334 L-30.477,11.27 L-30.52,11.205 L-30.558,11.139 L-30.59,11.072 L-30.616,11.005 L-30.637,10.936 L-30.652,10.867 L-30.661,10.798 L-30.664,10.729 " />
			<path d="M-30.664,10.729 L-30.661,10.659 L-30.652,10.59 L-30.637,10.521 L-30.616,10.453 L-30.59,10.385 L-30.558,10.318 L-30.52,10.252 L-30.477,10.187 L-30.428,10.124 L-30.374,10.062 L-30.315,10.002 L-30.251,9.943 L-30.181,9.886 L-30.107,9.831 L-30.029,9.779 L-29.946,9.729 L-29.859,9.681 L-29.768,9.635 L-29.673,9.593 L-29.575,9.553 L-29.473,9.516 L-29.368,9.481 L-29.261,9.45 L-29.151,9.422 L-29.039,9.397 L-28.925,9.375 L-28.809,9.357 L-28.692,9.341 L-28.573,9.33 L-28.454,9.321 L-28.334,9.316 L-28.214,9.314 L-28.093,9.316 L-27.973,9.321 L-27.854,9.33 L-27.736,9.341 L-27.618,9.357 L-27.502,9.375 L-27.388,9.397 L-27.276,9.422 L-27.166,9.45 L-27.059,9.481 L-26.954,9.516 L-26.852,9.553 L-26.754,9.593 L-26.659,9.635 L-26.568,9.681 L-26.481,9.729 L-26.398,9.779 L-26.32,9.831 L-26.246,9.886 L-26.176,9.943 L-26.112,10.002 L-26.053,10.062 L-25.999,10.124 L-25.95,10.187 L-25.907,10.252 L-25.869,10.318 L-25.837,10.385 L-25.811,10.453 L-25.79,10.521 L-25.775,10.59 L-25.767,10.659 L-25.764,10.729 " />
			<path d="M-25.764,10.729 L-25.765,10.779 L-25.77,10.83 L-25.778,10.881 L-25.789,10.931 L-25.803,10.981 L-25.82,11.031 L-25.84,11.08 L-25.864,11.129 L-25.89,11.178 L-25.919,11.225 L-25.952,11.272 L-25.987,11.319 L-26.025,11.365 L-26.066,11.41 L-26.11,11.454 L-26.156,11.497 " />
			<path d="M-27.146,12.002 L-27.232,12.025 L-27.319,12.046 L-27.408,12.065 L-27.498,12.082 L-27.589,12.097 L-27.681,12.109 L-27.774,12.12 L-27.867,12.129 L-27.961,12.136 L-28.055,12.14 L-28.15,12.143 L-28.244,12.143 L-28.339,12.141 L-28.434,12.138 L-28.528,12.132 L-28.621,12.124 L-28.714,12.113 L-28.807,12.101 L-28.898,12.087 L-28.988,12.071 L-29.077,12.052 L-29.165,12.032 L-29.252,12.01 L-29.337,11.986 L-29.42,11.96 L-29.502,11.932 L-29.581,11.902 L-29.659,11.871 L-29.734,11.838 L-29.807,11.803 L-29.878,11.767 L-29.946,11.729 " />
			<path d="M-31.311,10.794 L-31.314,10.686 " />
			<path d="M-31.314,10.686 L-31.311,10.563 L-31.302,10.439 L-31.288,10.315 L-31.268,10.193 L-31.242,10.071 L-31.209,9.95 L-31.17,9.831 L-31.123,9.714 L-31.097,9.657 L-31.069,9.6 L-31.04,9.544 L-31.008,9.488 L-30.974,9.434 L-30.938,9.381 L-30.9,9.329 L-30.86,9.279 L-30.818,9.23 L-30.774,9.182 L-30.728,9.137 L-30.68,9.093 L-30.63,9.051 L-30.579,9.011 L-30.525,8.973 L-30.469,8.938 " />
			<path d="M-8.594,2.188 L-8.493,2.138 L-8.393,2.094 L-8.293,2.055 L-8.194,2.022 L-8.096,1.995 L-7.999,1.974 L-7.904,1.959 L-7.811,1.95 L-7.719,1.947 L-7.63,1.949 L-7.543,1.958 L-7.458,1.973 L-7.376,1.994 L-7.297,2.021 L-7.221,2.053 L-7.147,2.092 " />
			<path d="M-7.147,2.092 L-7.073,2.139 L-7.003,2.192 L-6.937,2.252 L-6.875,2.318 L-6.817,2.39 L-6.764,2.467 L-6.716,2.55 L-6.672,2.639 L-6.634,2.732 L-6.6,2.831 L-6.571,2.934 L-6.548,3.041 L-6.529,3.153 L-6.516,3.269 L-6.508,3.388 L-6.505,3.511 L-6.508,3.637 L-6.516,3.765 L-6.529,3.896 L-6.548,4.029 L-6.571,4.164 L-6.6,4.3 L-6.634,4.438 L-6.672,4.576 L-6.716,4.715 L-6.764,4.854 L-6.817,4.992 L-6.875,5.13 L-6.937,5.268 L-7.003,5.404 L-7.073,5.539 L-7.147,5.671 L-7.225,5.802 L-7.307,5.93 L-7.392,6.056 L-7.48,6.178 L-7.57,6.297 L-7.664,6.412 L-7.76,6.524 L-7.859,6.631 L-7.959,6.733 L-8.061,6.831 L-8.165,6.924 L-8.27,7.012 L-8.376,7.095 L-8.483,7.171 L-8.59,7.242 L-8.697,7.308 L-8.805,7.367 L-8.912,7.42 L-9.019,7.466 L-9.125,7.506 L-9.23,7.539 L-9.334,7.566 L-9.436,7.586 L-9.536,7.599 L-9.635,7.606 L-9.731,7.605 L-9.824,7.598 L-9.915,7.584 L-10.003,7.563 L-10.088,7.536 L-10.169,7.502 L-10.247,7.461 " />
			<path d="M-10.247,7.461 L-10.317,7.417 L-10.384,7.367 L-10.446,7.312 L-10.505,7.251 L-10.561,7.185 L-10.612,7.114 L-10.659,7.038 L-10.702,6.958 L-10.741,6.872 L-10.775,6.782 L-10.805,6.688 L-10.831,6.59 L-10.852,6.488 L-10.868,6.382 L-10.88,6.273 L-10.887,6.16 " />
			<path d="M-19.908,8.72 L-19.807,8.67 L-19.706,8.626 L-19.606,8.587 L-19.508,8.554 L-19.41,8.527 L-19.313,8.506 L-19.218,8.491 L-19.125,8.482 L-19.033,8.479 L-18.944,8.481 L-18.857,8.49 L-18.772,8.505 L-18.69,8.526 L-18.611,8.553 L-18.534,8.585 L-18.461,8.624 " />
			<path d="M-18.461,8.624 L-18.387,8.671 L-18.317,8.724 L-18.25,8.784 L-18.189,8.85 L-18.131,8.922 L-18.078,8.999 L-18.03,9.082 L-17.986,9.171 L-17.947,9.264 L-17.913,9.363 L-17.885,9.466 L-17.861,9.573 L-17.843,9.685 L-17.83,9.801 L-17.822,9.92 L-17.819,10.043 L-17.822,10.169 L-17.83,10.297 L-17.843,10.428 L-17.861,10.561 L-17.885,10.696 L-17.913,10.832 L-17.947,10.97 L-17.986,11.108 L-18.03,11.247 L-18.078,11.386 L-18.131,11.524 L-18.189,11.662 L-18.25,11.8 L-18.317,11.936 L-18.387,12.071 L-18.461,12.203 L-18.539,12.334 L-18.621,12.462 L-18.705,12.588 L-18.793,12.71 L-18.884,12.829 L-18.978,12.944 L-19.074,13.055 L-19.172,13.163 L-19.273,13.265 L-19.375,13.363 L-19.479,13.456 L-19.583,13.544 L-19.689,13.627 L-19.796,13.703 L-19.904,13.774 L-20.011,13.84 L-20.119,13.899 L-20.226,13.951 L-20.333,13.998 L-20.439,14.038 L-20.544,14.071 L-20.647,14.098 L-20.75,14.118 L-20.85,14.131 L-20.948,14.138 L-21.044,14.137 L-21.138,14.13 L-21.229,14.116 L-21.317,14.095 L-21.402,14.068 L-21.483,14.034 L-21.561,13.993 " />
			<path d="M-21.561,13.993 L-21.631,13.949 L-21.697,13.899 L-21.76,13.844 L-21.819,13.783 L-21.874,13.717 L-21.926,13.646 L-21.973,13.57 L-22.016,13.49 L-22.055,13.404 L-22.089,13.314 L-22.119,13.22 L-22.145,13.122 L-22.165,13.02 L-22.182,12.914 L-22.194,12.805 L-22.201,12.692 " />
			<path d="M-3.29,-1.696 L-3.089,-1.823 L-2.918,-1.936 L-2.777,-2.036 L-2.719,-2.081 L-2.667,-2.123 L-2.623,-2.162 L-2.586,-2.198 L-2.554,-2.232 L-2.529,-2.265 L-2.51,-2.295 L-2.497,-2.324 L-2.489,-2.351 L-2.486,-2.378 " />
			<path d="M-2.486,-2.378 L-2.488,-2.401 " />
			<path d="M-2.267,-2.62 L-2.371,-2.514 L-2.488,-2.401 " />
			<path d="M-5.473,-4.124 L-5.613,-4.125 L-5.753,-4.122 L-5.893,-4.116 L-6.033,-4.106 L-6.171,-4.093 L-6.308,-4.076 L-6.444,-4.055 L-6.578,-4.031 L-6.71,-4.003 L-6.84,-3.972 L-6.967,-3.938 L-7.091,-3.9 L-7.212,-3.859 L-7.33,-3.815 L-7.444,-3.768 L-7.555,-3.718 L-7.661,-3.665 L-7.763,-3.609 L-7.861,-3.551 L-7.954,-3.49 L-8.042,-3.427 L-8.125,-3.362 L-8.203,-3.294 L-8.276,-3.225 L-8.343,-3.154 L-8.404,-3.081 L-8.46,-3.007 L-8.509,-2.931 L-8.553,-2.854 L-8.591,-2.776 L-8.622,-2.697 L-8.648,-2.617 " />
			<path d="M-2.487,-2.366 L-2.488,-2.401 " />
			<path d="M-5.092,-4.252 L-5.276,-4.192 L-5.473,-4.124 " />
			<path d="M-7.672,-1.593 L-7.715,-1.635 L-7.756,-1.678 L-7.794,-1.722 L-7.829,-1.766 L-7.862,-1.811 L-7.892,-1.857 L-7.919,-1.903 L-7.943,-1.95 L-7.965,-1.997 L-7.984,-2.044 L-8,-2.092 L-8.013,-2.141 L-8.023,-2.189 L-8.03,-2.238 L-8.035,-2.286 L-8.036,-2.335 " />
			<path d="M-8.036,-2.335 L-8.033,-2.405 L-8.024,-2.474 L-8.01,-2.543 L-7.989,-2.611 L-7.963,-2.679 L-7.931,-2.746 L-7.893,-2.812 L-7.85,-2.876 L-7.801,-2.94 L-7.747,-3.002 L-7.688,-3.062 L-7.623,-3.121 L-7.554,-3.178 L-7.48,-3.233 L-7.401,-3.285 L-7.319,-3.335 L-7.231,-3.383 L-7.14,-3.429 L-7.046,-3.471 L-6.947,-3.511 L-6.846,-3.548 L-6.741,-3.583 L-6.634,-3.614 L-6.524,-3.642 L-6.412,-3.667 L-6.297,-3.689 L-6.181,-3.707 L-6.064,-3.723 L-5.946,-3.734 L-5.826,-3.743 L-5.706,-3.748 L-5.586,-3.75 L-5.466,-3.748 L-5.346,-3.743 L-5.227,-3.734 L-5.108,-3.723 L-4.991,-3.707 L-4.875,-3.689 L-4.761,-3.667 L-4.649,-3.642 L-4.539,-3.614 L-4.431,-3.583 L-4.327,-3.548 L-4.225,-3.511 L-4.127,-3.471 L-4.032,-3.429 L-3.941,-3.383 L-3.854,-3.335 L-3.771,-3.285 L-3.692,-3.233 L-3.618,-3.178 L-3.549,-3.121 L-3.485,-3.062 L-3.425,-3.002 L-3.371,-2.94 L-3.323,-2.876 L-3.279,-2.812 L-3.242,-2.746 L-3.21,-2.679 L-3.183,-2.611 L-3.163,-2.543 L-3.148,-2.474 L-3.139,-2.405 L-3.136,-2.335 " />
			<path d="M-3.136,-2.335 L-3.138,-2.286 L-3.142,-2.238 L-3.149,-2.189 L-3.159,-2.141 L-3.173,-2.092 L-3.188,-2.044 L-3.207,-1.997 L-3.229,-1.95 L-3.253,-1.903 L-3.28,-1.857 L-3.31,-1.811 L-3.343,-1.766 L-3.378,-1.722 L-3.416,-1.678 L-3.457,-1.635 L-3.5,-1.593 " />
			<path d="M-5.473,-4.124 L-5.61,-4.176 L-5.748,-4.225 L-5.887,-4.269 L-6.027,-4.308 L-6.168,-4.342 L-6.31,-4.371 L-6.452,-4.393 L-6.596,-4.408 L-6.739,-4.416 L-6.812,-4.417 L-6.884,-4.416 L-6.956,-4.412 L-7.028,-4.406 L-7.1,-4.398 L-7.171,-4.387 L-7.242,-4.373 L-7.312,-4.357 L-7.381,-4.338 L-7.45,-4.316 L-7.517,-4.292 L-7.583,-4.264 L-7.648,-4.234 L-7.713,-4.201 " />
			<path d="M-30.469,8.938 L-30.388,8.89 L-30.304,8.844 L-30.218,8.8 L-30.128,8.758 L-30.036,8.718 L-29.941,8.679 L-29.844,8.643 L-29.745,8.609 L-29.643,8.577 L-29.54,8.548 L-29.434,8.52 L-29.327,8.495 L-29.219,8.472 L-29.109,8.452 L-28.998,8.434 L-28.885,8.418 L-28.772,8.405 L-28.658,8.394 L-28.543,8.386 L-28.428,8.38 L-28.313,8.377 L-28.197,8.376 L-28.082,8.377 L-27.966,8.381 L-27.851,8.388 L-27.737,8.397 L-27.623,8.408 L-27.51,8.422 L-27.398,8.439 L-27.287,8.457 L-27.178,8.478 L-27.069,8.502 L-26.963,8.528 L-26.858,8.556 L-26.755,8.586 L-26.654,8.619 L-26.555,8.653 L-26.459,8.69 L-26.365,8.729 L-26.273,8.769 L-26.185,8.812 L-26.099,8.857 L-26.016,8.903 L-25.936,8.951 L-25.859,9.001 L-25.786,9.053 L-25.715,9.106 L-25.649,9.16 L-25.586,9.216 L-25.526,9.273 L-25.47,9.332 L-25.419,9.391 L-25.371,9.452 L-25.326,9.514 L-25.286,9.576 L-25.25,9.64 L-25.218,9.704 L-25.191,9.768 L-25.167,9.834 L-25.148,9.9 L-25.133,9.966 L-25.122,10.032 L-25.116,10.099 L-25.114,10.165 " />
			<path d="M-25.114,10.165 L-25.117,10.248 L-25.127,10.331 L-25.143,10.413 L-25.166,10.494 L-25.196,10.575 L-25.232,10.655 L-25.274,10.735 L-25.323,10.812 L-25.378,10.889 L-25.439,10.964 L-25.506,11.037 L-25.578,11.108 L-25.657,11.177 L-25.74,11.245 L-25.83,11.309 L-25.924,11.372 " />
			<path d="M-7.713,-4.201 L-7.825,-4.137 L-7.931,-4.069 L-8.031,-3.999 L-8.125,-3.926 L-8.212,-3.85 L-8.293,-3.771 L-8.366,-3.69 L-8.432,-3.608 L-8.491,-3.523 L-8.543,-3.437 L-8.586,-3.349 L-8.622,-3.261 L-8.65,-3.171 L-8.67,-3.081 L-8.682,-2.99 L-8.685,-2.944 L-8.686,-2.899 " />
			<path d="M-8.686,-2.899 L-8.683,-2.816 L-8.673,-2.734 L-8.657,-2.652 L-8.634,-2.57 L-8.604,-2.489 L-8.568,-2.409 L-8.526,-2.331 L-8.477,-2.253 L-8.423,-2.177 L-8.362,-2.102 L-8.295,-2.029 L-8.223,-1.958 L-8.145,-1.888 L-8.062,-1.821 L-7.973,-1.757 L-7.879,-1.694 " />
			<path d="M-19.193,4.838 L-19.287,4.775 L-19.375,4.711 L-19.459,4.644 L-19.537,4.574 L-19.609,4.503 L-19.676,4.43 L-19.736,4.355 L-19.791,4.279 L-19.84,4.201 L-19.882,4.123 L-19.918,4.043 L-19.947,3.962 L-19.97,3.88 L-19.987,3.798 L-19.997,3.716 L-20,3.633 " />
			<path d="M-20,3.633 L-19.996,3.546 L-19.985,3.458 L-19.966,3.371 L-19.94,3.284 L-19.907,3.199 L-19.866,3.114 L-19.819,3.03 L-19.764,2.948 L-19.702,2.868 L-19.634,2.79 L-19.559,2.713 L-19.477,2.639 L-19.39,2.567 L-19.296,2.498 L-19.197,2.431 L-19.092,2.368 L-18.982,2.307 L-18.866,2.25 L-18.747,2.196 L-18.622,2.145 L-18.494,2.098 L-18.361,2.055 L-18.225,2.015 L-18.086,1.98 L-17.944,1.948 L-17.8,1.921 L-17.653,1.897 L-17.505,1.878 L-17.355,1.863 L-17.204,1.852 L-17.052,1.846 L-16.9,1.844 L-16.748,1.846 L-16.596,1.852 L-16.445,1.863 L-16.295,1.878 L-16.147,1.897 L-16,1.921 L-15.855,1.948 L-15.714,1.98 L-15.574,2.015 L-15.439,2.055 L-15.306,2.098 L-15.178,2.145 L-15.053,2.196 L-14.933,2.25 L-14.818,2.307 L-14.708,2.368 L-14.603,2.431 L-14.504,2.498 L-14.41,2.567 L-14.322,2.639 L-14.241,2.713 L-14.166,2.79 L-14.097,2.868 L-14.036,2.948 L-13.981,3.03 L-13.933,3.114 L-13.893,3.199 L-13.859,3.284 L-13.833,3.371 L-13.815,3.458 L-13.804,3.546 L-13.8,3.633 " />
			<path d="M-13.8,3.633 L-13.803,3.716 L-13.813,3.798 L-13.829,3.88 L-13.852,3.962 L-13.882,4.043 L-13.918,4.123 L-13.96,4.201 L-14.009,4.279 L-14.063,4.355 L-14.124,4.43 L-14.19,4.503 L-14.263,4.574 L-14.341,4.644 L-14.424,4.711 L-14.513,4.775 L-14.607,4.838 " />
			<path d="M-10.472,7.287 L-10.392,7.305 L-10.311,7.317 L-10.226,7.323 L-10.14,7.324 L-10.052,7.32 L-9.963,7.31 L-9.871,7.295 L-9.779,7.274 L-9.685,7.248 L-9.59,7.216 L-9.495,7.179 L-9.399,7.137 L-9.302,7.09 L-9.206,7.038 L-9.109,6.98 L-9.012,6.918 L-8.916,6.851 L-8.82,6.78 L-8.725,6.704 L-8.631,6.624 L-8.538,6.539 L-8.446,6.451 L-8.356,6.359 L-8.267,6.263 L-8.18,6.164 L-8.095,6.061 L-8.012,5.956 L-7.932,5.847 L-7.854,5.736 L-7.778,5.623 L-7.705,5.507 L-7.635,5.39 L-7.568,5.27 L-7.505,5.149 L-7.444,5.027 L-7.387,4.904 L-7.334,4.78 L-7.284,4.656 L-7.237,4.531 L-7.195,4.406 L-7.156,4.281 L-7.122,4.157 L-7.091,4.033 L-7.065,3.91 L-7.042,3.789 L-7.024,3.668 L-7.01,3.55 L-7,3.433 L-6.995,3.318 L-6.993,3.206 L-6.996,3.096 L-7.004,2.989 L-7.015,2.884 L-7.031,2.783 L-7.051,2.685 L-7.075,2.591 L-7.103,2.501 L-7.136,2.414 L-7.172,2.331 L-7.212,2.253 L-7.256,2.179 L-7.304,2.109 L-7.356,2.045 L-7.411,1.984 " />
			<path d="M-21.786,13.819 L-21.706,13.836 L-21.624,13.849 L-21.54,13.855 L-21.454,13.856 L-21.366,13.852 L-21.276,13.842 L-21.185,13.827 L-21.093,13.806 L-20.999,13.78 L-20.904,13.748 L-20.809,13.711 L-20.713,13.669 L-20.616,13.622 L-20.519,13.57 L-20.423,13.512 L-20.326,13.45 L-20.23,13.383 L-20.134,13.312 L-20.039,13.236 L-19.945,13.156 L-19.852,13.071 L-19.76,12.983 L-19.67,12.891 L-19.581,12.795 L-19.494,12.696 L-19.409,12.593 L-19.326,12.488 L-19.245,12.379 L-19.167,12.268 L-19.092,12.155 L-19.019,12.039 L-18.949,11.922 L-18.882,11.802 L-18.818,11.681 L-18.758,11.559 L-18.701,11.436 L-18.647,11.312 L-18.597,11.188 L-18.551,11.063 L-18.509,10.938 L-18.47,10.813 L-18.435,10.689 L-18.405,10.565 L-18.378,10.442 L-18.356,10.321 L-18.338,10.2 L-18.324,10.082 L-18.314,9.965 L-18.308,9.85 L-18.307,9.738 L-18.31,9.628 L-18.317,9.521 L-18.329,9.416 L-18.345,9.315 L-18.365,9.217 L-18.389,9.123 L-18.417,9.033 L-18.449,8.946 L-18.486,8.863 L-18.526,8.785 L-18.57,8.711 L-18.618,8.641 L-18.669,8.577 L-18.724,8.516 " />
			<path d="M-13.838,3.915 L-13.863,3.837 L-13.893,3.76 L-13.93,3.684 L-13.972,3.609 L-14.02,3.535 L-14.073,3.462 L-14.132,3.391 L-14.196,3.321 L-14.266,3.253 L-14.34,3.187 L-14.42,3.123 L-14.505,3.061 L-14.594,3.001 L-14.688,2.943 L-14.786,2.888 L-14.888,2.835 L-14.994,2.785 L-15.103,2.738 L-15.217,2.694 L-15.333,2.652 L-15.453,2.614 L-15.575,2.579 L-15.7,2.546 L-15.828,2.517 L-15.957,2.492 L-16.088,2.469 L-16.221,2.45 L-16.355,2.435 L-16.49,2.423 L-16.626,2.414 L-16.763,2.409 L-16.9,2.407 L-17.037,2.409 L-17.173,2.414 L-17.309,2.423 L-17.444,2.435 L-17.579,2.45 L-17.711,2.469 L-17.843,2.492 L-17.972,2.517 L-18.099,2.546 L-18.224,2.579 L-18.347,2.614 L-18.466,2.652 L-18.583,2.694 L-18.696,2.738 L-18.806,2.785 L-18.912,2.835 L-19.014,2.888 L-19.112,2.943 L-19.206,3.001 L-19.295,3.061 L-19.38,3.123 L-19.459,3.187 L-19.534,3.253 L-19.603,3.321 L-19.668,3.391 L-19.727,3.462 L-19.78,3.535 L-19.828,3.609 L-19.87,3.684 L-19.906,3.76 L-19.937,3.837 L-19.961,3.915 " />
			<path d="M-8.785,2.317 L-8.727,2.301 L-8.669,2.287 L-8.613,2.276 L-8.557,2.268 L-8.501,2.262 L-8.447,2.259 L-8.393,2.258 L-8.34,2.261 L-8.289,2.265 L-8.238,2.273 L-8.189,2.283 L-8.14,2.296 L-8.093,2.311 L-8.048,2.329 L-8.003,2.35 L-7.96,2.373 " />
			<path d="M-7.96,2.373 L-7.902,2.41 L-7.846,2.453 L-7.794,2.5 L-7.745,2.552 L-7.699,2.608 L-7.657,2.67 L-7.619,2.735 L-7.585,2.805 L-7.554,2.879 L-7.528,2.957 L-7.505,3.039 L-7.486,3.124 L-7.472,3.212 L-7.461,3.303 L-7.455,3.398 L-7.453,3.495 L-7.455,3.594 L-7.461,3.695 L-7.472,3.799 L-7.486,3.904 L-7.505,4.011 L-7.528,4.118 L-7.554,4.227 L-7.585,4.336 L-7.619,4.446 L-7.657,4.556 L-7.699,4.665 L-7.745,4.775 L-7.794,4.883 L-7.846,4.991 L-7.902,5.097 L-7.96,5.202 L-8.022,5.305 L-8.086,5.407 L-8.153,5.506 L-8.223,5.602 L-8.295,5.696 L-8.369,5.788 L-8.445,5.876 L-8.522,5.96 L-8.602,6.041 L-8.682,6.119 L-8.764,6.192 L-8.847,6.262 L-8.931,6.327 L-9.016,6.388 L-9.1,6.444 L-9.185,6.495 L-9.27,6.542 L-9.355,6.584 L-9.44,6.62 L-9.523,6.652 L-9.606,6.678 L-9.688,6.699 L-9.769,6.715 L-9.848,6.726 L-9.926,6.731 L-10.002,6.731 L-10.076,6.725 L-10.148,6.714 L-10.217,6.697 L-10.284,6.676 L-10.349,6.649 L-10.41,6.617 " />
			<path d="M-10.41,6.617 L-10.452,6.591 L-10.492,6.563 L-10.53,6.532 L-10.567,6.499 L-10.602,6.464 L-10.636,6.426 L-10.668,6.386 L-10.698,6.344 L-10.726,6.299 L-10.752,6.252 L-10.777,6.204 L-10.8,6.153 L-10.82,6.1 L-10.839,6.045 L-10.856,5.989 L-10.871,5.931 " />
			<path d="M-20.098,8.849 L-20.04,8.833 L-19.983,8.819 L-19.926,8.808 L-19.87,8.8 L-19.815,8.794 L-19.76,8.791 L-19.707,8.79 L-19.654,8.793 L-19.603,8.797 L-19.552,8.805 L-19.502,8.815 L-19.454,8.828 L-19.407,8.843 L-19.361,8.861 L-19.317,8.882 L-19.274,8.905 " />
			<path d="M-19.274,8.905 L-19.215,8.942 L-19.16,8.985 L-19.108,9.032 L-19.059,9.084 L-19.013,9.14 L-18.971,9.202 L-18.933,9.267 L-18.898,9.337 L-18.868,9.411 L-18.841,9.489 L-18.819,9.57 L-18.8,9.656 L-18.785,9.744 L-18.775,9.835 L-18.769,9.93 L-18.767,10.027 L-18.769,10.126 L-18.775,10.227 L-18.785,10.331 L-18.8,10.436 L-18.819,10.543 L-18.841,10.65 L-18.868,10.759 L-18.898,10.868 L-18.933,10.978 L-18.971,11.088 L-19.013,11.197 L-19.059,11.307 L-19.108,11.415 L-19.16,11.523 L-19.215,11.629 L-19.274,11.734 L-19.336,11.837 L-19.4,11.939 L-19.467,12.038 L-19.537,12.134 L-19.608,12.228 L-19.682,12.32 L-19.758,12.407 L-19.836,12.492 L-19.915,12.573 L-19.996,12.651 L-20.078,12.724 L-20.161,12.794 L-20.245,12.859 L-20.329,12.92 L-20.414,12.976 L-20.499,13.027 L-20.584,13.074 L-20.669,13.116 L-20.753,13.152 L-20.837,13.184 L-20.92,13.21 L-21.002,13.231 L-21.083,13.247 L-21.162,13.258 L-21.24,13.263 L-21.316,13.262 L-21.39,13.257 L-21.462,13.246 L-21.531,13.229 L-21.598,13.208 L-21.662,13.181 L-21.724,13.149 " />
			<path d="M-21.724,13.149 L-21.766,13.123 L-21.806,13.095 L-21.844,13.064 L-21.881,13.031 L-21.916,12.996 L-21.95,12.958 L-21.981,12.918 L-22.011,12.876 L-22.04,12.831 L-22.066,12.784 L-22.091,12.736 L-22.113,12.685 L-22.134,12.632 L-22.153,12.577 L-22.17,12.521 L-22.184,12.463 " />
			<path d="M-18.986,4.939 L-19.029,4.897 L-19.07,4.854 L-19.108,4.81 L-19.143,4.766 L-19.176,4.721 L-19.206,4.675 L-19.233,4.629 L-19.257,4.582 L-19.279,4.535 L-19.298,4.487 L-19.313,4.44 L-19.327,4.391 L-19.337,4.343 L-19.344,4.294 L-19.348,4.246 L-19.35,4.197 " />
			<path d="M-19.35,4.197 L-19.347,4.127 L-19.338,4.058 L-19.323,3.989 L-19.303,3.921 L-19.276,3.853 L-19.244,3.786 L-19.207,3.72 L-19.163,3.655 L-19.115,3.592 L-19.061,3.53 L-19.001,3.47 L-18.937,3.411 L-18.868,3.354 L-18.794,3.299 L-18.715,3.247 L-18.632,3.197 L-18.545,3.149 L-18.454,3.103 L-18.359,3.061 L-18.261,3.021 L-18.159,2.984 L-18.055,2.949 L-17.947,2.918 L-17.837,2.89 L-17.725,2.865 L-17.611,2.843 L-17.495,2.825 L-17.378,2.809 L-17.259,2.798 L-17.14,2.789 L-17.02,2.784 L-16.9,2.782 L-16.78,2.784 L-16.66,2.789 L-16.54,2.798 L-16.422,2.809 L-16.305,2.825 L-16.189,2.843 L-16.074,2.865 L-15.962,2.89 L-15.852,2.918 L-15.745,2.949 L-15.64,2.984 L-15.539,3.021 L-15.44,3.061 L-15.346,3.103 L-15.255,3.149 L-15.167,3.197 L-15.085,3.247 L-15.006,3.299 L-14.932,3.354 L-14.863,3.411 L-14.798,3.47 L-14.739,3.53 L-14.685,3.592 L-14.636,3.655 L-14.593,3.72 L-14.555,3.786 L-14.523,3.853 L-14.497,3.921 L-14.476,3.989 L-14.462,4.058 L-14.453,4.127 L-14.45,4.197 " />
			<path d="M-14.45,4.197 L-14.451,4.246 L-14.456,4.294 L-14.463,4.343 L-14.473,4.391 L-14.486,4.44 L-14.502,4.487 L-14.521,4.535 L-14.543,4.582 L-14.567,4.629 L-14.594,4.675 L-14.624,4.721 L-14.657,4.766 L-14.692,4.81 L-14.73,4.854 L-14.771,4.897 L-14.814,4.939 " />
			<path d="M-25.527,11.553 L-25.881,11.349 " />
			<path d="M-30.687,8.574 L-31.042,8.369 " />
			<path d="M-2.758,-1.592 L-3.112,-1.797 " />
			<path d="M-7.919,-4.572 L-8.273,-4.777 " />
			<path d="M-30.687,8.574 L-30.469,8.938 " />
			<path d="M-3.112,-1.797 L-3.252,-1.716 " />
			<path d="M-7.919,-4.572 L-7.713,-4.201 " />
			<path d="M-32.992,14.931 L-27.477,18.115 " />
			<path d="M-6.323,-4.97 L-0.808,-1.785 " />

       </g>
    </g>
    
</svg>
