<?xml version="1.0" encoding="UTF-8" standalone="no"?>
<svg viewBox="164.8 10.0 265.0 320.0"
   xmlns:svg="http://www.w3.org/2000/svg"
   xmlns="http://www.w3.org/2000/svg"
   width="265"
   height="320"

>
    <g transform="scale(7.065835796489936, -7.065835796489936)   translate(41.74024364803891,-25.28417745606192)" stroke-width="0.25"  fill="none">
       <!-- hidden lines -->
       <g  stroke="rgb(160,160,160)" fill="none" stroke-dasharray="0.25,0.25" >
			<path d="M-2.669,-2.623 L-2.797,-2.7 L-2.918,-2.781 L-3.032,-2.865 L-3.138,-2.953 L-3.237,-3.043 L-3.329,-3.136 L-3.412,-3.231 L-3.487,-3.329 L-3.521,-3.378 L-3.554,-3.428 L-3.584,-3.479 L-3.612,-3.53 L-3.638,-3.581 L-3.661,-3.633 L-3.683,-3.685 L-3.702,-3.737 L-3.719,-3.789 L-3.734,-3.842 L-3.746,-3.895 L-3.757,-3.948 L-3.765,-4.001 L-3.77,-4.055 L-3.774,-4.108 L-3.775,-4.161 L-3.774,-4.215 L-3.771,-4.268 L-3.765,-4.321 L-3.758,-4.375 L-3.747,-4.428 L-3.735,-4.481 L-3.721,-4.533 L-3.704,-4.586 L-3.685,-4.638 L-3.664,-4.69 L-3.64,-4.742 L-3.615,-4.793 L-3.587,-4.844 L-3.557,-4.895 L-3.525,-4.945 L-3.491,-4.994 L-3.416,-5.092 L-3.333,-5.188 L-3.242,-5.281 L-3.144,-5.371 L-3.038,-5.458 L-2.924,-5.543 L-2.804,-5.624 L-2.676,-5.701 " />
			<path d="M-2.676,-5.701 L-2.542,-5.776 L-2.402,-5.846 L-2.255,-5.912 L-2.103,-5.974 L-1.947,-6.032 L-1.785,-6.085 L-1.619,-6.133 L-1.449,-6.177 L-1.276,-6.215 L-1.099,-6.249 L-0.92,-6.278 L-0.739,-6.302 L-0.556,-6.32 L-0.371,-6.333 L-0.186,-6.341 L-2.312e-16,-6.344 L0.186,-6.341 L0.371,-6.333 L0.556,-6.32 L0.739,-6.302 L0.92,-6.278 L1.099,-6.249 L1.276,-6.215 L1.449,-6.177 L1.619,-6.133 L1.785,-6.085 L1.947,-6.032 L2.103,-5.974 L2.255,-5.912 L2.402,-5.846 L2.542,-5.776 L2.676,-5.701 " />
			<path d="M2.676,-5.701 L2.804,-5.624 L2.924,-5.543 L3.038,-5.458 L3.144,-5.371 L3.243,-5.28 L3.334,-5.187 L3.416,-5.091 L3.491,-4.994 L3.525,-4.944 L3.557,-4.894 L3.587,-4.843 L3.615,-4.792 L3.641,-4.741 L3.664,-4.689 L3.685,-4.637 L3.704,-4.585 L3.721,-4.532 L3.735,-4.479 L3.748,-4.427 L3.758,-4.373 L3.766,-4.32 L3.771,-4.267 L3.774,-4.213 L3.775,-4.16 L3.774,-4.106 L3.77,-4.053 L3.764,-4 L3.756,-3.946 L3.746,-3.893 L3.733,-3.84 L3.718,-3.788 L3.701,-3.735 L3.682,-3.683 L3.66,-3.631 L3.637,-3.579 L3.611,-3.528 L3.583,-3.477 L3.552,-3.426 L3.52,-3.376 L3.485,-3.327 L3.41,-3.229 L3.327,-3.134 L3.235,-3.041 L3.136,-2.951 L3.029,-2.863 L2.915,-2.779 L2.794,-2.698 L2.666,-2.621 L2.532,-2.547 L2.391,-2.478 L2.245,-2.412 L2.094,-2.35 L1.937,-2.293 L1.776,-2.241 L1.611,-2.193 L1.441,-2.15 L1.269,-2.111 L1.093,-2.078 L0.914,-2.049 L0.734,-2.026 L0.551,-2.008 L0.367,-1.995 L0.183,-1.987 L-0.002,-1.985 L-0.188,-1.987 L-0.372,-1.995 L-0.556,-2.008 L-0.738,-2.027 L-0.919,-2.05 L-1.097,-2.079 L-1.273,-2.112 L-1.446,-2.151 L-1.615,-2.194 L-1.78,-2.242 L-1.941,-2.295 L-2.098,-2.352 L-2.249,-2.414 L-2.395,-2.479 L-2.535,-2.549 L-2.669,-2.623 " />
			<path d="M-0.212,0.041 L-3.041,-1.592 " />
			<path d="M5,-4.164 L4.998,-4.235 L4.994,-4.306 L4.986,-4.376 L4.976,-4.447 L4.962,-4.518 L4.946,-4.588 L4.926,-4.658 L4.904,-4.727 L4.879,-4.797 L4.85,-4.866 L4.819,-4.934 L4.785,-5.002 L4.748,-5.07 L4.708,-5.137 L4.665,-5.203 L4.619,-5.269 L4.571,-5.334 L4.52,-5.398 L4.466,-5.462 L4.41,-5.525 L4.35,-5.587 L4.289,-5.648 L4.224,-5.709 L4.157,-5.768 L4.088,-5.826 L4.016,-5.884 L3.942,-5.94 L3.865,-5.995 L3.786,-6.05 L3.705,-6.103 L3.621,-6.155 L3.536,-6.205 L3.448,-6.255 L3.358,-6.303 L3.266,-6.35 L3.172,-6.396 L3.076,-6.44 L2.978,-6.483 L2.778,-6.564 L2.571,-6.64 L2.357,-6.71 L2.138,-6.774 L1.913,-6.831 L1.684,-6.882 L1.451,-6.927 L1.215,-6.964 L0.975,-6.995 L0.734,-7.02 L0.49,-7.037 L0.245,-7.047 L1.287e-15,-7.051 L-0.245,-7.047 L-0.49,-7.037 L-0.734,-7.02 L-0.975,-6.995 L-1.215,-6.964 L-1.451,-6.927 L-1.684,-6.882 L-1.913,-6.831 L-2.138,-6.774 L-2.357,-6.71 L-2.571,-6.64 L-2.778,-6.564 L-2.978,-6.483 L-3.076,-6.44 L-3.172,-6.396 L-3.266,-6.35 L-3.358,-6.303 L-3.448,-6.255 L-3.536,-6.205 L-3.621,-6.155 L-3.705,-6.103 L-3.786,-6.05 L-3.865,-5.995 L-3.942,-5.94 L-4.016,-5.884 L-4.088,-5.826 L-4.157,-5.768 L-4.224,-5.709 L-4.289,-5.648 L-4.35,-5.587 L-4.41,-5.525 L-4.466,-5.462 L-4.52,-5.398 L-4.571,-5.334 L-4.619,-5.269 L-4.665,-5.203 L-4.708,-5.137 L-4.748,-5.07 L-4.785,-5.002 L-4.819,-4.934 L-4.85,-4.866 L-4.879,-4.797 L-4.904,-4.727 L-4.926,-4.658 L-4.946,-4.588 L-4.962,-4.518 L-4.976,-4.447 L-4.986,-4.376 L-4.994,-4.306 L-4.998,-4.235 L-5,-4.164 " />
			<path d="M-5,-4.164 L-4.998,-4.075 L-4.99,-3.986 L-4.979,-3.897 L-4.962,-3.809 L-4.941,-3.721 L-4.915,-3.633 L-4.884,-3.546 L-4.849,-3.459 L-4.809,-3.373 L-4.764,-3.288 L-4.715,-3.204 L-4.662,-3.12 L-4.604,-3.038 L-4.541,-2.956 L-4.475,-2.876 L-4.404,-2.797 L-4.329,-2.719 L-4.249,-2.643 L-4.166,-2.568 L-4.079,-2.495 L-3.988,-2.423 L-3.893,-2.353 L-3.794,-2.284 L-3.692,-2.217 L-3.586,-2.153 L-3.477,-2.09 L-3.365,-2.029 L-3.249,-1.97 L-3.131,-1.913 L-3.009,-1.859 L-2.884,-1.806 L-2.757,-1.756 " />
			<path d="M-3.041,-1.592 L-2.757,-1.756 " />
			<path d="M-2.722,-2.531 L-2.853,-2.61 L-2.976,-2.693 L-3.092,-2.779 L-3.201,-2.868 L-3.302,-2.96 L-3.395,-3.055 L-3.48,-3.153 L-3.52,-3.202 L-3.557,-3.252 L-3.592,-3.303 L-3.625,-3.354 L-3.656,-3.406 L-3.684,-3.458 L-3.711,-3.51 L-3.735,-3.563 L-3.756,-3.616 L-3.776,-3.669 L-3.793,-3.723 L-3.808,-3.777 L-3.821,-3.831 L-3.831,-3.885 L-3.84,-3.939 L-3.845,-3.994 L-3.849,-4.048 L-3.85,-4.103 " />
			<path d="M-3.85,-4.103 L-3.849,-4.157 L-3.845,-4.212 L-3.84,-4.266 L-3.832,-4.32 L-3.821,-4.374 L-3.809,-4.428 L-3.794,-4.482 L-3.777,-4.535 L-3.757,-4.588 L-3.735,-4.641 L-3.711,-4.694 L-3.685,-4.746 L-3.657,-4.798 L-3.626,-4.849 L-3.594,-4.9 L-3.559,-4.951 L-3.522,-5.001 L-3.483,-5.05 L-3.398,-5.148 L-3.306,-5.242 L-3.205,-5.334 L-3.097,-5.423 L-2.982,-5.509 L-2.859,-5.592 L-2.729,-5.671 " />
			<path d="M-2.729,-5.671 L-2.592,-5.746 L-2.449,-5.818 L-2.3,-5.885 L-2.145,-5.949 L-1.985,-6.007 L-1.82,-6.062 L-1.651,-6.111 L-1.478,-6.155 L-1.301,-6.195 L-1.121,-6.229 L-0.939,-6.259 L-0.754,-6.283 L-0.567,-6.301 L-0.379,-6.315 L-0.19,-6.323 L-2.357e-16,-6.326 L0.19,-6.323 L0.379,-6.315 L0.567,-6.301 L0.754,-6.283 L0.939,-6.259 L1.121,-6.229 L1.301,-6.195 L1.478,-6.155 L1.651,-6.111 L1.82,-6.062 L1.985,-6.007 L2.145,-5.949 L2.3,-5.885 L2.449,-5.818 L2.592,-5.746 L2.729,-5.671 " />
			<path d="M2.729,-5.671 L2.859,-5.592 L2.982,-5.509 L3.097,-5.423 L3.205,-5.334 L3.306,-5.242 L3.398,-5.148 L3.483,-5.05 L3.522,-5.001 L3.559,-4.951 L3.594,-4.9 L3.626,-4.849 L3.657,-4.798 L3.685,-4.746 L3.711,-4.694 L3.735,-4.641 L3.757,-4.588 L3.777,-4.535 L3.794,-4.482 L3.809,-4.428 L3.821,-4.374 L3.832,-4.32 L3.84,-4.266 L3.845,-4.212 L3.849,-4.157 L3.85,-4.103 " />
			<path d="M3.85,-4.103 L3.847,-4.021 L3.84,-3.939 L3.827,-3.858 L3.808,-3.777 L3.785,-3.696 L3.756,-3.616 L3.723,-3.536 L3.684,-3.458 L3.641,-3.38 L3.592,-3.303 L3.539,-3.227 L3.48,-3.153 L3.417,-3.079 L3.35,-3.007 L3.278,-2.937 L3.201,-2.868 L3.12,-2.801 L3.035,-2.735 L2.946,-2.672 L2.853,-2.61 L2.756,-2.551 L2.655,-2.493 L2.55,-2.438 L2.442,-2.385 L2.331,-2.334 L2.217,-2.286 L2.1,-2.24 L1.979,-2.196 L1.856,-2.156 L1.731,-2.117 L1.603,-2.082 L1.473,-2.049 L1.341,-2.019 L1.208,-1.992 L1.072,-1.968 L0.935,-1.947 L0.797,-1.928 L0.658,-1.913 L0.518,-1.9 L0.377,-1.891 L0.236,-1.884 L0.094,-1.881 L-0.047,-1.88 L-0.189,-1.883 L-0.33,-1.888 L-0.471,-1.897 L-0.612,-1.908 L-0.751,-1.923 L-0.89,-1.94 L-1.027,-1.961 L-1.163,-1.984 L-1.297,-2.01 L-1.43,-2.039 L-1.56,-2.071 L-1.689,-2.105 L-1.815,-2.143 L-1.939,-2.182 L-2.06,-2.225 L-2.178,-2.27 L-2.293,-2.318 L-2.406,-2.367 L-2.515,-2.42 L-2.62,-2.474 L-2.722,-2.531 " />
			<path d="M-3.041,-1.592 L-3.041,6.736 " />
			<path d="M-0.212,8.369 L-3.041,6.736 " />
			<path d="M-2.757,-1.756 L-2.757,-9.839 " />
			<path d="M-3.041,6.736 L-2.757,6.572 " />
			<path d="M-2.757,14.656 L-13.435,20.821 " />
			<path d="M-2.757,14.656 L-2.757,6.572 " />
			<path d="M-10.536,0.776 L-10.535,0.688 L-10.53,0.598 L-10.523,0.507 L-10.514,0.415 L-10.501,0.322 L-10.486,0.228 L-10.468,0.133 L-10.448,0.037 L-10.424,-0.059 L-10.398,-0.156 L-10.37,-0.253 L-10.339,-0.35 L-10.305,-0.448 L-10.269,-0.545 L-10.231,-0.642 L-10.19,-0.739 L-10.147,-0.836 L-10.102,-0.932 L-10.054,-1.027 L-10.005,-1.121 L-9.953,-1.215 L-9.899,-1.307 L-9.844,-1.398 L-9.786,-1.488 L-9.727,-1.576 L-9.666,-1.662 L-9.604,-1.747 L-9.54,-1.831 L-9.474,-1.912 L-9.407,-1.991 L-9.339,-2.068 L-9.27,-2.143 L-9.2,-2.215 L-9.129,-2.285 L-9.056,-2.353 L-8.984,-2.417 L-8.91,-2.48 L-8.836,-2.539 L-8.761,-2.595 L-8.686,-2.649 L-8.611,-2.699 L-8.536,-2.746 L-8.46,-2.79 L-8.385,-2.831 L-8.309,-2.869 L-8.234,-2.903 L-8.16,-2.934 L-8.085,-2.962 L-8.011,-2.986 L-7.938,-3.006 L-7.866,-3.023 L-7.794,-3.037 L-7.724,-3.046 L-7.654,-3.053 L-7.586,-3.055 L-7.519,-3.055 L-7.453,-3.05 L-7.388,-3.042 L-7.325,-3.031 L-7.264,-3.015 L-7.204,-2.997 L-7.146,-2.975 L-7.09,-2.949 L-7.035,-2.92 " />
			<path d="M-7.035,-2.92 L-6.966,-2.876 L-6.9,-2.826 L-6.838,-2.77 L-6.78,-2.708 L-6.726,-2.641 L-6.677,-2.569 L-6.632,-2.491 L-6.591,-2.408 L-6.555,-2.321 L-6.523,-2.229 L-6.496,-2.132 L-6.474,-2.031 L-6.457,-1.927 L-6.445,-1.819 L-6.437,-1.707 L-6.435,-1.592 L-6.437,-1.475 L-6.445,-1.354 L-6.457,-1.232 L-6.474,-1.107 L-6.496,-0.981 L-6.523,-0.854 L-6.555,-0.725 L-6.591,-0.596 L-6.632,-0.466 L-6.677,-0.336 L-6.726,-0.206 L-6.78,-0.077 L-6.838,0.051 L-6.9,0.179 L-6.966,0.305 L-7.035,0.429 L-7.108,0.551 L-7.184,0.671 L-7.264,0.788 L-7.346,0.903 L-7.431,1.014 L-7.519,1.122 L-7.609,1.226 L-7.701,1.326 L-7.794,1.422 L-7.89,1.514 L-7.987,1.601 L-8.085,1.683 L-8.184,1.76 L-8.284,1.832 L-8.385,1.899 L-8.485,1.96 L-8.586,2.015 L-8.686,2.064 L-8.786,2.108 L-8.885,2.145 L-8.984,2.176 L-9.081,2.201 L-9.176,2.22 L-9.27,2.232 L-9.362,2.238 L-9.452,2.238 L-9.54,2.231 L-9.625,2.218 L-9.707,2.199 L-9.786,2.173 L-9.862,2.141 L-9.935,2.103 " />
			<path d="M-9.935,2.103 L-10.005,2.059 L-10.07,2.009 L-10.132,1.953 L-10.19,1.892 L-10.244,1.825 L-10.294,1.752 L-10.339,1.674 L-10.38,1.592 L-10.416,1.504 L-10.448,1.412 L-10.474,1.316 L-10.496,1.215 L-10.514,1.11 L-10.526,1.002 L-10.533,0.89 L-10.536,0.776 " />
			<path d="M-10.536,13.023 L-10.535,12.935 L-10.53,12.846 L-10.523,12.755 L-10.514,12.663 L-10.501,12.57 L-10.486,12.476 L-10.468,12.381 L-10.448,12.285 L-10.424,12.188 L-10.398,12.092 L-10.37,11.994 L-10.339,11.897 L-10.305,11.8 L-10.269,11.702 L-10.231,11.605 L-10.19,11.508 L-10.147,11.412 L-10.102,11.316 L-10.054,11.221 L-10.005,11.126 L-9.953,11.033 L-9.899,10.941 L-9.844,10.85 L-9.786,10.76 L-9.727,10.672 L-9.666,10.585 L-9.604,10.5 L-9.54,10.417 L-9.474,10.336 L-9.407,10.256 L-9.339,10.179 L-9.27,10.105 L-9.2,10.032 L-9.129,9.962 L-9.056,9.895 L-8.984,9.83 L-8.91,9.768 L-8.836,9.709 L-8.761,9.652 L-8.686,9.599 L-8.611,9.548 L-8.536,9.501 L-8.46,9.457 L-8.385,9.416 L-8.309,9.379 L-8.234,9.344 L-8.16,9.313 L-8.085,9.286 L-8.011,9.262 L-7.938,9.241 L-7.866,9.224 L-7.794,9.211 L-7.724,9.201 L-7.654,9.195 L-7.586,9.192 L-7.519,9.193 L-7.453,9.197 L-7.388,9.205 L-7.325,9.217 L-7.264,9.232 L-7.204,9.251 L-7.146,9.273 L-7.09,9.299 L-7.035,9.328 " />
			<path d="M-7.035,9.328 L-6.966,9.372 L-6.9,9.422 L-6.838,9.478 L-6.78,9.539 L-6.726,9.606 L-6.677,9.679 L-6.632,9.757 L-6.591,9.839 L-6.555,9.927 L-6.523,10.019 L-6.496,10.115 L-6.474,10.216 L-6.457,10.321 L-6.445,10.429 L-6.437,10.541 L-6.435,10.655 L-6.437,10.773 L-6.445,10.893 L-6.457,11.016 L-6.474,11.14 L-6.496,11.266 L-6.523,11.394 L-6.555,11.522 L-6.591,11.652 L-6.632,11.781 L-6.677,11.911 L-6.726,12.041 L-6.78,12.17 L-6.838,12.299 L-6.9,12.426 L-6.966,12.552 L-7.035,12.676 L-7.108,12.799 L-7.184,12.918 L-7.264,13.036 L-7.346,13.15 L-7.431,13.262 L-7.519,13.369 L-7.609,13.474 L-7.701,13.574 L-7.794,13.67 L-7.89,13.761 L-7.987,13.848 L-8.085,13.931 L-8.184,14.008 L-8.284,14.08 L-8.385,14.146 L-8.485,14.207 L-8.586,14.262 L-8.686,14.312 L-8.786,14.355 L-8.885,14.393 L-8.984,14.424 L-9.081,14.449 L-9.176,14.467 L-9.27,14.48 L-9.362,14.486 L-9.452,14.486 L-9.54,14.479 L-9.625,14.466 L-9.707,14.446 L-9.786,14.421 L-9.862,14.389 L-9.935,14.351 " />
			<path d="M-9.935,14.351 L-10.005,14.307 L-10.07,14.257 L-10.132,14.201 L-10.19,14.139 L-10.244,14.072 L-10.294,14 L-10.339,13.922 L-10.38,13.839 L-10.416,13.752 L-10.448,13.659 L-10.474,13.563 L-10.496,13.462 L-10.514,13.358 L-10.526,13.25 L-10.533,13.138 L-10.536,13.023 " />
			<path d="M-2.722,-2.409 L-2.853,-2.488 L-2.976,-2.57 L-3.092,-2.656 L-3.201,-2.746 L-3.302,-2.838 L-3.395,-2.933 L-3.48,-3.03 L-3.52,-3.08 L-3.557,-3.13 L-3.592,-3.18 L-3.625,-3.232 L-3.656,-3.283 L-3.684,-3.335 L-3.711,-3.388 L-3.735,-3.44 L-3.756,-3.493 L-3.776,-3.547 L-3.793,-3.6 L-3.808,-3.654 L-3.821,-3.708 L-3.831,-3.763 L-3.84,-3.817 L-3.845,-3.871 L-3.849,-3.926 L-3.85,-3.98 " />
			<path d="M-3.85,-3.98 L-3.849,-4.035 L-3.845,-4.089 L-3.84,-4.144 L-3.831,-4.198 L-3.821,-4.253 L-3.808,-4.307 L-3.793,-4.36 L-3.776,-4.414 L-3.756,-4.467 L-3.735,-4.521 L-3.711,-4.573 L-3.684,-4.626 L-3.656,-4.678 L-3.625,-4.729 L-3.592,-4.78 L-3.557,-4.831 L-3.52,-4.881 L-3.48,-4.931 L-3.395,-5.028 L-3.302,-5.123 L-3.201,-5.215 L-3.092,-5.305 L-2.976,-5.391 L-2.853,-5.473 L-2.722,-5.552 L-2.586,-5.627 L-2.442,-5.699 L-2.293,-5.766 L-2.139,-5.829 L-1.979,-5.887 L-1.815,-5.941 L-1.646,-5.99 L-1.473,-6.034 L-1.297,-6.073 L-1.118,-6.108 L-0.935,-6.137 L-0.751,-6.161 L-0.565,-6.179 L-0.377,-6.193 L-0.189,-6.201 L-2.357e-16,-6.203 L0.189,-6.201 L0.377,-6.193 L0.565,-6.179 L0.751,-6.161 L0.935,-6.137 L1.118,-6.108 L1.297,-6.073 L1.473,-6.034 L1.646,-5.99 L1.815,-5.941 L1.979,-5.887 L2.139,-5.829 L2.293,-5.766 L2.442,-5.699 L2.586,-5.627 L2.722,-5.552 L2.853,-5.473 L2.976,-5.391 L3.092,-5.305 L3.201,-5.215 L3.302,-5.123 L3.395,-5.028 L3.48,-4.931 L3.52,-4.881 L3.557,-4.831 L3.592,-4.78 L3.625,-4.729 L3.656,-4.678 L3.684,-4.626 L3.711,-4.573 L3.735,-4.521 L3.756,-4.467 L3.776,-4.414 L3.793,-4.36 L3.808,-4.307 L3.821,-4.253 L3.831,-4.198 L3.84,-4.144 L3.845,-4.089 L3.849,-4.035 L3.85,-3.98 " />
			<path d="M3.85,-3.98 L3.847,-3.899 L3.84,-3.817 L3.827,-3.735 L3.808,-3.654 L3.785,-3.574 L3.756,-3.493 L3.723,-3.414 L3.684,-3.335 L3.641,-3.257 L3.592,-3.18 L3.539,-3.105 L3.48,-3.03 L3.417,-2.957 L3.35,-2.885 L3.278,-2.814 L3.201,-2.746 L3.12,-2.678 L3.035,-2.613 L2.946,-2.549 L2.853,-2.488 L2.756,-2.428 L2.655,-2.371 L2.55,-2.315 L2.442,-2.262 L2.331,-2.211 L2.217,-2.163 L2.1,-2.117 L1.979,-2.074 L1.856,-2.033 L1.731,-1.995 L1.603,-1.96 L1.473,-1.927 L1.341,-1.897 L1.208,-1.87 L1.072,-1.846 L0.935,-1.824 L0.797,-1.806 L0.658,-1.79 L0.518,-1.778 L0.377,-1.768 L0.236,-1.762 L0.094,-1.758 L-0.047,-1.758 L-0.189,-1.76 L-0.33,-1.766 L-0.471,-1.774 L-0.612,-1.786 L-0.751,-1.8 L-0.89,-1.818 L-1.027,-1.838 L-1.163,-1.861 L-1.297,-1.888 L-1.43,-1.917 L-1.56,-1.948 L-1.689,-1.983 L-1.815,-2.02 L-1.939,-2.06 L-2.06,-2.102 L-2.178,-2.148 L-2.293,-2.195 L-2.406,-2.245 L-2.515,-2.297 L-2.62,-2.352 L-2.722,-2.409 " />
			<path d="M-2.757,6.572 L-2.884,6.522 L-3.009,6.47 L-3.131,6.415 L-3.249,6.358 L-3.365,6.299 L-3.477,6.238 L-3.586,6.176 L-3.692,6.111 L-3.794,6.044 L-3.893,5.976 L-3.988,5.906 L-4.079,5.834 L-4.166,5.76 L-4.249,5.685 L-4.329,5.609 L-4.404,5.531 L-4.475,5.452 L-4.541,5.372 L-4.604,5.291 L-4.662,5.208 L-4.715,5.125 L-4.764,5.04 L-4.809,4.955 L-4.849,4.869 L-4.884,4.782 L-4.915,4.695 L-4.941,4.607 L-4.962,4.519 L-4.979,4.431 L-4.99,4.342 L-4.998,4.253 L-5,4.164 " />
			<path d="M-5,4.164 L-4.998,4.093 L-4.994,4.022 L-4.986,3.952 L-4.976,3.881 L-4.962,3.811 L-4.946,3.741 L-4.926,3.671 L-4.904,3.601 L-4.879,3.532 L-4.85,3.463 L-4.819,3.394 L-4.785,3.326 L-4.748,3.259 L-4.708,3.192 L-4.665,3.125 L-4.619,3.059 L-4.571,2.994 L-4.52,2.93 L-4.466,2.866 L-4.41,2.803 L-4.35,2.741 L-4.289,2.68 L-4.224,2.62 L-4.157,2.56 L-4.088,2.502 L-4.016,2.444 L-3.942,2.388 L-3.865,2.333 L-3.786,2.279 L-3.705,2.226 L-3.621,2.174 L-3.536,2.123 L-3.448,2.073 L-3.358,2.025 L-3.266,1.978 L-3.172,1.933 L-3.076,1.888 L-2.978,1.845 L-2.778,1.764 L-2.571,1.688 L-2.357,1.618 L-2.138,1.555 L-1.913,1.497 L-1.684,1.446 L-1.451,1.402 L-1.215,1.364 L-0.975,1.333 L-0.734,1.309 L-0.49,1.291 L-0.245,1.281 L7.425e-16,1.277 L0.245,1.281 L0.49,1.291 L0.734,1.309 L0.975,1.333 L1.215,1.364 L1.451,1.402 L1.684,1.446 L1.913,1.497 L2.138,1.555 L2.357,1.618 L2.571,1.688 L2.778,1.764 L2.978,1.845 L3.076,1.888 L3.172,1.933 L3.266,1.978 L3.358,2.025 L3.448,2.073 L3.536,2.123 L3.621,2.174 L3.705,2.226 L3.786,2.279 L3.865,2.333 L3.942,2.388 L4.016,2.444 L4.088,2.502 L4.157,2.56 L4.224,2.62 L4.289,2.68 L4.35,2.741 L4.41,2.803 L4.466,2.866 L4.52,2.93 L4.571,2.994 L4.619,3.059 L4.665,3.125 L4.708,3.192 L4.748,3.259 L4.785,3.326 L4.819,3.394 L4.85,3.463 L4.879,3.532 L4.904,3.601 L4.926,3.671 L4.946,3.741 L4.962,3.811 L4.976,3.881 L4.986,3.952 L4.994,4.022 L4.998,4.093 L5,4.164 " />
			<path d="M5,4.164 L4.997,4.262 L4.989,4.359 L4.974,4.456 L4.955,4.553 L4.929,4.649 L4.898,4.745 L4.861,4.84 L4.819,4.934 L4.771,5.027 L4.718,5.12 L4.66,5.211 L4.596,5.301 L4.527,5.39 L4.452,5.478 L4.373,5.564 L4.289,5.648 " />
			<path d="M-2.669,5.705 L-2.535,5.779 L-2.394,5.849 L-2.248,5.915 L-2.096,5.977 L-1.94,6.034 L-1.778,6.087 L-1.612,6.135 L-1.442,6.178 L-1.269,6.217 L-1.093,6.25 L-0.914,6.279 L-0.733,6.302 L-0.55,6.32 L-0.366,6.333 L-0.181,6.341 L0.005,6.344 L0.19,6.341 L0.376,6.333 L0.56,6.32 L0.743,6.301 L0.924,6.278 L1.102,6.249 L1.278,6.215 L1.451,6.176 L1.621,6.133 L1.787,6.084 L1.948,6.031 L2.105,5.974 L2.256,5.912 L2.402,5.846 L2.542,5.775 L2.676,5.701 " />
			<path d="M2.676,5.701 L2.772,5.643 L2.865,5.584 L2.953,5.522 L3.038,5.458 L3.118,5.393 L3.194,5.326 L3.266,5.257 L3.333,5.187 L3.396,5.116 L3.455,5.043 L3.508,4.969 L3.557,4.894 L3.601,4.818 L3.64,4.741 L3.675,4.664 L3.704,4.585 L3.728,4.506 L3.748,4.427 L3.762,4.347 L3.771,4.267 L3.775,4.187 L3.774,4.107 L3.768,4.027 L3.756,3.947 L3.74,3.867 L3.719,3.788 L3.692,3.71 L3.661,3.631 L3.624,3.554 L3.583,3.478 L3.537,3.402 L3.486,3.327 L3.43,3.254 L3.37,3.182 L3.305,3.111 L3.236,3.041 L3.162,2.974 L3.084,2.907 L3.002,2.843 L2.916,2.78 L2.826,2.719 L2.732,2.66 L2.634,2.603 L2.533,2.548 L2.428,2.495 L2.32,2.445 L2.209,2.397 L2.095,2.351 L1.978,2.308 L1.859,2.267 L1.737,2.229 L1.612,2.193 L1.486,2.16 L1.357,2.13 L1.227,2.103 L1.095,2.078 L0.961,2.056 L0.826,2.037 L0.69,2.021 L0.553,2.008 L0.416,1.998 L0.277,1.99 L0.139,1.986 L8.659e-16,1.985 L-0.139,1.986 L-0.277,1.99 L-0.416,1.998 L-0.553,2.008 L-0.69,2.021 L-0.826,2.037 L-0.961,2.056 L-1.095,2.078 L-1.227,2.103 L-1.357,2.13 L-1.486,2.16 L-1.612,2.193 L-1.737,2.229 L-1.859,2.267 L-1.978,2.308 L-2.095,2.351 L-2.209,2.397 L-2.32,2.445 L-2.428,2.495 L-2.533,2.548 L-2.634,2.603 L-2.732,2.66 L-2.826,2.719 L-2.916,2.78 L-3.002,2.843 L-3.084,2.907 L-3.162,2.974 L-3.236,3.041 L-3.305,3.111 L-3.37,3.182 L-3.43,3.254 L-3.486,3.327 L-3.537,3.402 L-3.583,3.478 L-3.624,3.554 L-3.661,3.631 L-3.692,3.71 L-3.719,3.788 L-3.74,3.867 L-3.756,3.947 L-3.768,4.027 L-3.774,4.107 L-3.775,4.187 L-3.771,4.267 L-3.762,4.347 L-3.748,4.427 L-3.728,4.506 L-3.704,4.585 L-3.675,4.664 L-3.64,4.741 L-3.601,4.818 L-3.557,4.894 L-3.508,4.969 L-3.455,5.043 L-3.396,5.116 L-3.333,5.187 L-3.266,5.257 L-3.194,5.326 L-3.118,5.393 L-3.038,5.458 L-2.953,5.522 L-2.865,5.584 L-2.772,5.643 L-2.676,5.701 " />
			<path d="M-2.676,5.701 L-2.669,5.705 " />
			<path d="M-2.757,14.656 L-2.884,14.605 L-3.009,14.553 L-3.131,14.498 L-3.249,14.442 L-3.365,14.383 L-3.477,14.322 L-3.586,14.259 L-3.692,14.194 L-3.794,14.127 L-3.893,14.059 L-3.988,13.989 L-4.079,13.917 L-4.166,13.844 L-4.249,13.769 L-4.329,13.692 L-4.404,13.615 L-4.475,13.536 L-4.541,13.455 L-4.604,13.374 L-4.662,13.291 L-4.715,13.208 L-4.764,13.124 L-4.809,13.038 L-4.849,12.952 L-4.884,12.866 L-4.915,12.779 L-4.941,12.691 L-4.962,12.603 L-4.979,12.514 L-4.99,12.425 L-4.998,12.336 L-5,12.247 " />
			<path d="M-5,12.247 L-4.998,12.177 L-4.994,12.106 L-4.986,12.035 L-4.976,11.964 L-4.962,11.894 L-4.946,11.824 L-4.926,11.754 L-4.904,11.684 L-4.879,11.615 L-4.85,11.546 L-4.819,11.478 L-4.785,11.409 L-4.748,11.342 L-4.708,11.275 L-4.665,11.209 L-4.619,11.143 L-4.571,11.078 L-4.52,11.013 L-4.466,10.95 L-4.41,10.887 L-4.35,10.825 L-4.289,10.763 L-4.224,10.703 L-4.157,10.644 L-4.088,10.585 L-4.016,10.528 L-3.942,10.471 L-3.865,10.416 L-3.786,10.362 L-3.705,10.309 L-3.621,10.257 L-3.536,10.206 L-3.448,10.157 L-3.358,10.109 L-3.266,10.062 L-3.172,10.016 L-3.076,9.972 L-2.978,9.929 L-2.778,9.847 L-2.571,9.771 L-2.357,9.702 L-2.138,9.638 L-1.913,9.58 L-1.684,9.529 L-1.451,9.485 L-1.215,9.447 L-0.975,9.416 L-0.734,9.392 L-0.49,9.375 L-0.245,9.364 L-3.062e-16,9.361 L0.245,9.364 L0.49,9.375 L0.734,9.392 L0.975,9.416 L1.215,9.447 L1.451,9.485 L1.684,9.529 L1.913,9.58 L2.138,9.638 L2.357,9.702 L2.571,9.771 L2.778,9.847 L2.978,9.929 L3.076,9.972 L3.172,10.016 L3.266,10.062 L3.358,10.109 L3.448,10.157 L3.536,10.206 L3.621,10.257 L3.705,10.309 L3.786,10.362 L3.865,10.416 L3.942,10.471 L4.016,10.528 L4.088,10.585 L4.157,10.644 L4.224,10.703 L4.289,10.763 L4.35,10.825 L4.41,10.887 L4.466,10.95 L4.52,11.013 L4.571,11.078 L4.619,11.143 L4.665,11.209 L4.708,11.275 L4.748,11.342 L4.785,11.409 L4.819,11.478 L4.85,11.546 L4.879,11.615 L4.904,11.684 L4.926,11.754 L4.946,11.824 L4.962,11.894 L4.976,11.964 L4.986,12.035 L4.994,12.106 L4.998,12.177 L5,12.247 " />
			<path d="M-8.768,0.857 L-8.767,0.927 L-8.762,0.994 L-8.755,1.059 L-8.744,1.122 L-8.731,1.183 L-8.715,1.241 L-8.696,1.297 L-8.674,1.35 L-8.649,1.4 L-8.622,1.447 L-8.592,1.49 L-8.56,1.531 L-8.525,1.568 L-8.487,1.602 L-8.448,1.632 L-8.406,1.658 " />
			<path d="M-8.406,1.658 L-8.362,1.681 L-8.316,1.701 L-8.268,1.716 L-8.218,1.728 L-8.167,1.736 L-8.114,1.74 L-8.06,1.74 L-8.004,1.736 L-7.948,1.729 L-7.89,1.718 L-7.831,1.703 L-7.772,1.684 L-7.712,1.661 L-7.652,1.635 L-7.591,1.605 L-7.531,1.572 " />
			<path d="M-7.531,1.572 L-7.47,1.535 L-7.409,1.495 L-7.349,1.451 L-7.289,1.405 L-7.23,1.355 L-7.171,1.303 L-7.114,1.248 L-7.057,1.19 L-7.002,1.129 L-6.947,1.066 L-6.895,1.001 L-6.843,0.934 L-6.794,0.865 L-6.746,0.794 L-6.7,0.722 L-6.656,0.648 L-6.614,0.573 L-6.574,0.497 L-6.537,0.42 L-6.502,0.343 L-6.469,0.265 L-6.439,0.186 L-6.412,0.108 L-6.387,0.03 L-6.366,-0.048 L-6.347,-0.126 L-6.33,-0.203 L-6.317,-0.279 L-6.307,-0.354 L-6.299,-0.428 L-6.295,-0.501 L-6.293,-0.572 " />
			<path d="M-6.293,-0.572 L-6.295,-0.641 L-6.299,-0.708 L-6.307,-0.773 L-6.317,-0.837 L-6.33,-0.897 L-6.347,-0.956 L-6.366,-1.011 L-6.387,-1.064 L-6.412,-1.114 L-6.439,-1.161 L-6.469,-1.204 L-6.502,-1.245 L-6.537,-1.282 L-6.574,-1.316 L-6.614,-1.346 L-6.656,-1.373 " />
			<path d="M-6.656,-1.373 L-6.688,-1.39 L-6.722,-1.406 L-6.757,-1.419 L-6.794,-1.43 L-6.831,-1.44 L-6.869,-1.447 L-6.908,-1.451 L-6.947,-1.454 L-6.988,-1.455 L-7.029,-1.453 L-7.071,-1.449 L-7.114,-1.443 L-7.201,-1.425 L-7.289,-1.398 L-7.379,-1.363 L-7.47,-1.319 L-7.561,-1.268 L-7.652,-1.209 L-7.742,-1.143 L-7.831,-1.07 L-7.919,-0.99 L-8.004,-0.904 L-8.087,-0.812 L-8.167,-0.715 L-8.243,-0.614 L-8.316,-0.508 L-8.384,-0.399 L-8.448,-0.287 L-8.506,-0.173 L-8.56,-0.057 L-8.607,0.06 L-8.649,0.178 L-8.685,0.295 L-8.715,0.412 L-8.738,0.527 L-8.755,0.64 L-8.765,0.75 L-8.768,0.857 " />
			<path d="M-8.768,13.105 L-8.767,13.174 L-8.762,13.241 L-8.755,13.307 L-8.744,13.37 L-8.731,13.431 L-8.715,13.489 L-8.696,13.544 L-8.674,13.597 L-8.649,13.647 L-8.622,13.694 L-8.592,13.738 L-8.56,13.778 L-8.525,13.815 L-8.487,13.849 L-8.448,13.879 L-8.406,13.906 " />
			<path d="M-8.406,13.906 L-8.362,13.929 L-8.316,13.948 L-8.268,13.964 L-8.218,13.975 L-8.167,13.983 L-8.114,13.987 L-8.06,13.987 L-8.004,13.984 L-7.948,13.976 L-7.89,13.965 L-7.831,13.95 L-7.772,13.931 L-7.712,13.909 L-7.652,13.882 L-7.591,13.853 L-7.531,13.819 " />
			<path d="M-7.531,13.819 L-7.47,13.782 L-7.409,13.742 L-7.349,13.699 L-7.289,13.652 L-7.23,13.603 L-7.171,13.55 L-7.114,13.495 L-7.057,13.437 L-7.002,13.377 L-6.947,13.314 L-6.895,13.249 L-6.843,13.181 L-6.794,13.112 L-6.746,13.042 L-6.7,12.969 L-6.656,12.896 L-6.614,12.821 L-6.574,12.745 L-6.537,12.668 L-6.502,12.59 L-6.469,12.512 L-6.439,12.434 L-6.412,12.355 L-6.387,12.277 L-6.366,12.199 L-6.347,12.121 L-6.33,12.044 L-6.317,11.968 L-6.307,11.893 L-6.299,11.819 L-6.295,11.747 L-6.293,11.676 " />
			<path d="M-6.293,11.676 L-6.295,11.607 L-6.299,11.539 L-6.307,11.474 L-6.317,11.411 L-6.33,11.35 L-6.347,11.292 L-6.366,11.236 L-6.387,11.183 L-6.412,11.134 L-6.439,11.087 L-6.469,11.043 L-6.502,11.002 L-6.537,10.965 L-6.574,10.932 L-6.614,10.901 L-6.656,10.875 " />
			<path d="M-6.656,10.875 L-6.688,10.857 L-6.722,10.842 L-6.757,10.828 L-6.794,10.817 L-6.831,10.808 L-6.869,10.801 L-6.908,10.796 L-6.947,10.793 L-6.988,10.793 L-7.029,10.795 L-7.071,10.798 L-7.114,10.804 L-7.201,10.823 L-7.289,10.85 L-7.379,10.885 L-7.47,10.928 L-7.561,10.979 L-7.652,11.038 L-7.742,11.105 L-7.831,11.178 L-7.919,11.258 L-8.004,11.344 L-8.087,11.435 L-8.167,11.532 L-8.243,11.633 L-8.316,11.739 L-8.384,11.848 L-8.448,11.96 L-8.506,12.074 L-8.56,12.191 L-8.607,12.308 L-8.649,12.425 L-8.685,12.543 L-8.715,12.659 L-8.738,12.774 L-8.755,12.887 L-8.765,12.998 L-8.768,13.105 " />
			<path d="M-10.394,0.857 L-10.392,0.972 L-10.385,1.084 L-10.372,1.192 L-10.355,1.297 L-10.333,1.397 L-10.306,1.494 L-10.275,1.586 L-10.238,1.673 L-10.198,1.756 L-10.152,1.834 L-10.103,1.906 L-10.049,1.973 L-9.991,2.035 L-9.929,2.091 L-9.863,2.141 L-9.794,2.185 " />
			<path d="M-9.794,2.185 L-9.721,2.223 L-9.645,2.255 L-9.565,2.281 L-9.483,2.3 L-9.398,2.313 L-9.311,2.32 L-9.221,2.32 L-9.129,2.314 L-9.035,2.302 L-8.939,2.283 L-8.842,2.258 L-8.744,2.227 L-8.645,2.189 L-8.545,2.146 L-8.444,2.096 L-8.344,2.041 " />
			<path d="M-8.344,2.041 L-8.243,1.98 L-8.143,1.914 L-8.043,1.842 L-7.944,1.765 L-7.846,1.683 L-7.749,1.596 L-7.653,1.504 L-7.559,1.408 L-7.467,1.308 L-7.377,1.204 L-7.29,1.096 L-7.205,0.984 L-7.122,0.87 L-7.043,0.753 L-6.967,0.633 L-6.894,0.511 L-6.824,0.386 L-6.759,0.26 L-6.697,0.133 L-6.639,0.005 L-6.585,-0.125 L-6.535,-0.255 L-6.49,-0.384 L-6.449,-0.514 L-6.413,-0.644 L-6.382,-0.772 L-6.355,-0.9 L-6.333,-1.026 L-6.315,-1.15 L-6.303,-1.273 L-6.296,-1.393 L-6.293,-1.511 " />
			<path d="M-6.293,-1.511 L-6.296,-1.625 L-6.303,-1.737 L-6.315,-1.845 L-6.333,-1.95 L-6.355,-2.05 L-6.382,-2.147 L-6.413,-2.239 L-6.449,-2.327 L-6.49,-2.409 L-6.535,-2.487 L-6.585,-2.559 L-6.639,-2.626 L-6.697,-2.688 L-6.759,-2.744 L-6.824,-2.794 L-6.894,-2.838 " />
			<path d="M-6.894,-2.838 L-6.948,-2.867 L-7.004,-2.893 L-7.063,-2.915 L-7.122,-2.934 L-7.184,-2.949 L-7.247,-2.96 L-7.311,-2.968 L-7.377,-2.973 L-7.444,-2.974 L-7.513,-2.971 L-7.582,-2.965 L-7.653,-2.955 L-7.725,-2.941 L-7.797,-2.924 L-7.87,-2.904 L-7.944,-2.88 L-8.018,-2.852 L-8.093,-2.822 L-8.168,-2.787 L-8.243,-2.75 L-8.319,-2.709 L-8.394,-2.665 L-8.47,-2.617 L-8.545,-2.567 L-8.62,-2.514 L-8.694,-2.457 L-8.769,-2.398 L-8.842,-2.336 L-8.915,-2.271 L-8.987,-2.204 L-9.058,-2.134 L-9.129,-2.061 L-9.198,-1.986 L-9.266,-1.909 L-9.333,-1.83 L-9.398,-1.749 L-9.462,-1.666 L-9.525,-1.581 L-9.586,-1.494 L-9.645,-1.406 L-9.702,-1.316 L-9.758,-1.225 L-9.812,-1.133 L-9.863,-1.04 L-9.913,-0.945 L-9.96,-0.85 L-10.006,-0.754 L-10.049,-0.658 L-10.09,-0.561 L-10.128,-0.464 L-10.164,-0.366 L-10.198,-0.269 L-10.229,-0.171 L-10.257,-0.074 L-10.283,0.023 L-10.306,0.119 L-10.327,0.215 L-10.345,0.31 L-10.36,0.404 L-10.372,0.497 L-10.382,0.589 L-10.389,0.68 L-10.393,0.769 L-10.394,0.857 " />
			<path d="M-10.394,13.105 L-10.392,13.22 L-10.385,13.331 L-10.372,13.439 L-10.355,13.544 L-10.333,13.645 L-10.306,13.741 L-10.275,13.833 L-10.238,13.921 L-10.198,14.003 L-10.152,14.081 L-10.103,14.154 L-10.049,14.221 L-9.991,14.282 L-9.929,14.338 L-9.863,14.388 L-9.794,14.432 " />
			<path d="M-9.794,14.432 L-9.721,14.47 L-9.645,14.502 L-9.565,14.528 L-9.483,14.547 L-9.398,14.56 L-9.311,14.567 L-9.221,14.568 L-9.129,14.562 L-9.035,14.549 L-8.939,14.53 L-8.842,14.505 L-8.744,14.474 L-8.645,14.437 L-8.545,14.393 L-8.444,14.344 L-8.344,14.289 " />
			<path d="M-8.344,14.289 L-8.243,14.228 L-8.143,14.161 L-8.043,14.089 L-7.944,14.012 L-7.846,13.93 L-7.749,13.843 L-7.653,13.751 L-7.559,13.655 L-7.467,13.555 L-7.377,13.451 L-7.29,13.343 L-7.205,13.232 L-7.122,13.117 L-7.043,13 L-6.967,12.88 L-6.894,12.758 L-6.824,12.634 L-6.759,12.508 L-6.697,12.38 L-6.639,12.252 L-6.585,12.123 L-6.535,11.993 L-6.49,11.863 L-6.449,11.733 L-6.413,11.604 L-6.382,11.475 L-6.355,11.348 L-6.333,11.222 L-6.315,11.097 L-6.303,10.975 L-6.296,10.855 L-6.293,10.737 " />
			<path d="M-6.293,10.737 L-6.296,10.622 L-6.303,10.511 L-6.315,10.402 L-6.333,10.298 L-6.355,10.197 L-6.382,10.101 L-6.413,10.008 L-6.449,9.921 L-6.49,9.838 L-6.535,9.761 L-6.585,9.688 L-6.639,9.621 L-6.697,9.559 L-6.759,9.504 L-6.824,9.453 L-6.894,9.409 " />
			<path d="M-6.894,9.409 L-6.948,9.38 L-7.004,9.355 L-7.063,9.332 L-7.122,9.314 L-7.184,9.299 L-7.247,9.287 L-7.311,9.279 L-7.377,9.275 L-7.444,9.274 L-7.513,9.276 L-7.582,9.283 L-7.653,9.293 L-7.725,9.306 L-7.797,9.323 L-7.87,9.344 L-7.944,9.368 L-8.018,9.395 L-8.093,9.426 L-8.168,9.46 L-8.243,9.498 L-8.319,9.539 L-8.394,9.583 L-8.47,9.63 L-8.545,9.68 L-8.62,9.734 L-8.694,9.79 L-8.769,9.85 L-8.842,9.912 L-8.915,9.976 L-8.987,10.044 L-9.058,10.114 L-9.129,10.186 L-9.198,10.261 L-9.266,10.338 L-9.333,10.417 L-9.398,10.499 L-9.462,10.582 L-9.525,10.667 L-9.586,10.753 L-9.645,10.842 L-9.702,10.931 L-9.758,11.022 L-9.812,11.115 L-9.863,11.208 L-9.913,11.302 L-9.96,11.397 L-10.006,11.493 L-10.049,11.59 L-10.09,11.687 L-10.128,11.784 L-10.164,11.881 L-10.198,11.979 L-10.229,12.076 L-10.257,12.173 L-10.283,12.27 L-10.306,12.366 L-10.327,12.462 L-10.345,12.557 L-10.36,12.651 L-10.372,12.745 L-10.382,12.837 L-10.389,12.927 L-10.393,13.017 L-10.394,13.105 " />
			<path d="M-2.722,5.675 L-2.585,5.75 L-2.442,5.821 L-2.293,5.889 L-2.138,5.951 L-1.978,6.01 L-1.813,6.064 L-1.644,6.113 L-1.471,6.157 L-1.294,6.196 L-1.115,6.231 L-0.932,6.26 L-0.747,6.283 L-0.561,6.302 L-0.373,6.315 L-0.184,6.323 L0.005,6.326 L0.194,6.323 L0.383,6.315 L0.571,6.301 L0.757,6.282 L0.942,6.258 L1.124,6.229 L1.304,6.194 L1.48,6.155 L1.653,6.11 L1.822,6.061 L1.987,6.007 L2.146,5.948 L2.301,5.885 L2.45,5.818 L2.593,5.746 L2.729,5.671 " />
			<path d="M2.729,5.671 L2.859,5.592 L2.982,5.509 L3.097,5.423 L3.205,5.334 L3.306,5.242 L3.398,5.148 L3.483,5.05 L3.522,5.001 L3.559,4.951 L3.594,4.9 L3.626,4.849 L3.657,4.798 L3.685,4.746 L3.711,4.694 L3.735,4.641 L3.757,4.588 L3.777,4.535 L3.794,4.482 L3.809,4.428 L3.821,4.374 L3.832,4.32 L3.84,4.266 L3.845,4.212 L3.849,4.157 L3.85,4.103 " />
			<path d="M3.85,4.103 L3.849,4.048 L3.845,3.994 L3.84,3.939 L3.831,3.885 L3.821,3.831 L3.808,3.777 L3.793,3.723 L3.776,3.669 L3.756,3.616 L3.735,3.563 L3.711,3.51 L3.684,3.458 L3.656,3.406 L3.625,3.354 L3.592,3.303 L3.557,3.252 L3.52,3.202 L3.48,3.153 L3.395,3.055 L3.302,2.96 L3.201,2.868 L3.092,2.779 L2.976,2.693 L2.853,2.61 L2.722,2.531 L2.586,2.456 L2.442,2.385 L2.293,2.318 L2.139,2.255 L1.979,2.196 L1.815,2.143 L1.646,2.094 L1.473,2.049 L1.297,2.01 L1.118,1.976 L0.935,1.947 L0.751,1.923 L0.565,1.904 L0.377,1.891 L0.189,1.883 L-6.65e-17,1.88 L-0.189,1.883 L-0.377,1.891 L-0.565,1.904 L-0.751,1.923 L-0.935,1.947 L-1.118,1.976 L-1.297,2.01 L-1.473,2.049 L-1.646,2.094 L-1.815,2.143 L-1.979,2.196 L-2.139,2.255 L-2.293,2.318 L-2.442,2.385 L-2.586,2.456 L-2.722,2.531 L-2.853,2.61 L-2.976,2.693 L-3.092,2.779 L-3.201,2.868 L-3.302,2.96 L-3.395,3.055 L-3.48,3.153 L-3.52,3.202 L-3.557,3.252 L-3.592,3.303 L-3.625,3.354 L-3.656,3.406 L-3.684,3.458 L-3.711,3.51 L-3.735,3.563 L-3.756,3.616 L-3.776,3.669 L-3.793,3.723 L-3.808,3.777 L-3.821,3.831 L-3.831,3.885 L-3.84,3.939 L-3.845,3.994 L-3.849,4.048 L-3.85,4.103 " />
			<path d="M-3.85,4.103 L-3.849,4.157 L-3.845,4.212 L-3.84,4.266 L-3.832,4.32 L-3.821,4.374 L-3.809,4.428 L-3.794,4.482 L-3.777,4.535 L-3.757,4.588 L-3.735,4.641 L-3.711,4.694 L-3.685,4.746 L-3.657,4.798 L-3.626,4.849 L-3.594,4.9 L-3.559,4.951 L-3.522,5.001 L-3.483,5.05 L-3.398,5.148 L-3.306,5.242 L-3.205,5.334 L-3.097,5.423 L-2.982,5.509 L-2.859,5.592 L-2.729,5.671 " />
			<path d="M-2.729,5.671 L-2.722,5.675 " />
			<path d="M-2.722,5.552 L-2.62,5.609 L-2.515,5.664 L-2.406,5.716 L-2.293,5.766 L-2.178,5.813 L-2.06,5.858 L-1.939,5.901 L-1.815,5.941 L-1.689,5.978 L-1.56,6.013 L-1.43,6.044 L-1.297,6.073 L-1.163,6.099 L-1.027,6.123 L-0.89,6.143 L-0.751,6.161 L-0.612,6.175 L-0.471,6.187 L-0.33,6.195 L-0.189,6.201 L-0.047,6.203 L0.094,6.203 L0.236,6.199 L0.377,6.193 L0.518,6.183 L0.658,6.17 L0.797,6.155 L0.935,6.137 L1.072,6.115 L1.208,6.091 L1.341,6.064 L1.473,6.034 L1.603,6.001 L1.731,5.966 L1.856,5.928 L1.979,5.887 L2.1,5.844 L2.217,5.798 L2.331,5.749 L2.442,5.699 L2.55,5.646 L2.655,5.59 L2.756,5.533 L2.853,5.473 L2.946,5.412 L3.035,5.348 L3.12,5.283 L3.201,5.215 L3.278,5.146 L3.35,5.076 L3.417,5.004 L3.48,4.931 L3.539,4.856 L3.592,4.78 L3.641,4.704 L3.684,4.626 L3.723,4.547 L3.756,4.467 L3.785,4.387 L3.808,4.307 L3.827,4.225 L3.84,4.144 L3.847,4.062 L3.85,3.98 " />
			<path d="M3.85,3.98 L3.849,3.926 L3.845,3.871 L3.84,3.817 L3.831,3.763 L3.821,3.708 L3.808,3.654 L3.793,3.6 L3.776,3.547 L3.756,3.493 L3.735,3.44 L3.711,3.388 L3.684,3.335 L3.656,3.283 L3.625,3.232 L3.592,3.18 L3.557,3.13 L3.52,3.08 L3.48,3.03 L3.395,2.933 L3.302,2.838 L3.201,2.746 L3.092,2.656 L2.976,2.57 L2.853,2.488 L2.722,2.409 L2.586,2.333 L2.442,2.262 L2.293,2.195 L2.139,2.132 L1.979,2.074 L1.815,2.02 L1.646,1.971 L1.473,1.927 L1.297,1.888 L1.118,1.853 L0.935,1.824 L0.751,1.8 L0.565,1.782 L0.377,1.768 L0.189,1.76 L-7.949e-17,1.758 L-0.189,1.76 L-0.377,1.768 L-0.565,1.782 L-0.751,1.8 L-0.935,1.824 L-1.118,1.853 L-1.297,1.888 L-1.473,1.927 L-1.646,1.971 L-1.815,2.02 L-1.979,2.074 L-2.139,2.132 L-2.293,2.195 L-2.442,2.262 L-2.586,2.333 L-2.722,2.409 L-2.853,2.488 L-2.976,2.57 L-3.092,2.656 L-3.201,2.746 L-3.302,2.838 L-3.395,2.933 L-3.48,3.03 L-3.52,3.08 L-3.557,3.13 L-3.592,3.18 L-3.625,3.232 L-3.656,3.283 L-3.684,3.335 L-3.711,3.388 L-3.735,3.44 L-3.756,3.493 L-3.776,3.547 L-3.793,3.6 L-3.808,3.654 L-3.821,3.708 L-3.831,3.763 L-3.84,3.817 L-3.845,3.871 L-3.849,3.926 L-3.85,3.98 " />
			<path d="M-3.85,3.98 L-3.849,4.035 L-3.845,4.089 L-3.84,4.144 L-3.831,4.198 L-3.821,4.253 L-3.808,4.307 L-3.793,4.36 L-3.776,4.414 L-3.756,4.467 L-3.735,4.521 L-3.711,4.573 L-3.684,4.626 L-3.656,4.678 L-3.625,4.729 L-3.592,4.78 L-3.557,4.831 L-3.52,4.881 L-3.48,4.931 L-3.395,5.028 L-3.302,5.123 L-3.201,5.215 L-3.092,5.305 L-2.976,5.391 L-2.853,5.473 L-2.722,5.552 " />
			<path d="M14.849,-20.004 L14.849,4.491 " />
			<path d="M17.678,6.124 L14.849,4.491 " />
			<path d="M14.849,4.491 L4.455,10.492 " />
			<path d="M4.455,2.286 L4.455,10.492 " />
			<path d="M4.171,2.45 L4.455,2.286 " />
			<path d="M4.455,-13.558 L4.455,-5.797 " />
			<path d="M4.171,2.45 L4.171,-5.633 " />
			<path d="M4.171,-5.633 L4.455,-5.797 " />
			<path d="M7.849,-9.839 L7.85,-9.927 L7.854,-10.016 L7.861,-10.107 L7.871,-10.199 L7.884,-10.292 L7.899,-10.386 L7.917,-10.481 L7.937,-10.577 L7.96,-10.673 L7.986,-10.77 L8.015,-10.867 L8.046,-10.965 L8.079,-11.062 L8.115,-11.16 L8.154,-11.257 L8.194,-11.354 L8.238,-11.45 L8.283,-11.546 L8.33,-11.641 L8.38,-11.736 L8.432,-11.829 L8.486,-11.921 L8.541,-12.012 L8.599,-12.102 L8.658,-12.19 L8.719,-12.277 L8.781,-12.362 L8.845,-12.445 L8.911,-12.526 L8.978,-12.605 L9.046,-12.682 L9.115,-12.757 L9.185,-12.83 L9.256,-12.9 L9.328,-12.967 L9.401,-13.032 L9.475,-13.094 L9.549,-13.153 L9.624,-13.21 L9.699,-13.263 L9.774,-13.313 L9.849,-13.361 L9.925,-13.405 L10,-13.446 L10.075,-13.483 L10.151,-13.518 L10.225,-13.549 L10.3,-13.576 L10.373,-13.6 L10.446,-13.621 L10.519,-13.638 L10.59,-13.651 L10.661,-13.661 L10.73,-13.667 L10.799,-13.67 L10.866,-13.669 L10.932,-13.665 L10.997,-13.657 L11.06,-13.645 L11.121,-13.63 L11.181,-13.611 L11.239,-13.589 L11.295,-13.563 L11.349,-13.534 " />
			<path d="M11.349,-13.534 L11.419,-13.49 L11.485,-13.44 L11.547,-13.384 L11.605,-13.323 L11.658,-13.255 L11.708,-13.183 L11.753,-13.105 L11.794,-13.023 L11.83,-12.935 L11.862,-12.843 L11.889,-12.746 L11.911,-12.646 L11.928,-12.541 L11.94,-12.433 L11.948,-12.321 L11.95,-12.207 L11.948,-12.089 L11.94,-11.969 L11.928,-11.846 L11.911,-11.722 L11.889,-11.596 L11.862,-11.468 L11.83,-11.34 L11.794,-11.21 L11.753,-11.081 L11.708,-10.951 L11.658,-10.821 L11.605,-10.692 L11.547,-10.563 L11.485,-10.436 L11.419,-10.31 L11.349,-10.186 L11.277,-10.063 L11.2,-9.943 L11.121,-9.826 L11.039,-9.712 L10.954,-9.6 L10.866,-9.493 L10.776,-9.388 L10.684,-9.288 L10.59,-9.192 L10.495,-9.1 L10.398,-9.013 L10.3,-8.931 L10.2,-8.854 L10.1,-8.782 L10,-8.716 L9.899,-8.655 L9.799,-8.6 L9.699,-8.55 L9.599,-8.507 L9.499,-8.469 L9.401,-8.438 L9.304,-8.413 L9.209,-8.394 L9.115,-8.382 L9.023,-8.376 L8.933,-8.376 L8.845,-8.383 L8.76,-8.396 L8.678,-8.416 L8.599,-8.441 L8.522,-8.473 L8.449,-8.511 " />
			<path d="M8.449,-8.511 L8.38,-8.555 L8.314,-8.605 L8.252,-8.661 L8.194,-8.723 L8.141,-8.79 L8.091,-8.862 L8.046,-8.94 L8.005,-9.023 L7.969,-9.11 L7.937,-9.202 L7.91,-9.299 L7.888,-9.4 L7.871,-9.504 L7.859,-9.612 L7.851,-9.724 L7.849,-9.839 " />
			<path d="M7.849,2.409 L7.85,2.321 L7.854,2.231 L7.861,2.14 L7.871,2.048 L7.884,1.955 L7.899,1.861 L7.917,1.766 L7.937,1.67 L7.96,1.574 L7.986,1.477 L8.015,1.38 L8.046,1.283 L8.079,1.185 L8.115,1.088 L8.154,0.991 L8.194,0.894 L8.238,0.797 L8.283,0.701 L8.33,0.606 L8.38,0.512 L8.432,0.418 L8.486,0.326 L8.541,0.235 L8.599,0.145 L8.658,0.057 L8.719,-0.029 L8.781,-0.114 L8.845,-0.198 L8.911,-0.279 L8.978,-0.358 L9.046,-0.435 L9.115,-0.51 L9.185,-0.582 L9.256,-0.652 L9.328,-0.72 L9.401,-0.784 L9.475,-0.847 L9.549,-0.906 L9.624,-0.962 L9.699,-1.016 L9.774,-1.066 L9.849,-1.113 L9.925,-1.157 L10,-1.198 L10.075,-1.236 L10.151,-1.27 L10.225,-1.301 L10.3,-1.329 L10.373,-1.353 L10.446,-1.373 L10.519,-1.39 L10.59,-1.404 L10.661,-1.413 L10.73,-1.42 L10.799,-1.422 L10.866,-1.422 L10.932,-1.417 L10.997,-1.409 L11.06,-1.398 L11.121,-1.382 L11.181,-1.364 L11.239,-1.342 L11.295,-1.316 L11.349,-1.287 " />
			<path d="M11.349,-1.287 L11.419,-1.243 L11.485,-1.193 L11.547,-1.137 L11.605,-1.075 L11.658,-1.008 L11.708,-0.936 L11.753,-0.858 L11.794,-0.775 L11.83,-0.688 L11.862,-0.596 L11.889,-0.499 L11.911,-0.398 L11.928,-0.294 L11.94,-0.186 L11.948,-0.074 L11.95,0.041 L11.948,0.158 L11.94,0.279 L11.928,0.401 L11.911,0.526 L11.889,0.652 L11.862,0.779 L11.83,0.908 L11.794,1.037 L11.753,1.167 L11.708,1.297 L11.658,1.427 L11.605,1.556 L11.547,1.684 L11.485,1.812 L11.419,1.938 L11.349,2.062 L11.277,2.184 L11.2,2.304 L11.121,2.421 L11.039,2.536 L10.954,2.647 L10.866,2.755 L10.776,2.859 L10.684,2.959 L10.59,3.055 L10.495,3.147 L10.398,3.234 L10.3,3.316 L10.2,3.393 L10.1,3.465 L10,3.532 L9.899,3.593 L9.799,3.648 L9.699,3.697 L9.599,3.741 L9.499,3.778 L9.401,3.809 L9.304,3.834 L9.209,3.853 L9.115,3.865 L9.023,3.871 L8.933,3.871 L8.845,3.864 L8.76,3.851 L8.678,3.832 L8.599,3.806 L8.522,3.774 L8.449,3.736 " />
			<path d="M8.449,3.736 L8.38,3.692 L8.314,3.642 L8.252,3.586 L8.194,3.525 L8.141,3.458 L8.091,3.385 L8.046,3.307 L8.005,3.225 L7.969,3.137 L7.937,3.045 L7.91,2.949 L7.888,2.848 L7.871,2.743 L7.859,2.635 L7.851,2.523 L7.849,2.409 " />
			<path d="M4.455,10.492 L5,10.807 " />
			<path d="M5,-5.482 L4.455,-5.797 " />
			<path d="M7.283,3.919 L4.455,2.286 " />
			<path d="M4.171,2.45 L4.058,2.355 L3.938,2.263 L3.812,2.173 L3.679,2.087 L3.541,2.004 L3.397,1.924 L3.248,1.847 L3.093,1.774 L2.934,1.704 L2.77,1.638 L2.601,1.576 L2.429,1.518 L2.252,1.464 L2.072,1.414 L1.889,1.369 L1.702,1.327 L1.513,1.29 L1.321,1.258 L1.128,1.229 L0.932,1.206 L0.735,1.186 L0.537,1.172 L0.338,1.162 L0.138,1.156 L-0.061,1.155 L-0.261,1.159 L-0.46,1.167 L-0.659,1.18 L-0.856,1.198 L-1.053,1.22 L-1.247,1.246 L-1.439,1.277 L-1.63,1.313 L-1.817,1.352 L-2.002,1.396 L-2.183,1.445 L-2.361,1.497 L-2.535,1.554 L-2.706,1.614 L-2.871,1.678 L-3.033,1.746 L-3.189,1.818 L-3.34,1.894 L-3.486,1.972 L-3.627,2.054 L-3.761,2.14 L-3.89,2.228 L-4.012,2.319 L-4.128,2.413 L-4.238,2.51 L-4.34,2.609 L-4.436,2.71 L-4.525,2.813 L-4.606,2.919 L-4.68,3.026 L-4.747,3.134 L-4.806,3.245 L-4.857,3.356 L-4.901,3.469 L-4.936,3.582 L-4.964,3.696 L-4.984,3.811 L-4.996,3.926 L-5,4.042 " />
			<path d="M-5,4.042 L-4.999,4.111 L-4.994,4.179 L-4.987,4.248 L-4.977,4.317 L-4.964,4.386 L-4.949,4.454 L-4.93,4.522 L-4.909,4.59 L-4.885,4.657 L-4.858,4.724 L-4.828,4.791 L-4.796,4.858 L-4.761,4.924 L-4.723,4.989 L-4.683,5.054 L-4.639,5.118 L-4.594,5.182 L-4.545,5.245 L-4.494,5.307 L-4.44,5.369 L-4.384,5.429 L-4.326,5.489 L-4.265,5.549 L-4.201,5.607 L-4.135,5.665 L-4.067,5.721 L-3.996,5.777 L-3.923,5.831 L-3.848,5.885 L-3.771,5.937 L-3.691,5.989 L-3.61,6.039 L-3.526,6.088 L-3.44,6.136 L-3.263,6.229 L-3.079,6.316 L-2.887,6.399 L-2.689,6.475 L-2.485,6.547 L-2.275,6.612 L-2.059,6.672 L-1.84,6.726 L-1.616,6.774 L-1.388,6.815 L-1.157,6.85 L-0.923,6.879 L-0.688,6.901 L-0.45,6.917 L-0.212,6.926 " />
			<path d="M2.828,5.675 L2.722,5.734 L2.613,5.79 L2.499,5.845 L2.383,5.897 L2.263,5.946 L2.14,5.993 L2.014,6.037 L1.886,6.078 L1.754,6.117 L1.621,6.153 L1.485,6.186 L1.348,6.216 L1.208,6.243 L1.067,6.267 L0.924,6.289 L0.78,6.307 L0.635,6.322 L0.49,6.334 L0.343,6.343 L0.196,6.348 L0.049,6.351 L-0.098,6.35 L-0.245,6.347 L-0.392,6.34 L-0.538,6.33 L-0.684,6.317 L-0.828,6.301 L-0.972,6.282 L-1.114,6.26 L-1.255,6.234 L-1.394,6.206 L-1.531,6.175 L-1.666,6.141 L-1.798,6.104 L-1.929,6.065 L-2.056,6.022 L-2.181,5.977 L-2.303,5.93 L-2.422,5.88 L-2.538,5.827 L-2.65,5.772 L-2.758,5.714 L-2.863,5.654 L-2.964,5.593 L-3.061,5.529 L-3.153,5.462 L-3.242,5.395 L-3.326,5.325 L-3.405,5.253 L-3.48,5.18 L-3.551,5.105 L-3.616,5.029 L-3.676,4.952 L-3.732,4.873 L-3.782,4.793 L-3.828,4.712 L-3.868,4.63 L-3.903,4.548 L-3.932,4.464 L-3.957,4.381 L-3.976,4.296 L-3.989,4.212 L-3.997,4.127 L-4,4.042 " />
			<path d="M-4,4.042 L-3.997,3.948 L-3.987,3.854 L-3.97,3.76 L-3.947,3.667 L-3.917,3.574 L-3.881,3.482 L-3.838,3.392 L-3.789,3.302 L-3.734,3.213 L-3.672,3.126 L-3.605,3.04 L-3.531,2.956 L-3.451,2.874 L-3.366,2.794 L-3.275,2.716 L-3.179,2.64 L-3.077,2.566 L-2.971,2.495 L-2.859,2.427 L-2.743,2.361 L-2.622,2.297 L-2.496,2.237 L-2.367,2.18 L-2.234,2.126 L-2.097,2.075 L-1.956,2.027 L-1.812,1.983 L-1.665,1.942 L-1.516,1.904 L-1.364,1.871 L-1.209,1.84 L-1.053,1.814 L-0.895,1.791 L-0.735,1.772 L-0.574,1.756 L-0.412,1.745 L-0.25,1.737 L-0.087,1.733 L0.076,1.733 L0.239,1.736 L0.401,1.744 L0.563,1.755 L0.724,1.77 L0.884,1.789 L1.042,1.812 L1.199,1.838 L1.353,1.868 L1.505,1.902 L1.655,1.939 L1.802,1.98 L1.946,2.024 L2.087,2.072 L2.224,2.122 L2.358,2.176 L2.488,2.233 L2.613,2.293 L2.735,2.356 L2.851,2.422 L2.963,2.49 L3.07,2.561 L3.172,2.635 L3.269,2.711 L3.36,2.789 L3.446,2.869 " />
			<path d="M0.707,4.45 L3.446,2.869 " />
			<path d="M2.828,5.675 L0.707,4.45 " />
			<path d="M4.171,-5.633 L4.058,-5.728 L3.938,-5.821 L3.812,-5.91 L3.679,-5.996 L3.541,-6.08 L3.397,-6.16 L3.248,-6.236 L3.093,-6.31 L2.934,-6.379 L2.77,-6.445 L2.601,-6.507 L2.429,-6.565 L2.252,-6.619 L2.072,-6.669 L1.889,-6.715 L1.702,-6.756 L1.513,-6.793 L1.321,-6.826 L1.128,-6.854 L0.932,-6.878 L0.735,-6.897 L0.537,-6.912 L0.338,-6.922 L0.138,-6.927 L-0.061,-6.928 L-0.261,-6.924 L-0.46,-6.916 L-0.659,-6.903 L-0.856,-6.886 L-1.053,-6.864 L-1.247,-6.837 L-1.439,-6.806 L-1.63,-6.771 L-1.817,-6.731 L-2.002,-6.687 L-2.183,-6.639 L-2.361,-6.586 L-2.535,-6.53 L-2.706,-6.469 L-2.871,-6.405 L-3.033,-6.337 L-3.189,-6.265 L-3.34,-6.19 L-3.486,-6.111 L-3.627,-6.029 L-3.761,-5.944 L-3.89,-5.855 L-4.012,-5.764 L-4.128,-5.67 L-4.238,-5.574 L-4.34,-5.475 L-4.436,-5.374 L-4.525,-5.27 L-4.606,-5.165 L-4.68,-5.058 L-4.747,-4.949 L-4.806,-4.839 L-4.857,-4.727 L-4.901,-4.615 L-4.936,-4.501 L-4.964,-4.387 L-4.984,-4.272 L-4.996,-4.157 L-5,-4.042 " />
			<path d="M-5,-4.042 L-4.997,-3.946 L-4.989,-3.851 L-4.976,-3.757 L-4.957,-3.662 L-4.932,-3.568 L-4.902,-3.474 L-4.867,-3.381 L-4.827,-3.289 L-4.781,-3.197 L-4.731,-3.107 L-4.675,-3.017 L-4.614,-2.929 L-4.547,-2.842 L-4.476,-2.756 L-4.401,-2.671 L-4.32,-2.588 L-4.235,-2.507 L-4.145,-2.427 L-4.05,-2.349 L-3.951,-2.273 L-3.848,-2.198 L-3.741,-2.126 L-3.629,-2.056 L-3.514,-1.988 L-3.395,-1.922 L-3.272,-1.859 L-3.145,-1.798 L-3.016,-1.739 L-2.882,-1.683 L-2.746,-1.629 L-2.607,-1.578 L-2.465,-1.53 L-2.32,-1.484 L-2.173,-1.442 L-2.023,-1.402 L-1.871,-1.365 L-1.717,-1.331 L-1.561,-1.299 L-1.404,-1.271 L-1.245,-1.246 L-1.085,-1.224 L-0.923,-1.205 L-0.761,-1.189 L-0.597,-1.176 L-0.433,-1.166 L-0.269,-1.159 L-0.104,-1.156 L0.061,-1.155 L0.226,-1.158 L0.39,-1.164 L0.554,-1.173 L0.718,-1.185 L0.881,-1.2 L1.043,-1.218 L1.203,-1.24 L1.363,-1.264 L1.52,-1.292 L1.677,-1.322 L1.831,-1.355 L1.983,-1.392 L2.134,-1.431 L2.282,-1.473 L2.427,-1.518 L2.57,-1.565 " />
			<path d="M3.446,-5.215 L3.36,-5.295 L3.269,-5.373 L3.172,-5.448 L3.07,-5.522 L2.963,-5.593 L2.851,-5.661 L2.735,-5.727 L2.613,-5.79 L2.488,-5.85 L2.358,-5.907 L2.224,-5.961 L2.087,-6.012 L1.946,-6.059 L1.802,-6.103 L1.655,-6.144 L1.505,-6.181 L1.353,-6.215 L1.199,-6.245 L1.042,-6.271 L0.884,-6.294 L0.724,-6.313 L0.563,-6.328 L0.401,-6.339 L0.239,-6.347 L0.076,-6.351 L-0.087,-6.351 L-0.25,-6.347 L-0.412,-6.339 L-0.574,-6.327 L-0.735,-6.312 L-0.895,-6.293 L-1.053,-6.27 L-1.209,-6.243 L-1.364,-6.213 L-1.516,-6.179 L-1.665,-6.141 L-1.812,-6.1 L-1.956,-6.056 L-2.097,-6.008 L-2.234,-5.957 L-2.367,-5.903 L-2.496,-5.846 L-2.622,-5.786 L-2.743,-5.723 L-2.859,-5.657 L-2.971,-5.588 L-3.077,-5.517 L-3.179,-5.443 L-3.275,-5.367 L-3.366,-5.289 L-3.451,-5.209 L-3.531,-5.127 L-3.605,-5.043 L-3.672,-4.957 L-3.734,-4.87 L-3.789,-4.781 L-3.838,-4.692 L-3.881,-4.601 L-3.917,-4.509 L-3.947,-4.417 L-3.97,-4.323 L-3.987,-4.23 L-3.997,-4.136 L-4,-4.042 " />
			<path d="M-4,-4.042 L-3.997,-3.957 L-3.989,-3.872 L-3.976,-3.787 L-3.957,-3.703 L-3.932,-3.619 L-3.903,-3.536 L-3.868,-3.453 L-3.828,-3.371 L-3.782,-3.29 L-3.732,-3.211 L-3.676,-3.132 L-3.616,-3.054 L-3.551,-2.978 L-3.48,-2.903 L-3.405,-2.83 L-3.326,-2.759 L-3.242,-2.689 L-3.153,-2.621 L-3.061,-2.555 L-2.964,-2.491 L-2.863,-2.429 L-2.758,-2.369 L-2.65,-2.312 L-2.538,-2.256 L-2.422,-2.204 L-2.303,-2.154 L-2.181,-2.106 L-2.056,-2.061 L-1.929,-2.018 L-1.798,-1.979 L-1.666,-1.942 L-1.531,-1.908 L-1.394,-1.877 L-1.255,-1.849 L-1.114,-1.824 L-0.972,-1.801 L-0.828,-1.782 L-0.684,-1.766 L-0.538,-1.753 L-0.392,-1.743 L-0.245,-1.737 L-0.098,-1.733 L0.049,-1.732 L0.196,-1.735 L0.343,-1.741 L0.49,-1.75 L0.635,-1.762 L0.78,-1.777 L0.924,-1.795 L1.067,-1.816 L1.208,-1.84 L1.348,-1.867 L1.485,-1.897 L1.621,-1.93 L1.754,-1.966 L1.886,-2.005 L2.014,-2.046 L2.14,-2.091 L2.263,-2.137 L2.383,-2.187 L2.499,-2.239 L2.613,-2.293 L2.722,-2.35 L2.828,-2.409 " />
			<path d="M0.707,-3.633 L3.446,-5.215 " />
			<path d="M2.828,-2.409 L0.707,-3.633 " />
			<path d="M7.99,-9.757 L7.993,-9.642 L8,-9.531 L8.013,-9.423 L8.03,-9.318 L8.052,-9.217 L8.079,-9.121 L8.11,-9.029 L8.146,-8.941 L8.187,-8.858 L8.232,-8.781 L8.282,-8.708 L8.336,-8.641 L8.394,-8.58 L8.456,-8.524 L8.522,-8.474 L8.591,-8.43 " />
			<path d="M8.591,-8.43 L8.664,-8.392 L8.74,-8.36 L8.819,-8.334 L8.902,-8.315 L8.987,-8.301 L9.074,-8.295 L9.164,-8.294 L9.256,-8.3 L9.35,-8.313 L9.446,-8.331 L9.543,-8.357 L9.641,-8.388 L9.74,-8.425 L9.84,-8.469 L9.94,-8.518 L10.041,-8.573 " />
			<path d="M10.041,-8.573 L10.142,-8.634 L10.242,-8.701 L10.342,-8.773 L10.441,-8.85 L10.539,-8.932 L10.636,-9.019 L10.732,-9.11 L10.826,-9.207 L10.918,-9.307 L11.008,-9.411 L11.095,-9.519 L11.18,-9.63 L11.262,-9.744 L11.342,-9.862 L11.418,-9.982 L11.491,-10.104 L11.56,-10.228 L11.626,-10.354 L11.688,-10.481 L11.746,-10.61 L11.8,-10.739 L11.849,-10.869 L11.895,-10.999 L11.935,-11.129 L11.972,-11.258 L12.003,-11.387 L12.03,-11.514 L12.052,-11.64 L12.069,-11.765 L12.082,-11.887 L12.089,-12.007 L12.092,-12.125 " />
			<path d="M12.092,-12.125 L12.089,-12.24 L12.082,-12.351 L12.069,-12.46 L12.052,-12.564 L12.03,-12.665 L12.003,-12.761 L11.972,-12.853 L11.935,-12.941 L11.895,-13.024 L11.849,-13.101 L11.8,-13.174 L11.746,-13.241 L11.688,-13.303 L11.626,-13.358 L11.56,-13.408 L11.491,-13.453 " />
			<path d="M11.491,-13.453 L11.437,-13.482 L11.38,-13.507 L11.322,-13.529 L11.262,-13.548 L11.201,-13.563 L11.138,-13.575 L11.073,-13.583 L11.008,-13.587 L10.94,-13.588 L10.872,-13.586 L10.802,-13.579 L10.732,-13.569 L10.66,-13.556 L10.588,-13.539 L10.515,-13.518 L10.441,-13.494 L10.367,-13.467 L10.292,-13.436 L10.217,-13.402 L10.142,-13.364 L10.066,-13.323 L9.991,-13.279 L9.915,-13.232 L9.84,-13.181 L9.765,-13.128 L9.69,-13.072 L9.616,-13.012 L9.543,-12.95 L9.47,-12.885 L9.398,-12.818 L9.326,-12.748 L9.256,-12.676 L9.187,-12.601 L9.119,-12.524 L9.052,-12.445 L8.987,-12.363 L8.923,-12.28 L8.86,-12.195 L8.799,-12.109 L8.74,-12.02 L8.683,-11.931 L8.627,-11.84 L8.573,-11.747 L8.522,-11.654 L8.472,-11.56 L8.424,-11.464 L8.379,-11.369 L8.336,-11.272 L8.295,-11.175 L8.257,-11.078 L8.221,-10.981 L8.187,-10.883 L8.156,-10.786 L8.128,-10.689 L8.102,-10.592 L8.079,-10.495 L8.058,-10.4 L8.04,-10.305 L8.025,-10.211 L8.013,-10.117 L8.003,-10.025 L7.996,-9.935 L7.992,-9.845 L7.99,-9.757 " />
			<path d="M7.99,2.49 L7.993,2.605 L8,2.717 L8.013,2.825 L8.03,2.93 L8.052,3.03 L8.079,3.127 L8.11,3.219 L8.146,3.306 L8.187,3.389 L8.232,3.467 L8.282,3.539 L8.336,3.606 L8.394,3.668 L8.456,3.724 L8.522,3.774 L8.591,3.818 " />
			<path d="M8.591,3.818 L8.664,3.856 L8.74,3.888 L8.819,3.914 L8.902,3.933 L8.987,3.946 L9.074,3.953 L9.164,3.953 L9.256,3.947 L9.35,3.935 L9.446,3.916 L9.543,3.891 L9.641,3.86 L9.74,3.822 L9.84,3.779 L9.94,3.729 L10.041,3.674 " />
			<path d="M10.041,3.674 L10.142,3.613 L10.242,3.547 L10.342,3.475 L10.441,3.398 L10.539,3.316 L10.636,3.229 L10.732,3.137 L10.826,3.041 L10.918,2.941 L11.008,2.837 L11.095,2.729 L11.18,2.617 L11.262,2.503 L11.342,2.386 L11.418,2.266 L11.491,2.144 L11.56,2.019 L11.626,1.893 L11.688,1.766 L11.746,1.638 L11.8,1.508 L11.849,1.378 L11.895,1.249 L11.935,1.119 L11.972,0.989 L12.003,0.861 L12.03,0.733 L12.052,0.607 L12.069,0.483 L12.082,0.36 L12.089,0.24 L12.092,0.122 " />
			<path d="M12.092,0.122 L12.089,0.008 L12.082,-0.104 L12.069,-0.212 L12.052,-0.317 L12.03,-0.417 L12.003,-0.514 L11.972,-0.606 L11.935,-0.694 L11.895,-0.776 L11.849,-0.854 L11.8,-0.926 L11.746,-0.994 L11.688,-1.055 L11.626,-1.111 L11.56,-1.161 L11.491,-1.205 " />
			<path d="M11.491,-1.205 L11.437,-1.234 L11.38,-1.26 L11.322,-1.282 L11.262,-1.301 L11.201,-1.316 L11.138,-1.327 L11.073,-1.336 L11.008,-1.34 L10.94,-1.341 L10.872,-1.338 L10.802,-1.332 L10.732,-1.322 L10.66,-1.308 L10.588,-1.291 L10.515,-1.271 L10.441,-1.247 L10.367,-1.219 L10.292,-1.189 L10.217,-1.154 L10.142,-1.117 L10.066,-1.076 L9.991,-1.032 L9.915,-0.984 L9.84,-0.934 L9.765,-0.881 L9.69,-0.824 L9.616,-0.765 L9.543,-0.703 L9.47,-0.638 L9.398,-0.571 L9.326,-0.501 L9.256,-0.428 L9.187,-0.353 L9.119,-0.276 L9.052,-0.197 L8.987,-0.116 L8.923,-0.033 L8.86,0.052 L8.799,0.139 L8.74,0.227 L8.683,0.317 L8.627,0.408 L8.573,0.5 L8.522,0.593 L8.472,0.688 L8.424,0.783 L8.379,0.879 L8.336,0.975 L8.295,1.072 L8.257,1.169 L8.221,1.267 L8.187,1.364 L8.156,1.462 L8.128,1.559 L8.102,1.656 L8.079,1.752 L8.058,1.848 L8.04,1.943 L8.025,2.037 L8.013,2.13 L8.003,2.222 L7.996,2.313 L7.992,2.402 L7.99,2.49 " />
			<path d="M9.617,-9.757 L9.618,-9.688 L9.623,-9.621 L9.63,-9.555 L9.64,-9.492 L9.654,-9.431 L9.67,-9.373 L9.689,-9.318 L9.711,-9.265 L9.735,-9.215 L9.763,-9.168 L9.793,-9.124 L9.825,-9.084 L9.86,-9.047 L9.898,-9.013 L9.937,-8.983 L9.979,-8.956 " />
			<path d="M9.979,-8.956 L10.023,-8.933 L10.069,-8.914 L10.117,-8.898 L10.167,-8.887 L10.218,-8.879 L10.271,-8.875 L10.325,-8.874 L10.381,-8.878 L10.437,-8.886 L10.495,-8.897 L10.553,-8.912 L10.613,-8.931 L10.673,-8.953 L10.733,-8.98 L10.793,-9.009 L10.854,-9.043 " />
			<path d="M10.854,-9.043 L10.915,-9.079 L10.975,-9.12 L11.036,-9.163 L11.096,-9.21 L11.155,-9.259 L11.213,-9.312 L11.271,-9.367 L11.328,-9.425 L11.383,-9.485 L11.437,-9.548 L11.49,-9.613 L11.542,-9.68 L11.591,-9.749 L11.639,-9.82 L11.685,-9.893 L11.729,-9.966 L11.771,-10.041 L11.811,-10.117 L11.848,-10.194 L11.883,-10.272 L11.915,-10.35 L11.945,-10.428 L11.973,-10.506 L11.997,-10.585 L12.019,-10.663 L12.038,-10.74 L12.054,-10.817 L12.068,-10.894 L12.078,-10.969 L12.086,-11.043 L12.09,-11.115 L12.092,-11.186 " />
			<path d="M12.092,-11.186 L12.09,-11.255 L12.086,-11.323 L12.078,-11.388 L12.068,-11.451 L12.054,-11.512 L12.038,-11.57 L12.019,-11.626 L11.997,-11.678 L11.973,-11.728 L11.945,-11.775 L11.915,-11.819 L11.883,-11.859 L11.848,-11.897 L11.811,-11.93 L11.771,-11.96 L11.729,-11.987 " />
			<path d="M11.729,-11.987 L11.696,-12.005 L11.662,-12.02 L11.627,-12.034 L11.591,-12.045 L11.554,-12.054 L11.516,-12.061 L11.477,-12.066 L11.437,-12.069 L11.397,-12.069 L11.356,-12.067 L11.314,-12.064 L11.271,-12.058 L11.184,-12.039 L11.096,-12.012 L11.006,-11.977 L10.915,-11.934 L10.824,-11.882 L10.733,-11.824 L10.643,-11.757 L10.553,-11.684 L10.466,-11.604 L10.381,-11.518 L10.298,-11.427 L10.218,-11.33 L10.142,-11.228 L10.069,-11.123 L10.001,-11.014 L9.937,-10.902 L9.879,-10.787 L9.825,-10.671 L9.777,-10.554 L9.735,-10.437 L9.7,-10.319 L9.67,-10.203 L9.647,-10.088 L9.63,-9.975 L9.62,-9.864 L9.617,-9.757 " />
			<path d="M9.617,2.49 L9.618,2.56 L9.623,2.627 L9.63,2.692 L9.64,2.755 L9.654,2.816 L9.67,2.874 L9.689,2.93 L9.711,2.983 L9.735,3.033 L9.763,3.08 L9.793,3.123 L9.825,3.164 L9.86,3.201 L9.898,3.235 L9.937,3.265 L9.979,3.291 " />
			<path d="M9.979,3.291 L10.023,3.314 L10.069,3.334 L10.117,3.349 L10.167,3.361 L10.218,3.369 L10.271,3.373 L10.325,3.373 L10.381,3.369 L10.437,3.362 L10.495,3.351 L10.553,3.336 L10.613,3.317 L10.673,3.294 L10.733,3.268 L10.793,3.238 L10.854,3.205 " />
			<path d="M10.854,3.205 L10.915,3.168 L10.975,3.128 L11.036,3.084 L11.096,3.038 L11.155,2.988 L11.213,2.936 L11.271,2.881 L11.328,2.823 L11.383,2.762 L11.437,2.699 L11.49,2.634 L11.542,2.567 L11.591,2.498 L11.639,2.427 L11.685,2.355 L11.729,2.281 L11.771,2.206 L11.811,2.13 L11.848,2.053 L11.883,1.976 L11.915,1.898 L11.945,1.819 L11.973,1.741 L11.997,1.663 L12.019,1.585 L12.038,1.507 L12.054,1.43 L12.068,1.354 L12.078,1.279 L12.086,1.205 L12.09,1.132 L12.092,1.061 " />
			<path d="M12.092,1.061 L12.09,0.992 L12.086,0.925 L12.078,0.86 L12.068,0.796 L12.054,0.736 L12.038,0.677 L12.019,0.622 L11.997,0.569 L11.973,0.519 L11.945,0.472 L11.915,0.429 L11.883,0.388 L11.848,0.351 L11.811,0.317 L11.771,0.287 L11.729,0.26 " />
			<path d="M11.729,0.26 L11.696,0.243 L11.662,0.227 L11.627,0.214 L11.591,0.203 L11.554,0.193 L11.516,0.186 L11.477,0.182 L11.437,0.179 L11.397,0.178 L11.356,0.18 L11.314,0.184 L11.271,0.19 L11.184,0.208 L11.096,0.235 L11.006,0.27 L10.915,0.314 L10.824,0.365 L10.733,0.424 L10.643,0.49 L10.553,0.563 L10.466,0.643 L10.381,0.729 L10.298,0.821 L10.218,0.918 L10.142,1.019 L10.069,1.125 L10.001,1.234 L9.937,1.346 L9.879,1.46 L9.825,1.576 L9.777,1.693 L9.735,1.811 L9.7,1.928 L9.67,2.045 L9.647,2.16 L9.63,2.273 L9.62,2.383 L9.617,2.49 " />
			<path d="M3.446,2.808 L3.446,2.869 " />
			<path d="M2.828,5.613 L2.722,5.672 L2.613,5.729 L2.499,5.783 L2.383,5.835 L2.263,5.885 L2.14,5.932 L2.014,5.976 L1.886,6.017 L1.754,6.056 L1.621,6.092 L1.485,6.125 L1.348,6.155 L1.208,6.182 L1.067,6.206 L0.924,6.227 L0.78,6.245 L0.635,6.26 L0.49,6.272 L0.343,6.281 L0.196,6.287 L0.049,6.29 L-0.098,6.289 L-0.245,6.285 L-0.392,6.279 L-0.538,6.269 L-0.684,6.256 L-0.828,6.24 L-0.972,6.221 L-1.114,6.198 L-1.255,6.173 L-1.394,6.145 L-1.531,6.114 L-1.666,6.08 L-1.798,6.043 L-1.929,6.004 L-2.056,5.961 L-2.181,5.916 L-2.303,5.869 L-2.422,5.818 L-2.538,5.766 L-2.65,5.71 L-2.758,5.653 L-2.863,5.593 L-2.964,5.531 L-3.061,5.467 L-3.153,5.401 L-3.242,5.333 L-3.326,5.263 L-3.405,5.192 L-3.48,5.119 L-3.551,5.044 L-3.616,4.968 L-3.676,4.89 L-3.732,4.812 L-3.782,4.732 L-3.828,4.651 L-3.868,4.569 L-3.903,4.486 L-3.932,4.403 L-3.957,4.319 L-3.976,4.235 L-3.989,4.15 L-3.997,4.065 L-4,3.98 " />
			<path d="M-4,3.98 L-3.997,3.886 L-3.987,3.792 L-3.97,3.699 L-3.947,3.606 L-3.917,3.513 L-3.881,3.421 L-3.838,3.33 L-3.789,3.241 L-3.734,3.152 L-3.672,3.065 L-3.605,2.979 L-3.531,2.895 L-3.451,2.813 L-3.366,2.733 L-3.275,2.655 L-3.179,2.579 L-3.077,2.505 L-2.971,2.434 L-2.859,2.365 L-2.743,2.299 L-2.622,2.236 L-2.496,2.176 L-2.367,2.119 L-2.234,2.065 L-2.097,2.014 L-1.956,1.966 L-1.812,1.922 L-1.665,1.881 L-1.516,1.843 L-1.364,1.809 L-1.209,1.779 L-1.053,1.752 L-0.895,1.73 L-0.735,1.71 L-0.574,1.695 L-0.412,1.683 L-0.25,1.676 L-0.087,1.672 L0.076,1.671 L0.239,1.675 L0.401,1.683 L0.563,1.694 L0.724,1.709 L0.884,1.728 L1.042,1.751 L1.199,1.777 L1.353,1.807 L1.505,1.841 L1.655,1.878 L1.802,1.919 L1.946,1.963 L2.087,2.01 L2.224,2.061 L2.358,2.115 L2.488,2.172 L2.613,2.232 L2.735,2.295 L2.851,2.361 L2.963,2.429 L3.07,2.5 L3.172,2.574 L3.269,2.649 L3.36,2.727 L3.446,2.808 " />
			<path d="M2.828,5.613 L2.828,5.675 " />
			<path d="M0.707,4.389 L0.707,4.45 " />
			<path d="M0.707,4.389 L3.446,2.808 " />
			<path d="M2.828,5.613 L0.707,4.389 " />
			<path d="M3.446,-5.153 L3.36,-5.233 L3.269,-5.311 L3.172,-5.387 L3.07,-5.461 L2.963,-5.532 L2.851,-5.6 L2.735,-5.666 L2.613,-5.729 L2.488,-5.789 L2.358,-5.846 L2.224,-5.9 L2.087,-5.951 L1.946,-5.998 L1.802,-6.042 L1.655,-6.083 L1.505,-6.12 L1.353,-6.154 L1.199,-6.184 L1.042,-6.21 L0.884,-6.233 L0.724,-6.252 L0.563,-6.267 L0.401,-6.278 L0.239,-6.286 L0.076,-6.289 L-0.087,-6.289 L-0.25,-6.285 L-0.412,-6.278 L-0.574,-6.266 L-0.735,-6.25 L-0.895,-6.231 L-1.053,-6.208 L-1.209,-6.182 L-1.364,-6.151 L-1.516,-6.118 L-1.665,-6.08 L-1.812,-6.039 L-1.956,-5.995 L-2.097,-5.947 L-2.234,-5.896 L-2.367,-5.842 L-2.496,-5.785 L-2.622,-5.725 L-2.743,-5.661 L-2.859,-5.596 L-2.971,-5.527 L-3.077,-5.456 L-3.179,-5.382 L-3.275,-5.306 L-3.366,-5.228 L-3.451,-5.148 L-3.531,-5.066 L-3.605,-4.982 L-3.672,-4.896 L-3.734,-4.809 L-3.789,-4.72 L-3.838,-4.63 L-3.881,-4.54 L-3.917,-4.448 L-3.947,-4.355 L-3.97,-4.262 L-3.987,-4.168 L-3.997,-4.075 L-4,-3.98 " />
			<path d="M-4,-3.98 L-3.997,-3.895 L-3.989,-3.811 L-3.976,-3.726 L-3.957,-3.642 L-3.932,-3.558 L-3.903,-3.474 L-3.868,-3.392 L-3.828,-3.31 L-3.782,-3.229 L-3.732,-3.149 L-3.676,-3.071 L-3.616,-2.993 L-3.551,-2.917 L-3.48,-2.842 L-3.405,-2.769 L-3.326,-2.697 L-3.242,-2.628 L-3.153,-2.56 L-3.061,-2.494 L-2.964,-2.43 L-2.863,-2.368 L-2.758,-2.308 L-2.65,-2.25 L-2.538,-2.195 L-2.422,-2.143 L-2.303,-2.092 L-2.181,-2.045 L-2.056,-2 L-1.929,-1.957 L-1.798,-1.918 L-1.666,-1.881 L-1.531,-1.847 L-1.394,-1.816 L-1.255,-1.788 L-1.114,-1.762 L-0.972,-1.74 L-0.828,-1.721 L-0.684,-1.705 L-0.538,-1.692 L-0.392,-1.682 L-0.245,-1.675 L-0.098,-1.672 L0.049,-1.671 L0.196,-1.674 L0.343,-1.68 L0.49,-1.688 L0.635,-1.7 L0.78,-1.715 L0.924,-1.734 L1.067,-1.755 L1.208,-1.779 L1.348,-1.806 L1.485,-1.836 L1.621,-1.869 L1.754,-1.905 L1.886,-1.944 L2.014,-1.985 L2.14,-2.029 L2.263,-2.076 L2.383,-2.125 L2.499,-2.177 L2.613,-2.232 L2.722,-2.288 L2.828,-2.347 " />
			<path d="M3.446,-5.153 L3.446,-5.215 " />
			<path d="M2.828,-2.347 L2.828,-2.409 " />
			<path d="M3.446,-5.153 L0.707,-3.572 " />
			<path d="M0.707,-3.633 L0.707,-3.572 " />
			<path d="M0.707,-3.572 L2.828,-2.347 " />
			<path d="M-2.676,-5.701 L-2.729,-5.671 " />
			<path d="M2.676,-5.701 L2.729,-5.671 " />
			<path d="M-5,-4.164 L-5,-8.544 " />
			<path d="M-3.85,-3.98 L-3.85,-4.103 " />
			<path d="M3.85,-3.98 L3.85,-4.103 " />
			<path d="M-5,12.247 L-5,4.164 " />
			<path d="M5,5.237 L5,4.164 " />
			<path d="M-6.656,-1.373 L-4.782,-0.291 " />
			<path d="M-8.406,1.658 L-6.532,2.74 " />
			<path d="M-6.656,10.875 L-4.782,11.957 " />
			<path d="M-8.406,13.906 L-6.532,14.988 " />
			<path d="M-7.035,-2.92 L-6.894,-2.838 " />
			<path d="M-9.935,2.103 L-9.794,2.185 " />
			<path d="M-7.035,9.328 L-6.894,9.409 " />
			<path d="M-9.935,14.351 L-9.794,14.432 " />
			<path d="M2.676,5.701 L2.729,5.671 " />
			<path d="M-2.676,5.701 L-2.729,5.671 " />
			<path d="M-7.531,1.572 L-8.344,2.041 " />
			<path d="M-6.293,-0.572 L-6.293,-1.511 " />
			<path d="M-7.531,13.819 L-8.344,14.289 " />
			<path d="M-6.293,11.676 L-6.293,10.737 " />
			<path d="M3.85,3.98 L3.85,4.103 " />
			<path d="M-3.85,3.98 L-3.85,4.103 " />
			<path d="M-5,4.042 L-5,-4.042 " />
			<path d="M11.349,-13.534 L11.491,-13.453 " />
			<path d="M8.449,-8.511 L8.591,-8.43 " />
			<path d="M11.349,-1.287 L11.491,-1.205 " />
			<path d="M8.449,3.736 L8.591,3.818 " />
			<path d="M11.729,-11.987 L13.603,-10.905 " />
			<path d="M9.979,-8.956 L11.853,-7.874 " />
			<path d="M11.729,0.26 L13.603,1.342 " />
			<path d="M9.979,3.291 L11.853,4.373 " />
			<path d="M-4,3.98 L-4,4.042 " />
			<path d="M-4,-3.98 L-4,-4.042 " />
			<path d="M10.854,-9.043 L10.041,-8.573 " />
			<path d="M12.092,-11.186 L12.092,-12.125 " />
			<path d="M10.854,3.205 L10.041,3.674 " />
			<path d="M12.092,1.061 L12.092,0.122 " />

       </g>

       <!-- solid lines -->
       <g  stroke="rgb(0,0,0)" fill="none">
			<path d="M-0.212,0.041 L3.536,-2.123 " />
			<path d="M3.536,-2.123 L3.621,-2.174 L3.705,-2.226 L3.786,-2.279 L3.865,-2.333 L3.942,-2.388 L4.016,-2.444 L4.088,-2.502 L4.157,-2.56 L4.224,-2.62 L4.289,-2.68 L4.35,-2.741 L4.41,-2.803 L4.466,-2.866 L4.52,-2.93 L4.571,-2.994 L4.619,-3.059 L4.665,-3.125 L4.708,-3.192 L4.748,-3.259 L4.785,-3.326 L4.819,-3.394 L4.85,-3.463 L4.879,-3.532 L4.904,-3.601 L4.926,-3.671 L4.946,-3.741 L4.962,-3.811 L4.976,-3.881 L4.986,-3.952 L4.994,-4.022 L4.998,-4.093 L5,-4.164 " />
			<path d="M-0.212,0.041 L-0.212,8.369 " />
			<path d="M3.536,-10.206 L3.536,-2.123 " />
			<path d="M3.536,-10.206 L-10.607,-2.041 " />
			<path d="M-10.607,-2.041 L-10.607,22.454 " />
			<path d="M3.536,14.289 L-10.607,22.454 " />
			<path d="M-0.212,8.369 L3.536,6.205 " />
			<path d="M3.536,6.205 L3.536,14.289 " />
			<path d="M-6.894,1.939 L-6.891,1.832 L-6.881,1.722 L-6.864,1.609 L-6.841,1.494 L-6.811,1.377 L-6.775,1.26 L-6.734,1.142 L-6.686,1.025 L-6.632,0.909 L-6.574,0.795 L-6.51,0.683 L-6.442,0.573 L-6.369,0.468 L-6.293,0.366 L-6.213,0.27 L-6.13,0.178 L-6.045,0.092 L-5.958,0.012 L-5.868,-0.061 L-5.778,-0.127 L-5.687,-0.186 L-5.596,-0.237 L-5.505,-0.281 L-5.415,-0.316 L-5.327,-0.343 L-5.24,-0.361 L-5.197,-0.367 L-5.155,-0.371 L-5.114,-0.373 L-5.074,-0.372 L-5.034,-0.37 L-4.995,-0.365 L-4.957,-0.358 L-4.92,-0.349 L-4.884,-0.337 L-4.849,-0.324 L-4.815,-0.308 L-4.782,-0.291 " />
			<path d="M-4.782,-0.291 L-4.74,-0.264 L-4.7,-0.234 L-4.663,-0.2 L-4.628,-0.163 L-4.595,-0.123 L-4.566,-0.079 L-4.538,-0.032 L-4.514,0.018 L-4.492,0.071 L-4.473,0.126 L-4.457,0.185 L-4.443,0.245 L-4.433,0.308 L-4.425,0.374 L-4.421,0.441 L-4.419,0.51 L-4.421,0.581 L-4.425,0.654 L-4.433,0.728 L-4.443,0.803 L-4.457,0.879 L-4.473,0.956 L-4.492,1.033 L-4.514,1.111 L-4.538,1.19 L-4.566,1.268 L-4.595,1.347 L-4.628,1.425 L-4.663,1.502 L-4.7,1.579 L-4.74,1.655 L-4.782,1.73 L-4.826,1.804 L-4.872,1.876 L-4.92,1.947 L-4.969,2.016 L-5.021,2.083 L-5.074,2.148 L-5.128,2.211 L-5.183,2.271 L-5.24,2.329 L-5.298,2.385 L-5.356,2.437 L-5.415,2.487 L-5.475,2.533 L-5.536,2.577 L-5.596,2.617 L-5.657,2.654 L-5.718,2.687 L-5.778,2.717 L-5.838,2.743 L-5.898,2.766 L-5.958,2.784 L-6.016,2.799 L-6.074,2.811 L-6.13,2.818 L-6.186,2.822 L-6.24,2.822 L-6.293,2.818 L-6.344,2.81 L-6.394,2.798 L-6.442,2.783 L-6.488,2.763 L-6.532,2.74 " />
			<path d="M-6.532,2.74 L-6.574,2.714 L-6.613,2.683 L-6.651,2.65 L-6.686,2.613 L-6.718,2.572 L-6.748,2.528 L-6.775,2.482 L-6.8,2.432 L-6.822,2.379 L-6.841,2.323 L-6.857,2.265 L-6.871,2.204 L-6.881,2.141 L-6.888,2.076 L-6.893,2.008 L-6.894,1.939 " />
			<path d="M-6.894,14.187 L-6.891,14.08 L-6.881,13.969 L-6.864,13.856 L-6.841,13.741 L-6.811,13.625 L-6.775,13.507 L-6.734,13.39 L-6.686,13.272 L-6.632,13.156 L-6.574,13.042 L-6.51,12.93 L-6.442,12.821 L-6.369,12.715 L-6.293,12.614 L-6.213,12.517 L-6.13,12.425 L-6.045,12.34 L-5.958,12.26 L-5.868,12.187 L-5.778,12.12 L-5.687,12.061 L-5.596,12.01 L-5.505,11.967 L-5.415,11.931 L-5.327,11.905 L-5.24,11.886 L-5.197,11.88 L-5.155,11.876 L-5.114,11.875 L-5.074,11.875 L-5.034,11.878 L-4.995,11.883 L-4.957,11.89 L-4.92,11.899 L-4.884,11.91 L-4.849,11.924 L-4.815,11.939 L-4.782,11.957 " />
			<path d="M-4.782,11.957 L-4.74,11.983 L-4.7,12.013 L-4.663,12.047 L-4.628,12.084 L-4.595,12.125 L-4.566,12.169 L-4.538,12.215 L-4.514,12.265 L-4.492,12.318 L-4.473,12.374 L-4.457,12.432 L-4.443,12.493 L-4.433,12.556 L-4.425,12.621 L-4.421,12.689 L-4.419,12.758 L-4.421,12.829 L-4.425,12.901 L-4.433,12.975 L-4.443,13.05 L-4.457,13.126 L-4.473,13.203 L-4.492,13.281 L-4.514,13.359 L-4.538,13.437 L-4.566,13.516 L-4.595,13.594 L-4.628,13.672 L-4.663,13.75 L-4.7,13.826 L-4.74,13.902 L-4.782,13.977 L-4.826,14.051 L-4.872,14.123 L-4.92,14.194 L-4.969,14.263 L-5.021,14.33 L-5.074,14.396 L-5.128,14.458 L-5.183,14.519 L-5.24,14.577 L-5.298,14.632 L-5.356,14.685 L-5.415,14.734 L-5.475,14.781 L-5.536,14.824 L-5.596,14.864 L-5.657,14.901 L-5.718,14.934 L-5.778,14.964 L-5.838,14.99 L-5.898,15.013 L-5.958,15.032 L-6.016,15.047 L-6.074,15.058 L-6.13,15.066 L-6.186,15.069 L-6.24,15.069 L-6.293,15.065 L-6.344,15.057 L-6.394,15.045 L-6.442,15.03 L-6.488,15.011 L-6.532,14.988 " />
			<path d="M-6.532,14.988 L-6.574,14.961 L-6.613,14.931 L-6.651,14.897 L-6.686,14.86 L-6.718,14.82 L-6.748,14.776 L-6.775,14.729 L-6.8,14.679 L-6.822,14.626 L-6.841,14.571 L-6.857,14.512 L-6.871,14.452 L-6.881,14.389 L-6.888,14.323 L-6.893,14.256 L-6.894,14.187 " />
			<path d="M3.536,-10.206 L3.621,-10.257 L3.705,-10.309 L3.786,-10.362 L3.865,-10.416 L3.942,-10.471 L4.016,-10.528 L4.088,-10.585 L4.157,-10.644 L4.224,-10.703 L4.289,-10.763 L4.35,-10.825 L4.41,-10.887 L4.466,-10.95 L4.52,-11.013 L4.571,-11.078 L4.619,-11.143 L4.665,-11.209 L4.708,-11.275 L4.748,-11.342 L4.785,-11.409 L4.819,-11.478 L4.85,-11.546 L4.879,-11.615 L4.904,-11.684 L4.926,-11.754 L4.946,-11.824 L4.962,-11.894 L4.976,-11.964 L4.986,-12.035 L4.994,-12.106 L4.998,-12.177 L5,-12.247 " />
			<path d="M5,-12.247 L4.998,-12.318 L4.994,-12.389 L4.986,-12.46 L4.976,-12.53 L4.962,-12.601 L4.946,-12.671 L4.926,-12.741 L4.904,-12.811 L4.879,-12.88 L4.85,-12.949 L4.819,-13.017 L4.785,-13.085 L4.748,-13.153 L4.708,-13.22 L4.665,-13.286 L4.619,-13.352 L4.571,-13.417 L4.52,-13.482 L4.466,-13.545 L4.41,-13.608 L4.35,-13.67 L4.289,-13.732 L4.224,-13.792 L4.157,-13.851 L4.088,-13.91 L4.016,-13.967 L3.942,-14.023 L3.865,-14.079 L3.786,-14.133 L3.705,-14.186 L3.621,-14.238 L3.536,-14.289 L3.448,-14.338 L3.358,-14.386 L3.266,-14.433 L3.172,-14.479 L3.076,-14.523 L2.978,-14.566 L2.778,-14.648 L2.571,-14.723 L2.357,-14.793 L2.138,-14.857 L1.913,-14.914 L1.684,-14.965 L1.451,-15.01 L1.215,-15.048 L0.975,-15.079 L0.734,-15.103 L0.49,-15.12 L0.245,-15.131 L2.527e-15,-15.134 L-0.245,-15.131 L-0.49,-15.12 L-0.734,-15.103 L-0.975,-15.079 L-1.215,-15.048 L-1.451,-15.01 L-1.684,-14.965 L-1.913,-14.914 L-2.138,-14.857 L-2.357,-14.793 L-2.571,-14.723 L-2.778,-14.648 L-2.978,-14.566 L-3.076,-14.523 L-3.172,-14.479 L-3.266,-14.433 L-3.358,-14.386 L-3.448,-14.338 L-3.536,-14.289 L-3.621,-14.238 L-3.705,-14.186 L-3.786,-14.133 L-3.865,-14.079 L-3.942,-14.023 L-4.016,-13.967 L-4.088,-13.91 L-4.157,-13.851 L-4.224,-13.792 L-4.289,-13.732 L-4.35,-13.67 L-4.41,-13.608 L-4.466,-13.545 L-4.52,-13.482 L-4.571,-13.417 L-4.619,-13.352 L-4.665,-13.286 L-4.708,-13.22 L-4.748,-13.153 L-4.785,-13.085 L-4.819,-13.017 L-4.85,-12.949 L-4.879,-12.88 L-4.904,-12.811 L-4.926,-12.741 L-4.946,-12.671 L-4.962,-12.601 L-4.976,-12.53 L-4.986,-12.46 L-4.994,-12.389 L-4.998,-12.318 L-5,-12.247 " />
			<path d="M-5,-12.247 L-4.998,-12.158 L-4.99,-12.07 L-4.979,-11.981 L-4.962,-11.892 L-4.941,-11.804 L-4.915,-11.716 L-4.884,-11.629 L-4.849,-11.543 L-4.809,-11.457 L-4.764,-11.371 L-4.715,-11.287 L-4.662,-11.203 L-4.604,-11.121 L-4.541,-11.04 L-4.475,-10.959 L-4.404,-10.88 L-4.329,-10.803 L-4.249,-10.726 L-4.166,-10.651 L-4.079,-10.578 L-3.988,-10.506 L-3.893,-10.436 L-3.794,-10.367 L-3.692,-10.301 L-3.586,-10.236 L-3.477,-10.173 L-3.365,-10.112 L-3.249,-10.053 L-3.131,-9.997 L-3.009,-9.942 L-2.884,-9.889 L-2.757,-9.839 " />
			<path d="M-2.757,-9.839 L-13.435,-3.674 " />
			<path d="M-13.435,-3.674 L-13.435,20.821 " />
			<path d="M4.289,5.648 L4.208,5.723 L4.123,5.797 L4.034,5.869 L3.942,5.94 L3.846,6.009 L3.746,6.076 L3.642,6.142 L3.536,6.205 " />
			<path d="M-10.607,-2.041 L-13.435,-3.674 " />
			<path d="M-10.607,22.454 L-13.435,20.821 " />
			<path d="M5,12.247 L4.998,12.318 L4.994,12.389 L4.986,12.46 L4.976,12.53 L4.962,12.601 L4.946,12.671 L4.926,12.741 L4.904,12.811 L4.879,12.88 L4.85,12.949 L4.819,13.017 L4.785,13.085 L4.748,13.153 L4.708,13.22 L4.665,13.286 L4.619,13.352 L4.571,13.417 L4.52,13.482 L4.466,13.545 L4.41,13.608 L4.35,13.67 L4.289,13.732 L4.224,13.792 L4.157,13.851 L4.088,13.91 L4.016,13.967 L3.942,14.023 L3.865,14.079 L3.786,14.133 L3.705,14.186 L3.621,14.238 L3.536,14.289 " />
			<path d="M17.678,-18.371 L14.849,-20.004 " />
			<path d="M17.678,-18.371 L17.678,6.124 " />
			<path d="M17.678,-18.371 L7.283,-12.37 " />
			<path d="M4.455,-14.003 L7.283,-12.37 " />
			<path d="M14.849,-20.004 L4.455,-14.003 " />
			<path d="M4.455,-14.003 L4.455,-13.558 " />
			<path d="M17.678,6.124 L7.283,12.125 " />
			<path d="M5,10.807 L7.283,12.125 " />
			<path d="M7.283,3.919 L7.283,12.125 " />
			<path d="M3.536,6.083 L7.283,3.919 " />
			<path d="M7.283,-12.37 L7.283,-4.164 " />
			<path d="M3.536,-2 L3.536,6.083 " />
			<path d="M3.536,-2 L7.283,-4.164 " />
			<path d="M11.49,-8.675 L11.494,-8.782 L11.504,-8.893 L11.521,-9.006 L11.544,-9.121 L11.573,-9.237 L11.609,-9.355 L11.651,-9.472 L11.699,-9.59 L11.752,-9.706 L11.811,-9.82 L11.875,-9.932 L11.943,-10.041 L12.015,-10.147 L12.092,-10.248 L12.172,-10.345 L12.254,-10.436 L12.34,-10.522 L12.427,-10.602 L12.516,-10.675 L12.607,-10.742 L12.698,-10.801 L12.789,-10.852 L12.879,-10.895 L12.969,-10.931 L13.058,-10.957 L13.145,-10.976 L13.187,-10.982 L13.229,-10.986 L13.271,-10.987 L13.311,-10.987 L13.351,-10.984 L13.39,-10.979 L13.428,-10.972 L13.465,-10.963 L13.501,-10.952 L13.536,-10.938 L13.57,-10.923 L13.603,-10.905 " />
			<path d="M13.603,-10.905 L13.645,-10.879 L13.684,-10.848 L13.722,-10.815 L13.757,-10.778 L13.789,-10.737 L13.819,-10.693 L13.847,-10.646 L13.871,-10.597 L13.893,-10.544 L13.912,-10.488 L13.928,-10.43 L13.942,-10.369 L13.952,-10.306 L13.959,-10.241 L13.964,-10.173 L13.965,-10.104 L13.964,-10.033 L13.959,-9.961 L13.952,-9.887 L13.942,-9.812 L13.928,-9.736 L13.912,-9.659 L13.893,-9.581 L13.871,-9.503 L13.847,-9.425 L13.819,-9.346 L13.789,-9.268 L13.757,-9.19 L13.722,-9.112 L13.684,-9.036 L13.645,-8.96 L13.603,-8.885 L13.559,-8.811 L13.513,-8.738 L13.465,-8.668 L13.415,-8.599 L13.364,-8.531 L13.311,-8.466 L13.257,-8.403 L13.201,-8.343 L13.145,-8.285 L13.087,-8.23 L13.029,-8.177 L12.969,-8.128 L12.909,-8.081 L12.849,-8.038 L12.789,-7.998 L12.728,-7.961 L12.667,-7.928 L12.607,-7.898 L12.546,-7.871 L12.487,-7.849 L12.427,-7.83 L12.369,-7.815 L12.311,-7.804 L12.254,-7.796 L12.199,-7.793 L12.145,-7.793 L12.092,-7.797 L12.04,-7.805 L11.991,-7.816 L11.943,-7.832 L11.897,-7.851 L11.853,-7.874 " />
			<path d="M11.853,-7.874 L11.811,-7.901 L11.771,-7.931 L11.734,-7.965 L11.699,-8.002 L11.667,-8.042 L11.637,-8.086 L11.609,-8.133 L11.585,-8.183 L11.563,-8.236 L11.544,-8.291 L11.528,-8.35 L11.514,-8.41 L11.504,-8.473 L11.496,-8.539 L11.492,-8.606 L11.49,-8.675 " />
			<path d="M11.49,3.572 L11.494,3.465 L11.504,3.355 L11.521,3.242 L11.544,3.127 L11.573,3.01 L11.609,2.893 L11.651,2.775 L11.699,2.658 L11.752,2.542 L11.811,2.428 L11.875,2.316 L11.943,2.206 L12.015,2.101 L12.092,1.999 L12.172,1.903 L12.254,1.811 L12.34,1.725 L12.427,1.645 L12.516,1.572 L12.607,1.506 L12.698,1.447 L12.789,1.396 L12.879,1.352 L12.969,1.317 L13.058,1.29 L13.145,1.272 L13.187,1.266 L13.229,1.262 L13.271,1.26 L13.311,1.261 L13.351,1.263 L13.39,1.268 L13.428,1.275 L13.465,1.284 L13.501,1.296 L13.536,1.309 L13.57,1.325 L13.603,1.342 " />
			<path d="M13.603,1.342 L13.645,1.369 L13.684,1.399 L13.722,1.433 L13.757,1.47 L13.789,1.51 L13.819,1.554 L13.847,1.601 L13.871,1.651 L13.893,1.704 L13.912,1.759 L13.928,1.818 L13.942,1.878 L13.952,1.941 L13.959,2.007 L13.964,2.074 L13.965,2.143 L13.964,2.214 L13.959,2.287 L13.952,2.361 L13.942,2.436 L13.928,2.512 L13.912,2.589 L13.893,2.666 L13.871,2.744 L13.847,2.823 L13.819,2.901 L13.789,2.98 L13.757,3.058 L13.722,3.135 L13.684,3.212 L13.645,3.288 L13.603,3.363 L13.559,3.437 L13.513,3.509 L13.465,3.58 L13.415,3.649 L13.364,3.716 L13.311,3.781 L13.257,3.844 L13.201,3.904 L13.145,3.962 L13.087,4.018 L13.029,4.07 L12.969,4.12 L12.909,4.166 L12.849,4.21 L12.789,4.25 L12.728,4.287 L12.667,4.32 L12.607,4.35 L12.546,4.376 L12.487,4.399 L12.427,4.417 L12.369,4.432 L12.311,4.444 L12.254,4.451 L12.199,4.455 L12.145,4.455 L12.092,4.451 L12.04,4.443 L11.991,4.431 L11.943,4.416 L11.897,4.396 L11.853,4.373 " />
			<path d="M11.853,4.373 L11.811,4.347 L11.771,4.316 L11.734,4.283 L11.699,4.246 L11.667,4.205 L11.637,4.161 L11.609,4.114 L11.585,4.065 L11.563,4.012 L11.544,3.956 L11.528,3.898 L11.514,3.837 L11.504,3.774 L11.496,3.709 L11.492,3.641 L11.49,3.572 " />
			<path d="M7.283,-4.164 L5,-5.482 " />
			<path d="M-0.212,6.926 L0.047,6.928 L0.305,6.923 L0.563,6.91 L0.819,6.889 L1.073,6.861 L1.324,6.825 L1.572,6.782 L1.694,6.758 L1.815,6.732 L1.935,6.704 L2.053,6.674 L2.171,6.642 L2.287,6.609 L2.401,6.574 L2.513,6.537 L2.624,6.499 L2.734,6.459 L2.841,6.417 L2.946,6.374 L3.05,6.329 L3.151,6.283 L3.251,6.235 L3.348,6.186 L3.443,6.135 L3.536,6.083 " />
			<path d="M2.57,-1.565 L2.7,-1.612 L2.828,-1.661 L2.953,-1.712 L3.076,-1.766 L3.195,-1.821 L3.312,-1.879 L3.425,-1.939 L3.536,-2 " />
			<path d="M-5,-8.544 L-5,-12.247 " />
			<path d="M5,-4.164 L5,-12.247 " />
			<path d="M5,12.247 L5,5.237 " />

       </g>
    </g>
    
</svg>
