<?xml version="1.0" encoding="UTF-8" standalone="no"?>
<svg viewBox="155.6 10.0 237.3 320.0"
   xmlns:svg="http://www.w3.org/2000/svg"
   xmlns="http://www.w3.org/2000/svg"
   width="237"
   height="320"

>
    <g transform="scale(10.066396203218538, -10.066396203218538)   translate(32.454584174361884,-14.928279154628596)" stroke-width="0.25"  fill="none">
       <!-- hidden lines -->
       <g  stroke="rgb(160,160,160)" fill="none" stroke-dasharray="0.25,0.25" >
			<path d="M-1.202,-16.861 L-1.202,2.572 " />
			<path d="M5.586,6.491 L-1.202,2.572 " />
			<path d="M-1.202,2.572 L-12.374,9.022 " />
			<path d="M-5.657,-11.104 L-5.655,-11.009 L-5.649,-10.917 L-5.638,-10.827 L-5.624,-10.741 L-5.606,-10.658 L-5.584,-10.578 L-5.558,-10.501 L-5.528,-10.429 L-5.494,-10.361 L-5.456,-10.296 L-5.415,-10.236 L-5.371,-10.181 L-5.323,-10.13 L-5.272,-10.084 L-5.217,-10.042 L-5.16,-10.006 " />
			<path d="M-5.16,-10.006 L-5.099,-9.974 L-5.036,-9.948 L-4.971,-9.927 L-4.903,-9.91 L-4.832,-9.9 L-4.76,-9.894 L-4.685,-9.894 L-4.609,-9.899 L-4.532,-9.909 L-4.452,-9.925 L-4.372,-9.945 L-4.291,-9.971 L-4.209,-10.002 L-4.126,-10.038 L-4.043,-10.079 L-3.96,-10.125 L-3.877,-10.175 L-3.793,-10.23 L-3.711,-10.29 L-3.629,-10.353 L-3.547,-10.421 L-3.467,-10.493 L-3.388,-10.569 L-3.31,-10.649 L-3.234,-10.732 L-3.16,-10.818 L-3.087,-10.907 L-3.017,-10.999 L-2.949,-11.094 L-2.883,-11.191 L-2.82,-11.29 L-2.76,-11.391 L-2.702,-11.494 L-2.648,-11.598 L-2.597,-11.704 L-2.549,-11.81 L-2.504,-11.917 L-2.463,-12.025 L-2.426,-12.132 L-2.392,-12.239 L-2.362,-12.347 L-2.336,-12.453 L-2.314,-12.558 L-2.295,-12.663 L-2.281,-12.766 L-2.271,-12.867 L-2.265,-12.967 L-2.263,-13.064 L-2.265,-13.159 L-2.271,-13.251 L-2.281,-13.341 L-2.295,-13.427 L-2.314,-13.511 L-2.336,-13.591 L-2.362,-13.667 L-2.392,-13.739 L-2.426,-13.808 L-2.463,-13.872 L-2.504,-13.932 L-2.549,-13.988 L-2.597,-14.038 L-2.648,-14.085 L-2.702,-14.126 L-2.76,-14.163 " />
			<path d="M-2.76,-14.163 L-2.805,-14.187 L-2.851,-14.208 L-2.899,-14.226 L-2.949,-14.242 L-3,-14.254 L-3.052,-14.264 L-3.105,-14.271 L-3.16,-14.274 L-3.215,-14.275 L-3.272,-14.273 L-3.33,-14.267 L-3.388,-14.259 L-3.447,-14.248 L-3.507,-14.234 L-3.568,-14.217 L-3.629,-14.197 L-3.69,-14.175 L-3.752,-14.149 L-3.814,-14.121 L-3.877,-14.089 L-3.939,-14.056 L-4.001,-14.019 L-4.064,-13.98 L-4.126,-13.938 L-4.188,-13.894 L-4.25,-13.847 L-4.311,-13.798 L-4.372,-13.747 L-4.432,-13.693 L-4.492,-13.637 L-4.609,-13.52 L-4.723,-13.394 L-4.832,-13.261 L-4.937,-13.122 L-5.036,-12.977 L-5.13,-12.828 L-5.217,-12.674 L-5.298,-12.517 L-5.371,-12.358 L-5.436,-12.198 L-5.494,-12.036 L-5.543,-11.875 L-5.565,-11.795 L-5.584,-11.715 L-5.601,-11.636 L-5.616,-11.558 L-5.628,-11.48 L-5.638,-11.402 L-5.647,-11.326 L-5.652,-11.251 L-5.656,-11.177 L-5.657,-11.104 " />
			<path d="M-11.314,-7.838 L-11.312,-7.743 L-11.306,-7.651 L-11.295,-7.561 L-11.281,-7.475 L-11.263,-7.392 L-11.241,-7.312 L-11.215,-7.235 L-11.185,-7.163 L-11.151,-7.095 L-11.113,-7.03 L-11.072,-6.97 L-11.028,-6.915 L-10.98,-6.864 L-10.928,-6.818 L-10.874,-6.776 L-10.817,-6.74 " />
			<path d="M-10.817,-6.74 L-10.756,-6.708 L-10.693,-6.682 L-10.628,-6.661 L-10.559,-6.644 L-10.489,-6.634 L-10.417,-6.628 L-10.342,-6.628 L-10.266,-6.633 L-10.188,-6.643 L-10.109,-6.659 L-10.029,-6.679 L-9.948,-6.705 L-9.866,-6.736 L-9.783,-6.772 L-9.7,-6.813 L-9.617,-6.859 L-9.533,-6.909 L-9.45,-6.964 L-9.368,-7.024 L-9.286,-7.087 L-9.204,-7.155 L-9.124,-7.227 L-9.045,-7.303 L-8.967,-7.383 L-8.891,-7.466 L-8.817,-7.552 L-8.744,-7.641 L-8.674,-7.733 L-8.606,-7.828 L-8.54,-7.925 L-8.477,-8.024 L-8.417,-8.125 L-8.359,-8.228 L-8.305,-8.332 L-8.254,-8.438 L-8.206,-8.544 L-8.161,-8.651 L-8.12,-8.759 L-8.083,-8.866 L-8.049,-8.973 L-8.019,-9.081 L-7.993,-9.187 L-7.97,-9.292 L-7.952,-9.397 L-7.938,-9.5 L-7.928,-9.601 L-7.922,-9.701 L-7.92,-9.798 L-7.922,-9.893 L-7.928,-9.985 L-7.938,-10.075 L-7.952,-10.161 L-7.97,-10.245 L-7.993,-10.325 L-8.019,-10.401 L-8.049,-10.473 L-8.083,-10.542 L-8.12,-10.606 L-8.161,-10.666 L-8.206,-10.722 L-8.254,-10.772 L-8.305,-10.819 L-8.359,-10.86 L-8.417,-10.897 " />
			<path d="M-8.417,-10.897 L-8.462,-10.921 L-8.508,-10.942 L-8.556,-10.96 L-8.606,-10.976 L-8.657,-10.988 L-8.709,-10.998 L-8.762,-11.005 L-8.817,-11.008 L-8.872,-11.009 L-8.929,-11.007 L-8.987,-11.001 L-9.045,-10.993 L-9.104,-10.982 L-9.164,-10.968 L-9.225,-10.951 L-9.286,-10.931 L-9.347,-10.909 L-9.409,-10.883 L-9.471,-10.855 L-9.533,-10.823 L-9.596,-10.79 L-9.658,-10.753 L-9.721,-10.714 L-9.783,-10.672 L-9.845,-10.628 L-9.907,-10.581 L-9.968,-10.532 L-10.029,-10.481 L-10.089,-10.427 L-10.149,-10.372 L-10.266,-10.254 L-10.38,-10.128 L-10.489,-9.995 L-10.594,-9.856 L-10.693,-9.711 L-10.787,-9.562 L-10.874,-9.408 L-10.955,-9.251 L-11.028,-9.092 L-11.093,-8.932 L-11.151,-8.77 L-11.2,-8.609 L-11.221,-8.529 L-11.241,-8.449 L-11.258,-8.37 L-11.272,-8.292 L-11.285,-8.214 L-11.295,-8.137 L-11.303,-8.06 L-11.309,-7.985 L-11.313,-7.911 L-11.314,-7.838 " />
			<path d="M-5.657,-4.572 L-5.655,-4.477 L-5.649,-4.385 L-5.638,-4.295 L-5.624,-4.209 L-5.606,-4.126 L-5.584,-4.046 L-5.558,-3.969 L-5.528,-3.897 L-5.494,-3.829 L-5.456,-3.764 L-5.415,-3.704 L-5.371,-3.649 L-5.323,-3.598 L-5.272,-3.552 L-5.217,-3.51 L-5.16,-3.474 " />
			<path d="M-5.16,-3.474 L-5.099,-3.442 L-5.036,-3.416 L-4.971,-3.395 L-4.903,-3.378 L-4.832,-3.368 L-4.76,-3.362 L-4.685,-3.362 L-4.609,-3.367 L-4.532,-3.377 L-4.452,-3.393 L-4.372,-3.413 L-4.291,-3.439 L-4.209,-3.47 L-4.126,-3.506 L-4.043,-3.547 L-3.96,-3.593 L-3.877,-3.643 L-3.793,-3.698 L-3.711,-3.758 L-3.629,-3.821 L-3.547,-3.889 L-3.467,-3.961 L-3.388,-4.037 L-3.31,-4.117 L-3.234,-4.2 L-3.16,-4.286 L-3.087,-4.375 L-3.017,-4.467 L-2.949,-4.562 L-2.883,-4.659 L-2.82,-4.758 L-2.76,-4.859 L-2.702,-4.962 L-2.648,-5.066 L-2.597,-5.172 L-2.549,-5.278 L-2.504,-5.385 L-2.463,-5.493 L-2.426,-5.6 L-2.392,-5.707 L-2.362,-5.815 L-2.336,-5.921 L-2.314,-6.026 L-2.295,-6.131 L-2.281,-6.234 L-2.271,-6.335 L-2.265,-6.435 L-2.263,-6.532 L-2.265,-6.627 L-2.271,-6.719 L-2.281,-6.809 L-2.295,-6.895 L-2.314,-6.979 L-2.336,-7.059 L-2.362,-7.135 L-2.392,-7.207 L-2.426,-7.276 L-2.463,-7.34 L-2.504,-7.4 L-2.549,-7.456 L-2.597,-7.506 L-2.648,-7.553 L-2.702,-7.594 L-2.76,-7.631 " />
			<path d="M-2.76,-7.631 L-2.805,-7.655 L-2.851,-7.676 L-2.899,-7.694 L-2.949,-7.71 L-3,-7.722 L-3.052,-7.732 L-3.105,-7.739 L-3.16,-7.742 L-3.215,-7.743 L-3.272,-7.741 L-3.33,-7.735 L-3.388,-7.727 L-3.447,-7.716 L-3.507,-7.702 L-3.568,-7.685 L-3.629,-7.665 L-3.69,-7.643 L-3.752,-7.617 L-3.814,-7.589 L-3.877,-7.557 L-3.939,-7.524 L-4.001,-7.487 L-4.064,-7.448 L-4.126,-7.406 L-4.188,-7.362 L-4.25,-7.315 L-4.311,-7.266 L-4.372,-7.215 L-4.432,-7.161 L-4.492,-7.106 L-4.609,-6.988 L-4.723,-6.862 L-4.832,-6.729 L-4.937,-6.59 L-5.036,-6.445 L-5.13,-6.296 L-5.217,-6.142 L-5.298,-5.985 L-5.371,-5.826 L-5.436,-5.666 L-5.494,-5.504 L-5.543,-5.343 L-5.565,-5.263 L-5.584,-5.183 L-5.601,-5.104 L-5.616,-5.026 L-5.628,-4.948 L-5.638,-4.871 L-5.647,-4.794 L-5.652,-4.719 L-5.656,-4.645 L-5.657,-4.572 " />
			<path d="M-5.657,1.96 L-5.655,2.055 L-5.649,2.147 L-5.638,2.237 L-5.624,2.323 L-5.606,2.406 L-5.584,2.486 L-5.558,2.562 L-5.528,2.635 L-5.494,2.703 L-5.456,2.768 L-5.415,2.828 L-5.371,2.883 L-5.323,2.934 L-5.272,2.98 L-5.217,3.022 L-5.16,3.058 " />
			<path d="M-5.16,3.058 L-5.099,3.09 L-5.036,3.116 L-4.971,3.137 L-4.903,3.153 L-4.832,3.164 L-4.76,3.17 L-4.685,3.17 L-4.609,3.165 L-4.532,3.155 L-4.452,3.139 L-4.372,3.119 L-4.291,3.093 L-4.209,3.062 L-4.126,3.026 L-4.043,2.985 L-3.96,2.939 L-3.877,2.889 L-3.793,2.834 L-3.711,2.774 L-3.629,2.711 L-3.547,2.643 L-3.467,2.571 L-3.388,2.495 L-3.31,2.415 L-3.234,2.332 L-3.16,2.246 L-3.087,2.157 L-3.017,2.065 L-2.949,1.97 L-2.883,1.873 L-2.82,1.774 L-2.76,1.673 L-2.702,1.57 L-2.648,1.466 L-2.597,1.36 L-2.549,1.254 L-2.504,1.147 L-2.463,1.039 L-2.426,0.932 L-2.392,0.824 L-2.362,0.717 L-2.336,0.611 L-2.314,0.506 L-2.295,0.401 L-2.281,0.298 L-2.271,0.197 L-2.265,0.097 L-2.263,-4.441e-16 L-2.265,-0.095 L-2.271,-0.187 L-2.281,-0.277 L-2.295,-0.363 L-2.314,-0.447 L-2.336,-0.527 L-2.362,-0.603 L-2.392,-0.675 L-2.426,-0.744 L-2.463,-0.808 L-2.504,-0.868 L-2.549,-0.924 L-2.597,-0.975 L-2.648,-1.021 L-2.702,-1.062 L-2.76,-1.099 " />
			<path d="M-2.76,-1.099 L-2.805,-1.123 L-2.851,-1.144 L-2.899,-1.162 L-2.949,-1.178 L-3,-1.19 L-3.052,-1.2 L-3.105,-1.207 L-3.16,-1.21 L-3.215,-1.211 L-3.272,-1.209 L-3.33,-1.204 L-3.388,-1.195 L-3.447,-1.184 L-3.507,-1.17 L-3.568,-1.153 L-3.629,-1.133 L-3.69,-1.111 L-3.752,-1.085 L-3.814,-1.057 L-3.877,-1.026 L-3.939,-0.992 L-4.001,-0.955 L-4.064,-0.916 L-4.126,-0.874 L-4.188,-0.83 L-4.25,-0.783 L-4.311,-0.734 L-4.372,-0.683 L-4.432,-0.629 L-4.492,-0.574 L-4.609,-0.456 L-4.723,-0.33 L-4.832,-0.197 L-4.937,-0.058 L-5.036,0.087 L-5.13,0.236 L-5.217,0.39 L-5.298,0.547 L-5.371,0.706 L-5.436,0.866 L-5.494,1.028 L-5.543,1.189 L-5.565,1.269 L-5.584,1.349 L-5.601,1.428 L-5.616,1.506 L-5.628,1.584 L-5.638,1.661 L-5.647,1.738 L-5.652,1.813 L-5.656,1.887 L-5.657,1.96 " />
			<path d="M-11.314,-1.306 L-11.312,-1.211 L-11.306,-1.119 L-11.295,-1.029 L-11.281,-0.943 L-11.263,-0.86 L-11.241,-0.78 L-11.215,-0.704 L-11.185,-0.631 L-11.151,-0.563 L-11.113,-0.498 L-11.072,-0.438 L-11.028,-0.383 L-10.98,-0.332 L-10.928,-0.286 L-10.874,-0.244 L-10.817,-0.208 " />
			<path d="M-10.817,-0.208 L-10.756,-0.176 L-10.693,-0.15 L-10.628,-0.129 L-10.559,-0.113 L-10.489,-0.102 L-10.417,-0.096 L-10.342,-0.096 L-10.266,-0.101 L-10.188,-0.111 L-10.109,-0.127 L-10.029,-0.147 L-9.948,-0.173 L-9.866,-0.204 L-9.783,-0.24 L-9.7,-0.281 L-9.617,-0.327 L-9.533,-0.377 L-9.45,-0.432 L-9.368,-0.492 L-9.286,-0.555 L-9.204,-0.623 L-9.124,-0.695 L-9.045,-0.771 L-8.967,-0.851 L-8.891,-0.934 L-8.817,-1.02 L-8.744,-1.109 L-8.674,-1.201 L-8.606,-1.296 L-8.54,-1.393 L-8.477,-1.492 L-8.417,-1.593 L-8.359,-1.696 L-8.305,-1.8 L-8.254,-1.906 L-8.206,-2.012 L-8.161,-2.119 L-8.12,-2.227 L-8.083,-2.334 L-8.049,-2.442 L-8.019,-2.549 L-7.993,-2.655 L-7.97,-2.76 L-7.952,-2.865 L-7.938,-2.968 L-7.928,-3.069 L-7.922,-3.169 L-7.92,-3.266 L-7.922,-3.361 L-7.928,-3.453 L-7.938,-3.543 L-7.952,-3.629 L-7.97,-3.713 L-7.993,-3.793 L-8.019,-3.869 L-8.049,-3.941 L-8.083,-4.01 L-8.12,-4.074 L-8.161,-4.134 L-8.206,-4.19 L-8.254,-4.24 L-8.305,-4.287 L-8.359,-4.328 L-8.417,-4.365 " />
			<path d="M-8.417,-4.365 L-8.462,-4.389 L-8.508,-4.41 L-8.556,-4.428 L-8.606,-4.444 L-8.657,-4.456 L-8.709,-4.466 L-8.762,-4.473 L-8.817,-4.476 L-8.872,-4.477 L-8.929,-4.475 L-8.987,-4.469 L-9.045,-4.461 L-9.104,-4.45 L-9.164,-4.436 L-9.225,-4.419 L-9.286,-4.399 L-9.347,-4.377 L-9.409,-4.351 L-9.471,-4.323 L-9.533,-4.291 L-9.596,-4.258 L-9.658,-4.221 L-9.721,-4.182 L-9.783,-4.14 L-9.845,-4.096 L-9.907,-4.049 L-9.968,-4 L-10.029,-3.949 L-10.089,-3.895 L-10.149,-3.84 L-10.266,-3.722 L-10.38,-3.596 L-10.489,-3.463 L-10.594,-3.324 L-10.693,-3.179 L-10.787,-3.03 L-10.874,-2.876 L-10.955,-2.719 L-11.028,-2.56 L-11.093,-2.4 L-11.151,-2.238 L-11.2,-2.077 L-11.221,-1.997 L-11.241,-1.917 L-11.258,-1.838 L-11.272,-1.76 L-11.285,-1.682 L-11.295,-1.605 L-11.303,-1.528 L-11.309,-1.453 L-11.313,-1.379 L-11.314,-1.306 " />
			<path d="M-11.314,5.226 L-11.312,5.321 L-11.306,5.413 L-11.295,5.503 L-11.281,5.589 L-11.263,5.672 L-11.241,5.752 L-11.215,5.828 L-11.185,5.901 L-11.151,5.969 L-11.113,6.034 L-11.072,6.094 L-11.028,6.149 L-10.98,6.2 L-10.928,6.246 L-10.874,6.288 L-10.817,6.324 " />
			<path d="M-10.817,6.324 L-10.756,6.356 L-10.693,6.382 L-10.628,6.403 L-10.559,6.419 L-10.489,6.43 L-10.417,6.436 L-10.342,6.436 L-10.266,6.431 L-10.188,6.421 L-10.109,6.405 L-10.029,6.385 L-9.948,6.359 L-9.866,6.328 L-9.783,6.292 L-9.7,6.251 L-9.617,6.205 L-9.533,6.155 L-9.45,6.1 L-9.368,6.04 L-9.286,5.977 L-9.204,5.909 L-9.124,5.837 L-9.045,5.761 L-8.967,5.681 L-8.891,5.598 L-8.817,5.512 L-8.744,5.423 L-8.674,5.331 L-8.606,5.236 L-8.54,5.139 L-8.477,5.04 L-8.417,4.939 L-8.359,4.836 L-8.305,4.732 L-8.254,4.626 L-8.206,4.52 L-8.161,4.413 L-8.12,4.305 L-8.083,4.198 L-8.049,4.09 L-8.019,3.983 L-7.993,3.877 L-7.97,3.771 L-7.952,3.667 L-7.938,3.564 L-7.928,3.463 L-7.922,3.363 L-7.92,3.266 L-7.922,3.171 L-7.928,3.079 L-7.938,2.989 L-7.952,2.903 L-7.97,2.819 L-7.993,2.739 L-8.019,2.663 L-8.049,2.591 L-8.083,2.522 L-8.12,2.458 L-8.161,2.398 L-8.206,2.342 L-8.254,2.291 L-8.305,2.245 L-8.359,2.204 L-8.417,2.167 " />
			<path d="M-8.417,2.167 L-8.462,2.143 L-8.508,2.122 L-8.556,2.104 L-8.606,2.088 L-8.657,2.076 L-8.709,2.066 L-8.762,2.059 L-8.817,2.056 L-8.872,2.055 L-8.929,2.057 L-8.987,2.062 L-9.045,2.071 L-9.104,2.082 L-9.164,2.096 L-9.225,2.113 L-9.286,2.133 L-9.347,2.155 L-9.409,2.181 L-9.471,2.209 L-9.533,2.24 L-9.596,2.274 L-9.658,2.311 L-9.721,2.35 L-9.783,2.392 L-9.845,2.436 L-9.907,2.483 L-9.968,2.532 L-10.029,2.583 L-10.089,2.637 L-10.149,2.692 L-10.266,2.81 L-10.38,2.936 L-10.489,3.069 L-10.594,3.208 L-10.693,3.353 L-10.787,3.502 L-10.874,3.656 L-10.955,3.813 L-11.028,3.972 L-11.093,4.132 L-11.151,4.294 L-11.2,4.455 L-11.221,4.535 L-11.241,4.615 L-11.258,4.694 L-11.272,4.772 L-11.285,4.85 L-11.295,4.927 L-11.303,5.004 L-11.309,5.079 L-11.313,5.153 L-11.314,5.226 " />
			<path d="M-6.93,-11.839 L-6.928,-11.744 L-6.921,-11.652 L-6.911,-11.562 L-6.897,-11.476 L-6.879,-11.392 L-6.857,-11.313 L-6.83,-11.236 L-6.8,-11.164 L-6.767,-11.095 L-6.729,-11.031 L-6.688,-10.971 L-6.644,-10.916 L-6.596,-10.865 L-6.544,-10.818 L-6.49,-10.777 L-6.433,-10.741 " />
			<path d="M-6.433,-10.741 L-6.372,-10.709 L-6.309,-10.683 L-6.244,-10.661 L-6.175,-10.645 L-6.105,-10.634 L-6.033,-10.629 L-5.958,-10.629 L-5.882,-10.634 L-5.804,-10.644 L-5.725,-10.659 L-5.645,-10.68 L-5.564,-10.706 L-5.482,-10.737 L-5.399,-10.773 L-5.316,-10.814 L-5.233,-10.859 L-5.149,-10.91 L-5.066,-10.965 L-4.984,-11.024 L-4.902,-11.088 L-4.82,-11.156 L-4.74,-11.228 L-4.661,-11.304 L-4.583,-11.384 L-4.507,-11.466 L-4.433,-11.553 L-4.36,-11.642 L-4.29,-11.734 L-4.222,-11.829 L-4.156,-11.926 L-4.093,-12.025 L-4.033,-12.126 L-3.975,-12.229 L-3.921,-12.333 L-3.87,-12.439 L-3.822,-12.545 L-3.777,-12.652 L-3.736,-12.759 L-3.698,-12.867 L-3.665,-12.974 L-3.635,-13.081 L-3.609,-13.188 L-3.586,-13.293 L-3.568,-13.398 L-3.554,-13.501 L-3.544,-13.602 L-3.538,-13.701 L-3.536,-13.799 L-3.538,-13.894 L-3.544,-13.986 L-3.554,-14.076 L-3.568,-14.162 L-3.586,-14.246 L-3.609,-14.325 L-3.635,-14.402 L-3.665,-14.474 L-3.698,-14.543 L-3.736,-14.607 L-3.777,-14.667 L-3.822,-14.722 L-3.87,-14.773 L-3.921,-14.82 L-3.975,-14.861 L-4.033,-14.897 " />
			<path d="M-4.033,-14.897 L-4.075,-14.92 L-4.119,-14.941 L-4.165,-14.959 L-4.212,-14.974 L-4.26,-14.986 L-4.309,-14.996 L-4.36,-15.003 L-4.411,-15.008 " />
			<path d="M-6.054,-14.059 L-6.151,-13.936 L-6.244,-13.809 L-6.333,-13.676 L-6.416,-13.54 L-6.494,-13.401 L-6.567,-13.259 L-6.634,-13.115 L-6.694,-12.97 L-6.749,-12.824 L-6.796,-12.679 L-6.836,-12.533 L-6.87,-12.39 L-6.896,-12.248 L-6.915,-12.108 L-6.926,-11.972 L-6.93,-11.839 " />
			<path d="M-12.374,-7.747 L-12.345,-7.705 L-12.313,-7.665 L-12.28,-7.627 L-12.245,-7.592 L-12.209,-7.559 L-12.17,-7.528 L-12.131,-7.5 L-12.089,-7.475 " />
			<path d="M-12.089,-7.475 L-12.029,-7.443 L-11.966,-7.417 L-11.9,-7.395 L-11.832,-7.379 L-11.762,-7.368 L-11.689,-7.363 L-11.615,-7.363 L-11.539,-7.368 L-11.461,-7.378 L-11.382,-7.393 L-11.302,-7.414 L-11.221,-7.44 L-11.138,-7.471 L-11.056,-7.507 L-10.973,-7.548 L-10.889,-7.593 L-10.806,-7.644 L-10.723,-7.699 L-10.64,-7.758 L-10.558,-7.822 L-10.477,-7.89 L-10.397,-7.962 L-10.318,-8.038 L-10.24,-8.118 L-10.164,-8.2 L-10.089,-8.287 L-10.017,-8.376 L-9.947,-8.468 L-9.879,-8.563 L-9.813,-8.66 L-9.75,-8.759 L-9.689,-8.86 L-9.632,-8.963 L-9.578,-9.067 L-9.526,-9.173 L-9.478,-9.279 L-9.434,-9.386 L-9.393,-9.493 L-9.355,-9.601 L-9.322,-9.708 L-9.292,-9.815 L-9.265,-9.922 L-9.243,-10.027 L-9.225,-10.132 L-9.211,-10.235 L-9.201,-10.336 L-9.194,-10.435 L-9.192,-10.533 L-9.194,-10.628 L-9.201,-10.72 L-9.211,-10.81 L-9.225,-10.896 L-9.243,-10.98 L-9.265,-11.059 L-9.292,-11.136 L-9.322,-11.208 L-9.355,-11.277 L-9.393,-11.341 L-9.434,-11.401 L-9.478,-11.456 L-9.526,-11.507 L-9.578,-11.554 L-9.632,-11.595 L-9.689,-11.631 " />
			<path d="M-9.689,-11.631 L-9.732,-11.654 L-9.776,-11.675 L-9.822,-11.693 L-9.869,-11.708 L-9.917,-11.72 L-9.966,-11.73 L-10.016,-11.737 L-10.068,-11.742 " />
			<path d="M-11.711,-10.793 L-11.813,-10.664 L-11.91,-10.529 L-12.003,-10.39 L-12.089,-10.246 L-12.17,-10.099 L-12.245,-9.949 L-12.313,-9.797 L-12.374,-9.644 " />
			<path d="M-6.93,-5.307 L-6.928,-5.212 L-6.921,-5.12 L-6.911,-5.03 L-6.897,-4.944 L-6.879,-4.86 L-6.857,-4.781 L-6.83,-4.704 L-6.8,-4.632 L-6.767,-4.563 L-6.729,-4.499 L-6.688,-4.439 L-6.644,-4.384 L-6.596,-4.333 L-6.544,-4.286 L-6.49,-4.245 L-6.433,-4.209 " />
			<path d="M-6.433,-4.209 L-6.372,-4.177 L-6.309,-4.151 L-6.244,-4.129 L-6.175,-4.113 L-6.105,-4.103 L-6.033,-4.097 L-5.958,-4.097 L-5.882,-4.102 L-5.804,-4.112 L-5.725,-4.127 L-5.645,-4.148 L-5.564,-4.174 L-5.482,-4.205 L-5.399,-4.241 L-5.316,-4.282 L-5.233,-4.327 L-5.149,-4.378 L-5.066,-4.433 L-4.984,-4.492 L-4.902,-4.556 L-4.82,-4.624 L-4.74,-4.696 L-4.661,-4.772 L-4.583,-4.852 L-4.507,-4.934 L-4.433,-5.021 L-4.36,-5.11 L-4.29,-5.202 L-4.222,-5.297 L-4.156,-5.394 L-4.093,-5.493 L-4.033,-5.594 L-3.975,-5.697 L-3.921,-5.801 L-3.87,-5.907 L-3.822,-6.013 L-3.777,-6.12 L-3.736,-6.227 L-3.698,-6.335 L-3.665,-6.442 L-3.635,-6.549 L-3.609,-6.656 L-3.586,-6.761 L-3.568,-6.866 L-3.554,-6.969 L-3.544,-7.07 L-3.538,-7.169 L-3.536,-7.267 L-3.538,-7.362 L-3.544,-7.454 L-3.554,-7.544 L-3.568,-7.63 L-3.586,-7.714 L-3.609,-7.793 L-3.635,-7.87 L-3.665,-7.942 L-3.698,-8.011 L-3.736,-8.075 L-3.777,-8.135 L-3.822,-8.19 L-3.87,-8.241 L-3.921,-8.288 L-3.975,-8.329 L-4.033,-8.365 " />
			<path d="M-4.033,-8.365 L-4.078,-8.39 L-4.124,-8.411 L-4.172,-8.429 L-4.222,-8.445 L-4.273,-8.457 L-4.325,-8.467 L-4.378,-8.473 L-4.433,-8.477 L-4.488,-8.478 L-4.545,-8.476 L-4.602,-8.47 L-4.661,-8.462 L-4.72,-8.451 L-4.78,-8.437 L-4.84,-8.42 L-4.902,-8.4 L-4.963,-8.377 L-5.025,-8.352 L-5.087,-8.323 L-5.149,-8.292 L-5.212,-8.258 L-5.274,-8.222 L-5.337,-8.183 L-5.399,-8.141 L-5.461,-8.097 L-5.523,-8.05 L-5.584,-8.001 L-5.645,-7.95 L-5.705,-7.896 L-5.765,-7.84 L-5.882,-7.722 L-5.996,-7.597 L-6.105,-7.464 L-6.21,-7.325 L-6.309,-7.18 L-6.403,-7.031 L-6.49,-6.877 L-6.57,-6.72 L-6.644,-6.561 L-6.709,-6.4 L-6.767,-6.239 L-6.816,-6.078 L-6.837,-5.998 L-6.857,-5.918 L-6.874,-5.839 L-6.888,-5.76 L-6.901,-5.682 L-6.911,-5.605 L-6.919,-5.529 L-6.925,-5.454 L-6.928,-5.38 L-6.93,-5.307 " />
			<path d="M-6.93,1.225 L-6.928,1.32 L-6.921,1.412 L-6.911,1.502 L-6.897,1.588 L-6.879,1.672 L-6.857,1.751 L-6.83,1.828 L-6.8,1.9 L-6.767,1.969 L-6.729,2.033 L-6.688,2.093 L-6.644,2.148 L-6.596,2.199 L-6.544,2.245 L-6.49,2.287 L-6.433,2.323 " />
			<path d="M-6.433,2.323 L-6.372,2.355 L-6.309,2.381 L-6.244,2.403 L-6.175,2.419 L-6.105,2.429 L-6.033,2.435 L-5.958,2.435 L-5.882,2.43 L-5.804,2.42 L-5.725,2.405 L-5.645,2.384 L-5.564,2.358 L-5.482,2.327 L-5.399,2.291 L-5.316,2.25 L-5.233,2.205 L-5.149,2.154 L-5.066,2.099 L-4.984,2.04 L-4.902,1.976 L-4.82,1.908 L-4.74,1.836 L-4.661,1.76 L-4.583,1.68 L-4.507,1.597 L-4.433,1.511 L-4.36,1.422 L-4.29,1.33 L-4.222,1.235 L-4.156,1.138 L-4.093,1.039 L-4.033,0.938 L-3.975,0.835 L-3.921,0.731 L-3.87,0.625 L-3.822,0.519 L-3.777,0.412 L-3.736,0.305 L-3.698,0.197 L-3.665,0.09 L-3.635,-0.017 L-3.609,-0.124 L-3.586,-0.229 L-3.568,-0.334 L-3.554,-0.437 L-3.544,-0.538 L-3.538,-0.638 L-3.536,-0.735 L-3.538,-0.83 L-3.544,-0.922 L-3.554,-1.012 L-3.568,-1.098 L-3.586,-1.182 L-3.609,-1.261 L-3.635,-1.338 L-3.665,-1.41 L-3.698,-1.479 L-3.736,-1.543 L-3.777,-1.603 L-3.822,-1.658 L-3.87,-1.709 L-3.921,-1.756 L-3.975,-1.797 L-4.033,-1.834 " />
			<path d="M-4.033,-1.834 L-4.078,-1.858 L-4.124,-1.879 L-4.172,-1.897 L-4.222,-1.913 L-4.273,-1.925 L-4.325,-1.935 L-4.378,-1.941 L-4.433,-1.945 L-4.488,-1.946 L-4.545,-1.944 L-4.602,-1.938 L-4.661,-1.93 L-4.72,-1.919 L-4.78,-1.905 L-4.84,-1.888 L-4.902,-1.868 L-4.963,-1.845 L-5.025,-1.82 L-5.087,-1.791 L-5.149,-1.76 L-5.212,-1.727 L-5.274,-1.69 L-5.337,-1.651 L-5.399,-1.609 L-5.461,-1.565 L-5.523,-1.518 L-5.584,-1.469 L-5.645,-1.418 L-5.705,-1.364 L-5.765,-1.308 L-5.882,-1.191 L-5.996,-1.065 L-6.105,-0.932 L-6.21,-0.793 L-6.309,-0.648 L-6.403,-0.499 L-6.49,-0.345 L-6.57,-0.188 L-6.644,-0.029 L-6.709,0.132 L-6.767,0.293 L-6.816,0.454 L-6.837,0.534 L-6.857,0.614 L-6.874,0.693 L-6.888,0.772 L-6.901,0.85 L-6.911,0.927 L-6.919,1.003 L-6.925,1.078 L-6.928,1.152 L-6.93,1.225 " />
			<path d="M-12.374,-1.215 L-12.345,-1.173 L-12.313,-1.133 L-12.28,-1.095 L-12.245,-1.06 L-12.209,-1.027 L-12.17,-0.996 L-12.131,-0.968 L-12.089,-0.943 " />
			<path d="M-12.089,-0.943 L-12.029,-0.911 L-11.966,-0.885 L-11.9,-0.863 L-11.832,-0.847 L-11.762,-0.837 L-11.689,-0.831 L-11.615,-0.831 L-11.539,-0.836 L-11.461,-0.846 L-11.382,-0.861 L-11.302,-0.882 L-11.221,-0.908 L-11.138,-0.939 L-11.056,-0.975 L-10.973,-1.016 L-10.889,-1.061 L-10.806,-1.112 L-10.723,-1.167 L-10.64,-1.226 L-10.558,-1.29 L-10.477,-1.358 L-10.397,-1.43 L-10.318,-1.506 L-10.24,-1.586 L-10.164,-1.669 L-10.089,-1.755 L-10.017,-1.844 L-9.947,-1.936 L-9.879,-2.031 L-9.813,-2.128 L-9.75,-2.227 L-9.689,-2.328 L-9.632,-2.431 L-9.578,-2.535 L-9.526,-2.641 L-9.478,-2.747 L-9.434,-2.854 L-9.393,-2.961 L-9.355,-3.069 L-9.322,-3.176 L-9.292,-3.283 L-9.265,-3.39 L-9.243,-3.495 L-9.225,-3.6 L-9.211,-3.703 L-9.201,-3.804 L-9.194,-3.904 L-9.192,-4.001 L-9.194,-4.096 L-9.201,-4.188 L-9.211,-4.278 L-9.225,-4.364 L-9.243,-4.448 L-9.265,-4.527 L-9.292,-4.604 L-9.322,-4.676 L-9.355,-4.745 L-9.393,-4.809 L-9.434,-4.869 L-9.478,-4.924 L-9.526,-4.975 L-9.578,-5.022 L-9.632,-5.063 L-9.689,-5.099 " />
			<path d="M-9.689,-5.099 L-9.725,-5.119 L-9.761,-5.136 L-9.836,-5.166 L-9.915,-5.188 L-9.997,-5.203 L-10.081,-5.211 L-10.169,-5.211 L-10.259,-5.204 L-10.351,-5.19 L-10.445,-5.169 L-10.541,-5.14 L-10.637,-5.104 L-10.735,-5.062 L-10.833,-5.012 L-10.931,-4.956 L-11.029,-4.894 L-11.126,-4.825 L-11.223,-4.75 L-11.319,-4.669 L-11.413,-4.583 L-11.505,-4.491 L-11.596,-4.395 L-11.684,-4.294 L-11.769,-4.189 L-11.851,-4.08 L-11.931,-3.967 L-12.006,-3.851 L-12.078,-3.733 L-12.146,-3.612 L-12.21,-3.489 L-12.27,-3.364 L-12.324,-3.239 L-12.374,-3.112 " />
			<path d="M-12.374,5.317 L-12.345,5.359 L-12.313,5.399 L-12.28,5.437 L-12.245,5.472 L-12.209,5.505 L-12.17,5.536 L-12.131,5.564 L-12.089,5.589 " />
			<path d="M-12.089,5.589 L-12.029,5.621 L-11.966,5.647 L-11.9,5.669 L-11.832,5.685 L-11.762,5.695 L-11.689,5.701 L-11.615,5.701 L-11.539,5.696 L-11.461,5.686 L-11.382,5.671 L-11.302,5.65 L-11.221,5.624 L-11.138,5.593 L-11.056,5.557 L-10.973,5.516 L-10.889,5.471 L-10.806,5.42 L-10.723,5.365 L-10.64,5.306 L-10.558,5.242 L-10.477,5.174 L-10.397,5.102 L-10.318,5.026 L-10.24,4.946 L-10.164,4.863 L-10.089,4.777 L-10.017,4.688 L-9.947,4.596 L-9.879,4.501 L-9.813,4.404 L-9.75,4.305 L-9.689,4.204 L-9.632,4.101 L-9.578,3.997 L-9.526,3.891 L-9.478,3.785 L-9.434,3.678 L-9.393,3.571 L-9.355,3.463 L-9.322,3.356 L-9.292,3.249 L-9.265,3.142 L-9.243,3.037 L-9.225,2.932 L-9.211,2.829 L-9.201,2.728 L-9.194,2.628 L-9.192,2.531 L-9.194,2.436 L-9.201,2.344 L-9.211,2.254 L-9.225,2.168 L-9.243,2.084 L-9.265,2.004 L-9.292,1.928 L-9.322,1.856 L-9.355,1.787 L-9.393,1.723 L-9.434,1.663 L-9.478,1.608 L-9.526,1.557 L-9.578,1.51 L-9.632,1.469 L-9.689,1.432 " />
			<path d="M-9.689,1.432 L-9.725,1.413 L-9.761,1.396 L-9.836,1.366 L-9.915,1.344 L-9.997,1.329 L-10.081,1.321 L-10.169,1.321 L-10.259,1.328 L-10.351,1.342 L-10.445,1.363 L-10.541,1.392 L-10.637,1.427 L-10.735,1.47 L-10.833,1.52 L-10.931,1.576 L-11.029,1.638 L-11.126,1.707 L-11.223,1.782 L-11.319,1.863 L-11.413,1.949 L-11.505,2.04 L-11.596,2.137 L-11.684,2.238 L-11.769,2.343 L-11.851,2.452 L-11.931,2.565 L-12.006,2.681 L-12.078,2.799 L-12.146,2.92 L-12.21,3.043 L-12.27,3.168 L-12.324,3.293 L-12.374,3.42 " />
			<path d="M4.525,-11.104 L-1.556,-14.615 " />
			<path d="M-1.556,-14.615 L-1.556,2.368 " />
			<path d="M1.628,4.206 L-1.556,2.368 " />
			<path d="M-4.525,-5.879 L-10.607,-9.39 " />
			<path d="M-1.556,-14.615 L-10.607,-9.39 " />
			<path d="M-10.607,-9.39 L-10.607,7.593 " />
			<path d="M-4.525,11.104 L-10.607,7.593 " />
			<path d="M-1.556,2.368 L-10.607,7.593 " />
			<path d="M-8.383,-5.448 L-8.38,-5.319 L-8.372,-5.194 L-8.358,-5.072 L-8.339,-4.955 L-8.314,-4.842 L-8.284,-4.734 L-8.248,-4.63 L-8.208,-4.532 L-8.162,-4.439 L-8.111,-4.352 L-8.055,-4.271 L-7.995,-4.195 L-7.93,-4.126 L-7.86,-4.064 L-7.787,-4.008 L-7.709,-3.958 " />
			<path d="M-7.709,-3.958 L-7.627,-3.915 L-7.541,-3.879 L-7.452,-3.851 L-7.36,-3.829 L-7.264,-3.814 L-7.166,-3.807 L-7.065,-3.806 L-6.962,-3.813 L-6.857,-3.827 L-6.749,-3.848 L-6.64,-3.876 L-6.53,-3.911 L-6.419,-3.953 L-6.307,-4.002 L-6.194,-4.057 L-6.081,-4.119 L-5.968,-4.188 L-5.856,-4.262 L-5.743,-4.343 L-5.632,-4.43 L-5.522,-4.522 L-5.413,-4.619 L-5.306,-4.722 L-5.2,-4.83 L-5.097,-4.943 L-4.996,-5.059 L-4.898,-5.181 L-4.802,-5.305 L-4.71,-5.434 L-4.621,-5.566 L-4.535,-5.7 L-4.454,-5.837 L-4.376,-5.977 L-4.302,-6.118 L-4.232,-6.261 L-4.167,-6.405 L-4.107,-6.55 L-4.051,-6.696 L-4,-6.842 L-3.955,-6.988 L-3.914,-7.133 L-3.879,-7.277 L-3.848,-7.42 L-3.824,-7.562 L-3.804,-7.701 L-3.791,-7.839 L-3.782,-7.974 L-3.779,-8.106 L-3.782,-8.235 L-3.791,-8.36 L-3.804,-8.481 L-3.824,-8.599 L-3.848,-8.712 L-3.879,-8.82 L-3.914,-8.923 L-3.955,-9.022 L-4,-9.114 L-4.051,-9.202 L-4.107,-9.283 L-4.167,-9.358 L-4.232,-9.427 L-4.302,-9.49 L-4.376,-9.546 L-4.454,-9.596 " />
			<path d="M-4.454,-9.596 L-4.515,-9.629 L-4.578,-9.657 L-4.643,-9.682 L-4.71,-9.703 L-4.779,-9.72 L-4.85,-9.733 L-4.922,-9.742 L-4.996,-9.747 L-5.072,-9.748 L-5.148,-9.745 L-5.226,-9.738 L-5.306,-9.727 L-5.386,-9.712 L-5.467,-9.693 L-5.549,-9.67 L-5.632,-9.643 L-5.715,-9.612 L-5.799,-9.577 L-5.884,-9.539 L-5.968,-9.497 L-6.053,-9.451 L-6.138,-9.401 L-6.222,-9.348 L-6.307,-9.292 L-6.391,-9.232 L-6.475,-9.168 L-6.558,-9.102 L-6.64,-9.032 L-6.722,-8.959 L-6.803,-8.884 L-6.883,-8.805 L-6.962,-8.724 L-7.04,-8.64 L-7.116,-8.553 L-7.191,-8.465 L-7.264,-8.373 L-7.336,-8.28 L-7.406,-8.185 L-7.475,-8.087 L-7.541,-7.988 L-7.606,-7.888 L-7.668,-7.785 L-7.728,-7.682 L-7.787,-7.577 L-7.842,-7.471 L-7.896,-7.364 L-7.946,-7.257 L-7.995,-7.149 L-8.041,-7.04 L-8.084,-6.931 L-8.124,-6.821 L-8.162,-6.712 L-8.197,-6.603 L-8.229,-6.494 L-8.258,-6.385 L-8.284,-6.277 L-8.307,-6.169 L-8.327,-6.063 L-8.344,-5.957 L-8.358,-5.852 L-8.369,-5.749 L-8.377,-5.647 L-8.381,-5.547 L-8.383,-5.448 " />
			<path d="M-8.383,1.084 L-8.38,1.213 L-8.372,1.338 L-8.358,1.459 L-8.339,1.577 L-8.314,1.69 L-8.284,1.798 L-8.248,1.902 L-8.208,2 L-8.162,2.093 L-8.111,2.18 L-8.055,2.261 L-7.995,2.336 L-7.93,2.406 L-7.86,2.468 L-7.787,2.524 L-7.709,2.574 " />
			<path d="M-7.709,2.574 L-7.627,2.617 L-7.541,2.652 L-7.452,2.681 L-7.36,2.703 L-7.264,2.718 L-7.166,2.725 L-7.065,2.726 L-6.962,2.719 L-6.857,2.705 L-6.749,2.684 L-6.64,2.656 L-6.53,2.621 L-6.419,2.579 L-6.307,2.53 L-6.194,2.475 L-6.081,2.413 L-5.968,2.344 L-5.856,2.27 L-5.743,2.189 L-5.632,2.102 L-5.522,2.01 L-5.413,1.913 L-5.306,1.81 L-5.2,1.702 L-5.097,1.589 L-4.996,1.473 L-4.898,1.351 L-4.802,1.227 L-4.71,1.098 L-4.621,0.966 L-4.535,0.832 L-4.454,0.695 L-4.376,0.555 L-4.302,0.414 L-4.232,0.271 L-4.167,0.127 L-4.107,-0.018 L-4.051,-0.164 L-4,-0.31 L-3.955,-0.456 L-3.914,-0.601 L-3.879,-0.745 L-3.848,-0.888 L-3.824,-1.03 L-3.804,-1.169 L-3.791,-1.307 L-3.782,-1.442 L-3.779,-1.574 L-3.782,-1.703 L-3.791,-1.828 L-3.804,-1.949 L-3.824,-2.067 L-3.848,-2.18 L-3.879,-2.288 L-3.914,-2.391 L-3.955,-2.49 L-4,-2.583 L-4.051,-2.67 L-4.107,-2.751 L-4.167,-2.826 L-4.232,-2.895 L-4.302,-2.958 L-4.376,-3.014 L-4.454,-3.064 " />
			<path d="M-4.454,-3.064 L-4.515,-3.097 L-4.578,-3.125 L-4.643,-3.15 L-4.71,-3.171 L-4.779,-3.188 L-4.85,-3.201 L-4.922,-3.21 L-4.996,-3.215 L-5.072,-3.216 L-5.148,-3.213 L-5.226,-3.206 L-5.306,-3.195 L-5.386,-3.18 L-5.467,-3.161 L-5.549,-3.138 L-5.632,-3.111 L-5.715,-3.08 L-5.799,-3.045 L-5.884,-3.007 L-5.968,-2.965 L-6.053,-2.919 L-6.138,-2.869 L-6.222,-2.816 L-6.307,-2.76 L-6.391,-2.7 L-6.475,-2.636 L-6.558,-2.57 L-6.64,-2.5 L-6.722,-2.427 L-6.803,-2.352 L-6.883,-2.273 L-6.962,-2.192 L-7.04,-2.108 L-7.116,-2.021 L-7.191,-1.933 L-7.264,-1.841 L-7.336,-1.748 L-7.406,-1.653 L-7.475,-1.555 L-7.541,-1.456 L-7.606,-1.356 L-7.668,-1.253 L-7.728,-1.15 L-7.787,-1.045 L-7.842,-0.939 L-7.896,-0.832 L-7.946,-0.725 L-7.995,-0.617 L-8.041,-0.508 L-8.084,-0.399 L-8.124,-0.289 L-8.162,-0.18 L-8.197,-0.071 L-8.229,0.038 L-8.258,0.147 L-8.284,0.255 L-8.307,0.363 L-8.327,0.469 L-8.344,0.575 L-8.358,0.68 L-8.369,0.783 L-8.377,0.885 L-8.381,0.985 L-8.383,1.084 " />
			<path d="M-7.814,-5.777 L-7.811,-5.68 L-7.805,-5.585 L-7.795,-5.494 L-7.78,-5.406 L-7.762,-5.321 L-7.739,-5.239 L-7.712,-5.161 L-7.682,-5.087 L-7.647,-5.017 L-7.609,-4.952 L-7.567,-4.891 L-7.522,-4.834 L-7.473,-4.782 L-7.42,-4.735 L-7.365,-4.692 L-7.306,-4.655 " />
			<path d="M-7.306,-4.655 L-7.245,-4.623 L-7.18,-4.596 L-7.113,-4.574 L-7.044,-4.558 L-6.972,-4.547 L-6.898,-4.541 L-6.822,-4.541 L-6.744,-4.546 L-6.665,-4.556 L-6.584,-4.572 L-6.502,-4.593 L-6.419,-4.62 L-6.335,-4.651 L-6.251,-4.688 L-6.166,-4.73 L-6.081,-4.777 L-5.996,-4.828 L-5.911,-4.884 L-5.827,-4.945 L-5.743,-5.01 L-5.66,-5.079 L-5.578,-5.153 L-5.497,-5.23 L-5.418,-5.312 L-5.34,-5.396 L-5.264,-5.484 L-5.19,-5.575 L-5.119,-5.669 L-5.049,-5.766 L-4.982,-5.865 L-4.918,-5.966 L-4.856,-6.07 L-4.797,-6.175 L-4.742,-6.281 L-4.69,-6.389 L-4.641,-6.497 L-4.595,-6.606 L-4.553,-6.716 L-4.515,-6.826 L-4.481,-6.935 L-4.45,-7.045 L-4.423,-7.153 L-4.401,-7.261 L-4.382,-7.368 L-4.367,-7.473 L-4.357,-7.576 L-4.351,-7.678 L-4.349,-7.777 L-4.351,-7.874 L-4.357,-7.968 L-4.367,-8.06 L-4.382,-8.148 L-4.401,-8.233 L-4.423,-8.315 L-4.45,-8.393 L-4.481,-8.467 L-4.515,-8.536 L-4.553,-8.602 L-4.595,-8.663 L-4.641,-8.72 L-4.69,-8.772 L-4.742,-8.819 L-4.797,-8.861 L-4.856,-8.899 " />
			<path d="M-4.856,-8.899 L-4.902,-8.923 L-4.95,-8.945 L-4.999,-8.964 L-5.049,-8.979 L-5.101,-8.992 L-5.154,-9.002 L-5.209,-9.009 L-5.264,-9.013 L-5.321,-9.013 L-5.379,-9.011 L-5.438,-9.006 L-5.497,-8.997 L-5.558,-8.986 L-5.619,-8.972 L-5.681,-8.954 L-5.743,-8.934 L-5.806,-8.911 L-5.869,-8.885 L-5.932,-8.856 L-5.996,-8.824 L-6.06,-8.789 L-6.124,-8.752 L-6.187,-8.712 L-6.251,-8.67 L-6.314,-8.625 L-6.377,-8.577 L-6.44,-8.527 L-6.502,-8.474 L-6.564,-8.42 L-6.625,-8.363 L-6.685,-8.303 L-6.744,-8.242 L-6.86,-8.114 L-6.972,-7.979 L-7.079,-7.837 L-7.18,-7.689 L-7.276,-7.536 L-7.365,-7.379 L-7.447,-7.219 L-7.522,-7.057 L-7.588,-6.893 L-7.647,-6.728 L-7.673,-6.646 L-7.697,-6.564 L-7.719,-6.482 L-7.739,-6.4 L-7.756,-6.32 L-7.771,-6.239 L-7.784,-6.16 L-7.795,-6.081 L-7.803,-6.003 L-7.809,-5.927 L-7.812,-5.851 L-7.814,-5.777 " />
			<path d="M-7.814,0.755 L-7.811,0.852 L-7.805,0.947 L-7.795,1.038 L-7.78,1.126 L-7.762,1.211 L-7.739,1.293 L-7.712,1.371 L-7.682,1.445 L-7.647,1.515 L-7.609,1.58 L-7.567,1.641 L-7.522,1.698 L-7.473,1.75 L-7.42,1.797 L-7.365,1.84 L-7.306,1.877 " />
			<path d="M-7.306,1.877 L-7.245,1.909 L-7.18,1.936 L-7.113,1.958 L-7.044,1.974 L-6.972,1.985 L-6.898,1.991 L-6.822,1.991 L-6.744,1.986 L-6.665,1.975 L-6.584,1.96 L-6.502,1.939 L-6.419,1.912 L-6.335,1.881 L-6.251,1.844 L-6.166,1.802 L-6.081,1.755 L-5.996,1.704 L-5.911,1.648 L-5.827,1.587 L-5.743,1.522 L-5.66,1.452 L-5.578,1.379 L-5.497,1.302 L-5.418,1.22 L-5.34,1.136 L-5.264,1.048 L-5.19,0.957 L-5.119,0.863 L-5.049,0.766 L-4.982,0.667 L-4.918,0.566 L-4.856,0.462 L-4.797,0.357 L-4.742,0.251 L-4.69,0.143 L-4.641,0.035 L-4.595,-0.074 L-4.553,-0.184 L-4.515,-0.294 L-4.481,-0.403 L-4.45,-0.513 L-4.423,-0.621 L-4.401,-0.729 L-4.382,-0.836 L-4.367,-0.941 L-4.357,-1.044 L-4.351,-1.146 L-4.349,-1.245 L-4.351,-1.342 L-4.357,-1.436 L-4.367,-1.528 L-4.382,-1.616 L-4.401,-1.701 L-4.423,-1.783 L-4.45,-1.861 L-4.481,-1.935 L-4.515,-2.004 L-4.553,-2.07 L-4.595,-2.131 L-4.641,-2.188 L-4.69,-2.24 L-4.742,-2.287 L-4.797,-2.329 L-4.856,-2.367 " />
			<path d="M-4.856,-2.367 L-4.902,-2.391 L-4.95,-2.413 L-4.999,-2.432 L-5.049,-2.448 L-5.101,-2.46 L-5.154,-2.47 L-5.209,-2.477 L-5.264,-2.481 L-5.321,-2.481 L-5.379,-2.479 L-5.438,-2.474 L-5.497,-2.465 L-5.558,-2.454 L-5.619,-2.44 L-5.681,-2.422 L-5.743,-2.402 L-5.806,-2.379 L-5.869,-2.353 L-5.932,-2.324 L-5.996,-2.292 L-6.06,-2.257 L-6.124,-2.22 L-6.187,-2.18 L-6.251,-2.138 L-6.314,-2.093 L-6.377,-2.045 L-6.44,-1.995 L-6.502,-1.942 L-6.564,-1.888 L-6.625,-1.831 L-6.685,-1.772 L-6.744,-1.71 L-6.86,-1.582 L-6.972,-1.447 L-7.079,-1.305 L-7.18,-1.157 L-7.276,-1.004 L-7.365,-0.847 L-7.447,-0.687 L-7.522,-0.525 L-7.588,-0.361 L-7.647,-0.196 L-7.673,-0.114 L-7.697,-0.032 L-7.719,0.05 L-7.739,0.132 L-7.756,0.212 L-7.771,0.293 L-7.784,0.372 L-7.795,0.451 L-7.803,0.529 L-7.809,0.605 L-7.812,0.681 L-7.814,0.755 " />
			<path d="M-4.033,-14.897 L-2.76,-14.163 " />
			<path d="M-6.433,-10.741 L-5.16,-10.006 " />
			<path d="M-9.689,-11.631 L-8.417,-10.897 " />
			<path d="M-12.089,-7.475 L-10.817,-6.74 " />
			<path d="M-4.033,-8.365 L-2.76,-7.631 " />
			<path d="M-6.433,-4.209 L-5.16,-3.474 " />
			<path d="M-4.033,-1.834 L-2.76,-1.099 " />
			<path d="M-6.433,2.323 L-5.16,3.058 " />
			<path d="M-9.689,-5.099 L-8.417,-4.365 " />
			<path d="M-12.089,-0.943 L-10.817,-0.208 " />
			<path d="M-9.689,1.432 L-8.417,2.167 " />
			<path d="M-12.089,5.589 L-10.817,6.324 " />
			<path d="M-4.454,-9.596 L-1.27,-7.758 " />
			<path d="M-7.709,-3.958 L-4.525,-2.12 " />
			<path d="M-4.454,-3.064 L-0.103,-0.552 " />
			<path d="M-7.709,2.574 L-4.525,4.412 " />
			<path d="M-4.856,-8.899 L1.225,-5.388 " />
			<path d="M-7.306,-4.655 L-1.225,-1.144 " />
			<path d="M-4.856,-2.367 L1.225,1.144 " />
			<path d="M-7.306,1.877 L-1.225,5.388 " />

       </g>

       <!-- solid lines -->
       <g  stroke="rgb(0,0,0)" fill="none">
			<path d="M5.586,-12.941 L-1.202,-16.861 " />
			<path d="M5.586,-12.941 L5.586,6.491 " />
			<path d="M5.586,-12.941 L-5.586,-6.491 " />
			<path d="M-5.586,-6.491 L-12.374,-10.41 " />
			<path d="M-1.202,-16.861 L-12.374,-10.41 " />
			<path d="M-12.374,-10.41 L-12.374,9.022 " />
			<path d="M5.586,6.491 L-5.586,12.941 " />
			<path d="M-5.586,12.941 L-12.374,9.022 " />
			<path d="M-5.586,-6.491 L-5.586,12.941 " />
			<path d="M4.525,-11.104 L4.525,5.879 " />
			<path d="M4.525,-11.104 L-4.525,-5.879 " />
			<path d="M-4.525,-5.879 L-4.525,11.104 " />
			<path d="M4.525,5.879 L-4.525,11.104 " />
			<path d="M-4.411,-15.008 L-4.458,-15.01 L-4.506,-15.009 L-4.555,-15.007 L-4.605,-15.002 L-4.655,-14.995 L-4.705,-14.986 L-4.808,-14.961 L-4.913,-14.928 L-5.019,-14.886 L-5.125,-14.837 L-5.233,-14.779 L-5.34,-14.713 L-5.446,-14.64 L-5.552,-14.559 L-5.657,-14.471 L-5.76,-14.377 L-5.861,-14.277 L-5.959,-14.171 L-6.054,-14.059 " />
			<path d="M-12.587,-8.573 L-12.583,-8.451 L-12.573,-8.334 L-12.556,-8.222 L-12.533,-8.114 L-12.503,-8.013 L-12.485,-7.965 L-12.466,-7.918 L-12.445,-7.872 L-12.423,-7.829 L-12.4,-7.787 L-12.374,-7.747 " />
			<path d="M-10.068,-11.742 L-10.115,-11.744 L-10.163,-11.743 L-10.212,-11.741 L-10.262,-11.736 L-10.312,-11.729 L-10.362,-11.72 L-10.465,-11.695 L-10.57,-11.662 L-10.676,-11.62 L-10.782,-11.571 L-10.889,-11.513 L-10.997,-11.447 L-11.103,-11.374 L-11.209,-11.293 L-11.314,-11.205 L-11.417,-11.111 L-11.517,-11.011 L-11.616,-10.905 L-11.711,-10.793 " />
			<path d="M-12.374,-9.644 L-12.423,-9.506 L-12.466,-9.368 L-12.503,-9.23 L-12.533,-9.094 L-12.556,-8.96 L-12.573,-8.828 L-12.583,-8.699 L-12.587,-8.573 " />
			<path d="M-12.587,-2.041 L-12.583,-1.919 L-12.573,-1.802 L-12.556,-1.69 L-12.533,-1.582 L-12.503,-1.481 L-12.485,-1.433 L-12.466,-1.386 L-12.445,-1.34 L-12.423,-1.297 L-12.4,-1.255 L-12.374,-1.215 " />
			<path d="M-12.374,-3.112 L-12.423,-2.974 L-12.466,-2.836 L-12.503,-2.698 L-12.533,-2.562 L-12.556,-2.428 L-12.573,-2.296 L-12.583,-2.167 L-12.587,-2.041 " />
			<path d="M-12.587,4.491 L-12.583,4.612 L-12.573,4.73 L-12.556,4.842 L-12.533,4.95 L-12.503,5.051 L-12.485,5.099 L-12.466,5.146 L-12.445,5.191 L-12.423,5.235 L-12.4,5.277 L-12.374,5.317 " />
			<path d="M-12.374,3.42 L-12.423,3.558 L-12.466,3.696 L-12.503,3.834 L-12.533,3.97 L-12.556,4.104 L-12.573,4.236 L-12.583,4.365 L-12.587,4.491 " />
			<path d="M4.525,5.879 L1.628,4.206 " />
			<path d="M-2.302,-1.937 L-2.299,-1.808 L-2.291,-1.683 L-2.277,-1.562 L-2.257,-1.444 L-2.233,-1.331 L-2.203,-1.223 L-2.167,-1.119 L-2.126,-1.021 L-2.081,-0.928 L-2.03,-0.841 L-1.974,-0.76 L-1.914,-0.685 L-1.849,-0.615 L-1.779,-0.553 L-1.705,-0.497 L-1.628,-0.447 " />
			<path d="M-1.627,-0.447 L-1.546,-0.404 L-1.46,-0.369 L-1.371,-0.34 L-1.279,-0.318 L-1.183,-0.303 L-1.085,-0.296 L-0.984,-0.295 L-0.881,-0.302 L-0.775,-0.316 L-0.668,-0.337 L-0.559,-0.365 L-0.449,-0.4 L-0.338,-0.442 L-0.226,-0.491 L-0.113,-0.546 L6.661e-16,-0.608 L0.113,-0.677 L0.226,-0.751 L0.338,-0.832 L0.449,-0.919 L0.559,-1.011 L0.668,-1.108 L0.775,-1.211 L0.881,-1.319 L0.984,-1.432 L1.085,-1.549 L1.183,-1.67 L1.279,-1.794 L1.371,-1.923 L1.46,-2.055 L1.546,-2.189 L1.628,-2.326 L1.705,-2.466 L1.779,-2.607 L1.849,-2.75 L1.914,-2.894 L1.974,-3.039 L2.03,-3.185 L2.081,-3.331 L2.126,-3.477 L2.167,-3.622 L2.203,-3.766 L2.233,-3.909 L2.257,-4.051 L2.277,-4.19 L2.291,-4.328 L2.299,-4.463 L2.302,-4.595 L2.299,-4.724 L2.291,-4.849 L2.277,-4.97 L2.257,-5.088 L2.233,-5.201 L2.203,-5.309 L2.167,-5.413 L2.126,-5.511 L2.081,-5.604 L2.03,-5.691 L1.974,-5.772 L1.914,-5.847 L1.849,-5.917 L1.779,-5.979 L1.705,-6.035 L1.628,-6.085 " />
			<path d="M1.627,-6.085 L1.566,-6.118 L1.503,-6.146 L1.438,-6.171 L1.371,-6.192 L1.302,-6.209 L1.231,-6.222 L1.159,-6.231 L1.085,-6.236 L1.01,-6.237 L0.933,-6.234 L0.855,-6.227 L0.775,-6.216 L0.695,-6.201 L0.614,-6.182 L0.532,-6.159 L0.449,-6.132 L0.366,-6.101 L0.282,-6.066 L0.197,-6.028 L0.113,-5.986 L0.028,-5.94 L-0.056,-5.89 L-0.141,-5.837 L-0.226,-5.781 L-0.31,-5.721 L-0.393,-5.657 L-0.477,-5.591 L-0.559,-5.521 L-0.641,-5.448 L-0.722,-5.373 L-0.802,-5.294 L-0.881,-5.213 L-0.958,-5.129 L-1.035,-5.042 L-1.11,-4.954 L-1.183,-4.862 L-1.255,-4.769 L-1.325,-4.674 L-1.394,-4.576 L-1.46,-4.477 L-1.525,-4.377 L-1.587,-4.275 L-1.647,-4.171 L-1.705,-4.066 L-1.761,-3.96 L-1.814,-3.853 L-1.865,-3.746 L-1.914,-3.638 L-1.96,-3.529 L-2.003,-3.42 L-2.043,-3.31 L-2.081,-3.201 L-2.115,-3.092 L-2.147,-2.983 L-2.176,-2.874 L-2.203,-2.766 L-2.226,-2.658 L-2.246,-2.552 L-2.263,-2.446 L-2.277,-2.341 L-2.288,-2.238 L-2.295,-2.136 L-2.3,-2.036 L-2.302,-1.937 " />
			<path d="M-2.302,4.595 L-2.299,4.724 L-2.291,4.849 L-2.277,4.97 L-2.257,5.088 L-2.233,5.201 L-2.203,5.309 L-2.167,5.413 L-2.126,5.511 L-2.081,5.604 L-2.03,5.691 L-1.974,5.772 L-1.914,5.847 L-1.849,5.917 L-1.779,5.979 L-1.705,6.035 L-1.628,6.085 " />
			<path d="M-1.627,6.085 L-1.546,6.128 L-1.46,6.163 L-1.371,6.192 L-1.279,6.214 L-1.183,6.229 L-1.085,6.236 L-0.984,6.237 L-0.881,6.23 L-0.775,6.216 L-0.668,6.195 L-0.559,6.167 L-0.449,6.132 L-0.338,6.09 L-0.226,6.041 L-0.113,5.986 L6.661e-16,5.924 L0.113,5.855 L0.226,5.781 L0.338,5.7 L0.449,5.613 L0.559,5.521 L0.668,5.423 L0.775,5.321 L0.881,5.213 L0.984,5.1 L1.085,4.983 L1.183,4.862 L1.279,4.738 L1.371,4.609 L1.46,4.477 L1.546,4.343 L1.628,4.206 L1.705,4.066 L1.779,3.925 L1.849,3.782 L1.914,3.638 L1.974,3.493 L2.03,3.347 L2.081,3.201 L2.126,3.055 L2.167,2.91 L2.203,2.766 L2.233,2.623 L2.257,2.481 L2.277,2.341 L2.291,2.204 L2.299,2.069 L2.302,1.937 L2.299,1.808 L2.291,1.683 L2.277,1.562 L2.257,1.444 L2.233,1.331 L2.203,1.223 L2.167,1.119 L2.126,1.021 L2.081,0.928 L2.03,0.841 L1.974,0.76 L1.914,0.685 L1.849,0.615 L1.779,0.553 L1.705,0.497 L1.628,0.447 " />
			<path d="M1.627,0.447 L1.566,0.414 L1.503,0.386 L1.438,0.361 L1.371,0.34 L1.302,0.323 L1.231,0.31 L1.159,0.301 L1.085,0.296 L1.01,0.295 L0.933,0.298 L0.855,0.305 L0.775,0.316 L0.695,0.331 L0.614,0.35 L0.532,0.373 L0.449,0.4 L0.366,0.431 L0.282,0.466 L0.197,0.504 L0.113,0.546 L0.028,0.592 L-0.056,0.642 L-0.141,0.695 L-0.226,0.751 L-0.31,0.811 L-0.393,0.875 L-0.477,0.941 L-0.559,1.011 L-0.641,1.084 L-0.722,1.159 L-0.802,1.238 L-0.881,1.319 L-0.958,1.403 L-1.035,1.49 L-1.11,1.578 L-1.183,1.67 L-1.255,1.763 L-1.325,1.858 L-1.394,1.956 L-1.46,2.055 L-1.525,2.155 L-1.587,2.257 L-1.647,2.361 L-1.705,2.466 L-1.761,2.572 L-1.814,2.678 L-1.865,2.786 L-1.914,2.894 L-1.96,3.003 L-2.003,3.112 L-2.043,3.222 L-2.081,3.331 L-2.115,3.44 L-2.147,3.549 L-2.176,3.658 L-2.203,3.766 L-2.226,3.874 L-2.246,3.98 L-2.263,4.086 L-2.277,4.19 L-2.288,4.294 L-2.295,4.396 L-2.3,4.496 L-2.302,4.595 " />
			<path d="M-1.732,-2.266 L-1.731,-2.34 L-1.728,-2.416 L-1.722,-2.492 L-1.714,-2.57 L-1.703,-2.649 L-1.69,-2.728 L-1.675,-2.809 L-1.658,-2.89 L-1.638,-2.971 L-1.616,-3.053 L-1.592,-3.135 L-1.566,-3.217 L-1.507,-3.382 L-1.44,-3.546 L-1.366,-3.708 L-1.284,-3.868 L-1.195,-4.025 L-1.099,-4.178 L-0.998,-4.326 L-0.891,-4.468 L-0.779,-4.603 L-0.663,-4.731 L-0.604,-4.793 L-0.543,-4.852 L-0.483,-4.909 L-0.421,-4.963 L-0.359,-5.016 L-0.296,-5.066 L-0.233,-5.114 L-0.17,-5.159 L-0.106,-5.201 L-0.043,-5.241 L0.021,-5.279 L0.085,-5.313 L0.149,-5.345 L0.212,-5.374 L0.275,-5.4 L0.338,-5.423 L0.4,-5.443 L0.462,-5.461 L0.523,-5.475 L0.584,-5.486 L0.643,-5.495 L0.702,-5.5 L0.76,-5.502 L0.817,-5.502 L0.872,-5.498 L0.927,-5.491 L0.98,-5.481 L1.032,-5.469 L1.083,-5.453 L1.132,-5.434 L1.179,-5.412 L1.225,-5.388 " />
			<path d="M1.225,-5.388 L1.284,-5.35 L1.339,-5.308 L1.391,-5.261 L1.44,-5.209 L1.486,-5.152 L1.528,-5.091 L1.566,-5.025 L1.601,-4.956 L1.631,-4.882 L1.658,-4.804 L1.68,-4.722 L1.699,-4.637 L1.714,-4.549 L1.724,-4.457 L1.73,-4.363 L1.732,-4.266 L1.73,-4.167 L1.724,-4.065 L1.714,-3.962 L1.699,-3.857 L1.68,-3.75 L1.658,-3.642 L1.631,-3.534 L1.601,-3.425 L1.566,-3.315 L1.528,-3.205 L1.486,-3.095 L1.44,-2.986 L1.391,-2.878 L1.339,-2.77 L1.284,-2.664 L1.225,-2.559 L1.163,-2.455 L1.099,-2.354 L1.032,-2.255 L0.962,-2.158 L0.891,-2.064 L0.817,-1.973 L0.741,-1.885 L0.663,-1.801 L0.584,-1.719 L0.503,-1.642 L0.421,-1.569 L0.338,-1.499 L0.254,-1.434 L0.17,-1.373 L0.085,-1.317 L5.551e-16,-1.266 L-0.085,-1.219 L-0.17,-1.177 L-0.254,-1.14 L-0.338,-1.109 L-0.421,-1.082 L-0.503,-1.061 L-0.584,-1.046 L-0.663,-1.035 L-0.741,-1.03 L-0.817,-1.03 L-0.891,-1.036 L-0.962,-1.047 L-1.032,-1.063 L-1.099,-1.085 L-1.163,-1.112 L-1.225,-1.144 " />
			<path d="M-1.225,-1.144 L-1.284,-1.181 L-1.339,-1.224 L-1.391,-1.271 L-1.44,-1.323 L-1.486,-1.38 L-1.528,-1.441 L-1.566,-1.507 L-1.601,-1.576 L-1.631,-1.65 L-1.658,-1.728 L-1.68,-1.81 L-1.699,-1.895 L-1.714,-1.983 L-1.724,-2.075 L-1.73,-2.169 L-1.732,-2.266 " />
			<path d="M-1.732,4.266 L-1.731,4.192 L-1.728,4.116 L-1.722,4.04 L-1.714,3.962 L-1.703,3.883 L-1.69,3.804 L-1.675,3.723 L-1.658,3.642 L-1.638,3.561 L-1.616,3.479 L-1.592,3.397 L-1.566,3.315 L-1.507,3.15 L-1.44,2.986 L-1.366,2.824 L-1.284,2.664 L-1.195,2.507 L-1.099,2.354 L-0.998,2.206 L-0.891,2.064 L-0.779,1.929 L-0.663,1.801 L-0.604,1.739 L-0.543,1.68 L-0.483,1.623 L-0.421,1.569 L-0.359,1.516 L-0.296,1.466 L-0.233,1.418 L-0.17,1.373 L-0.106,1.331 L-0.043,1.291 L0.021,1.253 L0.085,1.219 L0.149,1.187 L0.212,1.158 L0.275,1.132 L0.338,1.109 L0.4,1.089 L0.462,1.071 L0.523,1.057 L0.584,1.046 L0.643,1.037 L0.702,1.032 L0.76,1.03 L0.817,1.03 L0.872,1.034 L0.927,1.041 L0.98,1.051 L1.032,1.063 L1.083,1.079 L1.132,1.098 L1.179,1.12 L1.225,1.144 " />
			<path d="M1.225,1.144 L1.284,1.181 L1.339,1.224 L1.391,1.271 L1.44,1.323 L1.486,1.38 L1.528,1.441 L1.566,1.507 L1.601,1.576 L1.631,1.65 L1.658,1.728 L1.68,1.81 L1.699,1.895 L1.714,1.983 L1.724,2.075 L1.73,2.169 L1.732,2.266 L1.73,2.365 L1.724,2.467 L1.714,2.57 L1.699,2.675 L1.68,2.782 L1.658,2.89 L1.631,2.998 L1.601,3.107 L1.566,3.217 L1.528,3.327 L1.486,3.436 L1.44,3.546 L1.391,3.654 L1.339,3.762 L1.284,3.868 L1.225,3.973 L1.163,4.076 L1.099,4.178 L1.032,4.277 L0.962,4.374 L0.891,4.468 L0.817,4.559 L0.741,4.647 L0.663,4.731 L0.584,4.813 L0.503,4.89 L0.421,4.963 L0.338,5.033 L0.254,5.098 L0.17,5.159 L0.085,5.215 L5.551e-16,5.266 L-0.085,5.313 L-0.17,5.355 L-0.254,5.392 L-0.338,5.423 L-0.421,5.449 L-0.503,5.471 L-0.584,5.486 L-0.663,5.497 L-0.741,5.502 L-0.817,5.502 L-0.891,5.496 L-0.962,5.485 L-1.032,5.469 L-1.099,5.447 L-1.163,5.42 L-1.225,5.388 " />
			<path d="M-1.225,5.388 L-1.284,5.35 L-1.339,5.308 L-1.391,5.261 L-1.44,5.209 L-1.486,5.152 L-1.528,5.091 L-1.566,5.025 L-1.601,4.956 L-1.631,4.882 L-1.658,4.804 L-1.68,4.722 L-1.699,4.637 L-1.714,4.549 L-1.724,4.457 L-1.73,4.363 L-1.732,4.266 " />
			<path d="M-1.27,-7.758 L1.628,-6.085 " />
			<path d="M-4.525,-2.12 L-1.628,-0.447 " />
			<path d="M-0.103,-0.552 L1.628,0.447 " />
			<path d="M-4.525,4.412 L-1.628,6.085 " />

       </g>
    </g>
    
</svg>
