<?xml version="1.0" encoding="UTF-8" standalone="no"?>
<svg viewBox="128.5 10.0 140.0 320.0"
   xmlns:svg="http://www.w3.org/2000/svg"
   xmlns="http://www.w3.org/2000/svg"
   width="140"
   height="320"

>
    <g transform="scale(7.4999999625, -7.4999999625)   translate(34.4666669,-42.66666678)" stroke-width="0.25"  fill="none">
       <!-- hidden lines -->
       <g  stroke="rgb(160,160,160)" fill="none" stroke-dasharray="0.25,0.25" >
			<path d="M-7.299,36.1 L-7.299,35.935 L-7.292,35.77 L-7.277,35.606 L-7.254,35.443 L-7.223,35.281 L-7.184,35.121 L-7.138,34.963 L-7.084,34.807 L-7.022,34.654 L-6.953,34.504 L-6.877,34.358 L-6.794,34.216 L-6.704,34.077 L-6.608,33.944 L-6.505,33.815 L-6.396,33.691 L-6.281,33.573 L-6.161,33.46 L-6.035,33.354 L-5.904,33.253 L-5.769,33.16 L-5.629,33.072 L-5.485,32.992 L-5.337,32.919 L-5.186,32.853 L-5.032,32.794 L-4.875,32.743 L-4.716,32.699 L-4.555,32.664 L-4.393,32.636 L-4.229,32.616 L-4.065,32.604 L-3.9,32.6 L-3.735,32.604 L-3.571,32.616 L-3.407,32.636 L-3.245,32.664 L-3.084,32.699 L-2.925,32.743 L-2.768,32.794 L-2.614,32.853 L-2.463,32.919 L-2.315,32.992 L-2.171,33.072 L-2.031,33.16 L-1.896,33.253 L-1.765,33.354 L-1.639,33.46 L-1.519,33.573 L-1.404,33.691 L-1.295,33.815 L-1.192,33.944 L-1.096,34.077 L-1.006,34.216 L-0.923,34.358 L-0.847,34.504 L-0.778,34.654 L-0.716,34.807 L-0.662,34.963 L-0.616,35.121 L-0.577,35.281 L-0.546,35.443 L-0.523,35.606 L-0.508,35.77 L-0.501,35.935 L-0.501,36.1 " />
			<path d="M0,3.9 L0,36.1 " />
			<path d="M-7.8,3.9 L-7.8,36.1 " />
			<path d="M-0.501,3.9 L-0.501,4.065 L-0.508,4.23 L-0.523,4.394 L-0.546,4.557 L-0.577,4.719 L-0.616,4.879 L-0.662,5.037 L-0.716,5.193 L-0.778,5.346 L-0.847,5.496 L-0.923,5.642 L-1.006,5.784 L-1.096,5.923 L-1.192,6.056 L-1.295,6.185 L-1.404,6.309 L-1.519,6.427 L-1.639,6.54 L-1.765,6.646 L-1.896,6.747 L-2.031,6.84 L-2.171,6.928 L-2.315,7.008 L-2.463,7.081 L-2.614,7.147 L-2.768,7.206 L-2.925,7.257 L-3.084,7.301 L-3.245,7.336 L-3.407,7.364 L-3.571,7.384 L-3.735,7.396 L-3.9,7.4 L-4.065,7.396 L-4.229,7.384 L-4.393,7.364 L-4.555,7.336 L-4.716,7.301 L-4.875,7.257 L-5.032,7.206 L-5.186,7.147 L-5.337,7.081 L-5.485,7.008 L-5.629,6.928 L-5.769,6.84 L-5.904,6.747 L-6.035,6.646 L-6.161,6.54 L-6.281,6.427 L-6.396,6.309 L-6.505,6.185 L-6.608,6.056 L-6.704,5.923 L-6.794,5.784 L-6.877,5.642 L-6.953,5.496 L-7.022,5.346 L-7.084,5.193 L-7.138,5.037 L-7.184,4.879 L-7.223,4.719 L-7.254,4.557 L-7.277,4.394 L-7.292,4.23 L-7.299,4.065 L-7.299,3.9 " />
			<path d="M-3.9,23.4 L-4.064,23.396 L-4.228,23.384 L-4.391,23.364 L-4.553,23.337 L-4.714,23.301 L-4.872,23.258 L-5.028,23.207 L-5.182,23.149 L-5.333,23.083 L-5.48,23.011 L-5.624,22.931 L-5.763,22.844 L-5.898,22.751 L-6.029,22.651 L-6.155,22.545 L-6.275,22.433 L-6.39,22.315 L-6.499,22.192 L-6.602,22.064 L-6.698,21.931 L-6.788,21.794 L-6.871,21.652 L-6.948,21.507 L-7.017,21.358 L-7.079,21.206 L-7.134,21.051 L-7.181,20.893 L-7.22,20.734 L-7.251,20.572 L-7.275,20.41 L-7.291,20.246 L-7.299,20.082 L-7.299,19.918 L-7.291,19.754 L-7.275,19.59 L-7.251,19.428 L-7.22,19.266 L-7.181,19.107 L-7.134,18.949 L-7.079,18.794 L-7.017,18.642 L-6.948,18.493 L-6.871,18.348 L-6.788,18.206 L-6.698,18.069 L-6.602,17.936 L-6.499,17.808 L-6.39,17.685 L-6.275,17.567 L-6.155,17.455 L-6.029,17.349 L-5.898,17.249 L-5.763,17.156 L-5.624,17.069 L-5.48,16.989 L-5.333,16.917 L-5.182,16.851 L-5.028,16.793 L-4.872,16.742 L-4.714,16.699 L-4.553,16.663 L-4.391,16.636 L-4.228,16.616 L-4.064,16.604 L-3.9,16.6 L-3.736,16.604 L-3.572,16.616 L-3.409,16.636 L-3.247,16.663 L-3.086,16.699 L-2.928,16.742 L-2.772,16.793 L-2.618,16.851 L-2.467,16.917 L-2.32,16.989 L-2.176,17.069 L-2.037,17.156 L-1.902,17.249 L-1.771,17.349 L-1.645,17.455 L-1.525,17.567 L-1.41,17.685 L-1.301,17.808 L-1.198,17.936 L-1.102,18.069 L-1.012,18.206 L-0.929,18.348 L-0.852,18.493 L-0.783,18.642 L-0.721,18.794 L-0.666,18.949 L-0.619,19.107 L-0.58,19.266 L-0.549,19.428 L-0.525,19.59 L-0.509,19.754 L-0.501,19.918 L-0.501,20.082 L-0.509,20.246 L-0.525,20.41 L-0.549,20.572 L-0.58,20.734 L-0.619,20.893 L-0.666,21.051 L-0.721,21.206 L-0.783,21.358 L-0.852,21.507 L-0.929,21.652 L-1.012,21.794 L-1.102,21.931 L-1.198,22.064 L-1.301,22.192 L-1.41,22.315 L-1.525,22.433 L-1.645,22.545 L-1.771,22.651 L-1.902,22.751 L-2.037,22.844 L-2.176,22.931 L-2.32,23.011 L-2.467,23.083 L-2.618,23.149 L-2.772,23.207 L-2.928,23.258 L-3.086,23.301 L-3.247,23.337 L-3.409,23.364 L-3.572,23.384 L-3.736,23.396 L-3.9,23.4 " />
			<path d="M-0.501,36.1 L-0.507,36.216 L-0.516,36.331 L-0.529,36.444 L-0.546,36.556 L-0.566,36.667 L-0.59,36.775 L-0.617,36.882 L-0.647,36.985 L-0.679,37.087 L-0.715,37.185 L-0.752,37.281 L-0.792,37.373 L-0.834,37.463 L-0.878,37.55 L-0.924,37.634 L-0.972,37.715 L-1.021,37.794 L-1.071,37.87 L-1.123,37.944 L-1.176,38.015 L-1.231,38.083 L-1.287,38.15 L-1.344,38.214 L-1.402,38.276 L-1.461,38.335 L-1.521,38.393 L-1.582,38.448 L-1.644,38.502 L-1.707,38.553 L-1.771,38.603 L-1.836,38.651 L-1.902,38.697 " />
			<path d="M0,40 L0,39.975 L0,39.902 L0,39.781 L0,39.614 L0,39.402 L0,39.149 L0,38.858 L0,38.532 L0,38.175 L0,37.792 L0,37.388 L0,36.968 L0,36.537 L0,36.1 " />
			<path d="M-2.371,38.697 L-1.902,38.697 " />
			<path d="M-5.429,38.697 L-2.371,38.697 " />
			<path d="M-5.429,38.697 L-5.898,38.697 " />
			<path d="M-5.898,38.697 L-5.964,38.651 L-6.029,38.603 L-6.093,38.553 L-6.156,38.502 L-6.218,38.448 L-6.279,38.393 L-6.339,38.335 L-6.398,38.275 L-6.456,38.214 L-6.513,38.15 L-6.569,38.083 L-6.624,38.015 L-6.677,37.944 L-6.729,37.87 L-6.779,37.794 L-6.828,37.715 L-6.876,37.634 L-6.922,37.55 L-6.966,37.463 L-7.008,37.373 L-7.048,37.281 L-7.085,37.185 L-7.121,37.087 L-7.153,36.985 L-7.183,36.881 L-7.21,36.775 L-7.234,36.667 L-7.254,36.556 L-7.271,36.444 L-7.284,36.331 L-7.293,36.216 L-7.299,36.1 " />
			<path d="M-7.8,40 L-7.8,39.975 L-7.8,39.902 L-7.8,39.781 L-7.8,39.614 L-7.8,39.402 L-7.8,39.149 L-7.8,38.858 L-7.8,38.532 L-7.8,38.175 L-7.8,37.792 L-7.8,37.388 L-7.8,36.968 L-7.8,36.537 L-7.8,36.1 " />
			<path d="M-6.999,36.091 L-6.999,35.934 L-6.992,35.776 L-6.977,35.62 L-6.953,35.464 L-6.922,35.31 L-6.883,35.157 L-6.837,35.007 L-6.782,34.859 L-6.721,34.714 L-6.652,34.572 L-6.576,34.434 L-6.493,34.301 L-6.403,34.171 L-6.307,34.046 L-6.205,33.927 L-6.096,33.812 L-5.983,33.704 L-5.863,33.601 L-5.739,33.504 L-5.61,33.414 L-5.476,33.331 L-5.339,33.254 L-5.197,33.185 L-5.053,33.122 L-4.905,33.067 L-4.755,33.02 L-4.603,32.981 L-4.448,32.949 L-4.293,32.925 L-4.136,32.909 L-3.979,32.901 L-3.821,32.901 L-3.664,32.909 L-3.507,32.925 L-3.352,32.949 L-3.197,32.981 L-3.045,33.02 L-2.895,33.067 L-2.747,33.122 L-2.603,33.185 L-2.461,33.254 L-2.324,33.331 L-2.19,33.414 L-2.061,33.504 L-1.937,33.601 L-1.817,33.704 L-1.704,33.812 L-1.595,33.927 L-1.493,34.046 L-1.397,34.171 L-1.307,34.301 L-1.224,34.434 L-1.148,34.572 L-1.079,34.714 L-1.018,34.859 L-0.963,35.007 L-0.917,35.157 L-0.878,35.31 L-0.847,35.464 L-0.823,35.62 L-0.808,35.776 L-0.801,35.934 L-0.801,36.091 " />
			<path d="M0,15.4 L0,15.315 L0,15.063 L0,14.658 L0,14.12 L0,13.475 L0,12.757 L0,12 L0,11.243 L0,10.525 L0,9.88 L0,9.342 L0,8.937 L0,8.685 L0,8.6 " />
			<path d="M0,8.6 L0,8.685 L0,8.937 L0,9.342 L0,9.88 L0,10.525 L0,11.243 L0,12 L0,12.757 L0,13.475 L0,14.12 L0,14.658 L0,15.063 L0,15.315 L0,15.4 " />
			<path d="M0,3.9 L0,3.463 L0,3.032 L0,2.612 L0,2.208 L0,1.825 L0,1.468 L0,1.142 L0,0.851 L0,0.598 L0,0.386 L0,0.219 L0,0.098 L0,0.025 L0,9.749e-16 " />
			<path d="M0,31.4 L0,31.315 L0,31.063 L0,30.658 L0,30.12 L0,29.475 L0,28.757 L0,28 L0,27.243 L0,26.525 L0,25.88 L0,25.342 L0,24.937 L0,24.685 L0,24.6 " />
			<path d="M0,24.6 L0,24.685 L0,24.937 L0,25.342 L0,25.88 L0,26.525 L0,27.243 L0,28 L0,28.757 L0,29.475 L0,30.12 L0,30.658 L0,31.063 L0,31.315 L0,31.4 " />
			<path d="M-1.902,1.303 L-1.836,1.349 L-1.771,1.397 L-1.707,1.447 L-1.644,1.498 L-1.582,1.552 L-1.521,1.607 L-1.461,1.665 L-1.402,1.725 L-1.344,1.786 L-1.287,1.85 L-1.231,1.917 L-1.176,1.985 L-1.123,2.056 L-1.071,2.13 L-1.021,2.206 L-0.972,2.285 L-0.924,2.366 L-0.878,2.45 L-0.834,2.537 L-0.792,2.627 L-0.752,2.719 L-0.715,2.815 L-0.679,2.913 L-0.647,3.015 L-0.617,3.119 L-0.59,3.225 L-0.566,3.333 L-0.546,3.444 L-0.529,3.556 L-0.516,3.669 L-0.507,3.784 L-0.501,3.9 " />
			<path d="M-2.371,1.303 L-1.902,1.303 " />
			<path d="M-5.429,1.303 L-2.371,1.303 " />
			<path d="M-5.429,1.303 L-5.898,1.303 " />
			<path d="M-7.8,3.9 L-7.8,3.463 L-7.8,3.032 L-7.8,2.612 L-7.8,2.208 L-7.8,1.825 L-7.8,1.468 L-7.8,1.142 L-7.8,0.851 L-7.8,0.598 L-7.8,0.386 L-7.8,0.219 L-7.8,0.098 L-7.8,0.025 L-7.8,9.749e-16 " />
			<path d="M-7.299,3.9 L-7.295,3.815 L-7.289,3.73 L-7.281,3.646 L-7.272,3.562 L-7.26,3.479 L-7.246,3.397 L-7.23,3.317 L-7.213,3.237 L-7.173,3.081 L-7.126,2.93 L-7.074,2.785 L-7.017,2.647 " />
			<path d="M-7.016,2.645 L-6.975,2.557 L-6.933,2.471 L-6.888,2.388 L-6.843,2.308 L-6.795,2.231 L-6.746,2.155 L-6.696,2.083 L-6.644,2.012 L-6.591,1.944 L-6.537,1.878 L-6.482,1.815 L-6.426,1.753 L-6.369,1.694 L-6.31,1.637 L-6.251,1.581 L-6.191,1.528 " />
			<path d="M-7.8,15.4 L-7.8,15.315 L-7.8,15.063 L-7.8,14.658 L-7.8,14.12 L-7.8,13.475 L-7.8,12.757 L-7.8,12 L-7.8,11.243 L-7.8,10.525 L-7.8,9.88 L-7.8,9.342 L-7.8,8.937 L-7.8,8.685 L-7.8,8.6 " />
			<path d="M-7.8,8.6 L-7.8,8.685 L-7.8,8.937 L-7.8,9.342 L-7.8,9.88 L-7.8,10.525 L-7.8,11.243 L-7.8,12 L-7.8,12.757 L-7.8,13.475 L-7.8,14.12 L-7.8,14.658 L-7.8,15.063 L-7.8,15.315 L-7.8,15.4 " />
			<path d="M-7.8,31.4 L-7.8,31.315 L-7.8,31.063 L-7.8,30.658 L-7.8,30.12 L-7.8,29.475 L-7.8,28.757 L-7.8,28 L-7.8,27.243 L-7.8,26.525 L-7.8,25.88 L-7.8,25.342 L-7.8,24.937 L-7.8,24.685 L-7.8,24.6 " />
			<path d="M-7.8,24.6 L-7.8,24.685 L-7.8,24.937 L-7.8,25.342 L-7.8,25.88 L-7.8,26.525 L-7.8,27.243 L-7.8,28 L-7.8,28.757 L-7.8,29.475 L-7.8,30.12 L-7.8,30.658 L-7.8,31.063 L-7.8,31.315 L-7.8,31.4 " />
			<path d="M-0.801,3.909 L-0.801,4.066 L-0.808,4.224 L-0.823,4.38 L-0.847,4.536 L-0.878,4.69 L-0.917,4.843 L-0.963,4.993 L-1.018,5.141 L-1.079,5.286 L-1.148,5.428 L-1.224,5.566 L-1.307,5.699 L-1.397,5.829 L-1.493,5.954 L-1.595,6.073 L-1.704,6.188 L-1.817,6.296 L-1.937,6.399 L-2.061,6.496 L-2.19,6.586 L-2.324,6.669 L-2.461,6.746 L-2.603,6.815 L-2.747,6.878 L-2.895,6.933 L-3.045,6.98 L-3.197,7.019 L-3.352,7.051 L-3.507,7.075 L-3.664,7.091 L-3.821,7.099 L-3.979,7.099 L-4.136,7.091 L-4.293,7.075 L-4.448,7.051 L-4.603,7.019 L-4.755,6.98 L-4.905,6.933 L-5.053,6.878 L-5.197,6.815 L-5.339,6.746 L-5.476,6.669 L-5.61,6.586 L-5.739,6.496 L-5.863,6.399 L-5.983,6.296 L-6.096,6.188 L-6.205,6.073 L-6.307,5.954 L-6.403,5.829 L-6.493,5.699 L-6.576,5.566 L-6.652,5.428 L-6.721,5.286 L-6.782,5.141 L-6.837,4.993 L-6.883,4.843 L-6.922,4.69 L-6.953,4.536 L-6.977,4.38 L-6.992,4.224 L-6.999,4.066 L-6.999,3.909 " />
			<path d="M-3.9,23.1 L-4.057,23.096 L-4.214,23.084 L-4.369,23.064 L-4.524,23.037 L-4.677,23.001 L-4.828,22.958 L-4.977,22.907 L-5.123,22.849 L-5.265,22.783 L-5.404,22.71 L-5.54,22.631 L-5.671,22.544 L-5.798,22.451 L-5.919,22.352 L-6.036,22.247 L-6.147,22.136 L-6.252,22.019 L-6.351,21.898 L-6.444,21.771 L-6.531,21.64 L-6.61,21.504 L-6.683,21.365 L-6.749,21.223 L-6.807,21.077 L-6.858,20.928 L-6.901,20.777 L-6.937,20.624 L-6.964,20.469 L-6.984,20.314 L-6.996,20.157 L-7,20 L-6.996,19.843 L-6.984,19.686 L-6.964,19.531 L-6.937,19.376 L-6.901,19.223 L-6.858,19.072 L-6.807,18.923 L-6.749,18.777 L-6.683,18.635 L-6.61,18.496 L-6.531,18.36 L-6.444,18.229 L-6.351,18.102 L-6.252,17.981 L-6.147,17.864 L-6.036,17.753 L-5.919,17.648 L-5.798,17.549 L-5.671,17.456 L-5.54,17.369 L-5.404,17.29 L-5.265,17.217 L-5.123,17.151 L-4.977,17.093 L-4.828,17.042 L-4.677,16.999 L-4.524,16.963 L-4.369,16.936 L-4.214,16.916 L-4.057,16.904 L-3.9,16.9 L-3.743,16.904 L-3.586,16.916 L-3.431,16.936 L-3.276,16.963 L-3.123,16.999 L-2.972,17.042 L-2.823,17.093 L-2.677,17.151 L-2.535,17.217 L-2.396,17.29 L-2.26,17.369 L-2.129,17.456 L-2.002,17.549 L-1.881,17.648 L-1.764,17.753 L-1.653,17.864 L-1.548,17.981 L-1.449,18.102 L-1.356,18.229 L-1.269,18.36 L-1.19,18.496 L-1.117,18.635 L-1.051,18.777 L-0.993,18.923 L-0.942,19.072 L-0.899,19.223 L-0.863,19.376 L-0.836,19.531 L-0.816,19.686 L-0.804,19.843 L-0.8,20 L-0.804,20.157 L-0.816,20.314 L-0.836,20.469 L-0.863,20.624 L-0.899,20.777 L-0.942,20.928 L-0.993,21.077 L-1.051,21.223 L-1.117,21.365 L-1.19,21.504 L-1.269,21.64 L-1.356,21.771 L-1.449,21.898 L-1.548,22.019 L-1.653,22.136 L-1.764,22.247 L-1.881,22.352 L-2.002,22.451 L-2.129,22.544 L-2.26,22.631 L-2.396,22.71 L-2.535,22.783 L-2.677,22.849 L-2.823,22.907 L-2.972,22.958 L-3.123,23.001 L-3.276,23.037 L-3.431,23.064 L-3.586,23.084 L-3.743,23.096 L-3.9,23.1 " />
			<path d="M-0.801,36.091 L-0.805,36.178 L-0.811,36.264 L-0.82,36.35 L-0.831,36.434 L-0.844,36.518 L-0.859,36.601 L-0.876,36.683 L-0.895,36.763 L-0.917,36.843 L-0.94,36.921 L-0.965,36.998 L-0.992,37.073 L-1.05,37.219 L-1.114,37.359 L-1.183,37.492 L-1.257,37.62 L-1.336,37.742 L-1.419,37.858 L-1.506,37.969 L-1.597,38.075 L-1.691,38.175 L-1.79,38.271 " />
			<path d="M-1.902,38.697 L-1.846,38.493 L-1.79,38.271 " />
			<path d="M-1.79,38.271 L-1.678,38.162 L-1.572,38.047 L-1.472,37.927 L-1.378,37.802 L-1.29,37.673 L-1.209,37.54 L-1.135,37.402 L-1.068,37.261 L-1.008,37.117 L-0.956,36.97 L-0.911,36.82 L-0.873,36.669 L-0.843,36.516 L-0.821,36.361 L-0.807,36.206 L-0.8,36.05 L-0.802,35.893 L-0.811,35.738 L-0.828,35.582 L-0.853,35.428 L-0.886,35.276 L-0.926,35.125 L-0.974,34.976 L-1.029,34.83 L-1.092,34.687 L-1.161,34.547 L-1.238,34.411 L-1.322,34.279 L-1.411,34.151 L-1.508,34.029 L-1.61,33.911 L-1.718,33.798 L-1.832,33.691 L-1.951,33.59 L-2.074,33.495 L-2.203,33.406 L-2.336,33.324 L-2.472,33.248 L-2.613,33.18 L-2.756,33.119 L-2.903,33.065 L-3.052,33.018 L-3.203,32.979 L-3.356,32.948 L-3.511,32.925 L-3.666,32.909 L-3.822,32.901 L-3.978,32.901 L-4.134,32.909 L-4.289,32.925 L-4.444,32.948 L-4.597,32.979 L-4.748,33.018 L-4.897,33.065 L-5.044,33.119 L-5.187,33.18 L-5.328,33.248 L-5.464,33.324 L-5.597,33.406 L-5.726,33.495 L-5.849,33.59 L-5.968,33.691 L-6.082,33.798 L-6.19,33.911 L-6.292,34.029 L-6.389,34.151 L-6.478,34.279 L-6.562,34.411 L-6.639,34.547 L-6.708,34.687 L-6.771,34.83 L-6.826,34.976 L-6.874,35.125 L-6.914,35.276 L-6.947,35.428 L-6.972,35.582 L-6.989,35.738 L-6.998,35.893 L-7,36.05 L-6.993,36.206 L-6.979,36.361 L-6.957,36.516 L-6.927,36.669 L-6.889,36.82 L-6.844,36.97 L-6.792,37.117 L-6.732,37.261 L-6.665,37.402 L-6.591,37.54 L-6.51,37.673 L-6.422,37.802 L-6.328,37.927 L-6.228,38.047 L-6.122,38.162 L-6.01,38.271 " />
			<path d="M-5.898,38.697 L-5.954,38.493 L-6.01,38.271 " />
			<path d="M-3.9,38.45 L-4.04,38.446 L-4.179,38.434 L-4.318,38.414 L-4.455,38.386 L-4.59,38.351 L-4.723,38.308 L-4.854,38.257 L-4.981,38.199 L-5.105,38.133 L-5.225,38.061 L-5.34,37.982 L-5.451,37.897 L-5.557,37.805 L-5.657,37.707 L-5.752,37.604 L-5.84,37.496 L-5.922,37.383 L-5.998,37.265 L-6.067,37.143 L-6.129,37.018 L-6.183,36.889 L-6.23,36.757 L-6.27,36.623 L-6.301,36.487 L-6.325,36.349 L-6.341,36.21 L-6.349,36.07 L-6.349,35.93 L-6.341,35.79 L-6.325,35.651 L-6.301,35.513 L-6.27,35.377 L-6.23,35.243 L-6.183,35.111 L-6.129,34.982 L-6.067,34.857 L-5.998,34.735 L-5.922,34.617 L-5.84,34.504 L-5.752,34.396 L-5.657,34.293 L-5.557,34.195 L-5.451,34.103 L-5.34,34.018 L-5.225,33.939 L-5.105,33.867 L-4.981,33.801 L-4.854,33.743 L-4.723,33.692 L-4.59,33.649 L-4.455,33.614 L-4.318,33.586 L-4.179,33.566 L-4.04,33.554 L-3.9,33.55 L-3.76,33.554 L-3.621,33.566 L-3.482,33.586 L-3.345,33.614 L-3.21,33.649 L-3.077,33.692 L-2.946,33.743 L-2.819,33.801 L-2.695,33.867 L-2.575,33.939 L-2.46,34.018 L-2.349,34.103 L-2.243,34.195 L-2.143,34.293 L-2.048,34.396 L-1.96,34.504 L-1.878,34.617 L-1.802,34.735 L-1.733,34.857 L-1.671,34.982 L-1.617,35.111 L-1.57,35.243 L-1.53,35.377 L-1.499,35.513 L-1.475,35.651 L-1.459,35.79 L-1.451,35.93 L-1.451,36.07 L-1.459,36.21 L-1.475,36.349 L-1.499,36.487 L-1.53,36.623 L-1.57,36.757 L-1.617,36.889 L-1.671,37.018 L-1.733,37.143 L-1.802,37.265 L-1.878,37.383 L-1.96,37.496 L-2.048,37.604 L-2.143,37.707 L-2.243,37.805 L-2.349,37.897 L-2.46,37.982 L-2.575,38.061 L-2.695,38.133 L-2.819,38.199 L-2.946,38.257 L-3.077,38.308 L-3.21,38.351 L-3.345,38.386 L-3.482,38.414 L-3.621,38.434 L-3.76,38.446 L-3.9,38.45 " />
			<path d="M-1.79,38.271 L-1.708,38.192 " />
			<path d="M-1.448,37.897 L-1.369,37.789 L-1.294,37.679 L-1.224,37.565 " />
			<path d="M-0.917,36.845 L-0.889,36.737 L-0.864,36.627 L-0.843,36.517 " />
			<path d="M-0.801,36.091 L-0.801,35.934 L-0.808,35.778 L-0.823,35.622 L-0.846,35.467 L-0.877,35.313 L-0.916,35.161 L-0.962,35.011 L-1.016,34.864 L-1.077,34.719 L-1.145,34.578 L-1.221,34.441 L-1.303,34.307 L-1.392,34.178 L-1.487,34.054 L-1.589,33.934 L-1.696,33.82 L-1.809,33.711 L-1.927,33.609 L-2.051,33.512 L-2.179,33.422 L-2.312,33.338 L-2.448,33.261 L-2.589,33.191 L-2.732,33.128 L-2.879,33.073 L-3.028,33.025 L-3.18,32.985 L-3.333,32.952 L-3.488,32.927 L-3.644,32.911 L-3.8,32.902 L-3.957,32.901 L-4.114,32.907 L-4.27,32.922 L-4.425,32.945 L-4.579,32.975 L-4.731,33.013 L-4.881,33.059 L-5.028,33.113 L-5.173,33.173 L-5.314,33.241 L-5.452,33.316 L-5.586,33.398 L-5.715,33.487 L-5.84,33.582 L-5.96,33.683 L-6.074,33.79 L-6.183,33.903 L-6.286,34.021 L-6.383,34.144 L-6.474,34.272 L-6.558,34.404 L-6.635,34.541 L-6.705,34.681 L-6.769,34.825 L-6.824,34.971 L-6.873,35.12 L-6.913,35.272 L-6.946,35.425 L-6.971,35.58 L-6.989,35.736 L-6.998,35.892 L-7,36.049 L-6.993,36.206 L-6.979,36.362 " />
			<path d="M-6.574,37.569 L-6.503,37.683 L-6.428,37.794 L-6.348,37.902 " />
			<path d="M-6.088,38.196 L-6.01,38.271 " />
			<path d="M-6.01,38.271 L-6.109,38.175 L-6.203,38.075 L-6.294,37.969 L-6.381,37.858 L-6.464,37.742 L-6.543,37.62 L-6.617,37.492 L-6.686,37.359 L-6.75,37.219 L-6.808,37.073 L-6.835,36.998 L-6.86,36.921 L-6.883,36.843 L-6.905,36.763 L-6.924,36.683 L-6.941,36.601 L-6.956,36.518 L-6.969,36.434 L-6.98,36.35 L-6.989,36.264 L-6.995,36.178 L-6.999,36.091 " />
			<path d="M-3.331e-16,15.4 L-0.3,15.1 " />
			<path d="M-0.3,15.1 L-0.3,15.022 L-0.3,14.793 L-0.3,14.424 L-0.3,13.933 L-0.3,13.345 L-0.3,12.69 L-0.3,12 L-0.3,11.31 L-0.3,10.655 L-0.3,10.067 L-0.3,9.576 L-0.3,9.207 L-0.3,8.978 L-0.3,8.9 " />
			<path d="M-0.3,8.9 L-0.3,8.978 L-0.3,9.207 L-0.3,9.576 L-0.3,10.067 L-0.3,10.655 L-0.3,11.31 L-0.3,12 L-0.3,12.69 L-0.3,13.345 L-0.3,13.933 L-0.3,14.424 L-0.3,14.793 L-0.3,15.022 L-0.3,15.1 " />
			<path d="M-3.331e-16,31.4 L-0.3,31.1 " />
			<path d="M-0.3,31.1 L-0.3,31.022 L-0.3,30.793 L-0.3,30.424 L-0.3,29.933 L-0.3,29.345 L-0.3,28.69 L-0.3,28 L-0.3,27.31 L-0.3,26.655 L-0.3,26.067 L-0.3,25.576 L-0.3,25.207 L-0.3,24.978 L-0.3,24.9 " />
			<path d="M-0.3,24.9 L-0.3,24.978 L-0.3,25.207 L-0.3,25.576 L-0.3,26.067 L-0.3,26.655 L-0.3,27.31 L-0.3,28 L-0.3,28.69 L-0.3,29.345 L-0.3,29.933 L-0.3,30.424 L-0.3,30.793 L-0.3,31.022 L-0.3,31.1 " />
			<path d="M-6.01,1.729 L-6.088,1.804 " />
			<path d="M-6.348,2.098 L-6.427,2.205 L-6.502,2.315 L-6.573,2.429 " />
			<path d="M-6.979,3.638 L-6.993,3.794 L-7,3.951 L-6.998,4.108 L-6.989,4.264 L-6.971,4.42 L-6.946,4.575 L-6.913,4.728 L-6.873,4.88 L-6.824,5.029 L-6.769,5.175 L-6.705,5.319 L-6.635,5.459 L-6.558,5.596 L-6.474,5.728 L-6.383,5.856 L-6.286,5.979 L-6.183,6.097 L-6.074,6.21 L-5.96,6.317 L-5.84,6.418 L-5.715,6.513 L-5.586,6.602 L-5.452,6.684 L-5.314,6.759 L-5.173,6.827 L-5.028,6.887 L-4.881,6.941 L-4.731,6.987 L-4.579,7.025 L-4.425,7.055 L-4.27,7.078 L-4.114,7.093 L-3.957,7.099 L-3.8,7.098 L-3.644,7.089 L-3.488,7.073 L-3.333,7.048 L-3.18,7.015 L-3.028,6.975 L-2.879,6.927 L-2.732,6.872 L-2.589,6.809 L-2.448,6.739 L-2.312,6.662 L-2.179,6.578 L-2.051,6.488 L-1.927,6.391 L-1.809,6.289 L-1.696,6.18 L-1.589,6.066 L-1.487,5.946 L-1.392,5.822 L-1.303,5.693 L-1.221,5.559 L-1.145,5.422 L-1.077,5.281 L-1.016,5.136 L-0.962,4.989 L-0.916,4.839 L-0.877,4.687 L-0.846,4.533 L-0.823,4.378 L-0.808,4.222 L-0.801,4.066 L-0.801,3.909 " />
			<path d="M-1.902,1.303 L-1.846,1.507 L-1.79,1.729 " />
			<path d="M-1.79,1.729 L-1.691,1.825 L-1.597,1.925 L-1.506,2.031 L-1.419,2.142 L-1.336,2.258 L-1.257,2.38 L-1.183,2.508 L-1.114,2.641 L-1.05,2.781 L-0.992,2.927 L-0.965,3.002 L-0.94,3.079 L-0.917,3.157 L-0.895,3.237 L-0.876,3.317 L-0.859,3.399 L-0.844,3.482 L-0.831,3.566 L-0.82,3.65 L-0.811,3.736 L-0.805,3.822 L-0.801,3.909 " />
			<path d="M-1.79,1.729 L-1.678,1.838 L-1.572,1.953 L-1.472,2.073 L-1.378,2.198 L-1.29,2.327 L-1.209,2.46 L-1.135,2.598 L-1.068,2.739 L-1.008,2.883 L-0.956,3.03 L-0.911,3.18 L-0.873,3.331 L-0.843,3.484 L-0.821,3.639 L-0.807,3.794 L-0.8,3.95 L-0.802,4.107 L-0.811,4.262 L-0.828,4.418 L-0.853,4.572 L-0.886,4.724 L-0.926,4.875 L-0.974,5.024 L-1.029,5.17 L-1.092,5.313 L-1.161,5.453 L-1.238,5.589 L-1.322,5.721 L-1.411,5.849 L-1.508,5.971 L-1.61,6.089 L-1.718,6.202 L-1.832,6.309 L-1.951,6.41 L-2.074,6.505 L-2.203,6.594 L-2.336,6.676 L-2.472,6.752 L-2.613,6.82 L-2.756,6.881 L-2.903,6.935 L-3.052,6.982 L-3.203,7.021 L-3.356,7.052 L-3.511,7.075 L-3.666,7.091 L-3.822,7.099 L-3.978,7.099 L-4.134,7.091 L-4.289,7.075 L-4.444,7.052 L-4.597,7.021 L-4.748,6.982 L-4.897,6.935 L-5.044,6.881 L-5.187,6.82 L-5.328,6.752 L-5.464,6.676 L-5.597,6.594 L-5.726,6.505 L-5.849,6.41 L-5.968,6.309 L-6.082,6.202 L-6.19,6.089 L-6.292,5.971 L-6.389,5.849 L-6.478,5.721 L-6.562,5.589 L-6.639,5.453 L-6.708,5.313 L-6.771,5.17 L-6.826,5.024 L-6.874,4.875 L-6.914,4.724 L-6.947,4.572 L-6.972,4.418 L-6.989,4.262 L-6.998,4.107 L-7,3.95 L-6.993,3.794 L-6.979,3.639 L-6.957,3.484 L-6.927,3.331 L-6.889,3.18 L-6.844,3.03 L-6.792,2.883 L-6.732,2.739 L-6.665,2.598 L-6.591,2.46 L-6.51,2.327 L-6.422,2.198 L-6.328,2.073 L-6.228,1.953 L-6.122,1.838 L-6.01,1.729 " />
			<path d="M-5.898,1.303 L-5.954,1.507 L-6.01,1.729 " />
			<path d="M-3.9,6.45 L-4.04,6.446 L-4.179,6.434 L-4.318,6.414 L-4.455,6.386 L-4.59,6.351 L-4.723,6.308 L-4.854,6.257 L-4.981,6.199 L-5.105,6.133 L-5.225,6.061 L-5.34,5.982 L-5.451,5.897 L-5.557,5.805 L-5.657,5.707 L-5.752,5.604 L-5.84,5.496 L-5.922,5.383 L-5.998,5.265 L-6.067,5.143 L-6.129,5.018 L-6.183,4.889 L-6.23,4.757 L-6.27,4.623 L-6.301,4.487 L-6.325,4.349 L-6.341,4.21 L-6.349,4.07 L-6.349,3.93 L-6.341,3.79 L-6.325,3.651 L-6.301,3.513 L-6.27,3.377 L-6.23,3.243 L-6.183,3.111 L-6.129,2.982 L-6.067,2.857 L-5.998,2.735 L-5.922,2.617 L-5.84,2.504 L-5.752,2.396 L-5.657,2.293 L-5.557,2.195 L-5.451,2.103 L-5.34,2.018 L-5.225,1.939 L-5.105,1.867 L-4.981,1.801 L-4.854,1.743 L-4.723,1.692 L-4.59,1.649 L-4.455,1.614 L-4.318,1.586 L-4.179,1.566 L-4.04,1.554 L-3.9,1.55 L-3.76,1.554 L-3.621,1.566 L-3.482,1.586 L-3.345,1.614 L-3.21,1.649 L-3.077,1.692 L-2.946,1.743 L-2.819,1.801 L-2.695,1.867 L-2.575,1.939 L-2.46,2.018 L-2.349,2.103 L-2.243,2.195 L-2.143,2.293 L-2.048,2.396 L-1.96,2.504 L-1.878,2.617 L-1.802,2.735 L-1.733,2.857 L-1.671,2.982 L-1.617,3.111 L-1.57,3.243 L-1.53,3.377 L-1.499,3.513 L-1.475,3.651 L-1.459,3.79 L-1.451,3.93 L-1.451,4.07 L-1.459,4.21 L-1.475,4.349 L-1.499,4.487 L-1.53,4.623 L-1.57,4.757 L-1.617,4.889 L-1.671,5.018 L-1.733,5.143 L-1.802,5.265 L-1.878,5.383 L-1.96,5.496 L-2.048,5.604 L-2.143,5.707 L-2.243,5.805 L-2.349,5.897 L-2.46,5.982 L-2.575,6.061 L-2.695,6.133 L-2.819,6.199 L-2.946,6.257 L-3.077,6.308 L-3.21,6.351 L-3.345,6.386 L-3.482,6.414 L-3.621,6.434 L-3.76,6.446 L-3.9,6.45 " />
			<path d="M-6.999,3.909 L-6.995,3.822 L-6.989,3.736 L-6.98,3.65 L-6.969,3.566 L-6.956,3.482 L-6.941,3.399 L-6.924,3.317 L-6.905,3.237 L-6.883,3.157 L-6.86,3.079 L-6.835,3.002 L-6.808,2.927 L-6.75,2.781 L-6.686,2.641 L-6.617,2.508 L-6.543,2.38 L-6.464,2.258 L-6.381,2.142 L-6.294,2.031 L-6.203,1.925 L-6.109,1.825 L-6.01,1.729 " />
			<path d="M-7.8,15.4 L-7.5,15.1 " />
			<path d="M-7.5,15.1 L-7.5,15.022 L-7.5,14.793 L-7.5,14.424 L-7.5,13.933 L-7.5,13.345 L-7.5,12.69 L-7.5,12 L-7.5,11.31 L-7.5,10.655 L-7.5,10.067 L-7.5,9.576 L-7.5,9.207 L-7.5,8.978 L-7.5,8.9 " />
			<path d="M-7.5,8.9 L-7.5,8.978 L-7.5,9.207 L-7.5,9.576 L-7.5,10.067 L-7.5,10.655 L-7.5,11.31 L-7.5,12 L-7.5,12.69 L-7.5,13.345 L-7.5,13.933 L-7.5,14.424 L-7.5,14.793 L-7.5,15.022 L-7.5,15.1 " />
			<path d="M-7.8,31.4 L-7.5,31.1 " />
			<path d="M-7.5,31.1 L-7.5,31.022 L-7.5,30.793 L-7.5,30.424 L-7.5,29.933 L-7.5,29.345 L-7.5,28.69 L-7.5,28 L-7.5,27.31 L-7.5,26.655 L-7.5,26.067 L-7.5,25.576 L-7.5,25.207 L-7.5,24.978 L-7.5,24.9 " />
			<path d="M-7.5,24.9 L-7.5,24.978 L-7.5,25.207 L-7.5,25.576 L-7.5,26.067 L-7.5,26.655 L-7.5,27.31 L-7.5,28 L-7.5,28.69 L-7.5,29.345 L-7.5,29.933 L-7.5,30.424 L-7.5,30.793 L-7.5,31.022 L-7.5,31.1 " />
			<path d="M-3.9,23.1 L-3.743,23.096 L-3.586,23.084 L-3.431,23.064 L-3.276,23.037 L-3.123,23.001 L-2.972,22.958 L-2.823,22.907 L-2.677,22.849 L-2.535,22.783 L-2.396,22.71 L-2.26,22.631 L-2.129,22.544 L-2.002,22.451 L-1.881,22.352 L-1.764,22.247 L-1.653,22.136 L-1.548,22.019 L-1.449,21.898 L-1.356,21.771 L-1.269,21.64 L-1.19,21.504 L-1.117,21.365 L-1.051,21.223 L-0.993,21.077 L-0.942,20.928 L-0.899,20.777 L-0.863,20.624 L-0.836,20.469 L-0.816,20.314 L-0.804,20.157 L-0.8,20 L-0.804,19.843 L-0.816,19.686 L-0.836,19.531 L-0.863,19.376 L-0.899,19.223 L-0.942,19.072 L-0.993,18.923 L-1.051,18.777 L-1.117,18.635 L-1.19,18.496 L-1.269,18.36 L-1.356,18.229 L-1.449,18.102 L-1.548,17.981 L-1.653,17.864 L-1.764,17.753 L-1.881,17.648 L-2.002,17.549 L-2.129,17.456 L-2.26,17.369 L-2.396,17.29 L-2.535,17.217 L-2.677,17.151 L-2.823,17.093 L-2.972,17.042 L-3.123,16.999 L-3.276,16.963 L-3.431,16.936 L-3.586,16.916 L-3.743,16.904 L-3.9,16.9 L-4.057,16.904 L-4.214,16.916 L-4.369,16.936 L-4.524,16.963 L-4.677,16.999 L-4.828,17.042 L-4.977,17.093 L-5.123,17.151 L-5.265,17.217 L-5.404,17.29 L-5.54,17.369 L-5.671,17.456 L-5.798,17.549 L-5.919,17.648 L-6.036,17.753 L-6.147,17.864 L-6.252,17.981 L-6.351,18.102 L-6.444,18.229 L-6.531,18.36 L-6.61,18.496 L-6.683,18.635 L-6.749,18.777 L-6.807,18.923 L-6.858,19.072 L-6.901,19.223 L-6.937,19.376 L-6.964,19.531 L-6.984,19.686 L-6.996,19.843 L-7,20 L-6.996,20.157 L-6.984,20.314 L-6.964,20.469 L-6.937,20.624 L-6.901,20.777 L-6.858,20.928 L-6.807,21.077 L-6.749,21.223 L-6.683,21.365 L-6.61,21.504 L-6.531,21.64 L-6.444,21.771 L-6.351,21.898 L-6.252,22.019 L-6.147,22.136 L-6.036,22.247 L-5.919,22.352 L-5.798,22.451 L-5.671,22.544 L-5.54,22.631 L-5.404,22.71 L-5.265,22.783 L-5.123,22.849 L-4.977,22.907 L-4.828,22.958 L-4.677,23.001 L-4.524,23.037 L-4.369,23.064 L-4.214,23.084 L-4.057,23.096 L-3.9,23.1 " />
			<path d="M-0.3,15.1 L-0.99,15.1 " />
			<path d="M-0.99,15.1 L-0.99,15.022 L-0.99,14.793 L-0.99,14.424 L-0.99,13.933 L-0.99,13.345 L-0.99,12.69 L-0.99,12 L-0.99,11.31 L-0.99,10.655 L-0.99,10.067 L-0.99,9.576 L-0.99,9.207 L-0.99,8.978 L-0.99,8.9 " />
			<path d="M-0.99,8.9 L-0.99,8.978 L-0.99,9.207 L-0.99,9.576 L-0.99,10.067 L-0.99,10.655 L-0.99,11.31 L-0.99,12 L-0.99,12.69 L-0.99,13.345 L-0.99,13.933 L-0.99,14.424 L-0.99,14.793 L-0.99,15.022 L-0.99,15.1 " />
			<path d="M-0.3,31.1 L-0.99,31.1 " />
			<path d="M-0.99,31.1 L-0.99,31.022 L-0.99,30.793 L-0.99,30.424 L-0.99,29.933 L-0.99,29.345 L-0.99,28.69 L-0.99,28 L-0.99,27.31 L-0.99,26.655 L-0.99,26.067 L-0.99,25.576 L-0.99,25.207 L-0.99,24.978 L-0.99,24.9 " />
			<path d="M-0.99,24.9 L-0.99,24.978 L-0.99,25.207 L-0.99,25.576 L-0.99,26.067 L-0.99,26.655 L-0.99,27.31 L-0.99,28 L-0.99,28.69 L-0.99,29.345 L-0.99,29.933 L-0.99,30.424 L-0.99,30.793 L-0.99,31.022 L-0.99,31.1 " />
			<path d="M-6.81,15.1 L-7.5,15.1 " />
			<path d="M-6.81,15.1 L-6.81,15.022 L-6.81,14.793 L-6.81,14.424 L-6.81,13.933 L-6.81,13.345 L-6.81,12.69 L-6.81,12 L-6.81,11.31 L-6.81,10.655 L-6.81,10.067 L-6.81,9.576 L-6.81,9.207 L-6.81,8.978 L-6.81,8.9 " />
			<path d="M-6.81,8.9 L-6.81,8.978 L-6.81,9.207 L-6.81,9.576 L-6.81,10.067 L-6.81,10.655 L-6.81,11.31 L-6.81,12 L-6.81,12.69 L-6.81,13.345 L-6.81,13.933 L-6.81,14.424 L-6.81,14.793 L-6.81,15.022 L-6.81,15.1 " />
			<path d="M-6.81,31.1 L-7.5,31.1 " />
			<path d="M-6.81,31.1 L-6.81,31.022 L-6.81,30.793 L-6.81,30.424 L-6.81,29.933 L-6.81,29.345 L-6.81,28.69 L-6.81,28 L-6.81,27.31 L-6.81,26.655 L-6.81,26.067 L-6.81,25.576 L-6.81,25.207 L-6.81,24.978 L-6.81,24.9 " />
			<path d="M-6.81,24.9 L-6.81,24.978 L-6.81,25.207 L-6.81,25.576 L-6.81,26.067 L-6.81,26.655 L-6.81,27.31 L-6.81,28 L-6.81,28.69 L-6.81,29.345 L-6.81,29.933 L-6.81,30.424 L-6.81,30.793 L-6.81,31.022 L-6.81,31.1 " />
			<path d="M-3.9,22.45 L-4.04,22.446 L-4.179,22.434 L-4.318,22.414 L-4.455,22.386 L-4.59,22.351 L-4.723,22.308 L-4.854,22.257 L-4.981,22.199 L-5.105,22.133 L-5.225,22.061 L-5.34,21.982 L-5.451,21.897 L-5.557,21.805 L-5.657,21.707 L-5.752,21.604 L-5.84,21.496 L-5.922,21.383 L-5.998,21.265 L-6.067,21.143 L-6.129,21.018 L-6.183,20.889 L-6.23,20.757 L-6.27,20.623 L-6.301,20.487 L-6.325,20.349 L-6.341,20.21 L-6.349,20.07 L-6.349,19.93 L-6.341,19.79 L-6.325,19.651 L-6.301,19.513 L-6.27,19.377 L-6.23,19.243 L-6.183,19.111 L-6.129,18.982 L-6.067,18.857 L-5.998,18.735 L-5.922,18.617 L-5.84,18.504 L-5.752,18.396 L-5.657,18.293 L-5.557,18.195 L-5.451,18.103 L-5.34,18.018 L-5.225,17.939 L-5.105,17.867 L-4.981,17.801 L-4.854,17.743 L-4.723,17.692 L-4.59,17.649 L-4.455,17.614 L-4.318,17.586 L-4.179,17.566 L-4.04,17.554 L-3.9,17.55 L-3.76,17.554 L-3.621,17.566 L-3.482,17.586 L-3.345,17.614 L-3.21,17.649 L-3.077,17.692 L-2.946,17.743 L-2.819,17.801 L-2.695,17.867 L-2.575,17.939 L-2.46,18.018 L-2.349,18.103 L-2.243,18.195 L-2.143,18.293 L-2.048,18.396 L-1.96,18.504 L-1.878,18.617 L-1.802,18.735 L-1.733,18.857 L-1.671,18.982 L-1.617,19.111 L-1.57,19.243 L-1.53,19.377 L-1.499,19.513 L-1.475,19.651 L-1.459,19.79 L-1.451,19.93 L-1.451,20.07 L-1.459,20.21 L-1.475,20.349 L-1.499,20.487 L-1.53,20.623 L-1.57,20.757 L-1.617,20.889 L-1.671,21.018 L-1.733,21.143 L-1.802,21.265 L-1.878,21.383 L-1.96,21.496 L-2.048,21.604 L-2.143,21.707 L-2.243,21.805 L-2.349,21.897 L-2.46,21.982 L-2.575,22.061 L-2.695,22.133 L-2.819,22.199 L-2.946,22.257 L-3.077,22.308 L-3.21,22.351 L-3.345,22.386 L-3.482,22.414 L-3.621,22.434 L-3.76,22.446 L-3.9,22.45 " />
			<path d="M-3.9,23.1 L-3.743,23.096 L-3.586,23.084 L-3.431,23.064 L-3.276,23.037 L-3.123,23.001 L-2.972,22.958 L-2.823,22.907 L-2.677,22.849 L-2.535,22.783 L-2.396,22.71 L-2.26,22.631 L-2.129,22.544 L-2.002,22.451 L-1.881,22.352 L-1.764,22.247 L-1.653,22.136 L-1.548,22.019 L-1.449,21.898 L-1.356,21.771 L-1.269,21.64 L-1.19,21.504 L-1.117,21.365 L-1.051,21.223 L-0.993,21.077 L-0.942,20.928 L-0.899,20.777 L-0.863,20.624 L-0.836,20.469 L-0.816,20.314 L-0.804,20.157 L-0.8,20 L-0.804,19.843 L-0.816,19.686 L-0.836,19.531 L-0.863,19.376 L-0.899,19.223 L-0.942,19.072 L-0.993,18.923 L-1.051,18.777 L-1.117,18.635 L-1.19,18.496 L-1.269,18.36 L-1.356,18.229 L-1.449,18.102 L-1.548,17.981 L-1.653,17.864 L-1.764,17.753 L-1.881,17.648 L-2.002,17.549 L-2.129,17.456 L-2.26,17.369 L-2.396,17.29 L-2.535,17.217 L-2.677,17.151 L-2.823,17.093 L-2.972,17.042 L-3.123,16.999 L-3.276,16.963 L-3.431,16.936 L-3.586,16.916 L-3.743,16.904 L-3.9,16.9 L-4.057,16.904 L-4.214,16.916 L-4.369,16.936 L-4.524,16.963 L-4.677,16.999 L-4.828,17.042 L-4.977,17.093 L-5.123,17.151 L-5.265,17.217 L-5.404,17.29 L-5.54,17.369 L-5.671,17.456 L-5.798,17.549 L-5.919,17.648 L-6.036,17.753 L-6.147,17.864 L-6.252,17.981 L-6.351,18.102 L-6.444,18.229 L-6.531,18.36 L-6.61,18.496 L-6.683,18.635 L-6.749,18.777 L-6.807,18.923 L-6.858,19.072 L-6.901,19.223 L-6.937,19.376 L-6.964,19.531 L-6.984,19.686 L-6.996,19.843 L-7,20 L-6.996,20.157 L-6.984,20.314 L-6.964,20.469 L-6.937,20.624 L-6.901,20.777 L-6.858,20.928 L-6.807,21.077 L-6.749,21.223 L-6.683,21.365 L-6.61,21.504 L-6.531,21.64 L-6.444,21.771 L-6.351,21.898 L-6.252,22.019 L-6.147,22.136 L-6.036,22.247 L-5.919,22.352 L-5.798,22.451 L-5.671,22.544 L-5.54,22.631 L-5.404,22.71 L-5.265,22.783 L-5.123,22.849 L-4.977,22.907 L-4.828,22.958 L-4.677,23.001 L-4.524,23.037 L-4.369,23.064 L-4.214,23.084 L-4.057,23.096 L-3.9,23.1 " />
			<path d="M-0.99,14.45 L-0.99,14.389 L-0.99,14.207 L-0.99,13.915 L-0.99,13.528 L-0.99,13.063 L-0.99,12.545 L-0.99,12 L-0.99,11.455 L-0.99,10.937 L-0.99,10.472 L-0.99,10.085 L-0.99,9.793 L-0.99,9.611 L-0.99,9.55 " />
			<path d="M-0.99,9.55 L-0.99,9.611 L-0.99,9.793 L-0.99,10.085 L-0.99,10.472 L-0.99,10.937 L-0.99,11.455 L-0.99,12 L-0.99,12.545 L-0.99,13.063 L-0.99,13.528 L-0.99,13.915 L-0.99,14.207 L-0.99,14.389 L-0.99,14.45 " />
			<path d="M-0.99,30.45 L-0.99,30.389 L-0.99,30.207 L-0.99,29.915 L-0.99,29.528 L-0.99,29.063 L-0.99,28.545 L-0.99,28 L-0.99,27.455 L-0.99,26.937 L-0.99,26.472 L-0.99,26.085 L-0.99,25.793 L-0.99,25.611 L-0.99,25.55 " />
			<path d="M-0.99,25.55 L-0.99,25.611 L-0.99,25.793 L-0.99,26.085 L-0.99,26.472 L-0.99,26.937 L-0.99,27.455 L-0.99,28 L-0.99,28.545 L-0.99,29.063 L-0.99,29.528 L-0.99,29.915 L-0.99,30.207 L-0.99,30.389 L-0.99,30.45 " />
			<path d="M-6.81,14.45 L-6.81,14.389 L-6.81,14.207 L-6.81,13.915 L-6.81,13.528 L-6.81,13.063 L-6.81,12.545 L-6.81,12 L-6.81,11.455 L-6.81,10.937 L-6.81,10.472 L-6.81,10.085 L-6.81,9.793 L-6.81,9.611 L-6.81,9.55 " />
			<path d="M-6.81,9.55 L-6.81,9.611 L-6.81,9.793 L-6.81,10.085 L-6.81,10.472 L-6.81,10.937 L-6.81,11.455 L-6.81,12 L-6.81,12.545 L-6.81,13.063 L-6.81,13.528 L-6.81,13.915 L-6.81,14.207 L-6.81,14.389 L-6.81,14.45 " />
			<path d="M-6.81,30.45 L-6.81,30.389 L-6.81,30.207 L-6.81,29.915 L-6.81,29.528 L-6.81,29.063 L-6.81,28.545 L-6.81,28 L-6.81,27.455 L-6.81,26.937 L-6.81,26.472 L-6.81,26.085 L-6.81,25.793 L-6.81,25.611 L-6.81,25.55 " />
			<path d="M-6.81,25.55 L-6.81,25.611 L-6.81,25.793 L-6.81,26.085 L-6.81,26.472 L-6.81,26.937 L-6.81,27.455 L-6.81,28 L-6.81,28.545 L-6.81,29.063 L-6.81,29.528 L-6.81,29.915 L-6.81,30.207 L-6.81,30.389 L-6.81,30.45 " />
			<path d="M-0.99,14.45 L-6.81,14.45 " />
			<path d="M-0.99,30.45 L-6.81,30.45 " />
			<path d="M-0.3,8.9 L-4.441e-16,8.6 " />
			<path d="M-0.3,24.9 L-1.332e-15,24.6 " />
			<path d="M-7.5,8.9 L-7.8,8.6 " />
			<path d="M-7.5,24.9 L-7.8,24.6 " />
			<path d="M-0.99,8.9 L-0.3,8.9 " />
			<path d="M-0.99,24.9 L-0.3,24.9 " />
			<path d="M-7.5,8.9 L-6.81,8.9 " />
			<path d="M-7.5,24.9 L-6.81,24.9 " />
			<path d="M-6.81,9.55 L-0.99,9.55 " />
			<path d="M-6.81,25.55 L-0.99,25.55 " />

       </g>

       <!-- solid lines -->
       <g  stroke="rgb(0,0,0)" fill="none">
			<path d="M0,36.1 L0,36.537 L0,36.968 L0,37.388 L0,37.792 L0,38.175 L0,38.532 L0,38.858 L0,39.149 L0,39.402 L0,39.614 L0,39.781 L0,39.902 L0,39.975 L0,40 " />
			<path d="M-0.501,36.1 L-0.507,36.216 L-0.516,36.331 L-0.529,36.444 L-0.546,36.556 L-0.566,36.667 L-0.59,36.775 L-0.617,36.882 L-0.647,36.985 L-0.679,37.087 L-0.715,37.185 L-0.752,37.281 L-0.792,37.373 L-0.834,37.463 L-0.878,37.55 L-0.924,37.634 L-0.972,37.715 L-1.021,37.794 L-1.071,37.87 L-1.123,37.944 L-1.176,38.015 L-1.231,38.083 L-1.287,38.15 L-1.344,38.214 L-1.402,38.276 L-1.461,38.335 L-1.521,38.393 L-1.582,38.448 L-1.644,38.502 L-1.707,38.553 L-1.771,38.603 L-1.836,38.651 L-1.902,38.697 " />
			<path d="M-2.371,38.697 L-1.902,38.697 " />
			<path d="M-5.429,38.697 L-2.371,38.697 " />
			<path d="M-5.429,38.697 L-5.898,38.697 " />
			<path d="M-7.8,36.1 L-7.8,36.537 L-7.8,36.968 L-7.8,37.388 L-7.8,37.792 L-7.8,38.175 L-7.8,38.532 L-7.8,38.858 L-7.8,39.149 L-7.8,39.402 L-7.8,39.614 L-7.8,39.781 L-7.8,39.902 L-7.8,39.975 L-7.8,40 " />
			<path d="M-5.898,38.697 L-5.964,38.651 L-6.029,38.603 L-6.093,38.553 L-6.156,38.502 L-6.218,38.448 L-6.279,38.393 L-6.339,38.335 L-6.398,38.275 L-6.456,38.214 L-6.513,38.15 L-6.569,38.083 L-6.624,38.015 L-6.677,37.944 L-6.729,37.87 L-6.779,37.794 L-6.828,37.715 L-6.876,37.634 L-6.922,37.55 L-6.966,37.463 L-7.008,37.373 L-7.048,37.281 L-7.085,37.185 L-7.121,37.087 L-7.153,36.985 L-7.183,36.881 L-7.21,36.775 L-7.234,36.667 L-7.254,36.556 L-7.271,36.444 L-7.284,36.331 L-7.293,36.216 L-7.299,36.1 " />
			<path d="M0,0 L0,0.025 L0,0.098 L0,0.219 L0,0.386 L0,0.598 L0,0.851 L0,1.142 L0,1.468 L0,1.825 L0,2.208 L0,2.612 L0,3.032 L0,3.463 L0,3.9 " />
			<path d="M0,3.9 L0,36.1 " />
			<path d="M-0.501,3.9 L-0.507,3.784 L-0.516,3.669 L-0.529,3.556 L-0.546,3.444 L-0.566,3.333 L-0.59,3.225 L-0.617,3.119 L-0.647,3.015 L-0.679,2.913 L-0.715,2.815 L-0.752,2.719 L-0.792,2.627 L-0.834,2.537 L-0.878,2.45 L-0.924,2.366 L-0.972,2.285 L-1.021,2.206 L-1.071,2.13 L-1.123,2.056 L-1.176,1.985 L-1.231,1.917 L-1.287,1.85 L-1.344,1.786 L-1.402,1.725 L-1.461,1.665 L-1.521,1.607 L-1.582,1.552 L-1.644,1.498 L-1.707,1.447 L-1.771,1.397 L-1.836,1.349 L-1.902,1.303 " />
			<path d="M-2.371,1.303 L-1.902,1.303 " />
			<path d="M-5.429,1.303 L-2.371,1.303 " />
			<path d="M-5.429,1.303 L-5.898,1.303 " />
			<path d="M-5.898,1.303 L-5.964,1.349 L-6.029,1.397 L-6.093,1.447 L-6.156,1.498 L-6.218,1.552 L-6.279,1.607 L-6.339,1.665 L-6.398,1.725 L-6.456,1.786 L-6.513,1.85 L-6.569,1.917 L-6.624,1.985 L-6.677,2.056 L-6.729,2.13 L-6.779,2.206 L-6.828,2.285 L-6.876,2.366 L-6.922,2.45 L-6.966,2.537 L-7.008,2.627 L-7.048,2.719 L-7.085,2.815 L-7.121,2.913 L-7.153,3.015 L-7.183,3.119 L-7.21,3.225 L-7.234,3.333 L-7.254,3.444 L-7.271,3.556 L-7.284,3.669 L-7.293,3.784 L-7.299,3.9 " />
			<path d="M-7.8,0 L-7.8,0.025 L-7.8,0.098 L-7.8,0.219 L-7.8,0.386 L-7.8,0.598 L-7.8,0.851 L-7.8,1.142 L-7.8,1.468 L-7.8,1.825 L-7.8,2.208 L-7.8,2.612 L-7.8,3.032 L-7.8,3.463 L-7.8,3.9 " />
			<path d="M-7.017,2.647 L-7.016,2.645 " />
			<path d="M-6.191,1.528 L-6.12,1.468 L-6.047,1.411 L-5.973,1.356 L-5.898,1.303 " />
			<path d="M-7.8,3.9 L-7.8,36.1 " />
			<path d="M-7.299,36.1 L-7.299,35.935 L-7.292,35.77 L-7.277,35.606 L-7.254,35.443 L-7.223,35.281 L-7.184,35.121 L-7.138,34.963 L-7.084,34.807 L-7.022,34.654 L-6.953,34.504 L-6.877,34.358 L-6.794,34.216 L-6.704,34.077 L-6.608,33.944 L-6.505,33.815 L-6.396,33.691 L-6.281,33.573 L-6.161,33.46 L-6.035,33.354 L-5.904,33.253 L-5.769,33.16 L-5.629,33.072 L-5.485,32.992 L-5.337,32.919 L-5.186,32.853 L-5.032,32.794 L-4.875,32.743 L-4.716,32.699 L-4.555,32.664 L-4.393,32.636 L-4.229,32.616 L-4.065,32.604 L-3.9,32.6 L-3.735,32.604 L-3.571,32.616 L-3.407,32.636 L-3.245,32.664 L-3.084,32.699 L-2.925,32.743 L-2.768,32.794 L-2.614,32.853 L-2.463,32.919 L-2.315,32.992 L-2.171,33.072 L-2.031,33.16 L-1.896,33.253 L-1.765,33.354 L-1.639,33.46 L-1.519,33.573 L-1.404,33.691 L-1.295,33.815 L-1.192,33.944 L-1.096,34.077 L-1.006,34.216 L-0.923,34.358 L-0.847,34.504 L-0.778,34.654 L-0.716,34.807 L-0.662,34.963 L-0.616,35.121 L-0.577,35.281 L-0.546,35.443 L-0.523,35.606 L-0.508,35.77 L-0.501,35.935 L-0.501,36.1 " />
			<path d="M-7.299,3.9 L-7.299,4.065 L-7.292,4.23 L-7.277,4.394 L-7.254,4.557 L-7.223,4.719 L-7.184,4.879 L-7.138,5.037 L-7.084,5.193 L-7.022,5.346 L-6.953,5.496 L-6.877,5.642 L-6.794,5.784 L-6.704,5.923 L-6.608,6.056 L-6.505,6.185 L-6.396,6.309 L-6.281,6.427 L-6.161,6.54 L-6.035,6.646 L-5.904,6.747 L-5.769,6.84 L-5.629,6.928 L-5.485,7.008 L-5.337,7.081 L-5.186,7.147 L-5.032,7.206 L-4.875,7.257 L-4.716,7.301 L-4.555,7.336 L-4.393,7.364 L-4.229,7.384 L-4.065,7.396 L-3.9,7.4 L-3.735,7.396 L-3.571,7.384 L-3.407,7.364 L-3.245,7.336 L-3.084,7.301 L-2.925,7.257 L-2.768,7.206 L-2.614,7.147 L-2.463,7.081 L-2.315,7.008 L-2.171,6.928 L-2.031,6.84 L-1.896,6.747 L-1.765,6.646 L-1.639,6.54 L-1.519,6.427 L-1.404,6.309 L-1.295,6.185 L-1.192,6.056 L-1.096,5.923 L-1.006,5.784 L-0.923,5.642 L-0.847,5.496 L-0.778,5.346 L-0.716,5.193 L-0.662,5.037 L-0.616,4.879 L-0.577,4.719 L-0.546,4.557 L-0.523,4.394 L-0.508,4.23 L-0.501,4.065 L-0.501,3.9 " />
			<path d="M-3.9,23.4 L-4.064,23.396 L-4.228,23.384 L-4.391,23.364 L-4.553,23.337 L-4.714,23.301 L-4.872,23.258 L-5.028,23.207 L-5.182,23.149 L-5.333,23.083 L-5.48,23.011 L-5.624,22.931 L-5.763,22.844 L-5.898,22.751 L-6.029,22.651 L-6.155,22.545 L-6.275,22.433 L-6.39,22.315 L-6.499,22.192 L-6.602,22.064 L-6.698,21.931 L-6.788,21.794 L-6.871,21.652 L-6.948,21.507 L-7.017,21.358 L-7.079,21.206 L-7.134,21.051 L-7.181,20.893 L-7.22,20.734 L-7.251,20.572 L-7.275,20.41 L-7.291,20.246 L-7.299,20.082 L-7.299,19.918 L-7.291,19.754 L-7.275,19.59 L-7.251,19.428 L-7.22,19.266 L-7.181,19.107 L-7.134,18.949 L-7.079,18.794 L-7.017,18.642 L-6.948,18.493 L-6.871,18.348 L-6.788,18.206 L-6.698,18.069 L-6.602,17.936 L-6.499,17.808 L-6.39,17.685 L-6.275,17.567 L-6.155,17.455 L-6.029,17.349 L-5.898,17.249 L-5.763,17.156 L-5.624,17.069 L-5.48,16.989 L-5.333,16.917 L-5.182,16.851 L-5.028,16.793 L-4.872,16.742 L-4.714,16.699 L-4.553,16.663 L-4.391,16.636 L-4.228,16.616 L-4.064,16.604 L-3.9,16.6 L-3.736,16.604 L-3.572,16.616 L-3.409,16.636 L-3.247,16.663 L-3.086,16.699 L-2.928,16.742 L-2.772,16.793 L-2.618,16.851 L-2.467,16.917 L-2.32,16.989 L-2.176,17.069 L-2.037,17.156 L-1.902,17.249 L-1.771,17.349 L-1.645,17.455 L-1.525,17.567 L-1.41,17.685 L-1.301,17.808 L-1.198,17.936 L-1.102,18.069 L-1.012,18.206 L-0.929,18.348 L-0.852,18.493 L-0.783,18.642 L-0.721,18.794 L-0.666,18.949 L-0.619,19.107 L-0.58,19.266 L-0.549,19.428 L-0.525,19.59 L-0.509,19.754 L-0.501,19.918 L-0.501,20.082 L-0.509,20.246 L-0.525,20.41 L-0.549,20.572 L-0.58,20.734 L-0.619,20.893 L-0.666,21.051 L-0.721,21.206 L-0.783,21.358 L-0.852,21.507 L-0.929,21.652 L-1.012,21.794 L-1.102,21.931 L-1.198,22.064 L-1.301,22.192 L-1.41,22.315 L-1.525,22.433 L-1.645,22.545 L-1.771,22.651 L-1.902,22.751 L-2.037,22.844 L-2.176,22.931 L-2.32,23.011 L-2.467,23.083 L-2.618,23.149 L-2.772,23.207 L-2.928,23.258 L-3.086,23.301 L-3.247,23.337 L-3.409,23.364 L-3.572,23.384 L-3.736,23.396 L-3.9,23.4 " />
			<path d="M-0.801,36.091 L-0.805,36.178 L-0.811,36.264 L-0.82,36.35 L-0.831,36.434 L-0.844,36.518 L-0.859,36.601 L-0.876,36.683 L-0.895,36.763 L-0.917,36.843 L-0.94,36.921 L-0.965,36.998 L-0.992,37.073 L-1.05,37.219 L-1.114,37.359 L-1.183,37.492 L-1.257,37.62 L-1.336,37.742 L-1.419,37.858 L-1.506,37.969 L-1.597,38.075 L-1.691,38.175 L-1.79,38.271 " />
			<path d="M-1.902,38.697 L-1.846,38.493 L-1.79,38.271 " />
			<path d="M-1.708,38.192 L-1.617,38.097 L-1.53,37.999 L-1.448,37.897 " />
			<path d="M-1.224,37.565 L-1.148,37.428 L-1.08,37.287 L-1.018,37.142 L-0.964,36.995 L-0.917,36.845 " />
			<path d="M-0.843,36.517 L-0.823,36.376 L-0.809,36.234 L-0.801,36.091 " />
			<path d="M-6.979,36.362 L-6.959,36.503 L-6.933,36.643 L-6.9,36.781 L-6.861,36.918 L-6.816,37.053 L-6.764,37.186 L-6.707,37.317 L-6.643,37.444 L-6.574,37.569 " />
			<path d="M-6.348,37.902 L-6.266,38.003 L-6.179,38.102 L-6.088,38.196 " />
			<path d="M-5.898,38.697 L-5.954,38.493 L-6.01,38.271 " />
			<path d="M-3.9,38.45 L-4.04,38.446 L-4.179,38.434 L-4.318,38.414 L-4.455,38.386 L-4.59,38.351 L-4.723,38.308 L-4.854,38.257 L-4.981,38.199 L-5.105,38.133 L-5.225,38.061 L-5.34,37.982 L-5.451,37.897 L-5.557,37.805 L-5.657,37.707 L-5.752,37.604 L-5.84,37.496 L-5.922,37.383 L-5.998,37.265 L-6.067,37.143 L-6.129,37.018 L-6.183,36.889 L-6.23,36.757 L-6.27,36.623 L-6.301,36.487 L-6.325,36.349 L-6.341,36.21 L-6.349,36.07 L-6.349,35.93 L-6.341,35.79 L-6.325,35.651 L-6.301,35.513 L-6.27,35.377 L-6.23,35.243 L-6.183,35.111 L-6.129,34.982 L-6.067,34.857 L-5.998,34.735 L-5.922,34.617 L-5.84,34.504 L-5.752,34.396 L-5.657,34.293 L-5.557,34.195 L-5.451,34.103 L-5.34,34.018 L-5.225,33.939 L-5.105,33.867 L-4.981,33.801 L-4.854,33.743 L-4.723,33.692 L-4.59,33.649 L-4.455,33.614 L-4.318,33.586 L-4.179,33.566 L-4.04,33.554 L-3.9,33.55 L-3.76,33.554 L-3.621,33.566 L-3.482,33.586 L-3.345,33.614 L-3.21,33.649 L-3.077,33.692 L-2.946,33.743 L-2.819,33.801 L-2.695,33.867 L-2.575,33.939 L-2.46,34.018 L-2.349,34.103 L-2.243,34.195 L-2.143,34.293 L-2.048,34.396 L-1.96,34.504 L-1.878,34.617 L-1.802,34.735 L-1.733,34.857 L-1.671,34.982 L-1.617,35.111 L-1.57,35.243 L-1.53,35.377 L-1.499,35.513 L-1.475,35.651 L-1.459,35.79 L-1.451,35.93 L-1.451,36.07 L-1.459,36.21 L-1.475,36.349 L-1.499,36.487 L-1.53,36.623 L-1.57,36.757 L-1.617,36.889 L-1.671,37.018 L-1.733,37.143 L-1.802,37.265 L-1.878,37.383 L-1.96,37.496 L-2.048,37.604 L-2.143,37.707 L-2.243,37.805 L-2.349,37.897 L-2.46,37.982 L-2.575,38.061 L-2.695,38.133 L-2.819,38.199 L-2.946,38.257 L-3.077,38.308 L-3.21,38.351 L-3.345,38.386 L-3.482,38.414 L-3.621,38.434 L-3.76,38.446 L-3.9,38.45 " />
			<path d="M-6.01,38.271 L-6.109,38.175 L-6.203,38.075 L-6.294,37.969 L-6.381,37.858 L-6.464,37.742 L-6.543,37.62 L-6.617,37.492 L-6.686,37.359 L-6.75,37.219 L-6.808,37.073 L-6.835,36.998 L-6.86,36.921 L-6.883,36.843 L-6.905,36.763 L-6.924,36.683 L-6.941,36.601 L-6.956,36.518 L-6.969,36.434 L-6.98,36.35 L-6.989,36.264 L-6.995,36.178 L-6.999,36.091 " />
			<path d="M-0.801,3.909 L-0.805,3.822 L-0.811,3.736 L-0.82,3.65 L-0.831,3.566 L-0.844,3.482 L-0.859,3.399 L-0.876,3.317 L-0.895,3.237 L-0.917,3.157 L-0.94,3.079 L-0.965,3.002 L-0.992,2.927 L-1.05,2.781 L-1.114,2.641 L-1.183,2.508 L-1.257,2.38 L-1.336,2.258 L-1.419,2.142 L-1.506,2.031 L-1.597,1.925 L-1.691,1.825 L-1.79,1.729 " />
			<path d="M-1.902,1.303 L-1.846,1.507 L-1.79,1.729 " />
			<path d="M-6.088,1.804 L-6.179,1.898 L-6.265,1.996 L-6.348,2.098 " />
			<path d="M-6.573,2.429 L-6.642,2.554 L-6.706,2.682 L-6.763,2.812 L-6.815,2.945 L-6.86,3.081 L-6.9,3.218 L-6.933,3.357 L-6.959,3.497 L-6.979,3.638 " />
			<path d="M-0.801,3.909 L-0.81,3.756 L-0.826,3.603 L-0.849,3.451 L-0.88,3.301 L-0.918,3.152 L-0.964,3.005 L-1.017,2.861 L-1.077,2.72 L-1.144,2.582 L-1.217,2.447 L-1.297,2.316 L-1.384,2.189 L-1.477,2.067 L-1.575,1.949 L-1.68,1.837 L-1.79,1.729 " />
			<path d="M-5.898,1.303 L-5.954,1.507 L-6.01,1.729 " />
			<path d="M-3.9,6.45 L-4.04,6.446 L-4.179,6.434 L-4.318,6.414 L-4.455,6.386 L-4.59,6.351 L-4.723,6.308 L-4.854,6.257 L-4.981,6.199 L-5.105,6.133 L-5.225,6.061 L-5.34,5.982 L-5.451,5.897 L-5.557,5.805 L-5.657,5.707 L-5.752,5.604 L-5.84,5.496 L-5.922,5.383 L-5.998,5.265 L-6.067,5.143 L-6.129,5.018 L-6.183,4.889 L-6.23,4.757 L-6.27,4.623 L-6.301,4.487 L-6.325,4.349 L-6.341,4.21 L-6.349,4.07 L-6.349,3.93 L-6.341,3.79 L-6.325,3.651 L-6.301,3.513 L-6.27,3.377 L-6.23,3.243 L-6.183,3.111 L-6.129,2.982 L-6.067,2.857 L-5.998,2.735 L-5.922,2.617 L-5.84,2.504 L-5.752,2.396 L-5.657,2.293 L-5.557,2.195 L-5.451,2.103 L-5.34,2.018 L-5.225,1.939 L-5.105,1.867 L-4.981,1.801 L-4.854,1.743 L-4.723,1.692 L-4.59,1.649 L-4.455,1.614 L-4.318,1.586 L-4.179,1.566 L-4.04,1.554 L-3.9,1.55 L-3.76,1.554 L-3.621,1.566 L-3.482,1.586 L-3.345,1.614 L-3.21,1.649 L-3.077,1.692 L-2.946,1.743 L-2.819,1.801 L-2.695,1.867 L-2.575,1.939 L-2.46,2.018 L-2.349,2.103 L-2.243,2.195 L-2.143,2.293 L-2.048,2.396 L-1.96,2.504 L-1.878,2.617 L-1.802,2.735 L-1.733,2.857 L-1.671,2.982 L-1.617,3.111 L-1.57,3.243 L-1.53,3.377 L-1.499,3.513 L-1.475,3.651 L-1.459,3.79 L-1.451,3.93 L-1.451,4.07 L-1.459,4.21 L-1.475,4.349 L-1.499,4.487 L-1.53,4.623 L-1.57,4.757 L-1.617,4.889 L-1.671,5.018 L-1.733,5.143 L-1.802,5.265 L-1.878,5.383 L-1.96,5.496 L-2.048,5.604 L-2.143,5.707 L-2.243,5.805 L-2.349,5.897 L-2.46,5.982 L-2.575,6.061 L-2.695,6.133 L-2.819,6.199 L-2.946,6.257 L-3.077,6.308 L-3.21,6.351 L-3.345,6.386 L-3.482,6.414 L-3.621,6.434 L-3.76,6.446 L-3.9,6.45 " />
			<path d="M-6.01,1.729 L-6.109,1.825 L-6.203,1.925 L-6.294,2.031 L-6.381,2.142 L-6.464,2.258 L-6.543,2.38 L-6.617,2.508 L-6.686,2.641 L-6.75,2.781 L-6.808,2.927 L-6.835,3.002 L-6.86,3.079 L-6.883,3.157 L-6.905,3.237 L-6.924,3.317 L-6.941,3.399 L-6.956,3.482 L-6.969,3.566 L-6.98,3.65 L-6.989,3.736 L-6.995,3.822 L-6.999,3.909 " />
			<path d="M-6.999,36.091 L-6.999,35.934 L-6.992,35.776 L-6.977,35.62 L-6.953,35.464 L-6.922,35.31 L-6.883,35.157 L-6.837,35.007 L-6.782,34.859 L-6.721,34.714 L-6.652,34.572 L-6.576,34.434 L-6.493,34.301 L-6.403,34.171 L-6.307,34.046 L-6.205,33.927 L-6.096,33.812 L-5.983,33.704 L-5.863,33.601 L-5.739,33.504 L-5.61,33.414 L-5.476,33.331 L-5.339,33.254 L-5.197,33.185 L-5.053,33.122 L-4.905,33.067 L-4.755,33.02 L-4.603,32.981 L-4.448,32.949 L-4.293,32.925 L-4.136,32.909 L-3.979,32.901 L-3.821,32.901 L-3.664,32.909 L-3.507,32.925 L-3.352,32.949 L-3.197,32.981 L-3.045,33.02 L-2.895,33.067 L-2.747,33.122 L-2.603,33.185 L-2.461,33.254 L-2.324,33.331 L-2.19,33.414 L-2.061,33.504 L-1.937,33.601 L-1.817,33.704 L-1.704,33.812 L-1.595,33.927 L-1.493,34.046 L-1.397,34.171 L-1.307,34.301 L-1.224,34.434 L-1.148,34.572 L-1.079,34.714 L-1.018,34.859 L-0.963,35.007 L-0.917,35.157 L-0.878,35.31 L-0.847,35.464 L-0.823,35.62 L-0.808,35.776 L-0.801,35.934 L-0.801,36.091 " />
			<path d="M-6.999,3.909 L-6.999,4.066 L-6.992,4.224 L-6.977,4.38 L-6.953,4.536 L-6.922,4.69 L-6.883,4.843 L-6.837,4.993 L-6.782,5.141 L-6.721,5.286 L-6.652,5.428 L-6.576,5.566 L-6.493,5.699 L-6.403,5.829 L-6.307,5.954 L-6.205,6.073 L-6.096,6.188 L-5.983,6.296 L-5.863,6.399 L-5.739,6.496 L-5.61,6.586 L-5.476,6.669 L-5.339,6.746 L-5.197,6.815 L-5.053,6.878 L-4.905,6.933 L-4.755,6.98 L-4.603,7.019 L-4.448,7.051 L-4.293,7.075 L-4.136,7.091 L-3.979,7.099 L-3.821,7.099 L-3.664,7.091 L-3.507,7.075 L-3.352,7.051 L-3.197,7.019 L-3.045,6.98 L-2.895,6.933 L-2.747,6.878 L-2.603,6.815 L-2.461,6.746 L-2.324,6.669 L-2.19,6.586 L-2.061,6.496 L-1.937,6.399 L-1.817,6.296 L-1.704,6.188 L-1.595,6.073 L-1.493,5.954 L-1.397,5.829 L-1.307,5.699 L-1.224,5.566 L-1.148,5.428 L-1.079,5.286 L-1.018,5.141 L-0.963,4.993 L-0.917,4.843 L-0.878,4.69 L-0.847,4.536 L-0.823,4.38 L-0.808,4.224 L-0.801,4.066 L-0.801,3.909 " />
			<path d="M-3.9,23.1 L-4.057,23.096 L-4.214,23.084 L-4.369,23.064 L-4.524,23.037 L-4.677,23.001 L-4.828,22.958 L-4.977,22.907 L-5.123,22.849 L-5.265,22.783 L-5.404,22.71 L-5.54,22.631 L-5.671,22.544 L-5.798,22.451 L-5.919,22.352 L-6.036,22.247 L-6.147,22.136 L-6.252,22.019 L-6.351,21.898 L-6.444,21.771 L-6.531,21.64 L-6.61,21.504 L-6.683,21.365 L-6.749,21.223 L-6.807,21.077 L-6.858,20.928 L-6.901,20.777 L-6.937,20.624 L-6.964,20.469 L-6.984,20.314 L-6.996,20.157 L-7,20 L-6.996,19.843 L-6.984,19.686 L-6.964,19.531 L-6.937,19.376 L-6.901,19.223 L-6.858,19.072 L-6.807,18.923 L-6.749,18.777 L-6.683,18.635 L-6.61,18.496 L-6.531,18.36 L-6.444,18.229 L-6.351,18.102 L-6.252,17.981 L-6.147,17.864 L-6.036,17.753 L-5.919,17.648 L-5.798,17.549 L-5.671,17.456 L-5.54,17.369 L-5.404,17.29 L-5.265,17.217 L-5.123,17.151 L-4.977,17.093 L-4.828,17.042 L-4.677,16.999 L-4.524,16.963 L-4.369,16.936 L-4.214,16.916 L-4.057,16.904 L-3.9,16.9 L-3.743,16.904 L-3.586,16.916 L-3.431,16.936 L-3.276,16.963 L-3.123,16.999 L-2.972,17.042 L-2.823,17.093 L-2.677,17.151 L-2.535,17.217 L-2.396,17.29 L-2.26,17.369 L-2.129,17.456 L-2.002,17.549 L-1.881,17.648 L-1.764,17.753 L-1.653,17.864 L-1.548,17.981 L-1.449,18.102 L-1.356,18.229 L-1.269,18.36 L-1.19,18.496 L-1.117,18.635 L-1.051,18.777 L-0.993,18.923 L-0.942,19.072 L-0.899,19.223 L-0.863,19.376 L-0.836,19.531 L-0.816,19.686 L-0.804,19.843 L-0.8,20 L-0.804,20.157 L-0.816,20.314 L-0.836,20.469 L-0.863,20.624 L-0.899,20.777 L-0.942,20.928 L-0.993,21.077 L-1.051,21.223 L-1.117,21.365 L-1.19,21.504 L-1.269,21.64 L-1.356,21.771 L-1.449,21.898 L-1.548,22.019 L-1.653,22.136 L-1.764,22.247 L-1.881,22.352 L-2.002,22.451 L-2.129,22.544 L-2.26,22.631 L-2.396,22.71 L-2.535,22.783 L-2.677,22.849 L-2.823,22.907 L-2.972,22.958 L-3.123,23.001 L-3.276,23.037 L-3.431,23.064 L-3.586,23.084 L-3.743,23.096 L-3.9,23.1 " />
			<path d="M-3.9,22.45 L-4.04,22.446 L-4.179,22.434 L-4.318,22.414 L-4.455,22.386 L-4.59,22.351 L-4.723,22.308 L-4.854,22.257 L-4.981,22.199 L-5.105,22.133 L-5.225,22.061 L-5.34,21.982 L-5.451,21.897 L-5.557,21.805 L-5.657,21.707 L-5.752,21.604 L-5.84,21.496 L-5.922,21.383 L-5.998,21.265 L-6.067,21.143 L-6.129,21.018 L-6.183,20.889 L-6.23,20.757 L-6.27,20.623 L-6.301,20.487 L-6.325,20.349 L-6.341,20.21 L-6.349,20.07 L-6.349,19.93 L-6.341,19.79 L-6.325,19.651 L-6.301,19.513 L-6.27,19.377 L-6.23,19.243 L-6.183,19.111 L-6.129,18.982 L-6.067,18.857 L-5.998,18.735 L-5.922,18.617 L-5.84,18.504 L-5.752,18.396 L-5.657,18.293 L-5.557,18.195 L-5.451,18.103 L-5.34,18.018 L-5.225,17.939 L-5.105,17.867 L-4.981,17.801 L-4.854,17.743 L-4.723,17.692 L-4.59,17.649 L-4.455,17.614 L-4.318,17.586 L-4.179,17.566 L-4.04,17.554 L-3.9,17.55 L-3.76,17.554 L-3.621,17.566 L-3.482,17.586 L-3.345,17.614 L-3.21,17.649 L-3.077,17.692 L-2.946,17.743 L-2.819,17.801 L-2.695,17.867 L-2.575,17.939 L-2.46,18.018 L-2.349,18.103 L-2.243,18.195 L-2.143,18.293 L-2.048,18.396 L-1.96,18.504 L-1.878,18.617 L-1.802,18.735 L-1.733,18.857 L-1.671,18.982 L-1.617,19.111 L-1.57,19.243 L-1.53,19.377 L-1.499,19.513 L-1.475,19.651 L-1.459,19.79 L-1.451,19.93 L-1.451,20.07 L-1.459,20.21 L-1.475,20.349 L-1.499,20.487 L-1.53,20.623 L-1.57,20.757 L-1.617,20.889 L-1.671,21.018 L-1.733,21.143 L-1.802,21.265 L-1.878,21.383 L-1.96,21.496 L-2.048,21.604 L-2.143,21.707 L-2.243,21.805 L-2.349,21.897 L-2.46,21.982 L-2.575,22.061 L-2.695,22.133 L-2.819,22.199 L-2.946,22.257 L-3.077,22.308 L-3.21,22.351 L-3.345,22.386 L-3.482,22.414 L-3.621,22.434 L-3.76,22.446 L-3.9,22.45 " />
			<path d="M0,36.1 L-0.501,36.1 " />
			<path d="M-7.299,36.1 L-7.8,36.1 " />
			<path d="M0,3.9 L-0.501,3.9 " />
			<path d="M-7.299,3.9 L-7.8,3.9 " />
			<path d="M-0.501,36.1 L-0.801,36.091 " />
			<path d="M-7.299,36.1 L-6.999,36.091 " />
			<path d="M-0.501,3.9 L-0.801,3.909 " />
			<path d="M-7.299,3.9 L-6.999,3.909 " />
			<path d="M-7.8,40 L0,40 " />
			<path d="M-7.8,0 L0,0 " />

       </g>
    </g>
    
</svg>
