<?xml version="1.0" encoding="UTF-8" standalone="no"?>
<svg viewBox="190.0 10.0 320.0 245.0"
   xmlns:svg="http://www.w3.org/2000/svg"
   xmlns="http://www.w3.org/2000/svg"
   width="320"
   height="245"

>
    <g transform="scale(7.5, -7.5)   translate(46.66666666666667,-17.666666766666665)" stroke-width="0.25"  fill="none">
       <!-- hidden lines -->
       <g  stroke="rgb(160,160,160)" fill="none" stroke-dasharray="0.25,0.25" >
			<path d="M-3.775,-5.1 L-3.681,-5.1 L-3.401,-5.1 L-2.952,-5.1 L-2.354,-5.1 L-1.638,-5.1 L-0.84,-5.1 L-2.312e-16,-5.1 L0.84,-5.1 L1.638,-5.1 L2.354,-5.1 L2.952,-5.1 L3.401,-5.1 L3.681,-5.1 L3.775,-5.1 " />
			<path d="M3.775,-5.1 L3.681,-5.1 L3.401,-5.1 L2.952,-5.1 L2.354,-5.1 L1.638,-5.1 L0.84,-5.1 L6.935e-16,-5.1 L-0.84,-5.1 L-1.638,-5.1 L-2.354,-5.1 L-2.952,-5.1 L-3.401,-5.1 L-3.681,-5.1 L-3.775,-5.1 " />
			<path d="M5,-5.1 L4.875,-5.1 L4.505,-5.1 L3.909,-5.1 L3.117,-5.1 L2.169,-5.1 L1.113,-5.1 L6.123e-16,-5.1 L-1.113,-5.1 L-2.169,-5.1 L-3.117,-5.1 L-3.909,-5.1 L-4.505,-5.1 L-4.875,-5.1 L-5,-5.1 " />
			<path d="M-5,-5.1 L-4.999,-5.1 L-4.998,-5.1 L-4.995,-5.1 L-4.992,-5.1 L-4.987,-5.1 L-4.981,-5.1 L-4.975,-5.1 L-4.967,-5.1 L-4.958,-5.1 L-4.948,-5.1 L-4.938,-5.1 L-4.926,-5.1 L-4.913,-5.1 L-4.899,-5.1 " />
			<path d="M-5.3,-5.1 L-4.899,-5.1 " />
			<path d="M-3.85,-5.025 L-3.753,-5.025 L-3.469,-5.025 L-3.01,-5.025 L-2.4,-5.025 L-1.67,-5.025 L-0.857,-5.025 L-2.357e-16,-5.025 L0.857,-5.025 L1.67,-5.025 L2.4,-5.025 L3.01,-5.025 L3.469,-5.025 L3.753,-5.025 L3.85,-5.025 " />
			<path d="M-5.3,-5.1 L-5.3,5.1 " />
			<path d="M5,-15 L4.875,-15 L4.505,-15 L3.909,-15 L3.117,-15 L2.169,-15 L1.113,-15 L2.833e-15,-15 L-1.113,-15 L-2.169,-15 L-3.117,-15 L-3.909,-15 L-4.505,-15 L-4.875,-15 L-5,-15 " />
			<path d="M-5,-15 L-4.999,-15 L-4.998,-15 L-4.995,-15 L-4.992,-15 L-4.987,-15 L-4.981,-15 L-4.975,-15 L-4.967,-15 L-4.958,-15 L-4.948,-15 L-4.938,-15 L-4.926,-15 L-4.913,-15 L-4.899,-15 " />
			<path d="M-4.899,-5.1 L-4.899,-15 " />
			<path d="M-4.899,-15 L-20,-15 " />
			<path d="M-20,-15 L-20,15 " />
			<path d="M-5.3,5.1 L-4.899,5.1 " />
			<path d="M-4.899,15 L-20,15 " />
			<path d="M-4.899,15 L-4.899,5.1 " />
			<path d="M-15.9,-7.5 L-15.896,-7.652 L-15.884,-7.803 L-15.864,-7.954 L-15.837,-8.103 L-15.801,-8.251 L-15.758,-8.396 L-15.707,-8.539 L-15.649,-8.68 L-15.584,-8.817 L-15.511,-8.95 L-15.432,-9.079 L-15.346,-9.205 L-15.254,-9.325 L-15.155,-9.44 L-15.051,-9.551 L-14.94,-9.655 L-14.825,-9.754 L-14.705,-9.846 L-14.579,-9.932 L-14.45,-10.011 L-14.317,-10.084 L-14.18,-10.149 L-14.039,-10.207 L-13.896,-10.258 L-13.751,-10.301 L-13.603,-10.337 L-13.454,-10.364 L-13.303,-10.384 L-13.152,-10.396 L-13,-10.4 L-12.848,-10.396 L-12.697,-10.384 L-12.546,-10.364 L-12.397,-10.337 L-12.249,-10.301 L-12.104,-10.258 L-11.961,-10.207 L-11.82,-10.149 L-11.683,-10.084 L-11.55,-10.011 L-11.421,-9.932 L-11.295,-9.846 L-11.175,-9.754 L-11.06,-9.655 L-10.949,-9.551 L-10.845,-9.44 L-10.746,-9.325 L-10.654,-9.205 L-10.568,-9.079 L-10.489,-8.95 L-10.416,-8.817 L-10.351,-8.68 L-10.293,-8.539 L-10.242,-8.396 L-10.199,-8.251 L-10.163,-8.103 L-10.136,-7.954 L-10.116,-7.803 L-10.104,-7.652 L-10.1,-7.5 L-10.104,-7.348 L-10.116,-7.197 L-10.136,-7.046 L-10.163,-6.897 L-10.199,-6.749 L-10.242,-6.604 L-10.293,-6.461 L-10.351,-6.32 L-10.416,-6.183 L-10.489,-6.05 L-10.568,-5.921 L-10.654,-5.795 L-10.746,-5.675 L-10.845,-5.56 L-10.949,-5.449 L-11.06,-5.345 L-11.175,-5.246 L-11.295,-5.154 L-11.421,-5.068 L-11.55,-4.989 L-11.683,-4.916 L-11.82,-4.851 L-11.961,-4.793 L-12.104,-4.742 L-12.249,-4.699 L-12.397,-4.663 L-12.546,-4.636 L-12.697,-4.616 L-12.848,-4.604 L-13,-4.6 L-13.152,-4.604 L-13.303,-4.616 L-13.454,-4.636 L-13.603,-4.663 L-13.751,-4.699 L-13.896,-4.742 L-14.039,-4.793 L-14.18,-4.851 L-14.317,-4.916 L-14.45,-4.989 L-14.579,-5.068 L-14.705,-5.154 L-14.825,-5.246 L-14.94,-5.345 L-15.051,-5.449 L-15.155,-5.56 L-15.254,-5.675 L-15.346,-5.795 L-15.432,-5.921 L-15.511,-6.05 L-15.584,-6.183 L-15.649,-6.32 L-15.707,-6.461 L-15.758,-6.604 L-15.801,-6.749 L-15.837,-6.897 L-15.864,-7.046 L-15.884,-7.197 L-15.896,-7.348 L-15.9,-7.5 " />
			<path d="M-15.9,7.5 L-15.896,7.348 L-15.884,7.197 L-15.864,7.046 L-15.837,6.897 L-15.801,6.749 L-15.758,6.604 L-15.707,6.461 L-15.649,6.32 L-15.584,6.183 L-15.511,6.05 L-15.432,5.921 L-15.346,5.795 L-15.254,5.675 L-15.155,5.56 L-15.051,5.449 L-14.94,5.345 L-14.825,5.246 L-14.705,5.154 L-14.579,5.068 L-14.45,4.989 L-14.317,4.916 L-14.18,4.851 L-14.039,4.793 L-13.896,4.742 L-13.751,4.699 L-13.603,4.663 L-13.454,4.636 L-13.303,4.616 L-13.152,4.604 L-13,4.6 L-12.848,4.604 L-12.697,4.616 L-12.546,4.636 L-12.397,4.663 L-12.249,4.699 L-12.104,4.742 L-11.961,4.793 L-11.82,4.851 L-11.683,4.916 L-11.55,4.989 L-11.421,5.068 L-11.295,5.154 L-11.175,5.246 L-11.06,5.345 L-10.949,5.449 L-10.845,5.56 L-10.746,5.675 L-10.654,5.795 L-10.568,5.921 L-10.489,6.05 L-10.416,6.183 L-10.351,6.32 L-10.293,6.461 L-10.242,6.604 L-10.199,6.749 L-10.163,6.897 L-10.136,7.046 L-10.116,7.197 L-10.104,7.348 L-10.1,7.5 L-10.104,7.652 L-10.116,7.803 L-10.136,7.954 L-10.163,8.103 L-10.199,8.251 L-10.242,8.396 L-10.293,8.539 L-10.351,8.68 L-10.416,8.817 L-10.489,8.95 L-10.568,9.079 L-10.654,9.205 L-10.746,9.325 L-10.845,9.44 L-10.949,9.551 L-11.06,9.655 L-11.175,9.754 L-11.295,9.846 L-11.421,9.932 L-11.55,10.011 L-11.683,10.084 L-11.82,10.149 L-11.961,10.207 L-12.104,10.258 L-12.249,10.301 L-12.397,10.337 L-12.546,10.364 L-12.697,10.384 L-12.848,10.396 L-13,10.4 L-13.152,10.396 L-13.303,10.384 L-13.454,10.364 L-13.603,10.337 L-13.751,10.301 L-13.896,10.258 L-14.039,10.207 L-14.18,10.149 L-14.317,10.084 L-14.45,10.011 L-14.579,9.932 L-14.705,9.846 L-14.825,9.754 L-14.94,9.655 L-15.051,9.551 L-15.155,9.44 L-15.254,9.325 L-15.346,9.205 L-15.432,9.079 L-15.511,8.95 L-15.584,8.817 L-15.649,8.68 L-15.707,8.539 L-15.758,8.396 L-15.801,8.251 L-15.837,8.103 L-15.864,7.954 L-15.884,7.803 L-15.896,7.652 L-15.9,7.5 " />
			<path d="M-3.85,-4.95 L-3.85,-4.875 " />
			<path d="M-3.85,-4.875 L-3.753,-4.875 L-3.469,-4.875 L-3.01,-4.875 L-2.4,-4.875 L-1.67,-4.875 L-0.857,-4.875 L-2.357e-16,-4.875 L0.857,-4.875 L1.67,-4.875 L2.4,-4.875 L3.01,-4.875 L3.469,-4.875 L3.753,-4.875 L3.85,-4.875 " />
			<path d="M3.85,-4.875 L3.753,-4.875 L3.469,-4.875 L3.01,-4.875 L2.4,-4.875 L1.67,-4.875 L0.857,-4.875 L7.072e-16,-4.875 L-0.857,-4.875 L-1.67,-4.875 L-2.4,-4.875 L-3.01,-4.875 L-3.469,-4.875 L-3.753,-4.875 L-3.85,-4.875 " />
			<path d="M-4.899,5.1 L-4.913,5.1 L-4.926,5.1 L-4.938,5.1 L-4.948,5.1 L-4.958,5.1 L-4.967,5.1 L-4.975,5.1 L-4.981,5.1 L-4.987,5.1 L-4.992,5.1 L-4.995,5.1 L-4.998,5.1 L-4.999,5.1 L-5,5.1 " />
			<path d="M-5,5.1 L-4.875,5.1 L-4.505,5.1 L-3.909,5.1 L-3.117,5.1 L-2.169,5.1 L-1.113,5.1 L-6.661e-16,5.1 L1.113,5.1 L2.169,5.1 L3.117,5.1 L3.909,5.1 L4.505,5.1 L4.875,5.1 L5,5.1 " />
			<path d="M-3.775,5.1 L-3.681,5.1 L-3.401,5.1 L-2.952,5.1 L-2.354,5.1 L-1.638,5.1 L-0.84,5.1 L6.071e-16,5.1 L0.84,5.1 L1.638,5.1 L2.354,5.1 L2.952,5.1 L3.401,5.1 L3.681,5.1 L3.775,5.1 " />
			<path d="M3.775,5.1 L3.681,5.1 L3.401,5.1 L2.952,5.1 L2.354,5.1 L1.638,5.1 L0.84,5.1 L6.935e-16,5.1 L-0.84,5.1 L-1.638,5.1 L-2.354,5.1 L-2.952,5.1 L-3.401,5.1 L-3.681,5.1 L-3.775,5.1 " />
			<path d="M-4.899,15 L-4.913,15 L-4.926,15 L-4.938,15 L-4.948,15 L-4.958,15 L-4.967,15 L-4.975,15 L-4.981,15 L-4.987,15 L-4.992,15 L-4.995,15 L-4.998,15 L-4.999,15 L-5,15 " />
			<path d="M-5,15 L-4.875,15 L-4.505,15 L-3.909,15 L-3.117,15 L-2.169,15 L-1.113,15 L-6.661e-16,15 L1.113,15 L2.169,15 L3.117,15 L3.909,15 L4.505,15 L4.875,15 L5,15 " />
			<path d="M-14.75,-7.5 L-14.746,-7.382 L-14.734,-7.264 L-14.714,-7.148 L-14.686,-7.033 L-14.651,-6.92 L-14.608,-6.81 L-14.558,-6.703 L-14.501,-6.6 L-14.436,-6.5 L-14.366,-6.406 L-14.289,-6.316 L-14.206,-6.232 L-14.117,-6.153 L-14.024,-6.081 L-13.926,-6.015 L-13.823,-5.956 L-13.717,-5.904 L-13.608,-5.859 L-13.496,-5.822 L-13.381,-5.792 L-13.265,-5.77 L-13.148,-5.756 L-13.03,-5.75 L-12.911,-5.752 L-12.794,-5.762 L-12.677,-5.78 L-12.561,-5.806 L-12.448,-5.839 L-12.337,-5.88 L-12.229,-5.929 L-12.125,-5.984 L-12.025,-6.047 L-11.929,-6.116 L-11.838,-6.192 L-11.752,-6.273 L-11.672,-6.36 L-11.598,-6.452 L-11.531,-6.549 L-11.47,-6.651 L-11.416,-6.756 L-11.369,-6.865 L-11.33,-6.976 L-11.299,-7.09 L-11.275,-7.206 L-11.259,-7.323 L-11.251,-7.441 L-11.251,-7.559 L-11.259,-7.677 L-11.275,-7.794 L-11.299,-7.91 L-11.33,-8.024 L-11.369,-8.135 L-11.416,-8.244 L-11.47,-8.349 L-11.531,-8.451 L-11.598,-8.548 L-11.672,-8.64 L-11.752,-8.727 L-11.838,-8.808 L-11.929,-8.884 L-12.025,-8.953 L-12.125,-9.016 L-12.229,-9.071 L-12.337,-9.12 L-12.448,-9.161 L-12.561,-9.194 L-12.677,-9.22 L-12.794,-9.238 L-12.911,-9.248 L-13.03,-9.25 L-13.148,-9.244 L-13.265,-9.23 L-13.381,-9.208 L-13.496,-9.178 L-13.608,-9.141 L-13.717,-9.096 L-13.823,-9.044 L-13.926,-8.985 L-14.024,-8.919 L-14.117,-8.847 L-14.206,-8.768 L-14.289,-8.684 L-14.366,-8.594 L-14.436,-8.5 L-14.501,-8.4 L-14.558,-8.297 L-14.608,-8.19 L-14.651,-8.08 L-14.686,-7.967 L-14.714,-7.852 L-14.734,-7.736 L-14.746,-7.618 L-14.75,-7.5 " />
			<path d="M-14.75,7.5 L-14.746,7.618 L-14.734,7.736 L-14.714,7.852 L-14.686,7.967 L-14.651,8.08 L-14.608,8.19 L-14.558,8.297 L-14.501,8.4 L-14.436,8.5 L-14.366,8.594 L-14.289,8.684 L-14.206,8.768 L-14.117,8.847 L-14.024,8.919 L-13.926,8.985 L-13.823,9.044 L-13.717,9.096 L-13.608,9.141 L-13.496,9.178 L-13.381,9.208 L-13.265,9.23 L-13.148,9.244 L-13.03,9.25 L-12.911,9.248 L-12.794,9.238 L-12.677,9.22 L-12.561,9.194 L-12.448,9.161 L-12.337,9.12 L-12.229,9.071 L-12.125,9.016 L-12.025,8.953 L-11.929,8.884 L-11.838,8.808 L-11.752,8.727 L-11.672,8.64 L-11.598,8.548 L-11.531,8.451 L-11.47,8.349 L-11.416,8.244 L-11.369,8.135 L-11.33,8.024 L-11.299,7.91 L-11.275,7.794 L-11.259,7.677 L-11.251,7.559 L-11.251,7.441 L-11.259,7.323 L-11.275,7.206 L-11.299,7.09 L-11.33,6.976 L-11.369,6.865 L-11.416,6.756 L-11.47,6.651 L-11.531,6.549 L-11.598,6.452 L-11.672,6.36 L-11.752,6.273 L-11.838,6.192 L-11.929,6.116 L-12.025,6.047 L-12.125,5.984 L-12.229,5.929 L-12.337,5.88 L-12.448,5.839 L-12.561,5.806 L-12.677,5.78 L-12.794,5.762 L-12.911,5.752 L-13.03,5.75 L-13.148,5.756 L-13.265,5.77 L-13.381,5.792 L-13.496,5.822 L-13.608,5.859 L-13.717,5.904 L-13.823,5.956 L-13.926,6.015 L-14.024,6.081 L-14.117,6.153 L-14.206,6.232 L-14.289,6.316 L-14.366,6.406 L-14.436,6.5 L-14.501,6.6 L-14.558,6.703 L-14.608,6.81 L-14.651,6.92 L-14.686,7.033 L-14.714,7.148 L-14.734,7.264 L-14.746,7.382 L-14.75,7.5 " />
			<path d="M-15.9,-7.5 L-15.896,-7.348 L-15.884,-7.197 L-15.864,-7.046 L-15.837,-6.897 L-15.801,-6.749 L-15.758,-6.604 L-15.707,-6.461 L-15.649,-6.32 L-15.584,-6.183 L-15.511,-6.05 L-15.432,-5.921 L-15.346,-5.795 L-15.254,-5.675 L-15.155,-5.56 L-15.051,-5.449 L-14.94,-5.345 L-14.825,-5.246 L-14.705,-5.154 L-14.579,-5.068 L-14.45,-4.989 L-14.317,-4.916 L-14.18,-4.851 L-14.039,-4.793 L-13.896,-4.742 L-13.751,-4.699 L-13.603,-4.663 L-13.454,-4.636 L-13.303,-4.616 L-13.152,-4.604 L-13,-4.6 L-12.848,-4.604 L-12.697,-4.616 L-12.546,-4.636 L-12.397,-4.663 L-12.249,-4.699 L-12.104,-4.742 L-11.961,-4.793 L-11.82,-4.851 L-11.683,-4.916 L-11.55,-4.989 L-11.421,-5.068 L-11.295,-5.154 L-11.175,-5.246 L-11.06,-5.345 L-10.949,-5.449 L-10.845,-5.56 L-10.746,-5.675 L-10.654,-5.795 L-10.568,-5.921 L-10.489,-6.05 L-10.416,-6.183 L-10.351,-6.32 L-10.293,-6.461 L-10.242,-6.604 L-10.199,-6.749 L-10.163,-6.897 L-10.136,-7.046 L-10.116,-7.197 L-10.104,-7.348 L-10.1,-7.5 L-10.104,-7.652 L-10.116,-7.803 L-10.136,-7.954 L-10.163,-8.103 L-10.199,-8.251 L-10.242,-8.396 L-10.293,-8.539 L-10.351,-8.68 L-10.416,-8.817 L-10.489,-8.95 L-10.568,-9.079 L-10.654,-9.205 L-10.746,-9.325 L-10.845,-9.44 L-10.949,-9.551 L-11.06,-9.655 L-11.175,-9.754 L-11.295,-9.846 L-11.421,-9.932 L-11.55,-10.011 L-11.683,-10.084 L-11.82,-10.149 L-11.961,-10.207 L-12.104,-10.258 L-12.249,-10.301 L-12.397,-10.337 L-12.546,-10.364 L-12.697,-10.384 L-12.848,-10.396 L-13,-10.4 L-13.152,-10.396 L-13.303,-10.384 L-13.454,-10.364 L-13.603,-10.337 L-13.751,-10.301 L-13.896,-10.258 L-14.039,-10.207 L-14.18,-10.149 L-14.317,-10.084 L-14.45,-10.011 L-14.579,-9.932 L-14.705,-9.846 L-14.825,-9.754 L-14.94,-9.655 L-15.051,-9.551 L-15.155,-9.44 L-15.254,-9.325 L-15.346,-9.205 L-15.432,-9.079 L-15.511,-8.95 L-15.584,-8.817 L-15.649,-8.68 L-15.707,-8.539 L-15.758,-8.396 L-15.801,-8.251 L-15.837,-8.103 L-15.864,-7.954 L-15.884,-7.803 L-15.896,-7.652 L-15.9,-7.5 " />
			<path d="M-15.9,7.5 L-15.896,7.652 L-15.884,7.803 L-15.864,7.954 L-15.837,8.103 L-15.801,8.251 L-15.758,8.396 L-15.707,8.539 L-15.649,8.68 L-15.584,8.817 L-15.511,8.95 L-15.432,9.079 L-15.346,9.205 L-15.254,9.325 L-15.155,9.44 L-15.051,9.551 L-14.94,9.655 L-14.825,9.754 L-14.705,9.846 L-14.579,9.932 L-14.45,10.011 L-14.317,10.084 L-14.18,10.149 L-14.039,10.207 L-13.896,10.258 L-13.751,10.301 L-13.603,10.337 L-13.454,10.364 L-13.303,10.384 L-13.152,10.396 L-13,10.4 L-12.848,10.396 L-12.697,10.384 L-12.546,10.364 L-12.397,10.337 L-12.249,10.301 L-12.104,10.258 L-11.961,10.207 L-11.82,10.149 L-11.683,10.084 L-11.55,10.011 L-11.421,9.932 L-11.295,9.846 L-11.175,9.754 L-11.06,9.655 L-10.949,9.551 L-10.845,9.44 L-10.746,9.325 L-10.654,9.205 L-10.568,9.079 L-10.489,8.95 L-10.416,8.817 L-10.351,8.68 L-10.293,8.539 L-10.242,8.396 L-10.199,8.251 L-10.163,8.103 L-10.136,7.954 L-10.116,7.803 L-10.104,7.652 L-10.1,7.5 L-10.104,7.348 L-10.116,7.197 L-10.136,7.046 L-10.163,6.897 L-10.199,6.749 L-10.242,6.604 L-10.293,6.461 L-10.351,6.32 L-10.416,6.183 L-10.489,6.05 L-10.568,5.921 L-10.654,5.795 L-10.746,5.675 L-10.845,5.56 L-10.949,5.449 L-11.06,5.345 L-11.175,5.246 L-11.295,5.154 L-11.421,5.068 L-11.55,4.989 L-11.683,4.916 L-11.82,4.851 L-11.961,4.793 L-12.104,4.742 L-12.249,4.699 L-12.397,4.663 L-12.546,4.636 L-12.697,4.616 L-12.848,4.604 L-13,4.6 L-13.152,4.604 L-13.303,4.616 L-13.454,4.636 L-13.603,4.663 L-13.751,4.699 L-13.896,4.742 L-14.039,4.793 L-14.18,4.851 L-14.317,4.916 L-14.45,4.989 L-14.579,5.068 L-14.705,5.154 L-14.825,5.246 L-14.94,5.345 L-15.051,5.449 L-15.155,5.56 L-15.254,5.675 L-15.346,5.795 L-15.432,5.921 L-15.511,6.05 L-15.584,6.183 L-15.649,6.32 L-15.707,6.461 L-15.758,6.604 L-15.801,6.749 L-15.837,6.897 L-15.864,7.046 L-15.884,7.197 L-15.896,7.348 L-15.9,7.5 " />
			<path d="M3.85,5.025 L3.753,5.025 L3.469,5.025 L3.01,5.025 L2.4,5.025 L1.67,5.025 L0.857,5.025 L7.072e-16,5.025 L-0.857,5.025 L-1.67,5.025 L-2.4,5.025 L-3.01,5.025 L-3.469,5.025 L-3.753,5.025 L-3.85,5.025 " />
			<path d="M-3.85,4.95 L-3.85,4.875 " />
			<path d="M-3.85,4.875 L-3.753,4.875 L-3.469,4.875 L-3.01,4.875 L-2.4,4.875 L-1.67,4.875 L-0.857,4.875 L-2.357e-16,4.875 L0.857,4.875 L1.67,4.875 L2.4,4.875 L3.01,4.875 L3.469,4.875 L3.753,4.875 L3.85,4.875 " />
			<path d="M3.85,4.875 L3.753,4.875 L3.469,4.875 L3.01,4.875 L2.4,4.875 L1.67,4.875 L0.857,4.875 L7.072e-16,4.875 L-0.857,4.875 L-1.67,4.875 L-2.4,4.875 L-3.01,4.875 L-3.469,4.875 L-3.753,4.875 L-3.85,4.875 " />
			<path d="M20,-15 L20,15 " />
			<path d="M20,-15 L5.3,-15 " />
			<path d="M20,15 L5.3,15 " />
			<path d="M5.3,4.95 L5.3,15 " />
			<path d="M4.899,4.95 L5.3,4.95 " />
			<path d="M5.3,-15 L5.3,-4.95 " />
			<path d="M4.899,4.95 L4.899,-4.95 " />
			<path d="M4.899,-4.95 L5.3,-4.95 " />
			<path d="M10.1,-7.5 L10.104,-7.652 L10.116,-7.803 L10.136,-7.954 L10.163,-8.103 L10.199,-8.251 L10.242,-8.396 L10.293,-8.539 L10.351,-8.68 L10.416,-8.817 L10.489,-8.95 L10.568,-9.079 L10.654,-9.205 L10.746,-9.325 L10.845,-9.44 L10.949,-9.551 L11.06,-9.655 L11.175,-9.754 L11.295,-9.846 L11.421,-9.932 L11.55,-10.011 L11.683,-10.084 L11.82,-10.149 L11.961,-10.207 L12.104,-10.258 L12.249,-10.301 L12.397,-10.337 L12.546,-10.364 L12.697,-10.384 L12.848,-10.396 L13,-10.4 L13.152,-10.396 L13.303,-10.384 L13.454,-10.364 L13.603,-10.337 L13.751,-10.301 L13.896,-10.258 L14.039,-10.207 L14.18,-10.149 L14.317,-10.084 L14.45,-10.011 L14.579,-9.932 L14.705,-9.846 L14.825,-9.754 L14.94,-9.655 L15.051,-9.551 L15.155,-9.44 L15.254,-9.325 L15.346,-9.205 L15.432,-9.079 L15.511,-8.95 L15.584,-8.817 L15.649,-8.68 L15.707,-8.539 L15.758,-8.396 L15.801,-8.251 L15.837,-8.103 L15.864,-7.954 L15.884,-7.803 L15.896,-7.652 L15.9,-7.5 L15.896,-7.348 L15.884,-7.197 L15.864,-7.046 L15.837,-6.897 L15.801,-6.749 L15.758,-6.604 L15.707,-6.461 L15.649,-6.32 L15.584,-6.183 L15.511,-6.05 L15.432,-5.921 L15.346,-5.795 L15.254,-5.675 L15.155,-5.56 L15.051,-5.449 L14.94,-5.345 L14.825,-5.246 L14.705,-5.154 L14.579,-5.068 L14.45,-4.989 L14.317,-4.916 L14.18,-4.851 L14.039,-4.793 L13.896,-4.742 L13.751,-4.699 L13.603,-4.663 L13.454,-4.636 L13.303,-4.616 L13.152,-4.604 L13,-4.6 L12.848,-4.604 L12.697,-4.616 L12.546,-4.636 L12.397,-4.663 L12.249,-4.699 L12.104,-4.742 L11.961,-4.793 L11.82,-4.851 L11.683,-4.916 L11.55,-4.989 L11.421,-5.068 L11.295,-5.154 L11.175,-5.246 L11.06,-5.345 L10.949,-5.449 L10.845,-5.56 L10.746,-5.675 L10.654,-5.795 L10.568,-5.921 L10.489,-6.05 L10.416,-6.183 L10.351,-6.32 L10.293,-6.461 L10.242,-6.604 L10.199,-6.749 L10.163,-6.897 L10.136,-7.046 L10.116,-7.197 L10.104,-7.348 L10.1,-7.5 " />
			<path d="M10.1,7.5 L10.104,7.348 L10.116,7.197 L10.136,7.046 L10.163,6.897 L10.199,6.749 L10.242,6.604 L10.293,6.461 L10.351,6.32 L10.416,6.183 L10.489,6.05 L10.568,5.921 L10.654,5.795 L10.746,5.675 L10.845,5.56 L10.949,5.449 L11.06,5.345 L11.175,5.246 L11.295,5.154 L11.421,5.068 L11.55,4.989 L11.683,4.916 L11.82,4.851 L11.961,4.793 L12.104,4.742 L12.249,4.699 L12.397,4.663 L12.546,4.636 L12.697,4.616 L12.848,4.604 L13,4.6 L13.152,4.604 L13.303,4.616 L13.454,4.636 L13.603,4.663 L13.751,4.699 L13.896,4.742 L14.039,4.793 L14.18,4.851 L14.317,4.916 L14.45,4.989 L14.579,5.068 L14.705,5.154 L14.825,5.246 L14.94,5.345 L15.051,5.449 L15.155,5.56 L15.254,5.675 L15.346,5.795 L15.432,5.921 L15.511,6.05 L15.584,6.183 L15.649,6.32 L15.707,6.461 L15.758,6.604 L15.801,6.749 L15.837,6.897 L15.864,7.046 L15.884,7.197 L15.896,7.348 L15.9,7.5 L15.896,7.652 L15.884,7.803 L15.864,7.954 L15.837,8.103 L15.801,8.251 L15.758,8.396 L15.707,8.539 L15.649,8.68 L15.584,8.817 L15.511,8.95 L15.432,9.079 L15.346,9.205 L15.254,9.325 L15.155,9.44 L15.051,9.551 L14.94,9.655 L14.825,9.754 L14.705,9.846 L14.579,9.932 L14.45,10.011 L14.317,10.084 L14.18,10.149 L14.039,10.207 L13.896,10.258 L13.751,10.301 L13.603,10.337 L13.454,10.364 L13.303,10.384 L13.152,10.396 L13,10.4 L12.848,10.396 L12.697,10.384 L12.546,10.364 L12.397,10.337 L12.249,10.301 L12.104,10.258 L11.961,10.207 L11.82,10.149 L11.683,10.084 L11.55,10.011 L11.421,9.932 L11.295,9.846 L11.175,9.754 L11.06,9.655 L10.949,9.551 L10.845,9.44 L10.746,9.325 L10.654,9.205 L10.568,9.079 L10.489,8.95 L10.416,8.817 L10.351,8.68 L10.293,8.539 L10.242,8.396 L10.199,8.251 L10.163,8.103 L10.136,7.954 L10.116,7.803 L10.104,7.652 L10.1,7.5 " />
			<path d="M4.899,4.95 L4.913,4.95 L4.926,4.95 L4.938,4.95 L4.948,4.95 L4.958,4.95 L4.967,4.95 L4.975,4.95 L4.981,4.95 L4.987,4.95 L4.992,4.95 L4.995,4.95 L4.998,4.95 L4.999,4.95 L5,4.95 " />
			<path d="M5,4.95 L4.875,4.95 L4.505,4.95 L3.909,4.95 L3.117,4.95 L2.169,4.95 L1.113,4.95 L4.441e-15,4.95 L-1.113,4.95 L-2.169,4.95 L-3.117,4.95 L-3.909,4.95 L-4.505,4.95 L-4.875,4.95 L-5,4.95 " />
			<path d="M-1.453e-13,4.95 L-0.448,4.95 L-0.89,4.95 L-1.321,4.95 L-1.736,4.95 L-2.128,4.95 L-2.494,4.95 L-2.828,4.95 L-3.127,4.95 L-3.387,4.95 L-3.604,4.95 L-3.776,4.95 L-3.9,4.95 L-3.975,4.95 L-4,4.95 " />
			<path d="M-4,4.95 L-3.9,4.95 L-3.604,4.95 L-3.127,4.95 L-2.494,4.95 L-1.736,4.95 L-0.89,4.95 L-2.588e-15,4.95 L0.89,4.95 L1.736,4.95 L2.494,4.95 L3.127,4.95 L3.604,4.95 L3.9,4.95 L4,4.95 " />
			<path d="M4,4.95 L3.999,4.95 L3.997,4.95 L3.994,4.95 L3.99,4.95 L3.984,4.95 L3.977,4.95 L3.968,4.95 L3.958,4.95 L3.947,4.95 L3.935,4.95 L3.921,4.95 L3.907,4.95 L3.89,4.95 L3.873,4.95 " />
			<path d="M0,4.95 L3.873,4.95 " />
			<path d="M4.899,-4.95 L4.913,-4.95 L4.926,-4.95 L4.938,-4.95 L4.948,-4.95 L4.958,-4.95 L4.967,-4.95 L4.975,-4.95 L4.981,-4.95 L4.987,-4.95 L4.992,-4.95 L4.995,-4.95 L4.998,-4.95 L4.999,-4.95 L5,-4.95 " />
			<path d="M5,-4.95 L4.875,-4.95 L4.505,-4.95 L3.909,-4.95 L3.117,-4.95 L2.169,-4.95 L1.113,-4.95 L4.441e-15,-4.95 L-1.113,-4.95 L-2.169,-4.95 L-3.117,-4.95 L-3.909,-4.95 L-4.505,-4.95 L-4.875,-4.95 L-5,-4.95 " />
			<path d="M3.873,-4.95 L3.89,-4.95 L3.907,-4.95 L3.921,-4.95 L3.935,-4.95 L3.947,-4.95 L3.958,-4.95 L3.968,-4.95 L3.977,-4.95 L3.984,-4.95 L3.99,-4.95 L3.994,-4.95 L3.997,-4.95 L3.999,-4.95 L4,-4.95 " />
			<path d="M4,-4.95 L3.9,-4.95 L3.604,-4.95 L3.127,-4.95 L2.494,-4.95 L1.736,-4.95 L0.89,-4.95 L4.441e-15,-4.95 L-0.89,-4.95 L-1.736,-4.95 L-2.494,-4.95 L-3.127,-4.95 L-3.604,-4.95 L-3.9,-4.95 L-4,-4.95 " />
			<path d="M-4,-4.95 L-3.975,-4.95 L-3.9,-4.95 L-3.776,-4.95 L-3.604,-4.95 L-3.387,-4.95 L-3.127,-4.95 L-2.828,-4.95 L-2.494,-4.95 L-2.128,-4.95 L-1.736,-4.95 L-1.321,-4.95 L-0.89,-4.95 L-0.448,-4.95 L-1.817e-13,-4.95 " />
			<path d="M0,-4.95 L3.873,-4.95 " />
			<path d="M10.1,-7.5 L10.104,-7.348 L10.116,-7.197 L10.136,-7.046 L10.163,-6.897 L10.199,-6.749 L10.242,-6.604 L10.293,-6.461 L10.351,-6.32 L10.416,-6.183 L10.489,-6.05 L10.568,-5.921 L10.654,-5.795 L10.746,-5.675 L10.845,-5.56 L10.949,-5.449 L11.06,-5.345 L11.175,-5.246 L11.295,-5.154 L11.421,-5.068 L11.55,-4.989 L11.683,-4.916 L11.82,-4.851 L11.961,-4.793 L12.104,-4.742 L12.249,-4.699 L12.397,-4.663 L12.546,-4.636 L12.697,-4.616 L12.848,-4.604 L13,-4.6 L13.152,-4.604 L13.303,-4.616 L13.454,-4.636 L13.603,-4.663 L13.751,-4.699 L13.896,-4.742 L14.039,-4.793 L14.18,-4.851 L14.317,-4.916 L14.45,-4.989 L14.579,-5.068 L14.705,-5.154 L14.825,-5.246 L14.94,-5.345 L15.051,-5.449 L15.155,-5.56 L15.254,-5.675 L15.346,-5.795 L15.432,-5.921 L15.511,-6.05 L15.584,-6.183 L15.649,-6.32 L15.707,-6.461 L15.758,-6.604 L15.801,-6.749 L15.837,-6.897 L15.864,-7.046 L15.884,-7.197 L15.896,-7.348 L15.9,-7.5 L15.896,-7.652 L15.884,-7.803 L15.864,-7.954 L15.837,-8.103 L15.801,-8.251 L15.758,-8.396 L15.707,-8.539 L15.649,-8.68 L15.584,-8.817 L15.511,-8.95 L15.432,-9.079 L15.346,-9.205 L15.254,-9.325 L15.155,-9.44 L15.051,-9.551 L14.94,-9.655 L14.825,-9.754 L14.705,-9.846 L14.579,-9.932 L14.45,-10.011 L14.317,-10.084 L14.18,-10.149 L14.039,-10.207 L13.896,-10.258 L13.751,-10.301 L13.603,-10.337 L13.454,-10.364 L13.303,-10.384 L13.152,-10.396 L13,-10.4 L12.848,-10.396 L12.697,-10.384 L12.546,-10.364 L12.397,-10.337 L12.249,-10.301 L12.104,-10.258 L11.961,-10.207 L11.82,-10.149 L11.683,-10.084 L11.55,-10.011 L11.421,-9.932 L11.295,-9.846 L11.175,-9.754 L11.06,-9.655 L10.949,-9.551 L10.845,-9.44 L10.746,-9.325 L10.654,-9.205 L10.568,-9.079 L10.489,-8.95 L10.416,-8.817 L10.351,-8.68 L10.293,-8.539 L10.242,-8.396 L10.199,-8.251 L10.163,-8.103 L10.136,-7.954 L10.116,-7.803 L10.104,-7.652 L10.1,-7.5 " />
			<path d="M10.1,7.5 L10.104,7.652 L10.116,7.803 L10.136,7.954 L10.163,8.103 L10.199,8.251 L10.242,8.396 L10.293,8.539 L10.351,8.68 L10.416,8.817 L10.489,8.95 L10.568,9.079 L10.654,9.205 L10.746,9.325 L10.845,9.44 L10.949,9.551 L11.06,9.655 L11.175,9.754 L11.295,9.846 L11.421,9.932 L11.55,10.011 L11.683,10.084 L11.82,10.149 L11.961,10.207 L12.104,10.258 L12.249,10.301 L12.397,10.337 L12.546,10.364 L12.697,10.384 L12.848,10.396 L13,10.4 L13.152,10.396 L13.303,10.384 L13.454,10.364 L13.603,10.337 L13.751,10.301 L13.896,10.258 L14.039,10.207 L14.18,10.149 L14.317,10.084 L14.45,10.011 L14.579,9.932 L14.705,9.846 L14.825,9.754 L14.94,9.655 L15.051,9.551 L15.155,9.44 L15.254,9.325 L15.346,9.205 L15.432,9.079 L15.511,8.95 L15.584,8.817 L15.649,8.68 L15.707,8.539 L15.758,8.396 L15.801,8.251 L15.837,8.103 L15.864,7.954 L15.884,7.803 L15.896,7.652 L15.9,7.5 L15.896,7.348 L15.884,7.197 L15.864,7.046 L15.837,6.897 L15.801,6.749 L15.758,6.604 L15.707,6.461 L15.649,6.32 L15.584,6.183 L15.511,6.05 L15.432,5.921 L15.346,5.795 L15.254,5.675 L15.155,5.56 L15.051,5.449 L14.94,5.345 L14.825,5.246 L14.705,5.154 L14.579,5.068 L14.45,4.989 L14.317,4.916 L14.18,4.851 L14.039,4.793 L13.896,4.742 L13.751,4.699 L13.603,4.663 L13.454,4.636 L13.303,4.616 L13.152,4.604 L13,4.6 L12.848,4.604 L12.697,4.616 L12.546,4.636 L12.397,4.663 L12.249,4.699 L12.104,4.742 L11.961,4.793 L11.82,4.851 L11.683,4.916 L11.55,4.989 L11.421,5.068 L11.295,5.154 L11.175,5.246 L11.06,5.345 L10.949,5.449 L10.845,5.56 L10.746,5.675 L10.654,5.795 L10.568,5.921 L10.489,6.05 L10.416,6.183 L10.351,6.32 L10.293,6.461 L10.242,6.604 L10.199,6.749 L10.163,6.897 L10.136,7.046 L10.116,7.197 L10.104,7.348 L10.1,7.5 " />
			<path d="M11.25,-7.5 L11.254,-7.382 L11.266,-7.264 L11.286,-7.148 L11.314,-7.033 L11.349,-6.92 L11.392,-6.81 L11.442,-6.703 L11.499,-6.6 L11.564,-6.5 L11.634,-6.406 L11.711,-6.316 L11.794,-6.232 L11.883,-6.153 L11.976,-6.081 L12.074,-6.015 L12.177,-5.956 L12.283,-5.904 L12.392,-5.859 L12.504,-5.822 L12.619,-5.792 L12.735,-5.77 L12.852,-5.756 L12.97,-5.75 L13.089,-5.752 L13.206,-5.762 L13.323,-5.78 L13.439,-5.806 L13.552,-5.839 L13.663,-5.88 L13.771,-5.929 L13.875,-5.984 L13.975,-6.047 L14.071,-6.116 L14.162,-6.192 L14.248,-6.273 L14.328,-6.36 L14.402,-6.452 L14.469,-6.549 L14.53,-6.651 L14.584,-6.756 L14.631,-6.865 L14.67,-6.976 L14.701,-7.09 L14.725,-7.206 L14.741,-7.323 L14.749,-7.441 L14.749,-7.559 L14.741,-7.677 L14.725,-7.794 L14.701,-7.91 L14.67,-8.024 L14.631,-8.135 L14.584,-8.244 L14.53,-8.349 L14.469,-8.451 L14.402,-8.548 L14.328,-8.64 L14.248,-8.727 L14.162,-8.808 L14.071,-8.884 L13.975,-8.953 L13.875,-9.016 L13.771,-9.071 L13.663,-9.12 L13.552,-9.161 L13.439,-9.194 L13.323,-9.22 L13.206,-9.238 L13.089,-9.248 L12.97,-9.25 L12.852,-9.244 L12.735,-9.23 L12.619,-9.208 L12.504,-9.178 L12.392,-9.141 L12.283,-9.096 L12.177,-9.044 L12.074,-8.985 L11.976,-8.919 L11.883,-8.847 L11.794,-8.768 L11.711,-8.684 L11.634,-8.594 L11.564,-8.5 L11.499,-8.4 L11.442,-8.297 L11.392,-8.19 L11.349,-8.08 L11.314,-7.967 L11.286,-7.852 L11.266,-7.736 L11.254,-7.618 L11.25,-7.5 " />
			<path d="M11.25,7.5 L11.254,7.618 L11.266,7.736 L11.286,7.852 L11.314,7.967 L11.349,8.08 L11.392,8.19 L11.442,8.297 L11.499,8.4 L11.564,8.5 L11.634,8.594 L11.711,8.684 L11.794,8.768 L11.883,8.847 L11.976,8.919 L12.074,8.985 L12.177,9.044 L12.283,9.096 L12.392,9.141 L12.504,9.178 L12.619,9.208 L12.735,9.23 L12.852,9.244 L12.97,9.25 L13.089,9.248 L13.206,9.238 L13.323,9.22 L13.439,9.194 L13.552,9.161 L13.663,9.12 L13.771,9.071 L13.875,9.016 L13.975,8.953 L14.071,8.884 L14.162,8.808 L14.248,8.727 L14.328,8.64 L14.402,8.548 L14.469,8.451 L14.53,8.349 L14.584,8.244 L14.631,8.135 L14.67,8.024 L14.701,7.91 L14.725,7.794 L14.741,7.677 L14.749,7.559 L14.749,7.441 L14.741,7.323 L14.725,7.206 L14.701,7.09 L14.67,6.976 L14.631,6.865 L14.584,6.756 L14.53,6.651 L14.469,6.549 L14.402,6.452 L14.328,6.36 L14.248,6.273 L14.162,6.192 L14.071,6.116 L13.975,6.047 L13.875,5.984 L13.771,5.929 L13.663,5.88 L13.552,5.839 L13.439,5.806 L13.323,5.78 L13.206,5.762 L13.089,5.752 L12.97,5.75 L12.852,5.756 L12.735,5.77 L12.619,5.792 L12.504,5.822 L12.392,5.859 L12.283,5.904 L12.177,5.956 L12.074,6.015 L11.976,6.081 L11.883,6.153 L11.794,6.232 L11.711,6.316 L11.634,6.406 L11.564,6.5 L11.499,6.6 L11.442,6.703 L11.392,6.81 L11.349,6.92 L11.314,7.033 L11.286,7.148 L11.266,7.264 L11.254,7.382 L11.25,7.5 " />
			<path d="M3.873,4.875 L3.873,4.95 " />
			<path d="M-2.449e-16,4.875 L-0.448,4.875 L-0.89,4.875 L-1.321,4.875 L-1.736,4.875 L-2.128,4.875 L-2.494,4.875 L-2.828,4.875 L-3.127,4.875 L-3.387,4.875 L-3.604,4.875 L-3.776,4.875 L-3.9,4.875 L-3.975,4.875 L-4,4.875 " />
			<path d="M-4,4.875 L-3.9,4.875 L-3.604,4.875 L-3.127,4.875 L-2.494,4.875 L-1.736,4.875 L-0.89,4.875 L-2.449e-16,4.875 L0.89,4.875 L1.736,4.875 L2.494,4.875 L3.127,4.875 L3.604,4.875 L3.9,4.875 L4,4.875 " />
			<path d="M4,4.875 L3.999,4.875 L3.997,4.875 L3.994,4.875 L3.99,4.875 L3.984,4.875 L3.977,4.875 L3.968,4.875 L3.958,4.875 L3.947,4.875 L3.935,4.875 L3.921,4.875 L3.907,4.875 L3.89,4.875 L3.873,4.875 " />
			<path d="M0,4.875 L0,4.95 " />
			<path d="M0,4.875 L0,4.95 " />
			<path d="M0,4.875 L3.873,4.875 " />
			<path d="M3.873,-4.875 L3.89,-4.875 L3.907,-4.875 L3.921,-4.875 L3.935,-4.875 L3.947,-4.875 L3.958,-4.875 L3.968,-4.875 L3.977,-4.875 L3.984,-4.875 L3.99,-4.875 L3.994,-4.875 L3.997,-4.875 L3.999,-4.875 L4,-4.875 " />
			<path d="M4,-4.875 L3.9,-4.875 L3.604,-4.875 L3.127,-4.875 L2.494,-4.875 L1.736,-4.875 L0.89,-4.875 L2.442e-15,-4.875 L-0.89,-4.875 L-1.736,-4.875 L-2.494,-4.875 L-3.127,-4.875 L-3.604,-4.875 L-3.9,-4.875 L-4,-4.875 " />
			<path d="M-4,-4.875 L-3.975,-4.875 L-3.9,-4.875 L-3.776,-4.875 L-3.604,-4.875 L-3.387,-4.875 L-3.127,-4.875 L-2.828,-4.875 L-2.494,-4.875 L-2.128,-4.875 L-1.736,-4.875 L-1.321,-4.875 L-0.89,-4.875 L-0.448,-4.875 L-3.575e-14,-4.875 " />
			<path d="M3.873,-4.875 L3.873,-4.95 " />
			<path d="M0,-4.875 L0,-4.95 " />
			<path d="M3.873,-4.875 L0,-4.875 " />
			<path d="M0,-4.95 L0,-4.875 " />
			<path d="M-5,-5.1 L-5,-15 " />
			<path d="M3.85,-4.875 L3.85,-4.95 " />
			<path d="M-5,15 L-5,5.1 " />
			<path d="M3.85,4.875 L3.85,4.95 " />
			<path d="M5,4.95 L5,-4.95 " />
			<path d="M4,4.875 L4,4.95 " />
			<path d="M-4,4.875 L-4,4.95 " />
			<path d="M-4,-4.875 L-4,-4.95 " />
			<path d="M4,-4.875 L4,-4.95 " />

       </g>

       <!-- solid lines -->
       <g  stroke="rgb(0,0,0)" fill="none">
			<path d="M-5.3,-5.1 L-4.441e-16,-5.1 " />
			<path d="M0,-5.1 L0.56,-5.1 L1.113,-5.1 L1.651,-5.1 L2.169,-5.1 L2.66,-5.1 L3.117,-5.1 L3.536,-5.1 L3.909,-5.1 L4.234,-5.1 L4.505,-5.1 L4.719,-5.1 L4.875,-5.1 L4.969,-5.1 L5,-5.1 " />
			<path d="M3.85,-5.025 L3.753,-5.025 L3.469,-5.025 L3.01,-5.025 L2.4,-5.025 L1.67,-5.025 L0.857,-5.025 L7.072e-16,-5.025 L-0.857,-5.025 L-1.67,-5.025 L-2.4,-5.025 L-3.01,-5.025 L-3.469,-5.025 L-3.753,-5.025 L-3.85,-5.025 " />
			<path d="M-3.85,-5.025 L-3.775,-5.1 " />
			<path d="M-5.3,-5.1 L-5.3,5.1 " />
			<path d="M0,-15 L0,-5.1 " />
			<path d="M0,-15 L-20,-15 " />
			<path d="M-20,-15 L-20,15 " />
			<path d="M0,15 L-20,15 " />
			<path d="M-5.3,5.1 L-4.441e-16,5.1 " />
			<path d="M0,5.1 L0,15 " />
			<path d="M-14.75,-7.5 L-14.746,-7.618 L-14.734,-7.736 L-14.714,-7.852 L-14.686,-7.967 L-14.651,-8.08 L-14.608,-8.19 L-14.558,-8.297 L-14.501,-8.4 L-14.436,-8.5 L-14.366,-8.594 L-14.289,-8.684 L-14.206,-8.768 L-14.117,-8.847 L-14.024,-8.919 L-13.926,-8.985 L-13.823,-9.044 L-13.717,-9.096 L-13.608,-9.141 L-13.496,-9.178 L-13.381,-9.208 L-13.265,-9.23 L-13.148,-9.244 L-13.03,-9.25 L-12.911,-9.248 L-12.794,-9.238 L-12.677,-9.22 L-12.561,-9.194 L-12.448,-9.161 L-12.337,-9.12 L-12.229,-9.071 L-12.125,-9.016 L-12.025,-8.953 L-11.929,-8.884 L-11.838,-8.808 L-11.752,-8.727 L-11.672,-8.64 L-11.598,-8.548 L-11.531,-8.451 L-11.47,-8.349 L-11.416,-8.244 L-11.369,-8.135 L-11.33,-8.024 L-11.299,-7.91 L-11.275,-7.794 L-11.259,-7.677 L-11.251,-7.559 L-11.251,-7.441 L-11.259,-7.323 L-11.275,-7.206 L-11.299,-7.09 L-11.33,-6.976 L-11.369,-6.865 L-11.416,-6.756 L-11.47,-6.651 L-11.531,-6.549 L-11.598,-6.452 L-11.672,-6.36 L-11.752,-6.273 L-11.838,-6.192 L-11.929,-6.116 L-12.025,-6.047 L-12.125,-5.984 L-12.229,-5.929 L-12.337,-5.88 L-12.448,-5.839 L-12.561,-5.806 L-12.677,-5.78 L-12.794,-5.762 L-12.911,-5.752 L-13.03,-5.75 L-13.148,-5.756 L-13.265,-5.77 L-13.381,-5.792 L-13.496,-5.822 L-13.608,-5.859 L-13.717,-5.904 L-13.823,-5.956 L-13.926,-6.015 L-14.024,-6.081 L-14.117,-6.153 L-14.206,-6.232 L-14.289,-6.316 L-14.366,-6.406 L-14.436,-6.5 L-14.501,-6.6 L-14.558,-6.703 L-14.608,-6.81 L-14.651,-6.92 L-14.686,-7.033 L-14.714,-7.148 L-14.734,-7.264 L-14.746,-7.382 L-14.75,-7.5 " />
			<path d="M-14.75,7.5 L-14.746,7.382 L-14.734,7.264 L-14.714,7.148 L-14.686,7.033 L-14.651,6.92 L-14.608,6.81 L-14.558,6.703 L-14.501,6.6 L-14.436,6.5 L-14.366,6.406 L-14.289,6.316 L-14.206,6.232 L-14.117,6.153 L-14.024,6.081 L-13.926,6.015 L-13.823,5.956 L-13.717,5.904 L-13.608,5.859 L-13.496,5.822 L-13.381,5.792 L-13.265,5.77 L-13.148,5.756 L-13.03,5.75 L-12.911,5.752 L-12.794,5.762 L-12.677,5.78 L-12.561,5.806 L-12.448,5.839 L-12.337,5.88 L-12.229,5.929 L-12.125,5.984 L-12.025,6.047 L-11.929,6.116 L-11.838,6.192 L-11.752,6.273 L-11.672,6.36 L-11.598,6.452 L-11.531,6.549 L-11.47,6.651 L-11.416,6.756 L-11.369,6.865 L-11.33,6.976 L-11.299,7.09 L-11.275,7.206 L-11.259,7.323 L-11.251,7.441 L-11.251,7.559 L-11.259,7.677 L-11.275,7.794 L-11.299,7.91 L-11.33,8.024 L-11.369,8.135 L-11.416,8.244 L-11.47,8.349 L-11.531,8.451 L-11.598,8.548 L-11.672,8.64 L-11.752,8.727 L-11.838,8.808 L-11.929,8.884 L-12.025,8.953 L-12.125,9.016 L-12.229,9.071 L-12.337,9.12 L-12.448,9.161 L-12.561,9.194 L-12.677,9.22 L-12.794,9.238 L-12.911,9.248 L-13.03,9.25 L-13.148,9.244 L-13.265,9.23 L-13.381,9.208 L-13.496,9.178 L-13.608,9.141 L-13.717,9.096 L-13.823,9.044 L-13.926,8.985 L-14.024,8.919 L-14.117,8.847 L-14.206,8.768 L-14.289,8.684 L-14.366,8.594 L-14.436,8.5 L-14.501,8.4 L-14.558,8.297 L-14.608,8.19 L-14.651,8.08 L-14.686,7.967 L-14.714,7.852 L-14.734,7.736 L-14.746,7.618 L-14.75,7.5 " />
			<path d="M0,-15 L0.56,-15 L1.113,-15 L1.651,-15 L2.169,-15 L2.66,-15 L3.117,-15 L3.536,-15 L3.909,-15 L4.234,-15 L4.505,-15 L4.719,-15 L4.875,-15 L4.969,-15 L5,-15 " />
			<path d="M-3.85,-5.025 L-3.85,-4.95 " />
			<path d="M5,5.1 L4.969,5.1 L4.875,5.1 L4.719,5.1 L4.505,5.1 L4.234,5.1 L3.909,5.1 L3.536,5.1 L3.117,5.1 L2.66,5.1 L2.169,5.1 L1.651,5.1 L1.113,5.1 L0.56,5.1 L4.685e-14,5.1 " />
			<path d="M5,15 L4.969,15 L4.875,15 L4.719,15 L4.505,15 L4.234,15 L3.909,15 L3.536,15 L3.117,15 L2.66,15 L2.169,15 L1.651,15 L1.113,15 L0.56,15 L4.563e-14,15 " />
			<path d="M-3.85,5.025 L-3.753,5.025 L-3.469,5.025 L-3.01,5.025 L-2.4,5.025 L-1.67,5.025 L-0.857,5.025 L6.191e-16,5.025 L0.857,5.025 L1.67,5.025 L2.4,5.025 L3.01,5.025 L3.469,5.025 L3.753,5.025 L3.85,5.025 " />
			<path d="M-3.85,5.025 L-3.775,5.1 " />
			<path d="M-3.85,5.025 L-3.85,4.95 " />
			<path d="M20,-15 L20,15 " />
			<path d="M20,-15 L5.3,-15 " />
			<path d="M20,15 L5.3,15 " />
			<path d="M5.3,4.95 L5.3,15 " />
			<path d="M0,4.95 L5.3,4.95 " />
			<path d="M5.3,-15 L5.3,-4.95 " />
			<path d="M0,-4.95 L0,4.95 " />
			<path d="M0,-4.95 L5.3,-4.95 " />
			<path d="M11.25,-7.5 L11.254,-7.618 L11.266,-7.736 L11.286,-7.852 L11.314,-7.967 L11.349,-8.08 L11.392,-8.19 L11.442,-8.297 L11.499,-8.4 L11.564,-8.5 L11.634,-8.594 L11.711,-8.684 L11.794,-8.768 L11.883,-8.847 L11.976,-8.919 L12.074,-8.985 L12.177,-9.044 L12.283,-9.096 L12.392,-9.141 L12.504,-9.178 L12.619,-9.208 L12.735,-9.23 L12.852,-9.244 L12.97,-9.25 L13.089,-9.248 L13.206,-9.238 L13.323,-9.22 L13.439,-9.194 L13.552,-9.161 L13.663,-9.12 L13.771,-9.071 L13.875,-9.016 L13.975,-8.953 L14.071,-8.884 L14.162,-8.808 L14.248,-8.727 L14.328,-8.64 L14.402,-8.548 L14.469,-8.451 L14.53,-8.349 L14.584,-8.244 L14.631,-8.135 L14.67,-8.024 L14.701,-7.91 L14.725,-7.794 L14.741,-7.677 L14.749,-7.559 L14.749,-7.441 L14.741,-7.323 L14.725,-7.206 L14.701,-7.09 L14.67,-6.976 L14.631,-6.865 L14.584,-6.756 L14.53,-6.651 L14.469,-6.549 L14.402,-6.452 L14.328,-6.36 L14.248,-6.273 L14.162,-6.192 L14.071,-6.116 L13.975,-6.047 L13.875,-5.984 L13.771,-5.929 L13.663,-5.88 L13.552,-5.839 L13.439,-5.806 L13.323,-5.78 L13.206,-5.762 L13.089,-5.752 L12.97,-5.75 L12.852,-5.756 L12.735,-5.77 L12.619,-5.792 L12.504,-5.822 L12.392,-5.859 L12.283,-5.904 L12.177,-5.956 L12.074,-6.015 L11.976,-6.081 L11.883,-6.153 L11.794,-6.232 L11.711,-6.316 L11.634,-6.406 L11.564,-6.5 L11.499,-6.6 L11.442,-6.703 L11.392,-6.81 L11.349,-6.92 L11.314,-7.033 L11.286,-7.148 L11.266,-7.264 L11.254,-7.382 L11.25,-7.5 " />
			<path d="M11.25,7.5 L11.254,7.382 L11.266,7.264 L11.286,7.148 L11.314,7.033 L11.349,6.92 L11.392,6.81 L11.442,6.703 L11.499,6.6 L11.564,6.5 L11.634,6.406 L11.711,6.316 L11.794,6.232 L11.883,6.153 L11.976,6.081 L12.074,6.015 L12.177,5.956 L12.283,5.904 L12.392,5.859 L12.504,5.822 L12.619,5.792 L12.735,5.77 L12.852,5.756 L12.97,5.75 L13.089,5.752 L13.206,5.762 L13.323,5.78 L13.439,5.806 L13.552,5.839 L13.663,5.88 L13.771,5.929 L13.875,5.984 L13.975,6.047 L14.071,6.116 L14.162,6.192 L14.248,6.273 L14.328,6.36 L14.402,6.452 L14.469,6.549 L14.53,6.651 L14.584,6.756 L14.631,6.865 L14.67,6.976 L14.701,7.09 L14.725,7.206 L14.741,7.323 L14.749,7.441 L14.749,7.559 L14.741,7.677 L14.725,7.794 L14.701,7.91 L14.67,8.024 L14.631,8.135 L14.584,8.244 L14.53,8.349 L14.469,8.451 L14.402,8.548 L14.328,8.64 L14.248,8.727 L14.162,8.808 L14.071,8.884 L13.975,8.953 L13.875,9.016 L13.771,9.071 L13.663,9.12 L13.552,9.161 L13.439,9.194 L13.323,9.22 L13.206,9.238 L13.089,9.248 L12.97,9.25 L12.852,9.244 L12.735,9.23 L12.619,9.208 L12.504,9.178 L12.392,9.141 L12.283,9.096 L12.177,9.044 L12.074,8.985 L11.976,8.919 L11.883,8.847 L11.794,8.768 L11.711,8.684 L11.634,8.594 L11.564,8.5 L11.499,8.4 L11.442,8.297 L11.392,8.19 L11.349,8.08 L11.314,7.967 L11.286,7.852 L11.266,7.736 L11.254,7.618 L11.25,7.5 " />
			<path d="M-5,4.95 L-4.969,4.95 L-4.875,4.95 L-4.719,4.95 L-4.505,4.95 L-4.234,4.95 L-3.909,4.95 L-3.536,4.95 L-3.117,4.95 L-2.66,4.95 L-2.169,4.95 L-1.651,4.95 L-1.113,4.95 L-0.56,4.95 L-4.619e-14,4.95 " />
			<path d="M-5,-4.95 L-4.969,-4.95 L-4.875,-4.95 L-4.719,-4.95 L-4.505,-4.95 L-4.234,-4.95 L-3.909,-4.95 L-3.536,-4.95 L-3.117,-4.95 L-2.66,-4.95 L-2.169,-4.95 L-1.651,-4.95 L-1.113,-4.95 L-0.56,-4.95 L-4.619e-14,-4.95 " />
			<path d="M3.775,-5.1 L3.85,-5.025 " />
			<path d="M5,-5.1 L5,-15 " />
			<path d="M3.85,-4.95 L3.85,-5.025 " />
			<path d="M5,15 L5,5.1 " />
			<path d="M3.775,5.1 L3.85,5.025 " />
			<path d="M3.85,4.95 L3.85,5.025 " />
			<path d="M-5,4.95 L-5,-4.95 " />

       </g>
    </g>
    
</svg>
